<svg xmlns="http://www.w3.org/2000/svg" width="223.996" height="72.792" viewBox="0 0 223.996 72.792">
  <g id="Group_14" data-name="Group 14" transform="translate(-637 -283.17)">
    <g id="Group_3" data-name="Group 3" transform="translate(673.531 306.87)">
      <g id="Group_2" data-name="Group 2">
        <path id="Path_1" data-name="Path 1" d="M201.621,274.743c.271-.914.643-1.727,1.727-1.727,1.118,0,1.524.847,1.761,1.727l6.536,22.929c.237.812-.677,1.693-1.626,1.693a2.018,2.018,0,0,1-1.829-1.693l-1.253-4.064h-7.214l-1.287,4.064a2.018,2.018,0,0,1-1.829,1.693c-.948,0-1.863-.881-1.626-1.693Zm1.761,6.3h-.068l-2.642,9.178h5.317Z" transform="translate(-194.944 -273.015)"/>
        <path id="Path_2" data-name="Path 2" d="M261.79,297.672a1.693,1.693,0,0,1-3.387,0V273.016h11.244a4.98,4.98,0,0,1,3.895,1.389c1.456,1.355,1.592,2.608,1.592,4.436v4.606a5.57,5.57,0,0,1-1.389,4.335c-1.321,1.49-2.71,1.626-4.538,1.626H261.79Zm0-11.651h7.519c2,0,2.439-.508,2.439-2.439v-4.742c0-1.931-.44-2.438-2.439-2.438H261.79Z" transform="translate(-233.979 -273.015)"/>
        <path id="Path_3" data-name="Path 3" d="M336.8,295.978a1.693,1.693,0,0,1,0,3.387H321.762V274.708a1.693,1.693,0,1,1,3.387,0v21.269H336.8Z" transform="translate(-272.953 -273.015)"/>
        <path id="Path_4" data-name="Path 4" d="M400.97,282.533a7.683,7.683,0,0,1,.88,3.76,8.28,8.28,0,0,1-1.117,4.03l-3.116,6.232a4.442,4.442,0,0,1-8.264,0l-3.116-6.232a8.275,8.275,0,0,1-1.118-4.03,7.684,7.684,0,0,1,.881-3.76l3.387-6.74a4.412,4.412,0,0,1,8.2,0Zm-6.333-5.114c-.271-.542-.441-1.016-1.152-1.016s-.88.474-1.152,1.016l-3.048,6.13a5.256,5.256,0,0,0-.779,2.743,4.574,4.574,0,0,0,.576,2.235l3.251,6.436c.237.474.474,1.016,1.152,1.016s.914-.542,1.152-1.016l3.251-6.436a4.57,4.57,0,0,0,.576-2.235,5.253,5.253,0,0,0-.779-2.743Z" transform="translate(-311.926 -273.015)"/>
        <path id="Path_5" data-name="Path 5" d="M464.023,292.726a4.391,4.391,0,0,1,1.185,2.811c0,2.541-1.931,3.827-4.267,3.827h-7.451a5,5,0,0,1-3.42-1.084,4.281,4.281,0,0,1-1.592-3.15,1.827,1.827,0,0,1,1.8-2.032,1.622,1.622,0,0,1,1.591,1.727c0,1.016.542,1.151,1.491,1.151h7.35c.271,0,1.117.1,1.117-.406,0-.271-.473-.779-.61-.983L449.6,279.652a4.069,4.069,0,0,1-1.118-2.777,3.774,3.774,0,0,1,1.8-3.251,4.532,4.532,0,0,1,2.811-.61h7.18a4.8,4.8,0,0,1,3.353,1.118,4.611,4.611,0,0,1,1.592,3.218,1.728,1.728,0,0,1-1.761,1.964,1.5,1.5,0,0,1-1.626-1.592c0-1.152-.575-1.321-1.625-1.321h-7.18c-.372,0-1.152-.1-1.152.474,0,.3.373.711.508.914Z" transform="translate(-350.899 -273.014)"/>
        <path id="Path_6" data-name="Path 6" d="M511.838,273.016h9.483c4.979,0,7.248,3.048,7.248,7.823a6.555,6.555,0,0,1-2.236,5.351c1.931,1.829,2.236,3.624,2.236,6.13,0,4.437-2.947,7.045-7.248,7.045h-9.483Zm3.387,11.481h6.1c2.439,0,3.861-1.084,3.861-3.658,0-2.845-.779-4.436-3.861-4.436h-6.1Zm0,11.481h6.1c2.439,0,3.861-1.083,3.861-3.658,0-2.845-.779-4.436-3.861-4.436h-6.1Z" transform="translate(-389.873 -273.015)"/>
        <path id="Path_7" data-name="Path 7" d="M585.255,295.978h4.979a1.693,1.693,0,0,1,0,3.387H576.889a1.693,1.693,0,1,1,0-3.387h4.979V276.4h-4.979a1.693,1.693,0,1,1,0-3.387h13.344a1.693,1.693,0,0,1,0,3.387h-4.979Z" transform="translate(-428.846 -273.015)"/>
        <path id="Path_8" data-name="Path 8" d="M655.285,275.217l-12.158,20.761h10.465a1.693,1.693,0,0,1,0,3.387H638.554v-2.134L650.679,276.4H640.247a1.693,1.693,0,1,1,0-3.387h15.037v2.2Z" transform="translate(-467.82 -273.015)"/>
      </g>
    </g>
    <path id="Path_9" data-name="Path 9" d="M125.485,238.379c-5.169,4.909-6.892,10.833-6.892,14.308,0,11.43,10.482,20.156,22.01,20.156,3.932,0,9.947-1.357,14.051-4.6h-7.977c-3.189,0-6.258.01-9.078.01a17.446,17.446,0,0,1-12.428-7.742c-1.984-2.395-3.551-6.363-3.238-12.42.2-3.871,1.358-6.475,3.551-9.713Zm-25.456,10c0,20.306,15.773,35.848,36.944,35.848,12.667,0,23.994-8.146,28.931-15.907h-6.446c-3.084,4.523-12.981,10.877-22.307,10.908-12.371.042-22.527-5.862-26.914-15.576-1.357-4.073-2.089-5.535-2.089-10.757,0-13.525,8.982-25.065,22.558-25.169a22.114,22.114,0,0,1,6.058.835,34.817,34.817,0,0,1,4.282-.73,25.914,25.914,0,0,1,4.6,0h.1c-4.8-2.82-8.1-4.7-15.143-4.7-10.966,0-18.9,6.266-24.438,16.605,3.769-13.62,15.77-23.08,29.136-23.173,11.153-.078,18.277,4.166,24.126,10.85h6.615c-7.425-9.817-16.869-15.979-30.74-15.979-18.381,0-35.273,15.248-35.273,36.944Z" transform="translate(536.971 71.735)" fill="#e64c3c"/>
  </g>
</svg>
