<svg xmlns="http://www.w3.org/2000/svg" width="18.898" height="22" viewBox="0 0 18.898 22">
  <g id="money-bag" transform="translate(-33.9)">
    <g id="Group_28" data-name="Group 28" transform="translate(33.9)">
      <g id="Group_27" data-name="Group 27" transform="translate(0)">
        <path id="Path_19" data-name="Path 19" d="M190.283,217.066h-1.258a.828.828,0,1,1,0-1.656h2.214a.549.549,0,0,0,0-1.1H190.2v-.764a.549.549,0,0,0-1.1,0v.764h-.078a1.926,1.926,0,0,0,0,3.851h1.258a.828.828,0,0,1,0,1.656h-2.255a.549.549,0,1,0,0,1.1h1.079v.782a.549.549,0,1,0,1.1,0v-.782h.105a1.926,1.926,0,0,0-.027-3.851Z" transform="translate(-180.093 -203.258)" fill="#03a9f4"/>
        <path id="Path_20" data-name="Path 20" d="M51.711,12.564A15.733,15.733,0,0,0,49.332,8.75a17.719,17.719,0,0,0-3.046-2.9l2.333-4.327a.542.542,0,0,0-.1-.649A2.734,2.734,0,0,0,46.561,0a4.6,4.6,0,0,0-1.775.467A3.359,3.359,0,0,1,43.67.8a.7.7,0,0,1-.261-.046A8.128,8.128,0,0,0,40.674.11,3.707,3.707,0,0,0,37.92,1.4a.552.552,0,0,0-.064.686l2.516,3.8A18.016,18.016,0,0,0,37.367,8.75a15.875,15.875,0,0,0-2.378,3.815A12.971,12.971,0,0,0,33.9,17.742,4.265,4.265,0,0,0,38.158,22H48.541A4.265,4.265,0,0,0,52.8,17.742,12.971,12.971,0,0,0,51.711,12.564ZM39.027,1.857A2.393,2.393,0,0,1,40.674,1.2a7.127,7.127,0,0,1,2.356.581,1.858,1.858,0,0,0,.636.11A4.051,4.051,0,0,0,45.2,1.473a3.709,3.709,0,0,1,1.354-.384,1.452,1.452,0,0,1,.883.3l-2.2,4.08H41.419ZM48.541,20.9H38.158A3.164,3.164,0,0,1,35,17.742a12.789,12.789,0,0,1,3.188-8.265,16.79,16.79,0,0,1,3.106-2.909H45.4A16.474,16.474,0,0,1,48.5,9.477a12.756,12.756,0,0,1,3.188,8.265A3.151,3.151,0,0,1,48.541,20.9Z" transform="translate(-33.9)" fill="#03a9f4"/>
      </g>
    </g>
  </g>
</svg>
