<svg xmlns="http://www.w3.org/2000/svg" width="22" height="23.576" viewBox="0 0 22 23.576">
  <path id="settings" d="M113.3,72.514H100.143a3.808,3.808,0,0,0-6.737,0H92.29a.489.489,0,0,0-.49.49v2.568a.489.489,0,0,0,.49.49h1.116a3.81,3.81,0,0,0,6.737,0h13.164a.489.489,0,0,0,.49-.49V73A.493.493,0,0,0,113.3,72.514ZM97.556,76.065a1.94,1.94,0,1,1-.779-3.716,1.965,1.965,0,0,1,.784.164A1.938,1.938,0,0,1,98.72,74.29,1.959,1.959,0,0,1,97.556,76.065ZM113.3,64.532h-3.829a3.806,3.806,0,0,0-6.734,0H92.29a.489.489,0,0,0-.49.49V67.59a.489.489,0,0,0,.49.49h10.45a3.81,3.81,0,0,0,6.737,0h3.829a.489.489,0,0,0,.49-.49V65.022A.493.493,0,0,0,113.3,64.532Zm-6.416,3.549a1.941,1.941,0,1,1-.781-3.716,1.939,1.939,0,0,1,.781,3.716ZM113.3,80.5h-6.287a3.808,3.808,0,0,0-6.737,0H92.29a.489.489,0,0,0-.49.49v2.568a.489.489,0,0,0,.49.49h8a3.81,3.81,0,0,0,6.737,0h6.287a.489.489,0,0,0,.49-.49V80.989A.5.5,0,0,0,113.3,80.5ZM104.43,84.05a1.94,1.94,0,1,1-.779-3.716,1.965,1.965,0,0,1,.784.164,1.938,1.938,0,0,1-.005,3.552Z" transform="translate(-91.8 -62.5)" fill="#fff"/>
</svg>
