<?xml version="1.0" ?><!DOCTYPE svg  PUBLIC '-//W3C//DTD SVG 1.1//EN'  'http://www.w3.org/Graphics/SVG/1.1/DTD/svg11.dtd'><svg enable-background="new 0 0 48 48" height="48px" version="1.1" viewBox="0 0 48 48" width="48px" xml:space="preserve" xmlns="http://www.w3.org/2000/svg" xmlns:xlink="http://www.w3.org/1999/xlink"><g id="Guides"/><g id="Layer_3"><g><polygon fill="#241F20" points="43.101,0 39.21,0 8.825,0 4.899,0 3.812,0 3.812,12.652 8.825,12.652 8.825,5.047 39.21,5.047     39.21,12.652 44.188,12.652 44.188,0   "/><path d="M25.038,22.761c-1.577-0.594-2.226-0.984-2.226-1.596c0-0.52,0.39-1.04,1.596-1.04    c1.336,0,2.192,0.427,2.673,0.632l0.538-2.098c-0.613-0.297-1.449-0.557-2.691-0.613v-1.633h-1.819v1.763    c-1.986,0.39-3.137,1.67-3.137,3.304c0,1.8,1.355,2.728,3.341,3.396c1.374,0.464,1.968,0.909,1.968,1.616    c0,0.741-0.724,1.148-1.783,1.148c-1.206,0-2.301-0.39-3.081-0.815l-0.556,2.172c0.705,0.407,1.911,0.742,3.155,0.798v1.762h1.819    v-1.893c2.133-0.37,3.303-1.781,3.303-3.433C28.139,24.561,27.247,23.541,25.038,22.761z" fill="#241F20"/><path d="M35.776,34.069v-5.496v-8.779v-1.998V8.018H12.224v8.517v3.259v8.779v2.208v4.315H5L24,48l19-12.903    h-7.224V34.069z M14.826,33.347v-1.789v-0.776v-2.208v-8.779v-3.259v-1.882c0.246,0.057,0.499,0.094,0.762,0.094    c1.858,0,3.365-1.506,3.365-3.365c0-0.241-0.028-0.475-0.076-0.701h10.245c-0.047,0.227-0.075,0.46-0.075,0.701    c0,1.858,1.507,3.365,3.364,3.365c0.165,0,0.324-0.025,0.481-0.048v3.098v1.998v8.779v1.896v2.832v1.796H14.826V33.347z" fill="#241F20"/></g></g></svg>