<svg xmlns="http://www.w3.org/2000/svg" width="19.826" height="19.826" viewBox="0 0 19.826 19.826">
  <g id="send-2" transform="translate(-2 -2)">
    <g id="Group_43" data-name="Group 43" transform="translate(2 2)">
      <path id="Path_34" data-name="Path 34" d="M21.693,2.132a.45.45,0,0,0-.488-.1L2.281,9.693a.451.451,0,0,0-.023.826L8.6,13.5l5.279-3.875a.225.225,0,0,1,.315.315l-3.875,5.279,2.986,6.345a.45.45,0,0,0,.408.258h.013a.452.452,0,0,0,.405-.282l7.66-18.924A.45.45,0,0,0,21.693,2.132Z" transform="translate(-2 -2)" fill="#263238"/>
    </g>
  </g>
</svg>
