<svg xmlns="http://www.w3.org/2000/svg" width="25" height="17.04" viewBox="0 0 25 17.04">
  <path id="users-alt-5" d="M18.555,171.065a15.8,15.8,0,0,0-2.275-1.107c-.142-.063-.285-.118-.425-.183a1.242,1.242,0,0,1-.67-1.727,6.341,6.341,0,0,0,.452-1.435c.015-.1.037-.183.18-.17a.448.448,0,0,0,.477-.368c.135-.41.263-.82.383-1.235a.984.984,0,0,0,.017-.482c-.033-.162-.115-.31-.288-.32-.195-.013-.222-.1-.207-.263.025-.275.032-.552.067-.825a3.45,3.45,0,0,0-2.925-3.9,1,1,0,0,1-.16-.052H12.45c-.1.09-.232.057-.347.085a3.475,3.475,0,0,0-2.7,3.96,4.5,4.5,0,0,1,.06.8c0,.1-.022.167-.145.18-.272.033-.355.225-.367.465a3.151,3.151,0,0,0,.217.945c.045.173.118.338.163.51.078.292.21.515.557.5.1-.005.117.063.132.14a6.747,6.747,0,0,0,.485,1.528,1.388,1.388,0,0,1-.078,1.2.94.94,0,0,1-.543.425c-.727.34-1.485.617-2.2.99a5.614,5.614,0,0,0-.665.4,1.751,1.751,0,0,0-.713.96,5.078,5.078,0,0,0-.162,2.433,1.328,1.328,0,0,0,.98,1.072,8.59,8.59,0,0,0,1.655.288c.752.072,1.507.1,2.263.122.08,0,.16.022.24.033h3.028c.632-.033,1.265-.065,1.9-.1a12.178,12.178,0,0,0,2.148-.285,1.358,1.358,0,0,0,1.175-1.38,6.72,6.72,0,0,0-.218-2.2A1.706,1.706,0,0,0,18.555,171.065Zm-11.42-.7c.405-.207.81-.415,1.23-.6.083-.035.185-.047.252-.15-.307-.135-.608-.258-.9-.4a.938.938,0,0,1-.543-1.277,7.008,7.008,0,0,0,.375-1.205c.018-.1.055-.14.158-.14a.363.363,0,0,0,.365-.3c.105-.325.21-.65.307-.975a.7.7,0,0,0,0-.387c-.042-.17-.172-.3-.337-.233-.29.113-.262-.052-.238-.228a8.055,8.055,0,0,0,.09-1.067,2.554,2.554,0,1,0-5.108.033,8.4,8.4,0,0,0,.095,1.092c.013.092.053.237-.13.212-.38-.05-.51.057-.46.435a5.564,5.564,0,0,0,.36,1.21.3.3,0,0,0,.28.205.189.189,0,0,1,.21.18,6.567,6.567,0,0,0,.358,1.135.966.966,0,0,1-.565,1.33c-.555.25-1.115.492-1.668.747a1.919,1.919,0,0,0-1.213,1.713A.406.406,0,0,1,0,171.94v.83c.05.028.048.08.055.128a1.084,1.084,0,0,0,.773.915,4.45,4.45,0,0,0,.785.175,36.56,36.56,0,0,0,3.7.188c.168.005.213-.058.2-.213a5.848,5.848,0,0,1,.047-1.145A2.934,2.934,0,0,1,7.135,170.368Zm17.665.967a1.209,1.209,0,0,0-.613-.807c-.54-.32-1.132-.527-1.7-.792a.866.866,0,0,1-.457-1.208.321.321,0,0,1,.277-.225,4.981,4.981,0,0,0,1.313-.355,1.842,1.842,0,0,0,.865-.648c.087-.135.115-.235-.088-.31a1.33,1.33,0,0,1-.613-.465,3.031,3.031,0,0,1-.5-1.53,6.964,6.964,0,0,0-.268-1.582,2.742,2.742,0,0,0-3.732-1.528,3.216,3.216,0,0,0-1.655,2.45,9.6,9.6,0,0,1-.433,1.945,1.047,1.047,0,0,1-.83.708c-.187.027-.182.118-.107.25a1.4,1.4,0,0,0,.555.533,5.035,5.035,0,0,0,1.735.543c.078.013.16,0,.21.092a.89.89,0,0,1-.337,1.307c-.2.075-.393.175-.6.27a.691.691,0,0,0,.082.063c.125.063.25.123.372.185a2.729,2.729,0,0,1,1.587,1.71,7,7,0,0,1,.245,1.758c0,.245.075.3.3.287.448-.025.895-.015,1.343-.03a12.758,12.758,0,0,0,2.327-.215.955.955,0,0,0,.875-.815c0-.023.028-.04.042-.058v-.685C24.933,171.9,24.863,171.62,24.8,171.335Z" transform="translate(0 -159)" fill="#fff"/>
</svg>
