<?xml version="1.0" encoding="UTF-8"?>
<svg xmlns="http://www.w3.org/2000/svg" xmlns:xlink="http://www.w3.org/1999/xlink" width="16pt" height="16pt" viewBox="0 0 16 16" version="1.1">
<g id="surface1">
<path  d="M 7.199219 12 L 8.800781 12 L 8.800781 7.199219 L 7.199219 7.199219 Z M 8 0 C 3.582031 0 0 3.582031 0 8 C 0 12.417969 3.582031 16 8 16 C 12.417969 16 16 12.417969 16 8 C 16 3.582031 12.417969 0 8 0 Z M 8 14.398438 C 4.464844 14.398438 1.601562 11.535156 1.601562 8 C 1.601562 4.464844 4.464844 1.601562 8 1.601562 C 11.535156 1.601562 14.398438 4.464844 14.398438 8 C 14.394531 11.53125 11.53125 14.394531 8 14.398438 Z M 7.199219 5.601562 L 8.800781 5.601562 L 8.800781 4 L 7.199219 4 Z M 7.199219 5.601562 "/>
</g>
</svg>
