<svg width="20" height="20" viewBox="0 0 20 20" fill="none" xmlns="http://www.w3.org/2000/svg">
<path d="M19.6634 13.4137C19.4393 13.1894 19.1667 13.0771 18.8463 13.0771H13.2692L11.6346 14.7117C11.1698 15.1603 10.625 15.3848 10 15.3848C9.37513 15.3848 8.83013 15.1606 8.36541 14.7117L6.74281 13.0771H1.15383C0.833379 13.0771 0.560961 13.1895 0.336534 13.4137C0.11215 13.638 0 13.9104 0 14.2311V18.0771C0 18.3977 0.11215 18.6701 0.336534 18.8944C0.560918 19.1187 0.833337 19.2308 1.15383 19.2308H18.8463C19.1667 19.2308 19.4393 19.1187 19.6635 18.8944C19.8879 18.6701 20 18.3977 20 18.0771V14.2311C20 13.9104 19.8879 13.638 19.6634 13.4137ZM15.1565 17.4641C15.004 17.6164 14.8237 17.6925 14.6153 17.6925C14.407 17.6925 14.2269 17.6164 14.0745 17.4641C13.9223 17.3119 13.8463 17.1316 13.8463 16.9234C13.8463 16.7151 13.9223 16.5346 14.0745 16.3826C14.2269 16.2302 14.407 16.154 14.6153 16.154C14.8237 16.154 15.004 16.2302 15.1565 16.3826C15.3086 16.5346 15.3847 16.7151 15.3847 16.9234C15.3847 17.1316 15.3086 17.3119 15.1565 17.4641ZM18.2332 17.4641C18.081 17.6164 17.9007 17.6925 17.6923 17.6925C17.484 17.6925 17.3038 17.6164 17.1515 17.4641C16.9994 17.3119 16.9233 17.1316 16.9233 16.9234C16.9233 16.7151 16.9994 16.5346 17.1515 16.3826C17.3037 16.2302 17.4839 16.154 17.6923 16.154C17.9006 16.154 18.081 16.2302 18.2332 16.3826C18.3854 16.5346 18.4616 16.7151 18.4616 16.9234C18.4616 17.1316 18.3856 17.3119 18.2332 17.4641Z" fill="#7C7C7C"/>
<path d="M9.45889 13.6179C9.6032 13.77 9.78347 13.8461 9.99973 13.8461C10.2162 13.8461 10.3962 13.77 10.5406 13.6179L15.9252 8.23314C16.1736 8.0008 16.2298 7.72029 16.0935 7.39176C15.9575 7.07935 15.7211 6.92312 15.3844 6.92295H12.3074V1.53831C12.3074 1.33 12.2312 1.1497 12.0792 0.997469C11.9268 0.845199 11.7466 0.769043 11.5383 0.769043H8.46112C8.2529 0.769043 8.07259 0.845199 7.92028 0.997469C7.76809 1.1497 7.69194 1.32996 7.69194 1.53831V6.92299H4.61501C4.27831 6.92299 4.04205 7.07939 3.90582 7.3918C3.76968 7.72021 3.82571 8.00084 4.07417 8.23318L9.45889 13.6179Z" fill="#7C7C7C"/>
</svg>
