<svg xmlns="http://www.w3.org/2000/svg" width="30.586" height="30.586" viewBox="0 0 30.586 30.586">
  <g id="back" style="isolation: isolate">
    <g id="Group_556" data-name="Group 556">
      <path id="Path_422" data-name="Path 422" d="M15.293,0A15.293,15.293,0,1,0,30.586,15.293,15.293,15.293,0,0,0,15.293,0ZM20.5,25.853a1.092,1.092,0,0,1-1.541.111l-.032-.029L8.008,16.1a1.092,1.092,0,0,1,0-1.623L18.932,4.65a1.092,1.092,0,0,1,1.494,1.594l-.032.029-10.016,9.02,10.016,9.02A1.092,1.092,0,0,1,20.5,25.853Z" fill="#fff"/>
    </g>
  </g>
</svg>
