<svg xmlns="http://www.w3.org/2000/svg" width="26.37" height="26.37" viewBox="0 0 26.37 26.37">
  <path id="question-square" d="M86.691,62.5H64.676A2.175,2.175,0,0,0,62.5,64.676V86.694a2.175,2.175,0,0,0,2.176,2.176H86.694a2.182,2.182,0,0,0,2.176-2.176V64.676A2.187,2.187,0,0,0,86.691,62.5Zm-9.5,22.323a11.014,11.014,0,0,1-3.773,0,12.34,12.34,0,0,1-.154-1.871,12.562,12.562,0,0,1,.154-1.9,11.654,11.654,0,0,1,3.773,0,11.654,11.654,0,0,1,0,3.773ZM80.6,73.689a5.337,5.337,0,0,1-1.121,1.48,5.977,5.977,0,0,1-1.347.967c-.458.25-.838.434-1.121.554v2.338a10.886,10.886,0,0,1-1.73.151,8.728,8.728,0,0,1-1.609-.151V74.614a9.878,9.878,0,0,0,1.229-.292,4.791,4.791,0,0,0,1.184-.533,2.889,2.889,0,0,0,.88-.826,2.168,2.168,0,0,0,.347-1.251,1.963,1.963,0,0,0-.793-1.675,3.483,3.483,0,0,0-2.109-.576c-.359,0-.675.012-.958.033a4.339,4.339,0,0,0-.783.13c-.238.054-.488.13-.738.208s-.5.163-.783.271a8.417,8.417,0,0,1-.588-1.392,6.194,6.194,0,0,1-.283-1.489c.446-.151.859-.283,1.239-.392a8.086,8.086,0,0,1,1.1-.271,8.769,8.769,0,0,1,1.076-.142c.359-.021.75-.042,1.151-.042a6.784,6.784,0,0,1,4.653,1.4,4.883,4.883,0,0,1,1.567,3.839A4.323,4.323,0,0,1,80.6,73.689Z" transform="translate(-62.5 -62.5)" fill="#fff"/>
</svg>
