<svg xmlns="http://www.w3.org/2000/svg" width="25" height="22.4" viewBox="0 0 25 22.4">
  <path id="history" d="M87.313,117.391a10.575,10.575,0,0,0-4.132-6.892,11.2,11.2,0,0,0-17.844,6.652c-.094.437-.143.883-.217,1.363-.369-.4-.709-.766-1.052-1.137a.9.9,0,0,0-1.3-.109.878.878,0,0,0,.006,1.3q1.183,1.277,2.369,2.549a.9.9,0,0,0,1.486.054q1.243-1.153,2.483-2.309a1.675,1.675,0,0,0,.274-.311.86.86,0,0,0-.18-1.1.849.849,0,0,0-1.14,0c-.363.317-.711.649-1.069.974l-.08-.034c.054-.351.094-.7.169-1.052a9.421,9.421,0,0,1,18.633,1.909,9.039,9.039,0,0,1-3.009,6.958,9.187,9.187,0,0,1-8.795,2.223,9.076,9.076,0,0,1-4.217-2.38.881.881,0,1,0-1.212,1.263,10.959,10.959,0,0,0,9.252,3.083,10.663,10.663,0,0,0,7.046-3.8A10.853,10.853,0,0,0,87.313,117.391Zm-10.567-3.966a2.525,2.525,0,0,0-.029-.414.852.852,0,0,0-1.037-.683.876.876,0,0,0-.691.943q0,3.275,0,6.546c0,.731.314,1.066,1.037,1.072,1.34.009,2.677,0,4.017,0a1.666,1.666,0,0,0,.206-.017.859.859,0,0,0,.837-.894.874.874,0,0,0-.926-.843c-1.023,0-2.043,0-3.066,0h-.351v-.383Q76.747,116.088,76.746,113.425Z" transform="translate(-62.487 -108.084)" fill="#fff"/>
</svg>
