<svg xmlns="http://www.w3.org/2000/svg" width="24" height="22.065" viewBox="0 0 24 22.065">
  <g id="home-52" transform="translate(-1 -4)">
    <g id="Group_31" data-name="Group 31" transform="translate(1 3.999)">
      <path id="Path_23" data-name="Path 23" d="M17.307,8.97,9,16.544V28.361a.371.371,0,0,0,.361.38h5.418a.371.371,0,0,0,.361-.38v-5.7h4.334v5.7a.371.371,0,0,0,.361.38h5.418a.371.371,0,0,0,.361-.38V16.545Zm2.168,10.271a.371.371,0,0,1-.361.38H15.5a.371.371,0,0,1-.361-.38V16.2a.371.371,0,0,1,.361-.38h3.612a.371.371,0,0,1,.361.38Z" transform="translate(-5.308 -6.676)" fill="#fff"/>
      <path id="Path_24" data-name="Path 24" d="M24.867,16.112l-11.613-12a.341.341,0,0,0-.507,0L7.581,9.45v-3.6a.429.429,0,0,0-.387-.462H5.258a.429.429,0,0,0-.387.462v6.4L1.134,16.112a.526.526,0,0,0-.039.651.346.346,0,0,0,.546.047L13,5.072,24.36,16.81a.352.352,0,0,0,.254.113.363.363,0,0,0,.293-.159A.526.526,0,0,0,24.867,16.112Z" transform="translate(-1 -3.999)" fill="#fff"/>
    </g>
  </g>
</svg>
