<svg xmlns="http://www.w3.org/2000/svg" width="45.953" height="45.891" viewBox="0 0 45.953 45.891">
  <g id="product" transform="translate(-10.018 -10.595)">
    <path id="Path_114" data-name="Path 114" d="M31.5,10.642a23.3,23.3,0,0,1,13.681,3.394,22.836,22.836,0,0,1,8.177,8.847,23.813,23.813,0,0,1,2.368,14.14,21.761,21.761,0,0,1-3.6,9.2c-.558.83-1.139,2.03-2.11,2.11a1.625,1.625,0,0,1-1.8-1.439,2.169,2.169,0,0,1,.67-1.646,20.581,20.581,0,0,0,2.518-4.628A19.048,19.048,0,0,0,52.692,32.5a19.272,19.272,0,0,0-5.917-13.118,19.709,19.709,0,0,0-5.706-3.859A19.982,19.982,0,0,0,33.3,13.778a19.013,19.013,0,0,0-7.97,1.543,19.282,19.282,0,0,0-9.874,9.2,18.955,18.955,0,0,0-2.11,7.4,19.706,19.706,0,0,0,16.71,21.136,18.912,18.912,0,0,0,13.423-2.827,2.569,2.569,0,0,1,1.594-.67,1.526,1.526,0,0,1,1.543,1.646c-.019.947-.849,1.467-1.543,1.9a22.668,22.668,0,0,1-7.3,2.93,24.985,24.985,0,0,1-11.984-.67,22.455,22.455,0,0,1-14.14-13.217,24.076,24.076,0,0,1-1.435-11.721,22.319,22.319,0,0,1,3.807-9.874A22.337,22.337,0,0,1,25.7,11.715,25.61,25.61,0,0,1,31.5,10.642Z" transform="translate(0 0)" fill="#455a64"/>
    <path id="Path_115" data-name="Path 115" d="M301.225,231.673c-3.366,1.847-6.887,3.535-10.287,5.35-3.484-2.119-6.892-4.318-10.338-6.479,3.268-1.744,6.723-3.568,9.982-5.143C294.169,227.454,297.624,229.638,301.225,231.673Z" transform="translate(-257.896 -204.734)" fill="#455a64"/>
    <path id="Path_152" data-name="Path 152" d="M301.225,231.673c-3.366,1.847-6.887,3.535-10.287,5.35-3.484-2.119-6.892-4.318-10.338-6.479,3.268-1.744,6.723-3.568,9.982-5.143C294.169,227.454,297.624,229.638,301.225,231.673Z" transform="translate(-257.896 -204.734)" fill="#455a64"/>
    <path id="Path_116" data-name="Path 116" d="M252.1,373.5q5.345,3.144,10.591,6.376v12.34c-.23.056-.441-.15-.619-.258-3.23-1.955-6.765-4.023-9.977-6.067Q252.107,379.7,252.1,373.5Z" transform="translate(-230.732 -345.891)" fill="#455a64"/>
    <path id="Path_153" data-name="Path 153" d="M252.1,373.5q5.345,3.144,10.591,6.376v12.34c-.23.056-.441-.15-.619-.258-3.23-1.955-6.765-4.023-9.977-6.067Q252.107,379.7,252.1,373.5Z" transform="translate(-230.732 -345.891)" fill="#455a64"/>
    <path id="Path_117" data-name="Path 117" d="M535.638,406.792c-3.324,1.871-6.986,3.676-10.338,5.35V399.7c3.432-1.758,6.878-3.507,10.287-5.3C535.7,398.427,535.6,402.675,535.638,406.792Z" transform="translate(-491.123 -365.811)" fill="#455a64"/>
    <path id="Path_154" data-name="Path 154" d="M535.638,406.792c-3.324,1.871-6.986,3.676-10.338,5.35V399.7c3.432-1.758,6.878-3.507,10.287-5.3C535.7,398.427,535.6,402.675,535.638,406.792Z" transform="translate(-491.123 -365.811)" fill="#455a64"/>
  </g>
</svg>
