<?xml version="1.0" encoding="UTF-8"?>
<svg xmlns="http://www.w3.org/2000/svg" xmlns:xlink="http://www.w3.org/1999/xlink" width="24pt" height="29pt" viewBox="0 0 24 29" version="1.1">
<g id="surface1">
<path style=" stroke:none;fill-rule:nonzero;fill:rgb(27.058824%,35.294118%,39.215686%);fill-opacity:1;" d="M 17.503906 20.160156 L 6.640625 20.160156 C 6.417969 20.167969 6.210938 20.058594 6.101562 19.875 C 5.988281 19.691406 5.988281 19.460938 6.101562 19.277344 C 6.210938 19.09375 6.417969 18.980469 6.640625 18.988281 L 17.503906 18.988281 C 17.828125 19 18.085938 19.257812 18.085938 19.574219 C 18.085938 19.890625 17.828125 20.152344 17.503906 20.160156 Z M 17.503906 20.160156 "/>
<path style=" stroke:none;fill-rule:nonzero;fill:rgb(27.058824%,35.294118%,39.215686%);fill-opacity:1;" d="M 10.863281 23.964844 L 6.640625 23.964844 C 6.417969 23.972656 6.210938 23.863281 6.101562 23.675781 C 5.988281 23.492188 5.988281 23.261719 6.101562 23.078125 C 6.210938 22.894531 6.417969 22.785156 6.640625 22.792969 L 10.863281 22.792969 C 11.085938 22.785156 11.292969 22.894531 11.40625 23.078125 C 11.515625 23.261719 11.515625 23.492188 11.40625 23.675781 C 11.292969 23.863281 11.085938 23.972656 10.863281 23.964844 Z M 10.863281 23.964844 "/>
<path style=" stroke:none;fill-rule:nonzero;fill:rgb(27.058824%,35.294118%,39.215686%);fill-opacity:1;" d="M 22.9375 2.933594 L 19.316406 2.933594 L 19.316406 5.480469 L 21.125 5.480469 C 21.472656 5.496094 21.742188 5.78125 21.730469 6.117188 L 21.730469 25.855469 C 21.742188 26.195312 21.472656 26.480469 21.125 26.492188 L 3.019531 26.492188 C 2.671875 26.480469 2.402344 26.195312 2.414062 25.855469 L 2.414062 6.117188 C 2.402344 5.78125 2.671875 5.496094 3.019531 5.480469 L 4.828125 5.480469 L 4.828125 2.933594 L 1.207031 2.933594 C 0.511719 2.960938 -0.0273438 3.53125 0 4.207031 L 0 27.765625 C -0.0273438 28.441406 0.511719 29.011719 1.207031 29.039062 L 22.9375 29.039062 C 23.632812 29.011719 24.171875 28.441406 24.144531 27.765625 L 24.144531 4.207031 C 24.171875 3.53125 23.632812 2.960938 22.9375 2.933594 Z M 22.9375 2.933594 "/>
<path style=" stroke:none;fill-rule:nonzero;fill:rgb(27.058824%,35.294118%,39.215686%);fill-opacity:1;" d="M 17.503906 2.933594 L 15.089844 2.933594 C 15.105469 1.875 14.535156 0.890625 13.59375 0.355469 C 12.652344 -0.175781 11.488281 -0.175781 10.550781 0.355469 C 9.609375 0.890625 9.039062 1.875 9.054688 2.933594 L 6.640625 2.933594 C 6.304688 2.933594 6.035156 3.195312 6.035156 3.519531 L 6.035156 6.453125 C 6.035156 6.777344 6.304688 7.039062 6.640625 7.039062 L 17.503906 7.039062 C 17.835938 7.039062 18.109375 6.777344 18.109375 6.453125 L 18.109375 3.519531 C 18.105469 3.195312 17.835938 2.933594 17.503906 2.933594 Z M 12.070312 4.105469 C 11.40625 4.105469 10.863281 3.582031 10.863281 2.933594 C 10.863281 2.285156 11.40625 1.761719 12.070312 1.761719 C 12.738281 1.761719 13.277344 2.285156 13.277344 2.933594 C 13.277344 3.582031 12.738281 4.105469 12.070312 4.105469 Z M 12.070312 4.105469 "/>
<path style=" stroke:none;fill-rule:nonzero;fill:rgb(27.058824%,35.294118%,39.215686%);fill-opacity:1;" d="M 13.167969 12.425781 C 12.351562 12.128906 12.019531 11.933594 12.019531 11.628906 C 12.019531 11.367188 12.21875 11.105469 12.839844 11.105469 C 13.320312 11.109375 13.789062 11.21875 14.21875 11.421875 L 14.496094 10.371094 C 14.0625 10.175781 13.589844 10.070312 13.109375 10.0625 L 13.109375 9.246094 L 12.171875 9.246094 L 12.171875 10.128906 C 11.28125 10.203125 10.585938 10.914062 10.554688 11.78125 C 10.554688 12.683594 11.253906 13.148438 12.277344 13.484375 C 12.984375 13.71875 13.292969 13.941406 13.292969 14.292969 C 13.292969 14.664062 12.917969 14.867188 12.371094 14.867188 C 11.816406 14.859375 11.273438 14.722656 10.785156 14.460938 L 10.5 15.546875 C 11.003906 15.796875 11.558594 15.933594 12.125 15.949219 L 12.125 16.832031 L 13.0625 16.832031 L 13.0625 15.886719 C 14 15.820312 14.734375 15.078125 14.765625 14.164062 C 14.765625 13.332031 14.304688 12.816406 13.167969 12.425781 Z M 13.167969 12.425781 "/>
</g>
</svg>
