<?xml version="1.0" encoding="UTF-8"?>
<svg xmlns="http://www.w3.org/2000/svg" xmlns:xlink="http://www.w3.org/1999/xlink" width="24pt" height="27pt" viewBox="0 0 24 27" version="1.1">
<g id="surface1">
<path style=" stroke:none;fill-rule:nonzero;fill:rgb(27.058824%,35.294118%,39.215686%);fill-opacity:1;" d="M 0 12.121094 L 0 24.246094 L 20.488281 24.246094 L 20.488281 0 L 0 0 Z M 18.355469 5.164062 L 18.355469 5.832031 L 11.667969 5.832031 L 11.667969 4.496094 L 18.355469 4.496094 Z M 6.808594 6.332031 C 8.488281 6.515625 9.789062 7.140625 10.203125 7.949219 C 10.414062 8.273438 10.433594 8.6875 10.253906 9.03125 C 9.960938 9.667969 9.015625 10.246094 7.777344 10.554688 C 7.140625 10.703125 6.484375 10.757812 5.835938 10.714844 C 5.175781 10.765625 4.515625 10.707031 3.878906 10.546875 C 1.949219 10.046875 0.960938 9.058594 1.410156 8.058594 C 1.964844 6.824219 4.339844 6.058594 6.808594 6.332031 Z M 18.355469 8.996094 L 18.355469 9.628906 L 11.667969 9.628906 L 11.667969 8.363281 L 18.355469 8.363281 Z M 2.519531 10.429688 C 3.457031 10.863281 4.480469 11.085938 5.515625 11.082031 C 7.476562 11.152344 9.179688 10.683594 10.074219 9.832031 C 10.265625 9.648438 10.300781 9.632812 10.34375 9.734375 C 10.4375 10.253906 10.222656 10.78125 9.789062 11.089844 C 8.097656 12.628906 3.570312 12.628906 1.878906 11.089844 C 1.449219 10.78125 1.234375 10.257812 1.324219 9.742188 C 1.359375 9.648438 1.429688 9.683594 1.679688 9.902344 C 1.9375 10.105469 2.222656 10.285156 2.519531 10.429688 Z M 2.597656 11.953125 C 3.613281 12.4375 4.746094 12.640625 5.871094 12.539062 C 6.578125 12.597656 7.289062 12.535156 7.976562 12.355469 C 8.710938 12.175781 9.402344 11.84375 9.996094 11.378906 C 10.246094 11.152344 10.308594 11.125 10.34375 11.21875 C 10.417969 11.480469 10.386719 11.761719 10.265625 12.007812 C 9.449219 13.71875 5.238281 14.328125 2.664062 13.109375 C 1.753906 12.679688 1.191406 11.949219 1.308594 11.351562 L 1.355469 11.101562 L 1.683594 11.386719 C 1.964844 11.613281 2.269531 11.804688 2.601562 11.953125 Z M 18.355469 12.859375 L 18.355469 13.492188 L 11.667969 13.492188 L 11.667969 12.226562 L 18.355469 12.226562 Z M 1.707031 12.890625 C 2.113281 13.238281 2.589844 13.5 3.101562 13.660156 C 5.40625 14.457031 8.410156 14.140625 9.933594 12.9375 C 10.132812 12.78125 10.316406 12.671875 10.34375 12.699219 C 10.4375 12.789062 10.378906 13.246094 10.238281 13.542969 C 9.746094 14.234375 9.015625 14.726562 8.183594 14.925781 C 7.414062 15.125 6.628906 15.234375 5.835938 15.25 C 5.042969 15.234375 4.253906 15.125 3.484375 14.925781 C 2.410156 14.609375 1.53125 13.949219 1.359375 13.335938 C 1.273438 13.035156 1.292969 12.648438 1.394531 12.648438 C 1.511719 12.714844 1.613281 12.792969 1.707031 12.886719 Z M 2.507812 14.90625 C 3.292969 15.257812 4.136719 15.476562 4.996094 15.546875 C 6.910156 15.734375 8.972656 15.25 10.019531 14.363281 C 10.324219 14.113281 10.390625 14.140625 10.390625 14.535156 C 10.382812 15.3125 9.324219 16.136719 7.828125 16.515625 C 6.789062 16.71875 5.726562 16.765625 4.671875 16.664062 C 3.511719 16.574219 2.421875 16.082031 1.597656 15.269531 C 1.371094 14.992188 1.269531 14.628906 1.320312 14.273438 C 1.363281 14.140625 1.390625 14.148438 1.734375 14.414062 C 1.976562 14.597656 2.234375 14.761719 2.503906 14.90625 Z M 2.597656 16.445312 C 2.976562 16.605469 3.363281 16.742188 3.757812 16.84375 C 4.433594 17.027344 5.136719 17.089844 5.835938 17.035156 C 6.535156 17.089844 7.242188 17.027344 7.921875 16.84375 C 8.667969 16.671875 9.367188 16.347656 9.976562 15.890625 C 10.324219 15.582031 10.390625 15.601562 10.390625 16.007812 C 10.382812 16.789062 9.359375 17.597656 7.863281 18.003906 C 7.203125 18.164062 6.515625 18.21875 5.835938 18.160156 C 5.15625 18.210938 4.472656 18.160156 3.808594 18.003906 C 2.324219 17.597656 1.289062 16.789062 1.285156 16.007812 C 1.285156 15.601562 1.339844 15.585938 1.746094 15.917969 C 2.011719 16.121094 2.296875 16.296875 2.601562 16.445312 Z M 18.355469 16.726562 L 18.355469 17.359375 L 11.667969 17.359375 L 11.667969 16.09375 L 18.355469 16.09375 Z M 18.355469 20.589844 L 18.355469 21.222656 L 2.207031 21.222656 L 2.207031 19.957031 L 18.355469 19.957031 Z M 18.355469 20.589844 "/>
<path style=" stroke:none;fill-rule:nonzero;fill:rgb(27.058824%,35.294118%,39.215686%);fill-opacity:1;" d="M 5.476562 7.160156 C 5.476562 7.265625 5.40625 7.300781 5.109375 7.335938 C 4.445312 7.429688 3.984375 7.6875 3.984375 7.976562 C 3.984375 8.304688 4.425781 8.496094 5.597656 8.679688 C 6.6875 8.839844 6.867188 8.9375 6.53125 9.164062 C 6.3125 9.261719 6.066406 9.300781 5.828125 9.277344 C 5.550781 9.316406 5.269531 9.257812 5.039062 9.109375 C 4.808594 8.960938 4.738281 8.945312 4.320312 8.988281 C 4.144531 9 3.972656 9.03125 3.804688 9.078125 C 3.734375 9.148438 4.183594 9.425781 4.53125 9.53125 C 4.738281 9.589844 4.953125 9.621094 5.171875 9.628906 C 5.449219 9.628906 5.476562 9.640625 5.476562 9.804688 C 5.476562 9.964844 5.5 9.980469 5.824219 9.980469 C 6.140625 9.980469 6.183594 9.957031 6.203125 9.816406 C 6.21875 9.699219 6.273438 9.65625 6.472656 9.640625 C 6.929688 9.621094 7.371094 9.484375 7.753906 9.242188 C 8.132812 8.839844 7.742188 8.503906 6.703125 8.328125 C 5.492188 8.132812 5.230469 8.0625 5.207031 7.929688 C 5.152344 7.640625 6.117188 7.554688 6.542969 7.808594 C 6.738281 7.933594 6.976562 7.96875 7.203125 7.90625 C 7.359375 7.898438 7.515625 7.863281 7.65625 7.792969 C 7.730469 7.683594 7.230469 7.457031 6.710938 7.367188 C 6.292969 7.296875 6.191406 7.261719 6.191406 7.15625 C 6.191406 7.050781 6.136719 7.027344 5.835938 7.027344 C 5.539062 7.027344 5.476562 7.046875 5.476562 7.160156 Z M 5.476562 7.160156 "/>
<path style=" stroke:none;fill-rule:nonzero;fill:rgb(27.058824%,35.294118%,39.215686%);fill-opacity:1;" d="M 21.414062 3.339844 L 21.414062 3.933594 L 22.550781 3.933594 L 22.550781 25.789062 L 4.488281 25.789062 L 4.4375 25.371094 L 4.390625 24.949219 L 3.203125 24.949219 L 3.203125 26.984375 L 23.761719 26.984375 L 23.761719 2.742188 L 21.414062 2.742188 Z M 21.414062 3.339844 "/>
</g>
</svg>
