<svg xmlns="http://www.w3.org/2000/svg" width="37.283" height="38.529" viewBox="0 0 37.283 38.529">
  <g id="Group_202" data-name="Group 202" transform="translate(-983.64 -246.829)">
    <rect id="Rectangle_58" data-name="Rectangle 58" width="15.039" height="1.5" rx="0.75" transform="translate(989.64 266.035)" fill="#455a64"/>
    <rect id="Rectangle_81" data-name="Rectangle 81" width="18.039" height="1.5" rx="0.75" transform="translate(983.64 261.035)" fill="#455a64"/>
    <rect id="Rectangle_82" data-name="Rectangle 82" width="14.039" height="1.5" rx="0.75" transform="translate(987.64 256.035)" fill="#455a64"/>
    <rect id="Rectangle_59" data-name="Rectangle 59" width="17.546" height="1.5" rx="0.75" transform="translate(992.773 271.048)" fill="#455a64"/>
    <path id="dollar_1_" data-name="dollar (1)" d="M291.088,84.349a6.991,6.991,0,0,0-1.356-2.387,7.5,7.5,0,0,0-2.121-1.651,30.535,30.535,0,0,0-2.784-1.295l-2.423-.964c-.4-.167-.808-.343-1.211-.524a4.809,4.809,0,0,1-1.088-.669,2.876,2.876,0,0,1-.765-.964,3.094,3.094,0,0,1-.28-1.4,3.467,3.467,0,0,1,.366-1.7,2.543,2.543,0,0,1,.931-.982,3.611,3.611,0,0,1,1.271-.458,7.954,7.954,0,0,1,1.39-.128,17.3,17.3,0,0,1,2.019.106,14.7,14.7,0,0,1,1.594.273,9.119,9.119,0,0,1,1.33.418c.417.167.829.335,1.233.5a15.288,15.288,0,0,0,1.292-4.764,28.307,28.307,0,0,0-3.774-1.088,17.321,17.321,0,0,0-2.1-.3V62.5h-5.462v4.262c-.127.035-.255.07-.378.11a8.743,8.743,0,0,0-3.107,1.673,7.4,7.4,0,0,0-2,2.739,10.593,10.593,0,0,0-.28,6.772,6.44,6.44,0,0,0,1.19,2.153,7.254,7.254,0,0,0,1.857,1.55,17.2,17.2,0,0,0,2.461,1.189l2.461.964c.485.2.956.4,1.415.6a5.24,5.24,0,0,1,1.233.775,3.624,3.624,0,0,1,.888,1.127,3.689,3.689,0,0,1,.34,1.673,3.363,3.363,0,0,1-1.454,2.99,7.06,7.06,0,0,1-4,.982,13.678,13.678,0,0,1-3.188-.357,20.491,20.491,0,0,1-3.188-1.066c-.3.894-.553,1.775-.765,2.655a17.368,17.368,0,0,0-.442,2.532q1.007.416,1.938.713a16.349,16.349,0,0,0,1.879.48,17.159,17.159,0,0,0,2,.273c.357.026.74.048,1.143.062v3.672h5.457V96.841q.287-.079.561-.172a10.161,10.161,0,0,0,3.494-1.964,8.364,8.364,0,0,0,2.159-3.012,9.846,9.846,0,0,0,.748-3.888,10.9,10.9,0,0,0-.489-3.457Z" transform="translate(729.346 184.329)" fill="#455a64"/>
  </g>
</svg>
