<svg xmlns="http://www.w3.org/2000/svg" width="32.4" height="49" viewBox="0 0 32.4 49">
  <g id="commerce" transform="translate(-81.85)">
    <g id="Group_94" data-name="Group 94" transform="translate(81.85 0)">
      <g id="Group_91" data-name="Group 91" transform="translate(5.527 0)">
        <path id="Path_38" data-name="Path 38" d="M137.04,17.493h1.694V3.448a1.381,1.381,0,0,1,1.379-1.379h7.971V17.493h5.324V2.069h.517A1.381,1.381,0,0,1,155.3,3.448V17.493H157a.69.69,0,0,0,.69-.69V3.823A3.832,3.832,0,0,0,153.863,0h-13.69a3.832,3.832,0,0,0-3.823,3.823v12.97A.7.7,0,0,0,137.04,17.493Z" transform="translate(-136.35 0)" fill="#455a64"/>
      </g>
      <g id="Group_93" data-name="Group 93" transform="translate(0 13.183)">
        <g id="Group_92" data-name="Group 92">
          <path id="Path_39" data-name="Path 39" d="M110.771,130v4.462a1.857,1.857,0,0,1-1.856,1.856H87.194a1.857,1.857,0,0,1-1.856-1.856V130.01a4.187,4.187,0,0,0-3.488,4.127v27.5a4.179,4.179,0,0,0,4.178,4.178h24.044a4.179,4.179,0,0,0,4.178-4.178V134.127A4.169,4.169,0,0,0,110.771,130ZM90.754,161.67a1.906,1.906,0,1,1,1.906-1.906A1.9,1.9,0,0,1,90.754,161.67Zm0-5.76A1.906,1.906,0,1,1,92.66,154,1.9,1.9,0,0,1,90.754,155.91Zm0-5.75a1.906,1.906,0,1,1,1.906-1.906A1.9,1.9,0,0,1,90.754,150.16Zm7.3,11.51a1.906,1.906,0,1,1,1.906-1.906A1.9,1.9,0,0,1,98.055,161.67Zm0-5.76A1.906,1.906,0,1,1,99.961,154,1.9,1.9,0,0,1,98.055,155.91Zm0-5.75a1.906,1.906,0,1,1,1.906-1.906A1.9,1.9,0,0,1,98.055,150.16Zm7.3,11.51a1.906,1.906,0,1,1,1.906-1.906A1.9,1.9,0,0,1,105.356,161.67Zm0-5.76A1.906,1.906,0,1,1,107.263,154,1.9,1.9,0,0,1,105.356,155.91Zm0-5.75a1.906,1.906,0,1,1,1.906-1.906A1.9,1.9,0,0,1,105.356,150.16Zm2.119-6.764a1.054,1.054,0,0,1-1.055,1.055H89.7a1.054,1.054,0,0,1-1.055-1.055v-2.87a1.054,1.054,0,0,1,1.055-1.055h16.722a1.054,1.054,0,0,1,1.055,1.055Z" transform="translate(-81.85 -130)" fill="#455a64"/>
        </g>
      </g>
    </g>
  </g>
</svg>
