<?xml version="1.0" encoding="UTF-8"?>
<svg xmlns="http://www.w3.org/2000/svg" xmlns:xlink="http://www.w3.org/1999/xlink" width="24pt" height="27pt" viewBox="0 0 24 27" version="1.1">
<g id="surface1">
<path style=" stroke:none;fill-rule:nonzero;fill:rgb(27.058824%,35.294118%,39.215686%);fill-opacity:1;" d="M 3.632812 0.015625 C 3.398438 0.0820312 3.203125 0.238281 3.089844 0.453125 C 3 0.640625 2.988281 0.789062 2.996094 1.75 C 3 2.597656 3.003906 2.636719 3.046875 2.753906 C 3.136719 2.988281 3.324219 3.171875 3.554688 3.261719 C 4.023438 3.324219 4.496094 3.339844 4.964844 3.304688 L 6.277344 3.3125 L 6.277344 6.167969 L 4.253906 6.171875 L 2.226562 6.179688 L 2.085938 6.234375 C 1.90625 6.300781 1.742188 6.410156 1.613281 6.554688 C 1.46875 6.707031 1.367188 6.898438 1.328125 7.105469 C 1.3125 7.191406 1.257812 7.710938 1.214844 8.253906 C 1.167969 8.796875 1.074219 9.890625 1.003906 10.683594 C 0.933594 11.476562 0.828125 12.730469 0.761719 13.46875 C 0.699219 14.210938 0.59375 15.414062 0.53125 16.148438 C 0.464844 16.886719 0.359375 18.132812 0.292969 18.925781 C 0.226562 19.71875 0.167969 20.367188 0.167969 20.367188 C 0.167969 20.371094 5.429688 20.375 11.855469 20.375 L 23.539062 20.375 L 23.527344 20.253906 C 23.519531 20.1875 23.472656 19.636719 23.417969 19.023438 C 23.328125 17.953125 23.257812 17.140625 22.992188 14.082031 C 22.667969 10.316406 22.609375 9.640625 22.511719 8.492188 C 22.449219 7.816406 22.390625 7.1875 22.375 7.101562 C 22.335938 6.894531 22.234375 6.703125 22.089844 6.550781 C 21.960938 6.40625 21.796875 6.296875 21.617188 6.230469 L 21.476562 6.175781 L 15.101562 6.167969 L 8.722656 6.164062 L 8.722656 3.304688 L 9.984375 3.304688 C 10.742188 3.304688 11.277344 3.296875 11.335938 3.285156 C 11.582031 3.222656 11.792969 3.058594 11.910156 2.832031 L 11.976562 2.691406 L 11.976562 0.605469 L 11.910156 0.464844 C 11.8125 0.28125 11.660156 0.132812 11.472656 0.046875 L 11.347656 0 L 7.53125 -0.00390625 C 5.355469 0 3.679688 0.0078125 3.632812 0.015625 Z M 20.324219 7.824219 C 20.796875 7.921875 21.164062 8.292969 21.257812 8.765625 C 21.269531 8.871094 21.277344 9.328125 21.273438 10.027344 C 21.3125 10.433594 21.292969 10.84375 21.21875 11.242188 C 21.109375 11.527344 20.894531 11.753906 20.621094 11.886719 C 20.273438 12.054688 20.558594 12.042969 16.894531 12.042969 L 13.632812 12.042969 L 13.464844 11.992188 C 13.078125 11.90625 12.757812 11.644531 12.59375 11.285156 C 12.542969 11.164062 12.542969 11.160156 12.539062 9.976562 C 12.527344 8.683594 12.535156 8.648438 12.644531 8.4375 C 12.78125 8.1875 13.007812 7.996094 13.273438 7.894531 C 13.558594 7.777344 13.4375 7.777344 16.957031 7.785156 C 18.082031 7.738281 19.203125 7.753906 20.324219 7.824219 Z M 10.730469 9.0625 L 10.734375 10.113281 L 2.875 10.113281 L 2.878906 9.0625 C 2.882812 8.484375 2.886719 8.011719 2.886719 8.007812 C 2.886719 8.003906 4.648438 8.007812 6.804688 8.007812 L 10.71875 8.015625 Z M 4.414062 14.988281 C 4.515625 15.039062 4.578125 15.140625 4.582031 15.25 C 4.582031 15.296875 4.558594 15.515625 4.527344 15.742188 C 4.464844 16.210938 4.433594 16.300781 4.292969 16.398438 L 4.203125 16.460938 L 3.667969 16.46875 C 3.089844 16.472656 3.058594 16.46875 2.960938 16.367188 C 2.875 16.28125 2.875 16.183594 2.949219 15.710938 C 3.023438 15.261719 3.046875 15.179688 3.136719 15.085938 C 3.253906 14.960938 3.308594 14.949219 3.851562 14.949219 C 4.277344 14.953125 4.351562 14.957031 4.414062 14.988281 Z M 6.152344 14.988281 C 6.199219 15.015625 6.242188 15.050781 6.273438 15.09375 C 6.335938 15.179688 6.335938 15.285156 6.28125 15.796875 C 6.234375 16.226562 6.207031 16.3125 6.066406 16.402344 L 5.980469 16.464844 L 5.441406 16.472656 C 4.859375 16.476562 4.832031 16.472656 4.730469 16.367188 C 4.648438 16.277344 4.644531 16.207031 4.710938 15.710938 C 4.730469 15.535156 4.757812 15.359375 4.800781 15.1875 C 4.828125 15.144531 4.855469 15.105469 4.890625 15.074219 C 5.007812 14.964844 5.054688 14.953125 5.589844 14.949219 C 6.023438 14.953125 6.085938 14.957031 6.152344 14.992188 Z M 7.898438 14.996094 C 7.957031 15.03125 8 15.082031 8.03125 15.140625 L 8.078125 15.238281 L 8.046875 15.703125 C 8.003906 16.238281 7.984375 16.3125 7.839844 16.40625 L 7.757812 16.460938 L 7.222656 16.46875 C 6.71875 16.476562 6.6875 16.472656 6.601562 16.429688 C 6.542969 16.402344 6.492188 16.355469 6.464844 16.296875 L 6.414062 16.207031 L 6.464844 15.730469 C 6.488281 15.472656 6.515625 15.238281 6.527344 15.210938 C 6.574219 15.113281 6.652344 15.035156 6.746094 14.988281 C 6.820312 14.957031 6.890625 14.949219 7.324219 14.949219 C 7.792969 14.953125 7.820312 14.953125 7.898438 15 Z M 11.039062 14.992188 C 11.101562 15.023438 11.152344 15.070312 11.183594 15.128906 L 11.238281 15.222656 L 11.230469 15.707031 C 11.226562 16.257812 11.210938 16.308594 11.0625 16.40625 L 10.976562 16.460938 L 10.417969 16.460938 C 9.882812 16.460938 9.855469 16.460938 9.796875 16.417969 C 9.757812 16.386719 9.71875 16.347656 9.6875 16.304688 L 9.640625 16.234375 L 9.652344 15.765625 C 9.65625 15.582031 9.667969 15.398438 9.691406 15.21875 C 9.730469 15.113281 9.808594 15.027344 9.90625 14.980469 C 10.089844 14.949219 10.273438 14.9375 10.460938 14.949219 C 10.914062 14.953125 10.957031 14.953125 11.039062 14.996094 Z M 12.820312 15.015625 C 12.96875 15.113281 12.980469 15.164062 12.988281 15.710938 C 12.996094 16.183594 12.996094 16.191406 12.945312 16.28125 C 12.914062 16.34375 12.863281 16.394531 12.804688 16.425781 C 12.714844 16.46875 12.695312 16.472656 12.203125 16.472656 C 11.621094 16.472656 11.566406 16.460938 11.464844 16.3125 C 11.410156 16.234375 11.410156 16.234375 11.410156 15.734375 L 11.410156 15.230469 L 11.46875 15.136719 C 11.5 15.074219 11.550781 15.023438 11.613281 14.992188 C 11.699219 14.949219 11.730469 14.949219 12.21875 14.953125 L 12.734375 14.960938 Z M 14.515625 14.992188 C 14.574219 15.023438 14.625 15.066406 14.664062 15.121094 C 14.710938 15.195312 14.71875 15.234375 14.730469 15.457031 C 14.742188 15.597656 14.75 15.832031 14.753906 15.972656 C 14.757812 16.222656 14.753906 16.242188 14.707031 16.3125 C 14.605469 16.460938 14.550781 16.472656 13.976562 16.472656 C 13.5 16.472656 13.457031 16.472656 13.375 16.429688 C 13.3125 16.398438 13.261719 16.351562 13.226562 16.289062 C 13.175781 16.195312 13.175781 16.191406 13.164062 15.710938 C 13.152344 15.234375 13.15625 15.230469 13.207031 15.140625 C 13.238281 15.078125 13.285156 15.027344 13.347656 14.996094 C 13.433594 14.953125 13.457031 14.949219 13.929688 14.949219 C 14.390625 14.953125 14.429688 14.953125 14.515625 14.996094 Z M 17.632812 14.984375 C 17.738281 15.027344 17.820312 15.105469 17.867188 15.207031 C 17.886719 15.273438 17.972656 16.027344 17.972656 16.160156 C 17.96875 16.269531 17.910156 16.371094 17.8125 16.425781 C 17.734375 16.46875 17.710938 16.472656 17.214844 16.472656 C 16.632812 16.472656 16.605469 16.46875 16.484375 16.332031 C 16.394531 16.234375 16.394531 16.226562 16.351562 15.65625 L 16.320312 15.230469 L 16.367188 15.136719 C 16.394531 15.078125 16.441406 15.027344 16.496094 14.996094 C 16.578125 14.949219 16.605469 14.949219 17.066406 14.949219 C 17.257812 14.933594 17.449219 14.945312 17.632812 14.984375 Z M 19.382812 14.988281 C 19.496094 15.042969 19.582031 15.140625 19.625 15.257812 C 19.632812 15.300781 19.667969 15.527344 19.699219 15.765625 L 19.753906 16.203125 L 19.710938 16.289062 C 19.683594 16.347656 19.640625 16.398438 19.585938 16.429688 C 19.503906 16.472656 19.488281 16.476562 18.960938 16.46875 L 18.417969 16.460938 L 18.335938 16.402344 C 18.191406 16.300781 18.164062 16.234375 18.121094 15.78125 C 18.066406 15.253906 18.066406 15.179688 18.125 15.09375 C 18.21875 14.957031 18.257812 14.945312 18.808594 14.945312 C 19.238281 14.953125 19.308594 14.957031 19.382812 14.992188 Z M 21.109375 14.980469 C 21.21875 15.03125 21.308594 15.117188 21.363281 15.226562 C 21.394531 15.320312 21.507812 16.078125 21.507812 16.179688 C 21.511719 16.28125 21.453125 16.378906 21.363281 16.425781 C 21.289062 16.46875 21.253906 16.46875 20.785156 16.46875 C 20.59375 16.472656 20.398438 16.464844 20.207031 16.445312 C 20.085938 16.402344 19.988281 16.304688 19.941406 16.183594 C 19.882812 15.855469 19.84375 15.523438 19.824219 15.191406 C 19.839844 15.097656 19.902344 15.019531 19.988281 14.980469 C 20.359375 14.933594 20.734375 14.933594 21.105469 14.984375 Z M 4.207031 16.683594 C 4.378906 16.804688 4.382812 16.835938 4.300781 17.457031 C 4.238281 17.9375 4.207031 18.007812 4.019531 18.101562 L 3.910156 18.164062 L 3.394531 18.164062 C 2.8125 18.164062 2.742188 18.148438 2.660156 18.015625 C 2.605469 17.925781 2.605469 17.878906 2.683594 17.40625 C 2.757812 16.9375 2.769531 16.890625 2.855469 16.792969 C 2.976562 16.652344 3.023438 16.640625 3.613281 16.640625 C 4.121094 16.640625 4.136719 16.644531 4.203125 16.6875 Z M 5.984375 16.679688 C 6.089844 16.730469 6.15625 16.835938 6.152344 16.953125 C 6.136719 17.28125 6.097656 17.605469 6.035156 17.929688 C 5.976562 18.027344 5.882812 18.101562 5.777344 18.140625 C 5.398438 18.171875 5.019531 18.171875 4.640625 18.132812 C 4.550781 18.089844 4.480469 18.011719 4.445312 17.914062 C 4.460938 17.566406 4.507812 17.21875 4.585938 16.875 C 4.632812 16.78125 4.714844 16.703125 4.8125 16.660156 C 5.003906 16.644531 5.199219 16.636719 5.390625 16.640625 C 5.859375 16.640625 5.917969 16.644531 5.984375 16.679688 Z M 7.75 16.667969 C 7.84375 16.710938 7.914062 16.796875 7.941406 16.898438 C 7.945312 17.242188 7.914062 17.589844 7.859375 17.929688 C 7.808594 18.019531 7.730469 18.089844 7.632812 18.128906 C 7.441406 18.167969 7.246094 18.179688 7.046875 18.160156 C 6.597656 18.160156 6.53125 18.15625 6.453125 18.121094 C 6.359375 18.082031 6.289062 18 6.265625 17.902344 C 6.277344 17.5625 6.308594 17.226562 6.363281 16.890625 C 6.410156 16.796875 6.488281 16.722656 6.582031 16.679688 C 6.65625 16.644531 6.722656 16.636719 7.175781 16.636719 C 7.367188 16.625 7.558594 16.636719 7.746094 16.671875 Z M 10.992188 16.667969 C 11.09375 16.71875 11.171875 16.808594 11.207031 16.917969 C 11.214844 16.960938 11.210938 17.203125 11.203125 17.460938 L 11.183594 17.925781 L 11.125 18.003906 C 11.007812 18.15625 10.953125 18.164062 10.339844 18.160156 C 9.804688 18.152344 9.796875 18.152344 9.726562 18.097656 C 9.675781 18.058594 9.632812 18.011719 9.601562 17.957031 C 9.558594 17.867188 9.558594 17.855469 9.578125 17.386719 C 9.605469 16.886719 9.613281 16.839844 9.714844 16.746094 C 9.828125 16.640625 9.851562 16.636719 10.40625 16.636719 C 10.601562 16.625 10.796875 16.636719 10.988281 16.671875 Z M 12.808594 16.683594 C 12.90625 16.726562 12.976562 16.816406 12.996094 16.921875 C 13.023438 17.257812 13.023438 17.59375 12.996094 17.925781 C 12.957031 18.015625 12.886719 18.085938 12.796875 18.121094 C 12.726562 18.15625 12.65625 18.160156 12.203125 18.160156 C 11.648438 18.160156 11.582031 18.148438 11.476562 18.035156 C 11.394531 17.945312 11.386719 17.882812 11.386719 17.445312 C 11.386719 16.871094 11.414062 16.773438 11.597656 16.683594 C 11.683594 16.640625 11.722656 16.640625 12.203125 16.640625 C 12.6875 16.640625 12.714844 16.644531 12.804688 16.6875 Z M 14.558594 16.660156 C 14.648438 16.703125 14.71875 16.769531 14.765625 16.855469 C 14.808594 17.035156 14.828125 17.21875 14.820312 17.402344 L 14.84375 17.886719 L 14.789062 17.980469 C 14.753906 18.042969 14.703125 18.089844 14.640625 18.121094 C 14.550781 18.164062 14.523438 18.164062 14.003906 18.15625 L 13.460938 18.152344 L 13.371094 18.089844 C 13.214844 17.980469 13.207031 17.949219 13.199219 17.378906 L 13.195312 16.875 L 13.257812 16.796875 C 13.375 16.644531 13.402344 16.640625 13.984375 16.640625 C 14.175781 16.632812 14.363281 16.640625 14.554688 16.664062 Z M 17.800781 16.660156 C 17.894531 16.707031 17.972656 16.78125 18.027344 16.871094 C 18.066406 17.046875 18.09375 17.226562 18.105469 17.40625 C 18.15625 17.957031 18.15625 17.980469 18.003906 18.09375 L 17.925781 18.15625 L 17.402344 18.160156 C 17.199219 18.171875 16.996094 18.164062 16.796875 18.144531 C 16.6875 18.105469 16.597656 18.027344 16.539062 17.921875 C 16.488281 17.585938 16.460938 17.242188 16.457031 16.898438 C 16.484375 16.800781 16.554688 16.71875 16.644531 16.671875 C 17.027344 16.632812 17.414062 16.632812 17.796875 16.664062 Z M 21.382812 16.671875 C 21.496094 16.722656 21.585938 16.816406 21.636719 16.929688 C 21.667969 17.050781 21.78125 17.78125 21.78125 17.867188 C 21.78125 17.976562 21.710938 18.078125 21.609375 18.121094 C 21.113281 18.195312 20.609375 18.210938 20.105469 18.164062 C 19.105469 18.164062 18.671875 18.15625 18.621094 18.140625 C 18.570312 18.121094 18.523438 18.09375 18.480469 18.066406 C 18.363281 17.976562 18.339844 17.898438 18.289062 17.421875 C 18.238281 16.945312 18.242188 16.859375 18.308594 16.769531 C 18.402344 16.636719 18.34375 16.640625 19.894531 16.640625 C 20.390625 16.613281 20.886719 16.621094 21.378906 16.671875 Z M 3.972656 18.355469 C 4.054688 18.402344 4.113281 18.480469 4.132812 18.570312 C 4.128906 18.746094 4.109375 18.925781 4.082031 19.101562 C 4.011719 19.640625 3.992188 19.691406 3.800781 19.789062 C 3.699219 19.84375 3.695312 19.84375 3.140625 19.84375 C 2.621094 19.84375 2.582031 19.84375 2.515625 19.796875 C 2.425781 19.75 2.363281 19.664062 2.347656 19.5625 C 2.386719 19.226562 2.441406 18.894531 2.519531 18.566406 C 2.570312 18.484375 2.640625 18.417969 2.722656 18.371094 C 2.816406 18.320312 2.933594 18.308594 3.425781 18.316406 C 3.828125 18.320312 3.910156 18.328125 3.96875 18.359375 Z M 5.691406 18.328125 C 5.804688 18.339844 5.90625 18.410156 5.957031 18.511719 C 5.992188 18.589844 5.992188 18.605469 5.945312 19.058594 C 5.933594 19.238281 5.910156 19.417969 5.875 19.59375 C 5.84375 19.644531 5.808594 19.691406 5.761719 19.734375 C 5.640625 19.84375 5.535156 19.855469 4.957031 19.851562 C 4.492188 19.84375 4.464844 19.84375 4.382812 19.796875 C 4.28125 19.746094 4.222656 19.640625 4.230469 19.527344 C 4.253906 19.207031 4.292969 18.890625 4.355469 18.574219 C 4.40625 18.488281 4.476562 18.417969 4.5625 18.367188 C 4.609375 18.351562 4.652344 18.339844 4.699219 18.332031 C 5.03125 18.308594 5.359375 18.308594 5.6875 18.332031 Z M 7.660156 18.371094 C 7.839844 18.472656 7.851562 18.53125 7.800781 19.175781 C 7.769531 19.566406 7.753906 19.636719 7.660156 19.71875 C 7.53125 19.835938 7.507812 19.839844 6.910156 19.839844 C 6.390625 19.839844 6.351562 19.839844 6.273438 19.796875 C 6.214844 19.765625 6.167969 19.722656 6.136719 19.664062 L 6.089844 19.574219 L 6.132812 19.101562 C 6.1875 18.574219 6.210938 18.496094 6.34375 18.402344 C 6.460938 18.324219 6.558594 18.308594 7.089844 18.316406 C 7.550781 18.320312 7.566406 18.324219 7.65625 18.371094 Z M 10.871094 18.328125 C 10.980469 18.34375 11.074219 18.40625 11.132812 18.5 C 11.179688 18.566406 11.179688 18.574219 11.175781 19.082031 L 11.167969 19.597656 L 11.101562 19.679688 C 10.980469 19.835938 10.945312 19.84375 10.320312 19.84375 C 9.769531 19.84375 9.765625 19.84375 9.675781 19.789062 C 9.550781 19.726562 9.476562 19.589844 9.5 19.449219 C 9.496094 19.152344 9.515625 18.851562 9.5625 18.558594 C 9.613281 18.429688 9.734375 18.34375 9.871094 18.328125 C 10.203125 18.308594 10.535156 18.308594 10.863281 18.328125 Z M 12.816406 18.359375 C 12.914062 18.40625 12.988281 18.492188 13.019531 18.597656 C 13.035156 18.769531 13.042969 18.945312 13.039062 19.117188 C 13.039062 19.613281 13.03125 19.664062 12.910156 19.753906 C 12.792969 19.84375 12.671875 19.855469 12.136719 19.847656 C 11.679688 19.84375 11.644531 19.839844 11.5625 19.796875 C 11.507812 19.765625 11.464844 19.726562 11.425781 19.683594 C 11.378906 19.613281 11.378906 19.59375 11.371094 19.195312 C 11.367188 18.964844 11.371094 18.730469 11.378906 18.667969 C 11.386719 18.546875 11.457031 18.4375 11.566406 18.378906 C 11.648438 18.332031 11.667969 18.328125 12.199219 18.328125 C 12.402344 18.316406 12.609375 18.328125 12.808594 18.359375 Z M 14.65625 18.363281 C 14.855469 18.464844 14.875 18.519531 14.898438 19.066406 C 14.925781 19.632812 14.910156 19.699219 14.730469 19.792969 C 14.648438 19.839844 14.613281 19.84375 14.15625 19.847656 C 13.574219 19.859375 13.472656 19.84375 13.355469 19.734375 C 13.308594 19.6875 13.273438 19.632812 13.25 19.570312 C 13.214844 19.222656 13.21875 18.871094 13.257812 18.523438 C 13.296875 18.449219 13.359375 18.390625 13.4375 18.355469 C 13.636719 18.335938 13.839844 18.328125 14.039062 18.332031 C 14.242188 18.308594 14.449219 18.320312 14.652344 18.363281 Z M 18.023438 18.378906 C 18.082031 18.410156 18.132812 18.460938 18.171875 18.519531 C 18.226562 18.605469 18.230469 18.648438 18.273438 19.089844 C 18.320312 19.558594 18.320312 19.574219 18.28125 19.652344 C 18.253906 19.707031 18.210938 19.75 18.160156 19.785156 L 18.074219 19.84375 L 17.503906 19.84375 C 16.886719 19.84375 16.871094 19.84375 16.742188 19.71875 C 16.644531 19.632812 16.628906 19.578125 16.597656 19.078125 L 16.5625 18.597656 L 16.609375 18.507812 C 16.636719 18.453125 16.679688 18.410156 16.730469 18.375 C 16.804688 18.332031 16.835938 18.328125 17.367188 18.328125 C 17.910156 18.332031 17.925781 18.332031 18.011719 18.378906 Z M 21.679688 18.371094 C 21.785156 18.425781 21.863281 18.515625 21.90625 18.625 C 21.933594 18.710938 22.058594 19.472656 22.058594 19.554688 C 22.042969 19.65625 21.980469 19.746094 21.890625 19.796875 C 21.820312 19.839844 21.785156 19.839844 20.386719 19.847656 C 19.386719 19.851562 18.921875 19.847656 18.839844 19.828125 C 18.707031 19.800781 18.59375 19.710938 18.535156 19.589844 C 18.5 19.414062 18.472656 19.238281 18.460938 19.058594 L 18.414062 18.585938 L 18.460938 18.496094 C 18.5625 18.320312 18.460938 18.328125 20.128906 18.328125 C 20.644531 18.28125 21.160156 18.296875 21.671875 18.371094 Z M 21.679688 18.371094 "/>
<path style=" stroke:none;fill-rule:nonzero;fill:rgb(27.058824%,35.294118%,39.215686%);fill-opacity:1;" d="M 0 23.804688 C 0 26.019531 -0.00390625 25.953125 0.125 26.183594 C 0.269531 26.429688 0.511719 26.605469 0.792969 26.664062 C 1.003906 26.710938 22.703125 26.710938 22.917969 26.664062 C 23.199219 26.605469 23.441406 26.429688 23.585938 26.183594 C 23.707031 25.953125 23.707031 26.019531 23.707031 23.804688 L 23.707031 21.773438 L 0 21.773438 Z M 12.089844 23.953125 C 12.425781 24.035156 12.699219 24.269531 12.820312 24.589844 C 12.945312 24.90625 12.90625 25.265625 12.71875 25.550781 C 12.523438 25.835938 12.199219 26.007812 11.851562 26.007812 C 11.503906 26.007812 11.179688 25.835938 10.988281 25.550781 C 10.820312 25.292969 10.773438 24.976562 10.847656 24.683594 C 11.003906 24.148438 11.546875 23.832031 12.089844 23.953125 Z M 12.089844 23.953125 "/>
</g>
</svg>
