<svg xmlns="http://www.w3.org/2000/svg" width="44.977" height="40.854" viewBox="0 0 44.977 40.854">
  <g id="paper-pencil-and-calculator" transform="translate(0 -1.452)">
    <g id="Group_193" data-name="Group 193" transform="translate(0 1.452)">
      <path id="Path_168" data-name="Path 168" d="M5.3,22.134,3.564,18.547V35.084l17.79.04V33.39L5.3,33.357Z" transform="translate(1.497 5.73)" fill="#455a64"/>
      <path id="Path_169" data-name="Path 169" d="M29.126,11.018v.9h1.735V8.491L23.8,1.452H3.564v4.8H5.3V3.186H21.978v7.833Zm-5.415-7.2,5.415,5.4v.074H23.711Z" transform="translate(1.497 -1.452)" fill="#455a64"/>
      <path id="Path_170" data-name="Path 170" d="M35.271,9.858l-15.255-.01c-.045,0-.125-.009-.229-.009a2.667,2.667,0,0,0-2.768,2.918V38.77H37.827V12.757A3.028,3.028,0,0,0,35.271,9.858Zm1.163,27.458H18.41V12.757a1.268,1.268,0,0,1,1.377-1.464c.067,0,.111,0,.118,0l15.177,0c.258.06,1.356.379,1.356,1.454V37.316Z" transform="translate(7.15 2.072)" fill="#455a64"/>
      <rect id="Rectangle_126" data-name="Rectangle 126" width="6.557" height="1.816" transform="translate(27.179 23.227)" fill="#455a64"/>
      <rect id="Rectangle_127" data-name="Rectangle 127" width="6.559" height="1.816" transform="translate(35.396 23.227)" fill="#455a64"/>
      <rect id="Rectangle_128" data-name="Rectangle 128" width="2.639" height="2.792" transform="translate(27.256 26.62)" fill="#455a64"/>
      <rect id="Rectangle_129" data-name="Rectangle 129" width="2.641" height="2.792" transform="translate(31.156 26.62)" fill="#455a64"/>
      <rect id="Rectangle_130" data-name="Rectangle 130" width="2.64" height="2.792" transform="translate(35.197 26.62)" fill="#455a64"/>
      <rect id="Rectangle_131" data-name="Rectangle 131" width="2.639" height="2.792" transform="translate(39.337 26.62)" fill="#455a64"/>
      <rect id="Rectangle_132" data-name="Rectangle 132" width="2.64" height="2.793" transform="translate(27.256 30.544)" fill="#455a64"/>
      <rect id="Rectangle_133" data-name="Rectangle 133" width="2.643" height="2.793" transform="translate(31.156 30.544)" fill="#455a64"/>
      <rect id="Rectangle_134" data-name="Rectangle 134" width="2.641" height="2.793" transform="translate(35.119 30.544)" fill="#455a64"/>
      <rect id="Rectangle_135" data-name="Rectangle 135" width="2.639" height="2.793" transform="translate(39.26 30.544)" fill="#455a64"/>
      <rect id="Rectangle_136" data-name="Rectangle 136" width="2.639" height="2.79" transform="translate(27.167 34.469)" fill="#455a64"/>
      <rect id="Rectangle_137" data-name="Rectangle 137" width="2.641" height="2.79" transform="translate(31.069 34.469)" fill="#455a64"/>
      <rect id="Rectangle_138" data-name="Rectangle 138" width="2.64" height="2.79" transform="translate(35.197 34.469)" fill="#455a64"/>
      <rect id="Rectangle_139" data-name="Rectangle 139" width="2.637" height="2.79" transform="translate(39.26 34.469)" fill="#455a64"/>
      <path id="Path_171" data-name="Path 171" d="M33.919,12.579H19.13v5.364H33.919V12.579Zm-6.74,4.087h-.75V15.135h-.591v-.55a1.113,1.113,0,0,0,.267-.024.754.754,0,0,0,.236-.1.515.515,0,0,0,.17-.179.587.587,0,0,0,.075-.277h.592Zm2.958,0H27.96A1.052,1.052,0,0,1,28,16.307a.966.966,0,0,1,.143-.3,1.507,1.507,0,0,1,.18-.213,2.485,2.485,0,0,1,.222-.183c.078-.06.159-.112.244-.166s.166-.1.244-.153c.03-.021.067-.044.107-.07a.721.721,0,0,0,.112-.084.55.55,0,0,0,.087-.1.226.226,0,0,0,.034-.129.312.312,0,0,0-.088-.254.332.332,0,0,0-.214-.07.32.32,0,0,0-.3.149.749.749,0,0,0-.078.395h-.68a1.367,1.367,0,0,1,.054-.489.894.894,0,0,1,.552-.584,1.29,1.29,0,0,1,.456-.077,1.531,1.531,0,0,1,.416.053.96.96,0,0,1,.325.155.679.679,0,0,1,.207.261.866.866,0,0,1,.075.369.812.812,0,0,1-.105.43,1.121,1.121,0,0,1-.267.307,2.092,2.092,0,0,1-.358.239c-.129.071-.254.145-.372.222v0h1.139v.649Zm2.352-.538a.744.744,0,0,1-.169.271.978.978,0,0,1-.325.212,1.344,1.344,0,0,1-.511.087,1.6,1.6,0,0,1-.477-.062,1.059,1.059,0,0,1-.321-.162.74.74,0,0,1-.19-.22.977.977,0,0,1-.1-.237.871.871,0,0,1-.03-.213c0-.062,0-.112,0-.145h.686a.413.413,0,0,0,.1.318.259.259,0,0,0,.128.091.524.524,0,0,0,.175.027.408.408,0,0,0,.244-.067.267.267,0,0,0,.089-.231.293.293,0,0,0-.03-.142.234.234,0,0,0-.075-.082.256.256,0,0,0-.108-.041,1.212,1.212,0,0,0-.122-.01.718.718,0,0,0-.125.007.744.744,0,0,0-.087.013v-.518c.026,0,.055.006.088.009a.926.926,0,0,0,.122.007,1.112,1.112,0,0,0,.116-.007A.348.348,0,0,0,31.678,15a.26.26,0,0,0,.084-.074.219.219,0,0,0,.03-.124.192.192,0,0,0-.03-.108.213.213,0,0,0-.078-.072.385.385,0,0,0-.105-.04.557.557,0,0,0-.114-.013.459.459,0,0,0-.139.021.272.272,0,0,0-.111.062.331.331,0,0,0-.075.1.327.327,0,0,0-.024.145h-.679a.954.954,0,0,1,.087-.409.817.817,0,0,1,.227-.285,1.021,1.021,0,0,1,.331-.166,1.424,1.424,0,0,1,.4-.057,1.209,1.209,0,0,1,.46.075.976.976,0,0,1,.3.18.669.669,0,0,1,.162.226.552.552,0,0,1,.05.2.807.807,0,0,1-.053.324.477.477,0,0,1-.114.166.267.267,0,0,1-.116.064.157.157,0,0,0-.051.017v0s.01.01.03.014a.387.387,0,0,1,.075.03.89.89,0,0,1,.1.058.364.364,0,0,1,.1.1.55.55,0,0,1,.075.169.874.874,0,0,1,.03.249A.614.614,0,0,1,32.489,16.128Z" transform="translate(8.037 3.222)" fill="#455a64"/>
      <path id="Path_172" data-name="Path 172" d="M16.165,35.45l-.078-8.431L8.442,11.085l.011,0L6,5.98,0,8.867l2.457,5.1.009,0,7.61,15.8ZM12.595,29.7l.179-1.8,1.639.923.807-2.252.251.518.041,4.813-1.485.716L10.608,29.45l-.347-.721ZM2.565,11.334,1.656,9.448,5.419,7.637l.91,1.887Z" transform="translate(0 0.45)" fill="#455a64"/>
    </g>
  </g>
</svg>
