<?xml version="1.0" encoding="UTF-8"?>
<svg xmlns="http://www.w3.org/2000/svg" xmlns:xlink="http://www.w3.org/1999/xlink" width="24pt" height="31pt" viewBox="0 0 24 31" version="1.1">
<g id="surface1">
<path style=" stroke:none;fill-rule:nonzero;fill:rgb(27.058824%,35.294118%,39.215686%);fill-opacity:1;" d="M 22.613281 2.523438 L 18.683594 2.523438 L 18.683594 1.023438 C 18.695312 0.652344 18.5 0.304688 18.171875 0.113281 C 17.847656 -0.0742188 17.445312 -0.0742188 17.117188 0.113281 C 16.792969 0.304688 16.597656 0.652344 16.605469 1.023438 L 16.605469 2.523438 L 12.863281 2.523438 L 12.863281 1.023438 C 12.875 0.652344 12.679688 0.304688 12.351562 0.113281 C 12.027344 -0.0742188 11.625 -0.0742188 11.296875 0.113281 C 10.972656 0.304688 10.777344 0.652344 10.785156 1.023438 L 10.785156 2.523438 L 7.046875 2.523438 L 7.046875 1.023438 C 7.054688 0.652344 6.859375 0.304688 6.535156 0.113281 C 6.207031 -0.0742188 5.804688 -0.0742188 5.480469 0.113281 C 5.152344 0.304688 4.957031 0.652344 4.96875 1.023438 L 4.96875 2.523438 L 1.039062 2.523438 C 0.464844 2.523438 0 2.984375 0 3.546875 L 0 30.136719 C 0 30.703125 0.464844 31.160156 1.039062 31.160156 L 22.613281 31.160156 C 23.1875 31.160156 23.652344 30.703125 23.652344 30.136719 L 23.652344 3.546875 C 23.652344 2.984375 23.1875 2.523438 22.613281 2.523438 Z M 21.574219 29.113281 L 2.078125 29.113281 L 2.078125 4.570312 L 4.96875 4.570312 L 4.96875 5.765625 C 4.960938 6.136719 5.15625 6.484375 5.480469 6.671875 C 5.808594 6.863281 6.210938 6.863281 6.539062 6.671875 C 6.863281 6.484375 7.058594 6.136719 7.046875 5.765625 L 7.046875 4.570312 L 10.789062 4.570312 L 10.789062 5.765625 C 10.78125 6.136719 10.976562 6.484375 11.300781 6.671875 C 11.625 6.863281 12.03125 6.863281 12.355469 6.671875 C 12.683594 6.484375 12.878906 6.136719 12.867188 5.765625 L 12.867188 4.570312 L 16.609375 4.570312 L 16.609375 5.765625 C 16.597656 6.136719 16.792969 6.484375 17.121094 6.671875 C 17.445312 6.863281 17.851562 6.863281 18.175781 6.671875 C 18.5 6.484375 18.695312 6.136719 18.6875 5.765625 L 18.6875 4.570312 L 21.574219 4.570312 Z M 21.574219 29.113281 "/>
<path style=" stroke:none;fill-rule:nonzero;fill:rgb(27.058824%,35.294118%,39.215686%);fill-opacity:1;" d="M 17.976562 11.433594 L 5.671875 11.433594 C 5.109375 11.449219 4.660156 11.902344 4.660156 12.457031 C 4.660156 13.011719 5.109375 13.464844 5.671875 13.480469 L 17.976562 13.480469 C 18.355469 13.488281 18.707031 13.296875 18.898438 12.976562 C 19.09375 12.65625 19.09375 12.257812 18.898438 11.9375 C 18.707031 11.617188 18.355469 11.425781 17.976562 11.433594 Z M 17.976562 11.433594 "/>
<path style=" stroke:none;fill-rule:nonzero;fill:rgb(27.058824%,35.294118%,39.215686%);fill-opacity:1;" d="M 17.976562 17.164062 L 5.671875 17.164062 C 5.292969 17.152344 4.941406 17.34375 4.75 17.664062 C 4.558594 17.984375 4.558594 18.382812 4.75 18.703125 C 4.941406 19.023438 5.292969 19.21875 5.671875 19.207031 L 17.976562 19.207031 C 18.355469 19.21875 18.707031 19.023438 18.898438 18.703125 C 19.09375 18.382812 19.09375 17.984375 18.898438 17.664062 C 18.707031 17.34375 18.355469 17.152344 17.976562 17.164062 Z M 17.976562 17.164062 "/>
<path style=" stroke:none;fill-rule:nonzero;fill:rgb(27.058824%,35.294118%,39.215686%);fill-opacity:1;" d="M 17.976562 22.890625 L 5.671875 22.890625 C 5.292969 22.878906 4.941406 23.074219 4.75 23.394531 C 4.558594 23.714844 4.558594 24.113281 4.75 24.433594 C 4.941406 24.753906 5.292969 24.945312 5.671875 24.933594 L 17.976562 24.933594 C 18.355469 24.945312 18.707031 24.753906 18.898438 24.433594 C 19.09375 24.113281 19.09375 23.714844 18.898438 23.394531 C 18.707031 23.074219 18.355469 22.878906 17.976562 22.890625 Z M 17.976562 22.890625 "/>
</g>
</svg>
