<?xml version="1.0" encoding="UTF-8"?>
<svg xmlns="http://www.w3.org/2000/svg" xmlns:xlink="http://www.w3.org/1999/xlink" width="24pt" height="24pt" viewBox="0 0 24 24" version="1.1">
<g id="surface1">
<path style=" stroke:none;fill-rule:nonzero;fill:rgb(27.058824%,35.294118%,39.215686%);fill-opacity:1;" d="M 22.644531 21.910156 L 22.140625 21.910156 L 22.140625 9.792969 C 21.53125 9.792969 20.941406 9.605469 20.445312 9.265625 C 19.945312 9.609375 19.347656 9.796875 18.734375 9.792969 C 18.605469 9.792969 18.480469 9.78125 18.355469 9.765625 L 18.355469 18.777344 C 18.355469 19.292969 17.925781 19.710938 17.398438 19.710938 L 13.960938 19.710938 L 13.960938 17.15625 L 15.171875 19.125 C 15.390625 19.480469 15.859375 19.59375 16.222656 19.382812 C 16.582031 19.171875 16.703125 18.714844 16.484375 18.359375 L 14.046875 14.402344 C 13.898438 14.164062 13.628906 14.03125 13.347656 14.050781 C 13.328125 14.050781 10.523438 14.050781 10.507812 14.050781 C 10.222656 14.027344 9.945312 14.164062 9.796875 14.402344 L 7.363281 18.363281 C 7.144531 18.714844 7.261719 19.171875 7.625 19.382812 C 7.988281 19.59375 8.457031 19.480469 8.671875 19.128906 L 9.894531 17.144531 L 9.894531 19.710938 L 6.445312 19.710938 C 5.917969 19.710938 5.488281 19.292969 5.488281 18.78125 L 5.488281 9.765625 C 5.363281 9.78125 5.238281 9.792969 5.109375 9.792969 C 4.914062 9.792969 4.71875 9.777344 4.527344 9.738281 C 4.121094 9.660156 3.738281 9.496094 3.402344 9.265625 C 2.902344 9.605469 2.3125 9.792969 1.703125 9.792969 L 1.703125 21.910156 L 1.199219 21.910156 C 0.535156 21.910156 0 22.433594 0 23.078125 C 0 23.722656 0.535156 24.242188 1.199219 24.242188 L 22.644531 24.242188 C 23.308594 24.242188 23.84375 23.722656 23.84375 23.078125 C 23.84375 22.433594 23.308594 21.910156 22.644531 21.910156 Z M 22.644531 21.910156 "/>
<path style=" stroke:none;fill-rule:nonzero;fill:rgb(27.058824%,35.294118%,39.215686%);fill-opacity:1;" d="M 11.921875 9.867188 C 11.164062 9.765625 10.417969 10.136719 10.054688 10.792969 C 9.691406 11.449219 9.785156 12.257812 10.292969 12.820312 C 10.796875 13.378906 11.605469 13.578125 12.320312 13.316406 C 13.039062 13.054688 13.515625 12.386719 13.515625 11.640625 C 13.574219 10.722656 12.863281 9.933594 11.921875 9.867188 Z M 11.921875 9.867188 "/>
<path style=" stroke:none;fill-rule:nonzero;fill:rgb(27.058824%,35.294118%,39.215686%);fill-opacity:1;" d="M 1.214844 8.480469 C 2.117188 8.742188 3.066406 8.246094 3.335938 7.367188 L 3.425781 7.074219 C 3.515625 7.886719 4.203125 8.515625 5.039062 8.550781 C 5.878906 8.585938 6.617188 8.019531 6.78125 7.214844 L 6.820312 7.011719 C 6.878906 7.816406 7.523438 8.460938 8.347656 8.542969 C 8.402344 8.546875 8.460938 8.550781 8.515625 8.550781 C 9.390625 8.550781 10.121094 7.902344 10.210938 7.054688 L 10.222656 6.933594 C 10.246094 7.828125 11 8.542969 11.921875 8.542969 C 12.839844 8.542969 13.59375 7.828125 13.621094 6.933594 L 13.632812 7.054688 C 13.71875 7.902344 14.449219 8.550781 15.324219 8.550781 C 15.378906 8.550781 15.4375 8.550781 15.496094 8.542969 C 16.320312 8.460938 16.964844 7.816406 17.023438 7.011719 L 17.0625 7.214844 C 17.226562 8.015625 17.964844 8.582031 18.804688 8.546875 C 19.640625 8.511719 20.328125 7.886719 20.417969 7.074219 L 20.507812 7.363281 C 20.722656 8.066406 21.386719 8.550781 22.140625 8.550781 C 22.308594 8.550781 22.472656 8.527344 22.628906 8.480469 C 23.53125 8.21875 24.042969 7.296875 23.773438 6.417969 L 22.234375 1.410156 C 21.980469 0.574219 21.191406 0 20.292969 0 L 3.550781 0 C 2.65625 0 1.863281 0.574219 1.609375 1.410156 L 0.0703125 6.417969 C -0.199219 7.296875 0.316406 8.21875 1.214844 8.480469 Z M 1.214844 8.480469 "/>
</g>
</svg>
