<svg xmlns="http://www.w3.org/2000/svg" width="37.899" height="39.779" viewBox="0 0 37.899 39.779">
  <g id="serial-lookup" transform="translate(-33.2 -10.1)">
    <path id="Path_136" data-name="Path 136" d="M261.784,22.27a4.576,4.576,0,0,0-1.25-2.342l-8.521-8.513a4.561,4.561,0,0,0-2.493-1.279l-.02.012-.073-.049H236.575A4.578,4.578,0,0,0,232,14.679V26.557a11.009,11.009,0,0,1,1.51-1.652,11.831,11.831,0,0,1,1.51-1.169V14.675a1.552,1.552,0,0,1,1.555-1.555h11.18v6.333a4.636,4.636,0,0,0,4.62,4.636h6.43V45.3a1.556,1.556,0,0,1-1.551,1.551H236.575A1.546,1.546,0,0,1,235.02,45.3V43.485l-1.51,1.055L232.02,45.6a4.541,4.541,0,0,0,4.551,4.283h20.683a4.569,4.569,0,0,0,4.563-4.575l.012-22.908-.045-.126Zm-11.005-2.813V14.468l6.609,6.593h-5.022a1.588,1.588,0,0,1-1.587-1.6Z" transform="translate(-190.73)" fill="#455a64"/>
    <path id="Path_137" data-name="Path 137" d="M739.65,553.614a12.575,12.575,0,0,1-.15,1.819h3.836a1.516,1.516,0,1,0,0-3.032h-3.767a11.007,11.007,0,0,1,.081,1.214Z" transform="translate(-677.628 -520.285)" fill="#455a64"/>
    <path id="Path_138" data-name="Path 138" d="M672.824,706.324a1.512,1.512,0,0,0,0-3.024h-4.79A11.98,11.98,0,0,1,666,706.324Z" transform="translate(-607.112 -665.06)" fill="#455a64"/>
    <path id="Path_139" data-name="Path 139" d="M672.824,410.6a1.514,1.514,0,0,1,0,3.028h-4.79A12.147,12.147,0,0,0,666,410.6Z" transform="translate(-607.112 -384.242)" fill="#455a64"/>
    <path id="Path_140" data-name="Path 140" d="M58.263,322.761a10.489,10.489,0,0,1-1.145,14.809,10.523,10.523,0,0,1-13.591.077l-1.145.974.812.962-6.621,5.687L33.2,341.337l6.637-5.691.824.962,1.055-.926a10.509,10.509,0,0,1,16.546-12.921Zm-1.742,7.319a6.255,6.255,0,1,0-2.168,4.275,6.247,6.247,0,0,0,2.168-4.275Z" transform="translate(0 -296.456)" fill="#455a64"/>
  </g>
</svg>
