<?xml version="1.0" encoding="UTF-8"?>
<svg xmlns="http://www.w3.org/2000/svg" xmlns:xlink="http://www.w3.org/1999/xlink" width="24pt" height="13pt" viewBox="0 0 24 13" version="1.1">
<g id="surface1">
<path style=" stroke:none;fill-rule:nonzero;fill:rgb(27.058824%,35.294118%,39.215686%);fill-opacity:1;" d="M 1.875 9.101562 L 15.957031 9.101562 L 15.957031 10.996094 L 5.710938 10.996094 C 5.398438 10.160156 4.589844 9.601562 3.675781 9.59375 C 2.761719 9.585938 1.9375 10.128906 1.613281 10.960938 C 1.214844 10.847656 0.9375 10.492188 0.9375 10.089844 L 0.9375 10.007812 C 0.9375 9.765625 1.039062 9.535156 1.210938 9.367188 C 1.386719 9.195312 1.625 9.101562 1.875 9.101562 Z M 5.210938 11.511719 C 5.210938 12.382812 4.480469 13.089844 3.582031 13.089844 C 2.683594 13.089844 1.957031 12.382812 1.957031 11.511719 C 1.957031 10.636719 2.683594 9.929688 3.582031 9.929688 C 4.480469 9.929688 5.207031 10.636719 5.210938 11.507812 Z M 4.710938 11.511719 C 4.714844 10.902344 4.210938 10.410156 3.585938 10.410156 C 2.960938 10.410156 2.453125 10.898438 2.453125 11.507812 C 2.453125 12.113281 2.957031 12.605469 3.582031 12.605469 C 4.207031 12.605469 4.710938 12.113281 4.710938 11.507812 Z M 21.65625 11.511719 C 21.65625 12.382812 20.929688 13.089844 20.03125 13.089844 C 19.132812 13.089844 18.402344 12.382812 18.402344 11.511719 C 18.402344 10.636719 19.132812 9.929688 20.03125 9.929688 C 20.929688 9.929688 21.65625 10.636719 21.65625 11.507812 Z M 21.160156 11.511719 C 21.160156 10.902344 20.652344 10.414062 20.03125 10.414062 C 19.40625 10.414062 18.902344 10.902344 18.902344 11.511719 C 18.902344 12.117188 19.40625 12.609375 20.03125 12.609375 C 20.65625 12.605469 21.160156 12.113281 21.160156 11.507812 Z M 24.03125 6.96875 L 24.03125 10.539062 C 24.03125 10.707031 23.894531 10.84375 23.722656 10.84375 L 22.09375 10.84375 C 21.742188 10.082031 20.960938 9.59375 20.101562 9.59375 C 19.242188 9.59375 18.464844 10.082031 18.109375 10.84375 L 17.015625 10.84375 C 16.84375 10.84375 16.703125 10.707031 16.703125 10.539062 L 16.703125 3.359375 C 16.703125 3.28125 16.734375 3.203125 16.792969 3.148438 C 16.851562 3.089844 16.933594 3.058594 17.015625 3.058594 L 21.105469 3.058594 C 21.351562 3.054688 21.582031 3.167969 21.726562 3.359375 Z M 22.578125 6.179688 L 21.179688 3.925781 C 21.074219 3.730469 20.941406 3.625 20.464844 3.625 L 17.925781 3.625 C 17.84375 3.625 17.765625 3.65625 17.707031 3.710938 C 17.648438 3.769531 17.613281 3.84375 17.613281 3.925781 L 17.613281 6.179688 C 17.613281 6.261719 17.648438 6.339844 17.707031 6.394531 C 17.765625 6.453125 17.84375 6.484375 17.925781 6.484375 L 22.269531 6.484375 C 22.441406 6.484375 22.578125 6.347656 22.578125 6.179688 Z M 23.792969 9.617188 C 23.792969 9.460938 23.660156 9.332031 23.5 9.332031 C 23.339844 9.332031 23.210938 9.460938 23.210938 9.617188 L 23.210938 10.152344 C 23.210938 10.304688 23.339844 10.433594 23.5 10.433594 C 23.660156 10.433594 23.792969 10.304688 23.792969 10.152344 Z M 0 8.558594 L 15.957031 8.558594 L 15.957031 0 L 0 0 Z M 0 8.558594 "/>
</g>
</svg>
