<svg xmlns="http://www.w3.org/2000/svg" width="19.002" height="19.826" viewBox="0 0 19.002 19.826">
  <g id="Group_207" data-name="Group 207" transform="translate(-790.627 -245.385)">
    <g id="inventory" transform="translate(790.627 245.385)">
      <path id="Path_121" data-name="Path 121" d="M35.441,426.888a.283.283,0,0,1-.144-.038l-4.75-2.7a.292.292,0,0,1-.148-.253v-6.061a.293.293,0,0,1,.166-.263l4.784-2.286a.285.285,0,0,1,.259,0l4.426,2.286a.291.291,0,0,1,.158.259V423.9a.288.288,0,0,1-.142.249l-4.459,2.7A.292.292,0,0,1,35.441,426.888Zm-4.459-3.16,4.455,2.529,4.172-2.525v-5.715l-4.139-2.138-4.487,2.144Z" transform="translate(-30.399 -407.062)" fill="#455a64"/>
      <path id="Path_122" data-name="Path 122" d="M265.491,537.651a.29.29,0,0,1-.291-.291v-6.114a.291.291,0,0,1,.144-.251l4.459-2.644a.292.292,0,0,1,.3.5l-4.317,2.559v5.948A.29.29,0,0,1,265.491,537.651Z" transform="translate(-260.449 -517.825)" fill="#455a64"/>
      <path id="Path_123" data-name="Path 123" d="M35.4,531.531a.3.3,0,0,1-.142-.036l-4.75-2.644a.292.292,0,0,1,.283-.51l4.75,2.644a.291.291,0,0,1,.113.4A.287.287,0,0,1,35.4,531.531Z" transform="translate(-30.36 -517.818)" fill="#455a64"/>
      <path id="Path_124" data-name="Path 124" d="M148.091,476.14a.29.29,0,0,1-.291-.291v-1.728a.291.291,0,0,1,.154-.257l4.6-2.474a.291.291,0,1,1,.275.514l-4.451,2.391v1.554A.293.293,0,0,1,148.091,476.14Z" transform="translate(-145.424 -462.021)" fill="#455a64"/>
      <path id="Path_125" data-name="Path 125" d="M490.641,426.888a.283.283,0,0,1-.144-.038l-4.75-2.7a.292.292,0,0,1-.148-.253v-6.061a.293.293,0,0,1,.166-.263l4.784-2.286a.285.285,0,0,1,.259,0l4.424,2.286a.291.291,0,0,1,.158.259V423.9a.288.288,0,0,1-.142.249l-4.457,2.7A.292.292,0,0,1,490.641,426.888Zm-4.459-3.16,4.455,2.529,4.171-2.525v-5.715l-4.139-2.138-4.487,2.144Z" transform="translate(-476.39 -407.062)" fill="#455a64"/>
      <path id="Path_126" data-name="Path 126" d="M720.691,537.651a.29.29,0,0,1-.291-.291v-6.114a.291.291,0,0,1,.144-.251L725,528.351a.292.292,0,0,1,.3.5l-4.317,2.559v5.948A.29.29,0,0,1,720.691,537.651Z" transform="translate(-706.44 -517.825)" fill="#455a64"/>
      <path id="Path_127" data-name="Path 127" d="M490.6,531.531a.3.3,0,0,1-.142-.036l-4.75-2.644a.292.292,0,0,1,.283-.51l4.75,2.644a.291.291,0,0,1,.113.4A.287.287,0,0,1,490.6,531.531Z" transform="translate(-476.351 -517.818)" fill="#455a64"/>
      <path id="Path_128" data-name="Path 128" d="M603.291,476.14a.29.29,0,0,1-.291-.291v-1.728a.291.291,0,0,1,.154-.257l4.6-2.474a.291.291,0,1,1,.275.514l-4.451,2.391v1.554A.291.291,0,0,1,603.291,476.14Z" transform="translate(-591.415 -462.021)" fill="#455a64"/>
      <path id="Path_129" data-name="Path 129" d="M271.622,21.053a.283.283,0,0,1-.134-.032l-4.43-2.286a.291.291,0,0,1-.158-.259V12.417a.3.3,0,0,1,.164-.263l4.43-2.14a.3.3,0,0,1,.247,0l4.778,2.14a.291.291,0,0,1,.172.267v6.061a.293.293,0,0,1-.166.263l-4.778,2.286A.34.34,0,0,1,271.622,21.053ZM267.483,18.3l4.145,2.138,4.483-2.144V12.605L271.626,10.6l-4.143,2Z" transform="translate(-262.115 -9.985)" fill="#455a64"/>
      <path id="Path_130" data-name="Path 130" d="M486.191,124.6a.29.29,0,0,1-.291-.291v-6.114a.292.292,0,0,1,.168-.265l4.778-2.233a.292.292,0,0,1,.247.53l-4.611,2.155V124.3A.291.291,0,0,1,486.191,124.6Z" transform="translate(-476.684 -113.527)" fill="#455a64"/>
      <path id="Path_131" data-name="Path 131" d="M271.574,118.469a.3.3,0,0,1-.132-.03l-4.43-2.233a.292.292,0,0,1,.261-.522l4.43,2.233a.292.292,0,0,1-.129.552Z" transform="translate(-262.067 -113.514)" fill="#455a64"/>
      <path id="Path_132" data-name="Path 132" d="M376.691,63.694a.29.29,0,0,1-.291-.291V61.881a.293.293,0,0,1,.16-.261L381,59.363a.292.292,0,1,1,.265.52l-4.285,2.177V63.4A.293.293,0,0,1,376.691,63.694Z" transform="translate(-369.399 -58.333)" fill="#455a64"/>
    </g>
    <path id="Path_157" data-name="Path 157" d="M0-1.819,4.467-3.287V2.263L.208,4.284Z" transform="translate(800.174 251.498)" fill="#455a64"/>
    <path id="Path_159" data-name="Path 159" d="M0-2.521,4.181-4.556,4.467,1.56.208,3.582Z" transform="translate(795.707 261.134)" fill="#455a64"/>
    <path id="Path_158" data-name="Path 158" d="M0-2.523,4-4.56,4.09,1,0,3.42Z" transform="translate(805.087 261.136)" fill="#455a64"/>
  </g>
</svg>
