<svg xmlns="http://www.w3.org/2000/svg" width="37.905" height="40.499" viewBox="0 0 37.905 40.499">
  <g id="Group_212" data-name="Group 212" transform="translate(-1251.592 -457.157)">
    <path id="Path_153" data-name="Path 153" d="M252.107,373.5q8.432,4.96,16.709,10.06v19.468c-.362.089-.7-.237-.976-.407-5.1-3.085-10.674-6.346-15.74-9.572Q252.111,383.275,252.107,373.5Z" transform="translate(1000.869 94.612)" fill="#455a64"/>
    <path id="Path_154" data-name="Path 154" d="M541.61,413.95c-5.244,2.951-11.021,5.8-16.31,8.44V402.758c5.415-2.774,10.851-5.533,16.229-8.358C541.714,400.754,541.551,407.455,541.61,413.95Z" transform="translate(747.877 75.258)" fill="#455a64"/>
    <g id="Group_211" data-name="Group 211">
      <path id="Path_152" data-name="Path 152" d="M313.139,235.3c-5.311,2.914-10.866,5.577-16.229,8.44-5.5-3.343-10.873-6.812-16.31-10.222,5.156-2.752,10.607-5.629,15.748-8.114C302.007,228.64,307.458,232.087,313.139,235.3Z" transform="translate(974.477 231.757)" fill="#455a64"/>
      <g id="return" transform="translate(1242.592 430.244)">
        <g id="reply" transform="translate(9 45.25)">
          <path id="Path_155" data-name="Path 155" d="M6.889,42.186V38.25L0,45.139l6.889,6.889V47.993c4.92,0,8.365,1.575,10.825,5.019C16.73,48.091,13.777,43.17,6.889,42.186Z" transform="translate(0 -38.25)" fill="#fff"/>
        </g>
      </g>
    </g>
  </g>
</svg>
