<svg xmlns="http://www.w3.org/2000/svg" width="34.597" height="34.597" viewBox="0 0 34.597 34.597">
  <path id="controls_1_" data-name="controls (1)" d="M0,.577V34.02a.576.576,0,0,0,.577.577H34.02a.576.576,0,0,0,.577-.577V.577A.576.576,0,0,0,34.02,0H.577A.576.576,0,0,0,0,.577Zm30.56,27.1a4.034,4.034,0,0,1-8.026.577H4.613a.577.577,0,1,1,0-1.153H22.534a4.034,4.034,0,0,1,8.026.577ZM20.712,16.722h9.272a.577.577,0,1,1,0,1.153H20.712a4.031,4.031,0,0,1-7.98,0H4.613a.577.577,0,1,1,0-1.153h8.119a4.031,4.031,0,0,1,7.98,0ZM12.063,6.343H29.984a.577.577,0,1,1,0,1.153H12.063a4.036,4.036,0,1,1,0-1.153Z" fill="#455a64"/>
</svg>
