<?xml version="1.0" encoding="UTF-8"?>
<svg xmlns="http://www.w3.org/2000/svg" xmlns:xlink="http://www.w3.org/1999/xlink" width="24pt" height="24pt" viewBox="0 0 24 24" version="1.1">
<g id="surface1">
<path style=" stroke:none;fill-rule:nonzero;fill:rgb(27.058824%,35.294118%,39.215686%);fill-opacity:1;" d="M 9.371094 6.621094 L 18.800781 6.621094 C 18.945312 6.625 19.085938 6.554688 19.160156 6.429688 C 19.234375 6.308594 19.234375 6.15625 19.160156 6.03125 C 19.085938 5.910156 18.945312 5.835938 18.800781 5.84375 L 9.371094 5.84375 C 9.226562 5.835938 9.085938 5.910156 9.011719 6.03125 C 8.9375 6.15625 8.9375 6.308594 9.011719 6.429688 C 9.085938 6.554688 9.226562 6.625 9.371094 6.621094 Z M 9.371094 6.621094 "/>
<path style=" stroke:none;fill-rule:nonzero;fill:rgb(27.058824%,35.294118%,39.215686%);fill-opacity:1;" d="M 9.371094 12.464844 L 18.800781 12.464844 C 18.945312 12.46875 19.085938 12.394531 19.160156 12.273438 C 19.234375 12.148438 19.234375 11.996094 19.160156 11.875 C 19.085938 11.75 18.945312 11.679688 18.800781 11.683594 L 9.371094 11.683594 C 9.15625 11.691406 8.988281 11.863281 8.988281 12.074219 C 8.988281 12.28125 9.15625 12.453125 9.371094 12.464844 Z M 9.371094 12.464844 "/>
<path style=" stroke:none;fill-rule:nonzero;fill:rgb(27.058824%,35.294118%,39.215686%);fill-opacity:1;" d="M 9.371094 18.304688 L 18.800781 18.304688 C 18.945312 18.3125 19.085938 18.238281 19.160156 18.113281 C 19.234375 17.992188 19.234375 17.839844 19.160156 17.714844 C 19.085938 17.59375 18.945312 17.519531 18.800781 17.527344 L 9.371094 17.527344 C 9.226562 17.519531 9.085938 17.59375 9.011719 17.714844 C 8.9375 17.839844 8.9375 17.992188 9.011719 18.113281 C 9.085938 18.238281 9.226562 18.3125 9.371094 18.304688 Z M 9.371094 18.304688 "/>
<path style=" stroke:none;fill-rule:nonzero;fill:rgb(27.058824%,35.294118%,39.215686%);fill-opacity:1;" d="M 23.601562 0 L 0.398438 0 C 0.292969 0 0.191406 0.0390625 0.117188 0.113281 C 0.0429688 0.1875 0 0.285156 0 0.390625 L 0 22.980469 C 0 23.082031 0.0429688 23.179688 0.117188 23.253906 C 0.191406 23.328125 0.292969 23.367188 0.398438 23.367188 L 23.601562 23.367188 C 23.707031 23.367188 23.808594 23.328125 23.882812 23.253906 C 23.957031 23.179688 24 23.082031 24 22.980469 L 24 0.390625 C 24 0.285156 23.957031 0.1875 23.882812 0.113281 C 23.808594 0.0390625 23.707031 0 23.601562 0 Z M 23.199219 22.589844 L 0.800781 22.589844 L 0.800781 0.777344 L 23.199219 0.777344 Z M 23.199219 22.589844 "/>
<path style=" stroke:none;fill-rule:nonzero;fill:rgb(27.058824%,35.294118%,39.215686%);fill-opacity:1;" d="M 5 7.195312 L 5.972656 6.699219 L 6.945312 7.195312 L 6.761719 6.140625 L 7.546875 5.394531 L 6.460938 5.242188 L 5.972656 4.285156 L 5.484375 5.242188 L 4.398438 5.394531 L 5.1875 6.140625 Z M 5 7.195312 "/>
<path style=" stroke:none;fill-rule:nonzero;fill:rgb(27.058824%,35.294118%,39.215686%);fill-opacity:1;" d="M 5 13.070312 L 5.972656 12.574219 L 6.945312 13.070312 L 6.761719 12.015625 L 7.546875 11.269531 L 6.457031 11.117188 L 5.972656 10.160156 L 5.484375 11.117188 L 4.398438 11.269531 L 5.1875 12.015625 Z M 5 13.070312 "/>
<path style=" stroke:none;fill-rule:nonzero;fill:rgb(27.058824%,35.294118%,39.215686%);fill-opacity:1;" d="M 5 19.085938 L 5.972656 18.585938 L 6.945312 19.085938 L 6.761719 18.03125 L 7.546875 17.285156 L 6.460938 17.132812 L 5.976562 16.171875 L 5.488281 17.132812 L 4.398438 17.285156 L 5.1875 18.03125 Z M 5 19.085938 "/>
<path style=" stroke:none;fill-rule:nonzero;fill:rgb(27.058824%,35.294118%,39.215686%);fill-opacity:1;" d="M 0 20.84375 L 24 20.84375 L 24 24 L 0 24 Z M 0 20.84375 "/>
</g>
</svg>
