<svg xmlns="http://www.w3.org/2000/svg" width="35.642" height="40.978" viewBox="0 0 35.642 40.978">
  <g id="invoices" transform="translate(-73.8 -10)">
    <g id="Group_179" data-name="Group 179" transform="translate(73.8 10)">
      <path id="Path_111" data-name="Path 111" d="M73.8-482.592v18.408h30.734V-501H73.8Zm27.532-10.564v1.014H91.3v-2.028h10.031Zm-17.319,1.771c2.518.278,4.471,1.227,5.09,2.454a1.628,1.628,0,0,1,.075,1.643c-.437.971-1.857,1.846-3.714,2.316a9.856,9.856,0,0,1-2.913.245,9.191,9.191,0,0,1-2.935-.256c-2.892-.758-4.375-2.262-3.7-3.777C76.745-490.638,80.31-491.8,84.013-491.385Zm17.319,4.045v.96H91.3V-488.3h10.031Zm-23.754,2.177a10.469,10.469,0,0,0,4.493.993c2.945.107,5.5-.608,6.84-1.9.288-.278.342-.3.406-.149a2.1,2.1,0,0,1-.833,2.06c-2.54,2.337-9.327,2.337-11.866,0a2.089,2.089,0,0,1-.833-2.049c.054-.139.16-.085.534.245A7,7,0,0,0,77.578-485.164Zm.117,2.316a9.35,9.35,0,0,0,4.909.886,9.28,9.28,0,0,0,3.159-.278,7.876,7.876,0,0,0,3.031-1.483c.373-.342.47-.384.523-.245a1.713,1.713,0,0,1-.118,1.2c-1.227,2.6-7.544,3.522-11.4,1.675-1.366-.651-2.209-1.761-2.038-2.668l.075-.384.491.437A6.282,6.282,0,0,0,77.7-482.848Zm23.637,1.376v.96H91.3v-1.921h10.031Zm-24.971.043a5.95,5.95,0,0,0,2.092,1.174c3.458,1.206,7.961.725,10.245-1.1.3-.235.576-.406.619-.363.139.139.054.833-.16,1.281a5.282,5.282,0,0,1-3.084,2.1,14.84,14.84,0,0,1-3.522.491,14.84,14.84,0,0,1-3.522-.491c-1.612-.48-2.935-1.483-3.191-2.412-.128-.459-.1-1.046.054-1.046A2.114,2.114,0,0,1,76.361-481.429Zm1.2,3.063a11.209,11.209,0,0,0,3.735.971c2.871.288,5.965-.448,7.534-1.793.459-.384.555-.342.555.256-.011,1.185-1.6,2.433-3.841,3.009a16.145,16.145,0,0,1-4.738.224,7.3,7.3,0,0,1-4.61-2.113,1.977,1.977,0,0,1-.416-1.515c.064-.2.107-.192.619.213A8.287,8.287,0,0,0,77.557-478.366Zm.138,2.337a12.085,12.085,0,0,0,1.739.608,9.1,9.1,0,0,0,3.116.288,9.216,9.216,0,0,0,3.127-.288,8.146,8.146,0,0,0,3.084-1.451c.523-.47.619-.437.619.181-.011,1.185-1.547,2.412-3.788,3.031a9.442,9.442,0,0,1-3.041.235,9.825,9.825,0,0,1-3.041-.235c-2.23-.619-3.778-1.846-3.788-3.031,0-.619.085-.64.694-.139A7.392,7.392,0,0,0,77.7-476.029Zm23.637.427v.96H91.3v-1.921h10.031Zm0,5.869v.961H77.108v-1.921h24.224Z" transform="translate(-73.8 501)" fill="#455a64"/>
      <path id="Path_112" data-name="Path 112" d="M212.58-245.616c0,.16-.107.213-.555.267-.992.139-1.686.534-1.686.971,0,.5.662.789,2.422,1.067,1.633.245,1.9.395,1.4.736a2.027,2.027,0,0,1-1.057.171,1.693,1.693,0,0,1-1.185-.256c-.342-.224-.448-.245-1.078-.181a3.322,3.322,0,0,0-.769.139c-.107.107.566.523,1.088.683a3.9,3.9,0,0,0,.96.149c.416,0,.459.021.459.267s.032.267.523.267c.47,0,.534-.032.566-.245.021-.181.107-.245.406-.267a3.867,3.867,0,0,0,1.921-.608c.566-.608-.021-1.121-1.579-1.387-1.814-.3-2.209-.406-2.241-.608-.085-.437,1.366-.566,2-.181a1.246,1.246,0,0,0,.992.149,1.761,1.761,0,0,0,.683-.171c.107-.171-.64-.512-1.419-.651-.63-.107-.779-.16-.779-.32s-.085-.192-.534-.192S212.58-245.787,212.58-245.616Z" transform="translate(-204.363 256.49)" fill="#455a64"/>
      <path id="Path_113" data-name="Path 113" d="M215.959-400.553v.907h1.708v33.188H190.572l-.075-.64-.075-.64H188.64v3.094h30.841V-401.46h-3.522v.907Z" transform="translate(-183.838 405.622)" fill="#455a64"/>
    </g>
  </g>
</svg>
