<svg xmlns="http://www.w3.org/2000/svg" width="44.287" height="42.512" viewBox="0 0 44.287 42.512">
  <g id="Group_203" data-name="Group 203" transform="translate(-789 -455.307)">
    <g id="wallet-filled-money-tool" transform="translate(789 437.467)">
      <g id="Group_195" data-name="Group 195" transform="translate(0 17.84)">
        <path id="Path_184" data-name="Path 184" d="M161.917,25.933l17.655-4.819-.935-1.89a2.488,2.488,0,0,0-3.332-1.124L159.5,25.933Z" transform="translate(-151.568 -17.84)" fill="#455a64"/>
        <path id="Path_185" data-name="Path 185" d="M339.471,86.46a2.486,2.486,0,0,0-.656.09l-4.148,1.134L322,91.14h20.644l-.776-2.845A2.482,2.482,0,0,0,339.471,86.46Z" transform="translate(-305.986 -83.047)" fill="#455a64"/>
        <path id="Path_186" data-name="Path 186" d="M39.249,215.56H2.492A2.49,2.49,0,0,0,.09,217.4a2.574,2.574,0,0,0-.09.651v27.706a2.488,2.488,0,0,0,2.487,2.487H39.244a2.487,2.487,0,0,0,2.487-2.487v-6.938H26.975a4.23,4.23,0,0,1-4.227-4.227v-5.53a4.221,4.221,0,0,1,4.222-4.222H41.731v-6.788A2.48,2.48,0,0,0,39.249,215.56Z" transform="translate(0 -205.727)" fill="#455a64"/>
        <path id="Path_187" data-name="Path 187" d="M511.388,437.412a2.483,2.483,0,0,0-.87-.517,2.534,2.534,0,0,0-.806-.134H494.887a2.487,2.487,0,0,0-2.487,2.487v5.535a2.487,2.487,0,0,0,2.487,2.487h14.825a2.535,2.535,0,0,0,.806-.134,2.413,2.413,0,0,0,.87-.517,2.478,2.478,0,0,0,.811-1.835v-5.535A2.478,2.478,0,0,0,511.388,437.412Zm-11.309,5.1a1.244,1.244,0,0,1-1.243,1.243h-.826a1.244,1.244,0,0,1-1.243-1.243v-.826a1.218,1.218,0,0,1,.477-.975,1.256,1.256,0,0,1,.766-.269h.826a1.244,1.244,0,0,1,1.243,1.243v.826Z" transform="translate(-467.912 -415.927)" fill="#455a64"/>
      </g>
    </g>
    <g id="Group_196" data-name="Group 196" transform="translate(-27 -93)">
      <path id="Path_188" data-name="Path 188" d="M572.617,55.456a7.614,7.614,0,0,0-2.232,14.086,7.753,7.753,0,0,0,6.179.574,7.61,7.61,0,0,0-.538-14.569A8.621,8.621,0,0,0,572.617,55.456Zm2.575,1.085a6.5,6.5,0,0,1,5.3,5.262,7.829,7.829,0,0,1,.049,1.4,5.543,5.543,0,0,1-.637,2.575,6.464,6.464,0,0,1-12.022-1.12,9.07,9.07,0,0,1-.14-2.855A6.48,6.48,0,0,1,575.193,56.541Z" transform="translate(253.795 511.391)" fill="#fff"/>
      <path id="Path_189" data-name="Path 189" d="M668.887,153.014l-.182.182v3.156h-1.462c-1.5,0-1.841.049-1.966.28a.692.692,0,0,0,.063.707c.133.168.147.168,1.749.189l1.617.021V160.7l.175.168a.511.511,0,0,0,.77,0l.175-.168v-3.149l1.617-.021c1.6-.021,1.617-.021,1.749-.189a.691.691,0,0,0,.063-.707c-.126-.231-.462-.28-1.966-.28h-1.463v-1.567c0-1.763-.014-1.826-.5-1.9A.393.393,0,0,0,668.887,153.014Z" transform="translate(158.651 417.354)" fill="#fff"/>
    </g>
  </g>
</svg>
