<?xml version="1.0" encoding="UTF-8"?>
<svg xmlns="http://www.w3.org/2000/svg" xmlns:xlink="http://www.w3.org/1999/xlink" width="24pt" height="17pt" viewBox="0 0 24 17" version="1.1">
<g id="surface1">
<path style=" stroke:none;fill-rule:nonzero;fill:rgb(27.058824%,35.294118%,39.215686%);fill-opacity:1;" d="M 23.917969 5.847656 L 23.917969 16.375 C 23.917969 16.753906 23.597656 17.0625 23.199219 17.0625 L 0.722656 17.0625 C 0.324219 17.0625 0 16.753906 0 16.375 L 0 5.847656 C 0 5.46875 0.324219 5.160156 0.722656 5.160156 L 2.371094 5.160156 L 2.183594 6.5 C 2.148438 6.769531 2.246094 7.042969 2.449219 7.238281 C 2.625 7.40625 2.863281 7.5 3.109375 7.5 L 3.707031 7.425781 C 3.609375 7.890625 3.300781 8.289062 2.863281 8.515625 C 2.429688 8.746094 1.910156 8.777344 1.445312 8.605469 L 1.445312 13.511719 C 2.085938 13.273438 2.816406 13.433594 3.285156 13.914062 C 3.753906 14.394531 3.867188 15.097656 3.574219 15.691406 L 20.300781 15.691406 C 20.003906 15.089844 20.128906 14.378906 20.609375 13.898438 C 21.089844 13.421875 21.832031 13.273438 22.476562 13.527344 L 22.476562 8.59375 C 21.851562 8.84375 21.132812 8.714844 20.644531 8.265625 C 20.160156 7.816406 20.003906 7.132812 20.25 6.535156 L 10.089844 6.535156 C 10.296875 6.394531 10.433594 6.179688 10.46875 5.9375 C 10.515625 5.648438 10.40625 5.359375 10.179688 5.160156 L 16.632812 5.160156 C 15.785156 3.722656 14.296875 2.726562 12.585938 2.457031 C 10.875 2.1875 9.128906 2.667969 7.839844 3.769531 L 6.972656 4.59375 L 9.554688 5.664062 C 9.644531 5.699219 9.695312 5.785156 9.679688 5.875 C 9.667969 5.960938 9.59375 6.03125 9.5 6.042969 L 3.058594 6.84375 C 2.992188 6.851562 2.929688 6.832031 2.882812 6.785156 C 2.835938 6.742188 2.816406 6.679688 2.824219 6.621094 L 3.664062 0.492188 C 3.675781 0.40625 3.75 0.335938 3.84375 0.320312 C 3.9375 0.308594 4.027344 0.355469 4.066406 0.441406 L 5.191406 2.898438 L 5.820312 2.300781 L 5.8125 2.292969 C 6.035156 2.082031 6.269531 1.882812 6.515625 1.695312 C 6.675781 1.574219 6.839844 1.457031 7.011719 1.351562 C 9.113281 -0.0117188 11.761719 -0.371094 14.183594 0.375 C 16.601562 1.117188 18.527344 2.886719 19.390625 5.160156 L 23.199219 5.160156 C 23.597656 5.160156 23.917969 5.46875 23.917969 5.847656 Z M 23.917969 5.847656 "/>
</g>
</svg>
