<?xml version="1.0" encoding="UTF-8"?>
<svg xmlns="http://www.w3.org/2000/svg" xmlns:xlink="http://www.w3.org/1999/xlink" width="24pt" height="25pt" viewBox="0 0 24 25" version="1.1">
<g id="surface1">
<path style=" stroke:none;fill-rule:nonzero;fill:rgb(27.058824%,35.294118%,39.215686%);fill-opacity:1;" d="M 23.90625 7.605469 C 23.796875 7.050781 23.523438 6.542969 23.117188 6.140625 L 17.738281 0.820312 C 17.308594 0.398438 16.757812 0.117188 16.160156 0.0234375 L 16.148438 0.03125 L 16.101562 0 L 7.984375 0 C 6.390625 0 5.097656 1.28125 5.097656 2.863281 L 5.097656 10.285156 C 5.378906 9.910156 5.699219 9.5625 6.050781 9.253906 C 6.347656 8.984375 6.667969 8.738281 7.003906 8.523438 L 7.003906 2.859375 C 7.003906 2.601562 7.105469 2.355469 7.292969 2.171875 C 7.476562 1.988281 7.726562 1.886719 7.984375 1.886719 L 15.046875 1.886719 L 15.046875 5.84375 C 15.046875 7.441406 16.351562 8.738281 17.964844 8.742188 L 22.027344 8.742188 L 22.027344 22 C 22.023438 22.535156 21.585938 22.96875 21.046875 22.96875 L 7.984375 22.96875 C 7.726562 22.972656 7.476562 22.871094 7.292969 22.6875 C 7.105469 22.503906 7.003906 22.257812 7.003906 22 L 7.003906 20.867188 L 6.050781 21.523438 L 5.109375 22.1875 C 5.195312 23.695312 6.457031 24.871094 7.984375 24.863281 L 21.046875 24.863281 C 22.640625 24.863281 23.929688 23.582031 23.929688 22.003906 L 23.9375 7.6875 L 23.90625 7.609375 Z M 16.957031 5.847656 L 16.957031 2.730469 L 21.132812 6.851562 L 17.960938 6.851562 C 17.691406 6.851562 17.4375 6.746094 17.25 6.558594 C 17.058594 6.371094 16.957031 6.113281 16.957031 5.851562 Z M 16.957031 5.847656 "/>
<path style=" stroke:none;fill-rule:nonzero;fill:rgb(27.058824%,35.294118%,39.215686%);fill-opacity:1;" d="M 18.203125 14.519531 C 18.199219 14.898438 18.167969 15.277344 18.109375 15.65625 L 20.53125 15.65625 C 21.058594 15.65625 21.488281 15.230469 21.488281 14.707031 C 21.488281 14.183594 21.058594 13.761719 20.53125 13.761719 L 18.152344 13.761719 C 18.183594 14.011719 18.199219 14.265625 18.203125 14.519531 Z M 18.203125 14.519531 "/>
<path style=" stroke:none;fill-rule:nonzero;fill:rgb(27.058824%,35.294118%,39.215686%);fill-opacity:1;" d="M 20.535156 19.476562 C 21.0625 19.476562 21.488281 19.054688 21.488281 18.53125 C 21.488281 18.011719 21.0625 17.585938 20.535156 17.585938 L 17.507812 17.585938 C 17.179688 18.277344 16.746094 18.917969 16.222656 19.476562 Z M 20.535156 19.476562 "/>
<path style=" stroke:none;fill-rule:nonzero;fill:rgb(27.058824%,35.294118%,39.215686%);fill-opacity:1;" d="M 20.535156 10.160156 C 21.0625 10.160156 21.488281 10.585938 21.488281 11.109375 C 21.488281 11.628906 21.0625 12.054688 20.535156 12.054688 L 17.507812 12.054688 C 17.179688 11.363281 16.746094 10.722656 16.222656 10.160156 Z M 20.535156 10.160156 "/>
<path style=" stroke:none;fill-rule:nonzero;fill:rgb(27.058824%,35.294118%,39.215686%);fill-opacity:1;" d="M 15.828125 10.128906 C 16.976562 11.449219 17.542969 13.167969 17.410156 14.90625 C 17.273438 16.640625 16.445312 18.253906 15.105469 19.382812 C 12.640625 21.472656 9.011719 21.492188 6.523438 19.433594 L 5.800781 20.039062 L 6.3125 20.640625 L 2.128906 24.195312 L 0 21.738281 L 4.191406 18.179688 L 4.710938 18.78125 L 5.378906 18.203125 C 3.335938 15.339844 3.925781 11.394531 6.714844 9.238281 C 9.507812 7.082031 13.515625 7.472656 15.828125 10.128906 Z M 14.730469 14.703125 C 14.871094 12.84375 13.667969 11.144531 11.855469 10.640625 C 10.039062 10.136719 8.117188 10.972656 7.265625 12.636719 C 6.414062 14.300781 6.867188 16.328125 8.347656 17.480469 C 9.832031 18.632812 11.929688 18.585938 13.359375 17.375 C 14.15625 16.699219 14.648438 15.738281 14.730469 14.703125 Z M 14.730469 14.703125 "/>
</g>
</svg>
