<svg xmlns="http://www.w3.org/2000/svg" width="52.093" height="38.798" viewBox="0 0 52.093 38.798">
  <path id="ticket" d="M114.588,198.307l-2.364-7.406a.826.826,0,0,0-.792-.542c-2.358.065-3.787-.774-4.418-2.536a3.937,3.937,0,0,1-.048-2.614,4.04,4.04,0,0,1,2-2.346.761.761,0,0,0,.363-.863l-2.376-7.448a.613.613,0,0,0-.768-.4l-10.544,3.37.22.691a6.543,6.543,0,0,1-.893.369,6.041,6.041,0,0,1-.947.22l-.22-.691-30.852,9.842a.613.613,0,0,0-.4.768l2.37,7.424a.85.85,0,0,0,.8.554c2.376-.065,3.8.8,4.412,2.643.625,1.923.018,3.406-2.024,4.834a.847.847,0,0,0-.322.917l2.364,7.4a.611.611,0,0,0,.768.4l30.84-9.847-.226-.7a6.238,6.238,0,0,1,1.84-.589l.226.7,10.592-3.382A.611.611,0,0,0,114.588,198.307Zm-20.13-18.129a6.241,6.241,0,0,1,1.84-.589l.97,3.042a5.867,5.867,0,0,1-.893.369,5.443,5.443,0,0,1-.947.22Zm1.417,4.436a6.241,6.241,0,0,1,1.84-.589l.97,3.042a6.545,6.545,0,0,1-.893.369,6.045,6.045,0,0,1-.947.22Zm1.417,4.43a6.241,6.241,0,0,1,1.84-.589l.97,3.042a6.545,6.545,0,0,1-.893.369,6.039,6.039,0,0,1-.947.22Zm1.417,4.436a6.239,6.239,0,0,1,1.84-.589l.97,3.042a5.872,5.872,0,0,1-.893.369,5.443,5.443,0,0,1-.947.22Zm3.334,7.258a5.445,5.445,0,0,1-.947.22l-.976-3.048a6.242,6.242,0,0,1,1.84-.589l.97,3.042a5.016,5.016,0,0,1-.887.375Z" transform="translate(-62.524 -174.124)" fill="#455a64"/>
</svg>
