<?xml version="1.0" encoding="UTF-8"?>
<svg xmlns="http://www.w3.org/2000/svg" xmlns:xlink="http://www.w3.org/1999/xlink" width="24pt" height="24pt" viewBox="0 0 24 24" version="1.1">
<g id="surface1">
<path style=" stroke:none;fill-rule:nonzero;fill:rgb(27.058824%,35.294118%,39.215686%);fill-opacity:1;" d="M 6 19.203125 L 6 24 L 18 24 L 18 16 L 6 16 Z M 7.5 17.601562 L 16.503906 17.601562 L 16.503906 19.203125 L 7.5 19.203125 Z M 7.5 20.800781 L 16.503906 20.800781 L 16.503906 22.398438 L 7.5 22.398438 Z M 7.5 20.800781 "/>
<path style=" stroke:none;fill-rule:nonzero;fill:rgb(27.058824%,35.294118%,39.215686%);fill-opacity:1;" d="M 18 4.800781 L 18 0 L 6 0 L 6 8 L 18 8 Z M 18 4.800781 "/>
<path style=" stroke:none;fill-rule:nonzero;fill:rgb(27.058824%,35.294118%,39.215686%);fill-opacity:1;" d="M 21 4.800781 L 19.5 4.800781 L 19.5 9.601562 L 4.5 9.601562 L 4.5 4.800781 L 3 4.800781 C 1.339844 4.96875 0.0625 6.335938 0 8 L 0 16.003906 C 0.0625 17.667969 1.34375 19.03125 3 19.199219 L 4.5 19.199219 L 4.5 14.402344 L 19.503906 14.402344 L 19.503906 19.199219 L 21.003906 19.199219 C 22.664062 19.03125 23.945312 17.667969 24.003906 16 L 24.003906 8 C 23.941406 6.335938 22.660156 4.96875 21 4.800781 Z M 21 4.800781 "/>
</g>
</svg>
