<svg xmlns="http://www.w3.org/2000/svg" width="40.454" height="40.454" viewBox="0 0 40.454 40.454">
  <g id="replace" transform="translate(-10 -10)">
    <path id="Path_179" data-name="Path 179" d="M50.454,30.231a20.178,20.178,0,0,1-34.675,14.08v3.253a1.734,1.734,0,0,1-3.467,0V39.474a1.734,1.734,0,0,1,1.734-1.734h8.091a1.734,1.734,0,1,1,0,3.467h-4.5a16.714,16.714,0,0,0,29.354-10.98c0-.194-.025-.384-.029-.578H47.1a1.711,1.711,0,0,1,3.236,0h.087c0,.194.029.384.029.582Zm-4.045-7.517H38.318a1.734,1.734,0,1,1,0-3.467H42.83A16.7,16.7,0,0,0,13.5,29.649h-.144a1.711,1.711,0,0,1-3.236,0h-.087c0-.107.021-.206.025-.314A1.872,1.872,0,0,1,10,29.071a1.718,1.718,0,0,1,.12-.6A20.17,20.17,0,0,1,44.675,16.105V12.89a1.734,1.734,0,1,1,3.467,0V20.98a1.734,1.734,0,0,1-1.734,1.734Z" fill="#455a64"/>
  </g>
</svg>
