<svg id="Layer_8_21_" xmlns="http://www.w3.org/2000/svg" width="46.842" height="35.13" viewBox="0 0 46.842 35.13">
  <path id="Path_40" data-name="Path 40" d="M46.842,70.088V91.765a1.413,1.413,0,0,1-1.413,1.413H1.413A1.413,1.413,0,0,1,0,91.765V70.088a1.413,1.413,0,0,1,1.413-1.413H4.64l-.36,2.753A1.839,1.839,0,0,0,4.8,72.954a1.812,1.812,0,0,0,1.289.534l1.168-.152a3.3,3.3,0,0,1-4.429,2.434V85.864A3.3,3.3,0,0,1,7,90.351H39.752A3.305,3.305,0,0,1,44.014,85.9V75.741a3.3,3.3,0,0,1-4.355-4.24h-19.9a1.806,1.806,0,0,0,.746-1.225,1.827,1.827,0,0,0-.571-1.6H32.569a11.185,11.185,0,0,0-17.218-2.869l-1.7,1.7,5.064,2.2a.411.411,0,0,1-.11.785L5.99,72.138a.411.411,0,0,1-.461-.461L7.178,59.065a.411.411,0,0,1,.35-.354.412.412,0,0,1,.436.244l2.2,5.064L11.4,62.789l-.018-.019a16.273,16.273,0,0,1,1.379-1.227,10.486,10.486,0,0,1,.97-.714,16.134,16.134,0,0,1,24.245,7.845h7.457A1.414,1.414,0,0,1,46.842,70.088Z" transform="translate(0 -58.049)" fill="#455a64"/>
</svg>
