<?xml version="1.0" encoding="UTF-8"?>
<svg xmlns="http://www.w3.org/2000/svg" xmlns:xlink="http://www.w3.org/1999/xlink" width="24pt" height="22pt" viewBox="0 0 24 22" version="1.1">
<g id="surface1">
<path style=" stroke:none;fill-rule:nonzero;fill:rgb(27.058824%,35.294118%,39.215686%);fill-opacity:1;" d="M 18.539062 0 C 16.207031 0.015625 14.128906 1.417969 13.324219 3.519531 L 3.640625 3.519531 C 3.425781 3.53125 3.25 3.703125 3.25 3.914062 L 3.160156 17.070312 L 0.398438 17.070312 C 0.296875 17.0625 0.199219 17.101562 0.121094 17.167969 C 0.046875 17.234375 0.00390625 17.328125 0 17.425781 L 0 19.09375 C 0.00390625 20.667969 1.292969 21.957031 2.925781 22.03125 L 2.925781 22.039062 L 14.96875 22.039062 L 14.96875 22.027344 C 15.066406 22.03125 15.105469 22.039062 15.167969 22.039062 L 15.175781 22.039062 C 16.867188 22.035156 18.234375 20.71875 18.234375 19.09375 L 18.234375 10.652344 C 18.332031 10.65625 18.4375 10.660156 18.539062 10.660156 C 21.601562 10.660156 24.082031 8.273438 24.082031 5.328125 C 24.082031 2.386719 21.601562 0 18.539062 0 Z M 3.074219 21.289062 C 1.8125 21.285156 0.785156 20.304688 0.78125 19.089844 L 0.78125 17.820312 L 12.09375 17.820312 L 12.09375 19.085938 C 12.09375 19.867188 12.417969 20.621094 12.996094 21.171875 C 13.035156 21.210938 13.085938 21.242188 13.128906 21.289062 Z M 17.457031 19.089844 C 17.457031 20.300781 16.4375 21.285156 15.175781 21.289062 L 15.167969 21.289062 C 13.90625 21.285156 12.878906 20.304688 12.871094 19.085938 L 12.871094 17.425781 C 12.875 17.332031 12.835938 17.238281 12.769531 17.171875 C 12.699219 17.101562 12.601562 17.066406 12.503906 17.070312 L 3.941406 17.070312 L 4.03125 4.269531 L 13.105469 4.269531 C 13.039062 4.613281 13.003906 4.964844 13 5.3125 C 13 6.050781 13.160156 6.78125 13.472656 7.460938 L 9.789062 7.460938 C 9.574219 7.460938 9.398438 7.628906 9.398438 7.835938 C 9.398438 8.042969 9.574219 8.210938 9.789062 8.210938 L 13.894531 8.210938 C 14.699219 9.425781 15.988281 10.273438 17.457031 10.558594 Z M 18.539062 9.910156 C 15.910156 9.910156 13.78125 7.859375 13.78125 5.335938 C 13.78125 2.808594 15.910156 0.761719 18.539062 0.761719 C 21.167969 0.761719 23.296875 2.808594 23.296875 5.335938 C 23.296875 7.859375 21.167969 9.910156 18.539062 9.910156 Z M 18.539062 9.910156 "/>
<path style=" stroke:none;fill-rule:nonzero;fill:rgb(27.058824%,35.294118%,39.215686%);fill-opacity:1;" d="M 7.285156 9.953125 C 6.621094 9.976562 6.101562 10.503906 6.113281 11.140625 C 6.128906 11.777344 6.671875 12.285156 7.335938 12.28125 C 8 12.273438 8.53125 11.753906 8.53125 11.117188 C 8.527344 10.804688 8.394531 10.503906 8.160156 10.285156 C 7.925781 10.070312 7.609375 9.949219 7.285156 9.953125 Z M 7.285156 11.527344 C 7.050781 11.507812 6.878906 11.316406 6.894531 11.09375 C 6.90625 10.871094 7.101562 10.695312 7.335938 10.703125 C 7.566406 10.710938 7.753906 10.894531 7.753906 11.117188 C 7.742188 11.355469 7.53125 11.539062 7.285156 11.527344 Z M 7.285156 11.527344 "/>
<path style=" stroke:none;fill-rule:nonzero;fill:rgb(27.058824%,35.294118%,39.215686%);fill-opacity:1;" d="M 9.398438 11.113281 C 9.398438 11.320312 9.570312 11.488281 9.789062 11.488281 L 14.988281 11.488281 C 15.203125 11.488281 15.378906 11.320312 15.378906 11.113281 C 15.378906 10.90625 15.203125 10.738281 14.988281 10.738281 L 9.789062 10.738281 C 9.570312 10.738281 9.398438 10.90625 9.398438 11.113281 Z M 9.398438 11.113281 "/>
<path style=" stroke:none;fill-rule:nonzero;fill:rgb(27.058824%,35.294118%,39.215686%);fill-opacity:1;" d="M 7.285156 6.691406 C 6.621094 6.714844 6.101562 7.242188 6.113281 7.878906 C 6.128906 8.515625 6.671875 9.023438 7.335938 9.019531 C 8 9.011719 8.53125 8.492188 8.53125 7.855469 C 8.527344 7.542969 8.394531 7.242188 8.160156 7.023438 C 7.925781 6.808594 7.609375 6.6875 7.285156 6.691406 Z M 7.285156 8.265625 C 7.050781 8.246094 6.878906 8.054688 6.894531 7.832031 C 6.90625 7.605469 7.101562 7.433594 7.335938 7.441406 C 7.566406 7.449219 7.753906 7.632812 7.753906 7.855469 C 7.742188 8.09375 7.53125 8.277344 7.285156 8.265625 Z M 7.285156 8.265625 "/>
<path style=" stroke:none;fill-rule:nonzero;fill:rgb(27.058824%,35.294118%,39.215686%);fill-opacity:1;" d="M 7.285156 13.214844 C 6.621094 13.234375 6.101562 13.765625 6.113281 14.402344 C 6.128906 15.039062 6.671875 15.546875 7.335938 15.539062 C 8 15.53125 8.53125 15.015625 8.53125 14.375 C 8.527344 14.0625 8.394531 13.765625 8.160156 13.546875 C 7.925781 13.328125 7.609375 13.210938 7.285156 13.214844 Z M 7.285156 14.789062 C 7.050781 14.769531 6.878906 14.574219 6.894531 14.351562 C 6.90625 14.128906 7.101562 13.957031 7.335938 13.964844 C 7.566406 13.96875 7.753906 14.152344 7.753906 14.375 C 7.742188 14.613281 7.53125 14.800781 7.285156 14.789062 Z M 7.285156 14.789062 "/>
<path style=" stroke:none;fill-rule:nonzero;fill:rgb(27.058824%,35.294118%,39.215686%);fill-opacity:1;" d="M 14.988281 14.019531 L 9.785156 14.019531 C 9.570312 14.019531 9.394531 14.1875 9.394531 14.394531 C 9.394531 14.601562 9.570312 14.769531 9.785156 14.769531 L 14.988281 14.769531 C 15.203125 14.769531 15.378906 14.601562 15.378906 14.394531 C 15.378906 14.1875 15.203125 14.019531 14.988281 14.019531 Z M 14.988281 14.019531 "/>
<path style=" stroke:none;fill-rule:nonzero;fill:rgb(27.058824%,35.294118%,39.215686%);fill-opacity:1;" d="M 18.601562 0.382812 C 15.824219 0.382812 13.574219 2.546875 13.574219 5.214844 C 13.574219 7.886719 15.824219 10.050781 18.601562 10.050781 C 21.378906 10.050781 23.628906 7.886719 23.628906 5.214844 C 23.621094 2.550781 21.375 0.390625 18.601562 0.382812 Z M 21.113281 6.957031 L 20.410156 7.632812 L 18.601562 5.894531 L 16.789062 7.632812 L 16.085938 6.957031 L 17.898438 5.214844 L 16.085938 3.476562 L 16.789062 2.796875 L 18.601562 4.539062 L 20.410156 2.796875 L 21.113281 3.472656 L 19.304688 5.214844 Z M 21.113281 6.957031 "/>
</g>
</svg>
