<?xml version="1.0" encoding="UTF-8"?>
<svg xmlns="http://www.w3.org/2000/svg" xmlns:xlink="http://www.w3.org/1999/xlink" width="24pt" height="18pt" viewBox="0 0 24 18" version="1.1">
<g id="surface1">
<path style=" stroke:none;fill-rule:nonzero;fill:rgb(27.058824%,35.294118%,39.215686%);fill-opacity:1;" d="M 24.03125 11.160156 L 22.9375 7.742188 C 22.882812 7.589844 22.734375 7.488281 22.574219 7.492188 C 21.484375 7.523438 20.824219 7.136719 20.535156 6.324219 C 20.390625 5.933594 20.382812 5.507812 20.511719 5.117188 C 20.664062 4.648438 20.996094 4.257812 21.433594 4.035156 C 21.574219 3.953125 21.644531 3.789062 21.601562 3.636719 L 20.503906 0.199219 C 20.457031 0.046875 20.300781 -0.0351562 20.152344 0.0117188 L 15.285156 1.566406 L 15.386719 1.886719 C 15.253906 1.953125 15.117188 2.011719 14.972656 2.058594 C 14.832031 2.101562 14.683594 2.136719 14.535156 2.160156 L 14.433594 1.839844 L 0.195312 6.382812 C 0.046875 6.429688 -0.0351562 6.589844 0.0117188 6.738281 L 1.105469 10.164062 C 1.164062 10.316406 1.308594 10.417969 1.476562 10.417969 C 2.570312 10.390625 3.226562 10.789062 3.511719 11.640625 C 3.800781 12.527344 3.519531 13.210938 2.578125 13.871094 C 2.441406 13.964844 2.382812 14.136719 2.429688 14.292969 L 3.519531 17.707031 C 3.542969 17.78125 3.589844 17.839844 3.65625 17.875 C 3.726562 17.910156 3.800781 17.917969 3.875 17.894531 L 18.109375 13.347656 L 18.003906 13.027344 C 18.269531 12.890625 18.558594 12.800781 18.851562 12.753906 L 18.957031 13.078125 L 23.84375 11.515625 C 23.917969 11.492188 23.976562 11.441406 24.011719 11.375 C 24.046875 11.308594 24.050781 11.234375 24.03125 11.160156 Z M 14.738281 2.792969 C 15.007812 2.660156 15.292969 2.566406 15.589844 2.523438 L 16.035156 3.925781 C 15.902344 3.996094 15.765625 4.050781 15.625 4.097656 C 15.480469 4.144531 15.335938 4.175781 15.1875 4.199219 Z M 15.394531 4.839844 C 15.660156 4.707031 15.945312 4.617188 16.242188 4.570312 L 16.691406 5.972656 C 16.558594 6.039062 16.417969 6.097656 16.277344 6.144531 C 16.136719 6.191406 15.988281 6.222656 15.839844 6.246094 Z M 16.046875 6.886719 C 16.3125 6.753906 16.601562 6.660156 16.894531 6.613281 L 17.34375 8.019531 C 17.210938 8.085938 17.074219 8.140625 16.929688 8.1875 C 16.789062 8.234375 16.644531 8.269531 16.496094 8.289062 Z M 16.699219 8.933594 C 16.96875 8.800781 17.253906 8.707031 17.550781 8.660156 L 17.996094 10.066406 C 17.863281 10.132812 17.726562 10.191406 17.585938 10.234375 C 17.441406 10.28125 17.296875 10.316406 17.148438 10.335938 Z M 18.238281 12.285156 C 18.097656 12.332031 17.949219 12.363281 17.800781 12.386719 L 17.351562 10.976562 C 17.621094 10.84375 17.90625 10.753906 18.203125 10.707031 L 18.648438 12.109375 C 18.519531 12.179688 18.382812 12.238281 18.238281 12.285156 Z M 18.238281 12.285156 "/>
</g>
</svg>
