<?xml version="1.0" encoding="UTF-8"?>
<svg xmlns="http://www.w3.org/2000/svg" xmlns:xlink="http://www.w3.org/1999/xlink" width="24pt" height="24pt" viewBox="0 0 24 24" version="1.1">
<g id="surface1">
<path style=" stroke:none;fill-rule:nonzero;fill:rgb(27.058824%,35.294118%,39.215686%);fill-opacity:1;" d="M 7.246094 19.328125 C 5.914062 19.328125 4.832031 20.410156 4.832031 21.742188 C 4.832031 23.078125 5.914062 24.160156 7.246094 24.160156 C 8.582031 24.160156 9.664062 23.078125 9.664062 21.742188 C 9.675781 21.101562 9.425781 20.480469 8.96875 20.023438 C 8.511719 19.566406 7.890625 19.316406 7.246094 19.328125 Z M 0 0 L 0 2.414062 L 2.414062 2.414062 L 6.761719 11.597656 L 5.074219 14.496094 C 4.914062 14.878906 4.832031 15.289062 4.832031 15.703125 C 4.820312 16.347656 5.070312 16.96875 5.527344 17.425781 C 5.980469 17.878906 6.601562 18.132812 7.246094 18.121094 L 21.746094 18.121094 L 21.746094 15.703125 L 7.730469 15.703125 C 7.601562 15.695312 7.496094 15.59375 7.488281 15.460938 L 7.488281 15.300781 L 8.539062 13.289062 L 17.476562 13.289062 C 18.347656 13.3125 19.15625 12.84375 19.570312 12.078125 L 23.917969 4.1875 C 24.097656 4.058594 24.191406 3.839844 24.160156 3.625 C 24.179688 3.296875 24.058594 2.976562 23.828125 2.746094 C 23.597656 2.515625 23.277344 2.394531 22.953125 2.414062 L 5.074219 2.414062 L 4.027344 0 Z M 19.328125 19.328125 C 17.992188 19.328125 16.914062 20.410156 16.914062 21.742188 C 16.914062 23.078125 17.992188 24.160156 19.328125 24.160156 C 20.664062 24.160156 21.742188 23.078125 21.742188 21.742188 C 21.753906 21.101562 21.503906 20.480469 21.050781 20.023438 C 20.59375 19.566406 19.972656 19.316406 19.328125 19.328125 Z M 19.328125 19.328125 "/>
</g>
</svg>
