<svg id="boxes" xmlns="http://www.w3.org/2000/svg" width="51.999" height="51.999" viewBox="0 0 51.999 51.999">
  <path id="Path_213" data-name="Path 213" d="M225.832,0h6.128V4.293h-6.128Zm0,0" transform="translate(-202.896 0)" fill="#455a64"/>
  <path id="Path_214" data-name="Path 214" d="M160.448,216.8H136.093a3.069,3.069,0,0,0,3,2.458h18.349A3.068,3.068,0,0,0,160.448,216.8Zm0,0" transform="translate(-122.271 -194.783)" fill="#455a64"/>
  <path id="Path_215" data-name="Path 215" d="M361.336,271h6.127v4.293h-6.127Zm0,0" transform="translate(-324.638 -243.477)" fill="#455a64"/>
  <path id="Path_216" data-name="Path 216" d="M90.332,271H96.46v4.293H90.332Zm0,0" transform="translate(-81.158 -243.477)" fill="#455a64"/>
  <path id="Path_217" data-name="Path 217" d="M159.976,3.064A3.067,3.067,0,0,0,156.913,0h-3.064V5.816a1.524,1.524,0,0,1-1.523,1.523h-9.175a1.523,1.523,0,0,1-1.523-1.523V0h-3.063A3.067,3.067,0,0,0,135.5,3.064V18.972h24.476Zm0,0" transform="translate(-121.739)" fill="#455a64"/>
  <path id="Path_218" data-name="Path 218" d="M3.6,490.258H21.945a3.068,3.068,0,0,0,3-2.458H.593a3.069,3.069,0,0,0,3,2.458Zm0,0" transform="translate(-0.533 -438.259)" fill="#455a64"/>
  <path id="Path_219" data-name="Path 219" d="M292.413,271h-3.064v5.816a1.524,1.524,0,0,1-1.523,1.523h-9.174a1.523,1.523,0,0,1-1.523-1.523V271h-3.064A3.067,3.067,0,0,0,271,274.064v15.908h24.476V274.064A3.067,3.067,0,0,0,292.413,271Zm0,0" transform="translate(-243.477 -243.477)" fill="#455a64"/>
  <path id="Path_220" data-name="Path 220" d="M274.6,490.258h18.349a3.068,3.068,0,0,0,3-2.458H271.6A3.068,3.068,0,0,0,274.6,490.258Zm0,0" transform="translate(-244.014 -438.259)" fill="#455a64"/>
  <path id="Path_221" data-name="Path 221" d="M21.412,271H18.349v5.816a1.524,1.524,0,0,1-1.523,1.523H7.651a1.524,1.524,0,0,1-1.523-1.523V271H3.064A3.067,3.067,0,0,0,0,274.064v15.908H24.476V274.064A3.067,3.067,0,0,0,21.412,271Zm0,0" transform="translate(0 -243.477)" fill="#455a64"/>
</svg>
