<?xml version="1.0" encoding="UTF-8"?>
<svg xmlns="http://www.w3.org/2000/svg" xmlns:xlink="http://www.w3.org/1999/xlink" width="24pt" height="25pt" viewBox="0 0 24 25" version="1.1">
<g id="surface1">
<path style=" stroke:none;fill-rule:nonzero;fill:rgb(27.058824%,35.294118%,39.215686%);fill-opacity:1;" d="M 0.875 6.847656 C 4.425781 8.914062 7.941406 11.007812 11.425781 13.132812 L 11.425781 25.300781 C 11.199219 25.359375 10.984375 25.152344 10.8125 25.046875 C 7.589844 23.121094 4.070312 21.082031 0.871094 19.066406 C 0.875 14.992188 0.875 10.917969 0.875 6.847656 Z M 0.875 6.847656 "/>
<path style=" stroke:none;fill-rule:nonzero;fill:rgb(27.058824%,35.294118%,39.215686%);fill-opacity:1;" d="M 23.933594 20.03125 C 20.621094 21.875 16.972656 23.65625 13.632812 25.308594 L 13.632812 13.035156 C 17.050781 11.304688 20.484375 9.578125 23.882812 7.8125 C 24 11.785156 23.894531 15.972656 23.933594 20.03125 Z M 23.933594 20.03125 "/>
<path style=" stroke:none;fill-rule:nonzero;fill:rgb(27.058824%,35.294118%,39.215686%);fill-opacity:1;" d="M 22.753906 6.1875 C 19.398438 8.007812 15.890625 9.671875 12.503906 11.460938 C 9.027344 9.375 5.636719 7.203125 2.199219 5.074219 C 5.457031 3.355469 8.898438 1.554688 12.148438 0.00390625 C 15.722656 2.023438 19.164062 4.179688 22.753906 6.1875 Z M 22.753906 6.1875 "/>
<path style=" stroke:none;fill-rule:nonzero;fill:rgb(100%,100%,100%);fill-opacity:1;" d="M 4.351562 13.921875 L 4.351562 11.460938 L 0 15.765625 L 4.351562 20.070312 L 4.351562 17.550781 C 7.457031 17.550781 9.632812 18.535156 11.1875 20.6875 C 10.566406 17.609375 8.703125 14.535156 4.351562 13.921875 Z M 4.351562 13.921875 "/>
</g>
</svg>
