<?xml version="1.0" encoding="UTF-8"?>
<svg xmlns="http://www.w3.org/2000/svg" xmlns:xlink="http://www.w3.org/1999/xlink" width="24pt" height="24pt" viewBox="0 0 24 24" version="1.1">
<g id="surface1">
<path style=" stroke:none;fill-rule:nonzero;fill:rgb(27.058824%,35.294118%,39.215686%);fill-opacity:1;" d="M 11.800781 13.679688 L 13.113281 14.894531 C 13.605469 14.445312 14.101562 13.992188 14.589844 13.53125 C 14.636719 13.453125 14.664062 13.367188 14.664062 13.277344 C 14.695312 12.929688 14.75 12.585938 14.832031 12.246094 C 15.1875 11.1875 16.203125 10.5 17.320312 10.566406 C 17.414062 10.558594 17.503906 10.515625 17.566406 10.445312 C 19.304688 8.660156 21.039062 6.871094 22.769531 5.082031 C 23.179688 4.660156 23.589844 4.230469 23.996094 3.804688 C 23.976562 3.773438 23.96875 3.75 23.953125 3.734375 C 23.085938 2.835938 22.214844 1.941406 21.351562 1.039062 C 21.023438 0.699219 20.707031 0.347656 20.386719 0 L 20.292969 0 C 20.273438 0.0234375 20.257812 0.0507812 20.238281 0.0742188 C 18.128906 2.246094 16.023438 4.421875 13.917969 6.605469 C 13.832031 6.695312 13.78125 6.8125 13.777344 6.9375 C 13.867188 8.28125 12.878906 9.457031 11.542969 9.601562 C 11.121094 9.601562 10.722656 9.804688 10.476562 10.144531 C 10.425781 10.203125 10.371094 10.261719 10.3125 10.3125 L 9.476562 11.179688 C 9.925781 11.644531 10.351562 12.089844 10.796875 12.550781 C 8.636719 14.777344 6.484375 17 4.34375 19.210938 L 4.097656 19 C 3.355469 19.503906 2.730469 20.167969 2.269531 20.945312 C 1.8125 21.800781 1.265625 22.613281 0.757812 23.433594 C 0.945312 23.628906 1.121094 23.8125 1.304688 24 C 1.34375 23.980469 1.378906 23.964844 1.410156 23.945312 C 2.253906 23.394531 3.097656 22.84375 3.9375 22.292969 C 4.183594 22.160156 4.417969 22 4.625 21.8125 C 4.984375 21.421875 5.289062 20.988281 5.621094 20.566406 L 5.394531 20.300781 C 7.542969 18.074219 9.691406 15.855469 11.800781 13.679688 Z M 6.5625 10.964844 C 6.652344 10.949219 6.746094 10.976562 6.8125 11.035156 C 7.097656 11.316406 7.363281 11.617188 7.652344 11.890625 C 8.164062 12.378906 8.691406 12.851562 9.171875 13.292969 C 9.402344 13.09375 9.707031 12.828125 10.089844 12.492188 C 9.589844 12.050781 9.125 11.636719 8.660156 11.222656 C 8.726562 11.148438 8.742188 11.117188 8.761719 11.09375 C 9.40625 10.433594 10.046875 9.769531 10.6875 9.113281 C 10.757812 9.0625 10.84375 9.03125 10.933594 9.035156 C 11.179688 9.023438 11.429688 9.035156 11.675781 9.035156 C 11.179688 8.441406 10.675781 7.921875 10.175781 7.394531 C 10.117188 7.324219 10.089844 7.230469 10.101562 7.136719 C 10.464844 5.6875 10.195312 4.148438 9.355469 2.910156 C 8.316406 1.234375 6.378906 0.335938 4.429688 0.625 C 4.214844 0.644531 4 0.707031 3.746094 0.761719 C 4.136719 1.167969 4.492188 1.53125 4.84375 1.898438 C 5.410156 2.488281 5.984375 3.074219 6.546875 3.671875 C 6.605469 3.746094 6.628906 3.839844 6.613281 3.929688 C 6.398438 4.800781 6.175781 5.664062 5.945312 6.53125 C 5.910156 6.625 5.835938 6.699219 5.742188 6.734375 C 4.910156 6.976562 4.074219 7.195312 3.242188 7.429688 C 3.144531 7.472656 3.027344 7.441406 2.960938 7.351562 C 2.214844 6.578125 1.464844 5.804688 0.714844 5.03125 C 0.542969 4.851562 0.363281 4.675781 0.164062 4.476562 C 0.101562 4.773438 0.0507812 5.011719 0 5.253906 L 0 6.519531 C 0.015625 6.554688 0.03125 6.585938 0.0429688 6.625 C 0.21875 8.121094 1.042969 9.46875 2.296875 10.304688 C 3.550781 11.140625 5.113281 11.382812 6.5625 10.964844 Z M 18.964844 16.480469 C 18.074219 15.558594 17.191406 14.636719 16.292969 13.722656 C 15.960938 13.386719 15.605469 13.070312 15.253906 12.742188 C 15.234375 12.804688 15.226562 12.871094 15.230469 12.933594 C 15.324219 13.449219 15.101562 13.96875 14.664062 14.253906 C 14.125 14.726562 13.609375 15.226562 13.113281 15.683594 C 12.726562 15.324219 12.269531 14.902344 11.855469 14.519531 L 10.96875 15.316406 C 11.597656 15.972656 12.195312 16.589844 12.792969 17.207031 C 14.394531 18.863281 15.996094 20.515625 17.601562 22.171875 C 18.003906 22.617188 18.425781 23.042969 18.875 23.445312 C 19.835938 24.238281 21.25 24.140625 22.09375 23.222656 C 22.992188 22.273438 23.023438 20.796875 22.164062 19.8125 C 21.113281 18.679688 20.03125 17.585938 18.964844 16.480469 Z M 21.179688 22.347656 C 21.167969 22.386719 21.09375 22.425781 21.039062 22.441406 C 20.734375 22.53125 20.425781 22.621094 20.117188 22.691406 C 20.035156 22.707031 19.949219 22.683594 19.878906 22.632812 C 19.613281 22.375 19.347656 22.105469 19.09375 21.832031 C 19.042969 21.761719 19.019531 21.671875 19.03125 21.585938 C 19.101562 21.269531 19.183594 20.949219 19.277344 20.636719 C 19.304688 20.554688 19.367188 20.492188 19.445312 20.457031 C 19.757812 20.359375 20.074219 20.273438 20.390625 20.203125 C 20.46875 20.191406 20.542969 20.214844 20.605469 20.265625 C 20.875 20.527344 21.132812 20.792969 21.390625 21.066406 C 21.425781 21.109375 21.457031 21.160156 21.480469 21.210938 C 21.375 21.609375 21.285156 21.980469 21.179688 22.347656 Z M 21.179688 22.347656 "/>
</g>
</svg>
