<?xml version="1.0" encoding="UTF-8"?>
<svg xmlns="http://www.w3.org/2000/svg" xmlns:xlink="http://www.w3.org/1999/xlink" width="24pt" height="33pt" viewBox="0 0 24 33" version="1.1">
<g id="surface1">
<path style=" stroke:none;fill-rule:nonzero;fill:rgb(27.058824%,35.294118%,39.215686%);fill-opacity:1;" d="M 20.183594 0.46875 L 19.71875 0.9375 L 20.484375 1.703125 L 21.253906 2.46875 L 0.984375 2.46875 L 0.984375 3.828125 L 21.253906 3.828125 L 20.484375 4.59375 L 19.710938 5.359375 L 20.207031 5.847656 L 20.695312 6.339844 L 22.296875 4.738281 L 23.910156 3.152344 L 22.324219 1.578125 C 21.449219 0.707031 20.722656 0.00390625 20.695312 0.00390625 C 20.511719 0.144531 20.339844 0.300781 20.183594 0.46875 Z M 20.183594 0.46875 "/>
<path style=" stroke:none;fill-rule:nonzero;fill:rgb(27.058824%,35.294118%,39.215686%);fill-opacity:1;" d="M 10.902344 6.59375 C 7.183594 7.289062 4.203125 10.042969 3.238281 13.675781 C 3.023438 14.460938 2.945312 15.273438 3.007812 16.082031 C 2.945312 16.894531 3.019531 17.707031 3.230469 18.492188 C 3.78125 20.507812 4.953125 22.296875 6.582031 23.613281 C 7.671875 24.425781 8.894531 25.035156 10.199219 25.417969 C 10.992188 25.632812 11.820312 25.710938 12.640625 25.648438 C 13.457031 25.714844 14.277344 25.636719 15.066406 25.425781 C 16.738281 24.972656 18.261719 24.101562 19.496094 22.890625 C 20.714844 21.667969 21.59375 20.152344 22.050781 18.492188 C 22.261719 17.707031 22.339844 16.894531 22.273438 16.082031 C 22.335938 15.265625 22.257812 14.449219 22.042969 13.65625 C 21.65625 12.363281 21.039062 11.148438 20.226562 10.066406 C 18.902344 8.445312 17.097656 7.28125 15.066406 6.746094 C 13.695312 6.464844 12.289062 6.410156 10.902344 6.59375 Z M 13.171875 9.328125 C 13.199219 9.710938 13.199219 9.71875 13.652344 9.863281 C 14.222656 10.050781 14.707031 10.441406 15.007812 10.960938 C 15.28125 11.4375 15.453125 11.960938 15.511719 12.503906 C 15.027344 12.625 14.535156 12.710938 14.035156 12.757812 C 13.90625 12.765625 13.839844 12.714844 13.839844 12.621094 C 13.765625 12.253906 13.585938 11.914062 13.316406 11.652344 C 13.160156 11.574219 13.152344 11.617188 13.152344 13.082031 L 13.152344 14.597656 L 13.777344 14.878906 C 14.875 15.265625 15.640625 16.253906 15.742188 17.40625 C 15.933594 18.625 15.601562 19.871094 14.824219 20.835938 C 14.398438 21.246094 13.878906 21.546875 13.304688 21.703125 C 13.167969 21.703125 13.152344 21.777344 13.152344 22.46875 L 13.152344 23.234375 L 12.210938 23.234375 L 12.210938 21.820312 L 11.746094 21.675781 C 10.910156 21.394531 10.234375 20.769531 9.894531 19.957031 C 9.699219 19.433594 9.566406 18.886719 9.492188 18.332031 C 9.773438 18.265625 10.0625 18.21875 10.351562 18.1875 L 11.171875 18.066406 L 11.234375 18.332031 C 11.371094 18.871094 11.660156 19.355469 12.066406 19.738281 C 12.203125 19.847656 12.210938 19.761719 12.210938 18.195312 L 12.210938 16.546875 L 11.679688 16.300781 C 10.304688 15.597656 9.53125 14.101562 9.761719 12.582031 C 9.769531 11.335938 10.574219 10.226562 11.765625 9.824219 L 12.210938 9.699219 L 12.210938 8.941406 L 13.144531 8.941406 Z M 13.171875 9.328125 "/>
<path style=" stroke:none;fill-rule:nonzero;fill:rgb(27.058824%,35.294118%,39.215686%);fill-opacity:1;" d="M 11.828125 11.769531 C 11.515625 12.09375 11.359375 12.535156 11.398438 12.984375 C 11.433594 13.429688 11.664062 13.839844 12.023438 14.109375 L 12.210938 14.230469 L 12.210938 12.859375 C 12.226562 12.402344 12.210938 11.945312 12.160156 11.488281 C 12.039062 11.566406 11.925781 11.660156 11.828125 11.769531 Z M 11.828125 11.769531 "/>
<path style=" stroke:none;fill-rule:nonzero;fill:rgb(27.058824%,35.294118%,39.215686%);fill-opacity:1;" d="M 13.15625 18.425781 C 13.140625 18.921875 13.152344 19.417969 13.199219 19.914062 C 13.300781 19.882812 13.402344 19.839844 13.5 19.785156 C 14.152344 19.277344 14.367188 18.390625 14.019531 17.640625 C 13.851562 17.300781 13.445312 16.933594 13.25 16.933594 C 13.179688 16.9375 13.15625 17.402344 13.15625 18.425781 Z M 13.15625 18.425781 "/>
<path style=" stroke:none;fill-rule:nonzero;fill:rgb(27.058824%,35.294118%,39.215686%);fill-opacity:1;" d="M 1.585938 28.125 L 0 29.699219 L 1.609375 31.289062 L 3.210938 32.890625 L 3.699219 32.394531 L 4.195312 31.910156 L 2.65625 30.378906 L 22.921875 30.378906 L 22.921875 29.015625 L 2.660156 29.015625 L 3.429688 28.25 L 4.191406 27.484375 L 3.730469 27.015625 C 3.570312 26.847656 3.398438 26.691406 3.214844 26.550781 C 3.1875 26.550781 2.460938 27.257812 1.585938 28.125 Z M 1.585938 28.125 "/>
</g>
</svg>
