<?xml version="1.0" encoding="UTF-8"?>
<svg xmlns="http://www.w3.org/2000/svg" xmlns:xlink="http://www.w3.org/1999/xlink" width="24pt" height="23pt" viewBox="0 0 24 23" version="1.1">
<g id="surface1">
<path style=" stroke:none;fill-rule:nonzero;fill:rgb(27.058824%,35.294118%,39.215686%);fill-opacity:1;" d="M 5.644531 4.328125 L 15.273438 1.75 L 14.765625 0.742188 C 14.433594 0.0820312 13.617188 -0.1875 12.949219 0.140625 L 4.328125 4.328125 Z M 5.644531 4.328125 "/>
<path style=" stroke:none;fill-rule:nonzero;fill:rgb(27.058824%,35.294118%,39.215686%);fill-opacity:1;" d="M 18.265625 1.824219 C 18.144531 1.824219 18.023438 1.84375 17.90625 1.875 L 15.644531 2.480469 L 8.734375 4.328125 L 19.996094 4.328125 L 19.570312 2.808594 C 19.414062 2.226562 18.875 1.824219 18.265625 1.824219 Z M 18.265625 1.824219 "/>
<path style=" stroke:none;fill-rule:nonzero;fill:rgb(27.058824%,35.294118%,39.215686%);fill-opacity:1;" d="M 21.410156 5.257812 L 1.359375 5.257812 C 0.746094 5.261719 0.210938 5.664062 0.0507812 6.242188 C 0.0195312 6.355469 0 6.472656 0 6.59375 L 0 21.410156 C 0 22.144531 0.609375 22.742188 1.355469 22.742188 L 21.40625 22.742188 C 22.15625 22.742188 22.761719 22.144531 22.761719 21.410156 L 22.761719 17.699219 L 14.714844 17.699219 C 13.441406 17.699219 12.410156 16.6875 12.40625 15.4375 L 12.40625 12.480469 C 12.40625 11.234375 13.4375 10.222656 14.710938 10.222656 L 22.761719 10.222656 L 22.761719 6.59375 C 22.765625 6.238281 22.621094 5.898438 22.367188 5.648438 C 22.113281 5.398438 21.769531 5.257812 21.410156 5.257812 Z M 21.410156 5.257812 "/>
<path style=" stroke:none;fill-rule:nonzero;fill:rgb(27.058824%,35.294118%,39.215686%);fill-opacity:1;" d="M 23.714844 11.492188 C 23.578125 11.367188 23.414062 11.273438 23.238281 11.214844 C 23.097656 11.167969 22.949219 11.144531 22.800781 11.144531 L 14.714844 11.144531 C 13.964844 11.144531 13.355469 11.738281 13.355469 12.472656 L 13.355469 15.433594 C 13.355469 16.167969 13.964844 16.765625 14.714844 16.765625 L 22.800781 16.765625 C 22.949219 16.765625 23.097656 16.738281 23.238281 16.691406 C 23.414062 16.636719 23.578125 16.539062 23.714844 16.417969 C 23.996094 16.164062 24.15625 15.808594 24.15625 15.433594 L 24.15625 12.472656 C 24.15625 12.101562 23.996094 11.742188 23.714844 11.492188 Z M 17.546875 14.21875 C 17.546875 14.585938 17.242188 14.882812 16.867188 14.882812 L 16.417969 14.882812 C 16.042969 14.882812 15.738281 14.585938 15.738281 14.21875 L 15.738281 13.777344 C 15.738281 13.574219 15.832031 13.378906 16 13.257812 C 16.117188 13.164062 16.265625 13.113281 16.417969 13.113281 L 16.867188 13.113281 C 17.242188 13.113281 17.546875 13.410156 17.546875 13.777344 Z M 17.546875 14.21875 "/>
<path style=" stroke:none;fill-rule:nonzero;fill:rgb(100%,100%,100%);fill-opacity:1;" d="M 5.679688 9.917969 C 3.980469 10.257812 2.675781 11.59375 2.40625 13.269531 C 2.136719 14.949219 2.953125 16.613281 4.460938 17.449219 C 5.492188 18.007812 6.714844 18.121094 7.832031 17.757812 C 9.566406 17.179688 10.710938 15.550781 10.640625 13.753906 C 10.574219 11.957031 9.3125 10.417969 7.539062 9.964844 C 6.929688 9.828125 6.296875 9.8125 5.679688 9.917969 Z M 7.082031 10.496094 C 8.554688 10.746094 9.710938 11.871094 9.976562 13.3125 C 10.007812 13.558594 10.015625 13.8125 10 14.058594 C 10 14.539062 9.882812 15.011719 9.652344 15.4375 C 9.007812 16.722656 7.621094 17.484375 6.164062 17.351562 C 4.710938 17.21875 3.488281 16.21875 3.097656 14.839844 C 2.988281 14.335938 2.964844 13.820312 3.019531 13.3125 C 3.359375 11.4375 5.171875 10.183594 7.085938 10.496094 Z M 7.082031 10.496094 "/>
<path style=" stroke:none;fill-rule:nonzero;fill:rgb(100%,100%,100%);fill-opacity:1;" d="M 6.292969 11.800781 L 6.195312 11.898438 L 6.195312 13.585938 L 5.398438 13.585938 C 4.578125 13.585938 4.390625 13.613281 4.324219 13.734375 C 4.265625 13.859375 4.277344 14.003906 4.359375 14.113281 C 4.429688 14.203125 4.4375 14.203125 5.3125 14.214844 L 6.195312 14.226562 L 6.195312 15.910156 L 6.289062 16 C 6.34375 16.058594 6.417969 16.09375 6.5 16.09375 C 6.582031 16.09375 6.65625 16.058594 6.710938 16 L 6.804688 15.910156 L 6.804688 14.226562 L 7.6875 14.214844 C 8.558594 14.203125 8.570312 14.203125 8.640625 14.113281 C 8.722656 14.003906 8.738281 13.859375 8.675781 13.738281 C 8.605469 13.613281 8.425781 13.585938 7.605469 13.585938 L 6.804688 13.585938 L 6.804688 12.75 C 6.804688 11.804688 6.796875 11.773438 6.53125 11.730469 C 6.445312 11.703125 6.351562 11.730469 6.292969 11.800781 Z M 6.292969 11.800781 "/>
</g>
</svg>
