<svg xmlns="http://www.w3.org/2000/svg" width="36.76" height="38.386" viewBox="0 0 36.76 38.386">
  <g id="vendor" transform="translate(-10.265)">
    <path id="Path_142" data-name="Path 142" d="M45.187,205.244h-.779V186.059h0a4.578,4.578,0,0,1-2.617-.838,4.552,4.552,0,0,1-2.636.838,4.494,4.494,0,0,1-.584-.047v14.271a1.475,1.475,0,0,1-1.475,1.475h-5.3v-4.042l1.869,3.119a1.178,1.178,0,1,0,2.022-1.212l-3.757-6.27a1.165,1.165,0,0,0-1.078-.557c-.028,0-4.352,0-4.379,0a1.169,1.169,0,0,0-1.093.559l-3.757,6.27a1.178,1.178,0,1,0,2.022,1.212l1.881-3.139v4.062H20.212a1.475,1.475,0,0,1-1.475-1.475V186.012a4.493,4.493,0,0,1-.584.047,4.634,4.634,0,0,1-.9-.089,4.554,4.554,0,0,1-1.736-.749,4.576,4.576,0,0,1-2.617.838h0v19.185H12.12a1.846,1.846,0,1,0,0,3.693H45.187a1.846,1.846,0,1,0,0-3.693Z" transform="translate(-0.009 -170.551)" fill="#455a64"/>
    <path id="Path_143" data-name="Path 143" d="M213.77,197.226a2.835,2.835,0,1,0,2.456,2.81A2.651,2.651,0,0,0,213.77,197.226Z" transform="translate(-185.126 -181.605)" fill="#455a64"/>
    <path id="Path_144" data-name="Path 144" d="M12.14,13.429a2.625,2.625,0,0,0,3.267-1.765l.138-.462a2.618,2.618,0,0,0,5.172.223l.064-.321a2.621,2.621,0,0,0,2.351,2.421c.089.009.177.013.264.013a2.626,2.626,0,0,0,2.609-2.365l.019-.195a2.62,2.62,0,0,0,5.238,0l.019.195a2.626,2.626,0,0,0,2.609,2.365c.087,0,.175,0,.264-.013A2.62,2.62,0,0,0,36.508,11.1l.064.321a2.618,2.618,0,0,0,5.172-.223l.138.462A2.626,2.626,0,0,0,44.4,13.539a2.654,2.654,0,0,0,.753-.11,2.626,2.626,0,0,0,1.765-3.267L44.545,2.23A3.124,3.124,0,0,0,41.551,0H15.739a3.124,3.124,0,0,0-2.994,2.23l-2.37,7.932A2.626,2.626,0,0,0,12.14,13.429Z" transform="translate(0)" fill="#455a64"/>
  </g>
</svg>
