<?xml version="1.0" encoding="UTF-8"?>
<svg xmlns="http://www.w3.org/2000/svg" xmlns:xlink="http://www.w3.org/1999/xlink" width="24pt" height="21pt" viewBox="0 0 24 21" version="1.1">
<g id="surface1">
<path style=" stroke:none;fill-rule:nonzero;fill:rgb(27.058824%,35.294118%,39.215686%);fill-opacity:1;" d="M 1.195312 18.292969 L 4.710938 18.292969 L 9.816406 20.558594 C 10.667969 20.957031 11.667969 20.878906 12.453125 20.359375 L 23.105469 13.519531 C 23.519531 13.257812 23.816406 12.84375 23.921875 12.363281 C 24.027344 11.886719 23.933594 11.386719 23.664062 10.976562 C 23.136719 10.171875 22.085938 9.898438 21.230469 10.339844 L 12.292969 14.910156 C 12.132812 14.988281 11.941406 14.957031 11.8125 14.832031 L 10.894531 13.917969 L 11.496094 13.320312 C 12.253906 12.53125 12.253906 11.289062 11.496094 10.496094 L 9.816406 8.828125 C 8.566406 7.597656 6.558594 7.597656 5.308594 8.828125 L 4.671875 9.546875 L 1.195312 9.546875 C 0.878906 9.539062 0.570312 9.664062 0.34375 9.886719 C 0.121094 10.113281 -0.00390625 10.417969 0 10.734375 L 0 17.097656 C -0.0078125 17.417969 0.117188 17.722656 0.34375 17.949219 C 0.570312 18.171875 0.878906 18.296875 1.195312 18.292969 Z M 5.90625 9.464844 C 6.851562 8.550781 8.351562 8.550781 9.296875 9.464844 L 10.972656 11.132812 C 11.203125 11.351562 11.332031 11.652344 11.332031 11.96875 C 11.332031 12.285156 11.203125 12.585938 10.972656 12.804688 L 10.375 13.398438 L 7.859375 10.894531 L 7.300781 11.453125 L 11.292969 15.429688 C 11.664062 15.789062 12.230469 15.867188 12.6875 15.628906 L 21.628906 11.015625 C 21.875 10.882812 22.167969 10.851562 22.4375 10.933594 C 22.707031 11.015625 22.933594 11.203125 23.0625 11.453125 C 23.296875 11.941406 23.144531 12.527344 22.707031 12.84375 L 12.050781 19.683594 C 11.496094 20.050781 10.789062 20.109375 10.179688 19.84375 L 4.832031 17.457031 L 4.832031 10.539062 Z M 0.796875 10.734375 C 0.792969 10.628906 0.832031 10.523438 0.90625 10.449219 C 0.984375 10.371094 1.089844 10.332031 1.199219 10.339844 L 3.992188 10.339844 L 3.992188 17.496094 L 1.195312 17.496094 C 1.089844 17.503906 0.984375 17.460938 0.90625 17.386719 C 0.832031 17.308594 0.792969 17.207031 0.796875 17.097656 Z M 0.796875 10.734375 "/>
<path style=" stroke:none;fill-rule:nonzero;fill:rgb(27.058824%,35.294118%,39.215686%);fill-opacity:1;" d="M 5.585938 0.796875 L 22.347656 0.796875 L 22.347656 9.144531 L 23.144531 9.144531 L 23.144531 0 L 4.789062 0 L 4.789062 7.554688 L 5.585938 7.554688 Z M 5.585938 0.796875 "/>
<path style=" stroke:none;fill-rule:nonzero;fill:rgb(27.058824%,35.294118%,39.215686%);fill-opacity:1;" d="M 21.546875 9.144531 L 21.546875 2.386719 L 20.75 2.386719 L 20.75 1.589844 L 7.183594 1.589844 L 7.183594 2.386719 L 6.382812 2.386719 L 6.382812 7.15625 L 7.183594 7.15625 L 7.183594 3.179688 C 7.621094 3.179688 7.980469 2.824219 7.980469 2.386719 L 19.949219 2.386719 C 19.953125 2.824219 20.308594 3.179688 20.75 3.179688 L 20.75 9.144531 Z M 21.546875 9.144531 "/>
<path style=" stroke:none;fill-rule:nonzero;fill:rgb(27.058824%,35.294118%,39.215686%);fill-opacity:1;" d="M 12.769531 5.167969 L 13.566406 5.167969 L 13.566406 5.964844 L 12.769531 5.964844 Z M 12.769531 5.167969 "/>
<path style=" stroke:none;fill-rule:nonzero;fill:rgb(27.058824%,35.294118%,39.215686%);fill-opacity:1;" d="M 13.566406 9.144531 L 14.363281 9.144531 L 14.363281 9.941406 L 13.566406 9.941406 Z M 13.566406 9.144531 "/>
<path style=" stroke:none;fill-rule:nonzero;fill:rgb(27.058824%,35.294118%,39.215686%);fill-opacity:1;" d="M 11.664062 9.289062 L 15.25 4.917969 L 15.871094 5.421875 L 12.285156 9.792969 Z M 11.664062 9.289062 "/>
<path style=" stroke:none;fill-rule:nonzero;fill:rgb(27.058824%,35.294118%,39.215686%);fill-opacity:1;" d="M 18.355469 7.554688 C 18.363281 5.222656 16.53125 3.296875 14.195312 3.179688 C 11.859375 3.0625 9.84375 4.796875 9.617188 7.117188 L 10.414062 7.195312 C 10.597656 5.261719 12.289062 3.824219 14.234375 3.945312 C 16.179688 4.070312 17.675781 5.710938 17.613281 7.652344 C 17.554688 9.59375 15.953125 11.132812 14.003906 11.132812 L 14.003906 11.929688 C 16.417969 11.917969 18.367188 9.957031 18.355469 7.554688 Z M 18.355469 7.554688 "/>
<path style=" stroke:none;fill-rule:nonzero;fill:rgb(27.058824%,35.294118%,39.215686%);fill-opacity:1;" d="M 0.585938 10.109375 L 4.097656 10.109375 L 4.097656 17.691406 L 0.585938 17.691406 Z M 0.585938 10.109375 "/>
</g>
</svg>
