<svg xmlns="http://www.w3.org/2000/svg" width="31.536" height="42.216" viewBox="0 0 31.536 42.216">
  <g id="notebook" transform="translate(-48.173)">
    <g id="Group_176" data-name="Group 176" transform="translate(48.173)">
      <path id="Path_94" data-name="Path 94" d="M78.323,3.421H73.086V1.386a1.386,1.386,0,1,0-2.771,0V3.421H65.326V1.386a1.386,1.386,0,1,0-2.771,0V3.421H57.567V1.386a1.386,1.386,0,1,0-2.771,0V3.421H49.559a1.386,1.386,0,0,0-1.386,1.386V40.83a1.386,1.386,0,0,0,1.386,1.386H78.323a1.386,1.386,0,0,0,1.386-1.386V4.807A1.386,1.386,0,0,0,78.323,3.421ZM76.937,39.444H50.944V6.193H54.8V7.81a1.386,1.386,0,1,0,2.771,0V6.193h4.988V7.81a1.386,1.386,0,1,0,2.771,0V6.193h4.988V7.81a1.386,1.386,0,1,0,2.771,0V6.193h3.851V39.444Z" transform="translate(-48.173)" fill="#455a64"/>
      <path id="Path_95" data-name="Path 95" d="M121.708,139.758H105.3a1.386,1.386,0,0,0,0,2.771h16.406a1.386,1.386,0,1,0,0-2.771Z" transform="translate(-97.737 -124.266)" fill="#455a64"/>
      <path id="Path_96" data-name="Path 96" d="M121.708,209.758H105.3a1.386,1.386,0,1,0,0,2.771h16.406a1.386,1.386,0,1,0,0-2.771Z" transform="translate(-97.737 -186.506)" fill="#455a64"/>
      <path id="Path_97" data-name="Path 97" d="M121.708,279.758H105.3a1.386,1.386,0,1,0,0,2.771h16.406a1.386,1.386,0,1,0,0-2.771Z" transform="translate(-97.737 -248.746)" fill="#455a64"/>
    </g>
  </g>
</svg>
