<?xml version="1.0" encoding="UTF-8"?>
<svg xmlns="http://www.w3.org/2000/svg" xmlns:xlink="http://www.w3.org/1999/xlink" width="24pt" height="21pt" viewBox="0 0 24 21" version="1.1">
<g id="surface1">
<path style=" stroke:none;fill-rule:nonzero;fill:rgb(27.058824%,35.294118%,39.215686%);fill-opacity:1;" d="M 20.527344 -0.0351562 L 2.714844 -0.0351562 L 2.714844 5.597656 L 4.988281 5.597656 L 4.988281 2.210938 L 18.761719 2.210938 L 18.761719 5.597656 L 21.019531 5.597656 L 21.019531 -0.0351562 Z M 20.527344 -0.0351562 "/>
<path style=" stroke:none;fill-rule:nonzero;fill:rgb(27.058824%,35.294118%,39.215686%);fill-opacity:1;" d="M 12.339844 10.097656 C 11.625 9.835938 11.328125 9.660156 11.328125 9.386719 C 11.328125 9.15625 11.503906 8.925781 12.050781 8.925781 C 12.472656 8.925781 12.886719 9.023438 13.265625 9.207031 L 13.507812 8.273438 C 13.125 8.097656 12.707031 8.003906 12.285156 8 L 12.285156 7.269531 L 11.460938 7.269531 L 11.460938 8.054688 C 10.5625 8.230469 10.039062 8.800781 10.039062 9.527344 C 10.039062 10.328125 10.652344 10.742188 11.554688 11.039062 C 12.175781 11.246094 12.445312 11.445312 12.445312 11.757812 C 12.445312 12.089844 12.117188 12.269531 11.636719 12.269531 C 11.148438 12.261719 10.671875 12.140625 10.242188 11.90625 L 9.988281 12.875 C 10.433594 13.09375 10.921875 13.214844 11.421875 13.230469 L 11.421875 14.015625 L 12.246094 14.015625 L 12.246094 13.171875 C 13.210938 13.007812 13.742188 12.378906 13.742188 11.644531 C 13.746094 10.898438 13.339844 10.445312 12.339844 10.097656 Z M 12.339844 10.097656 "/>
<path style=" stroke:none;fill-rule:nonzero;fill:rgb(27.058824%,35.294118%,39.215686%);fill-opacity:1;" d="M 17.207031 15.132812 L 17.207031 3.535156 L 6.53125 3.535156 L 6.53125 15.589844 L 3.253906 15.589844 L 11.867188 21.335938 L 20.484375 15.59375 L 17.207031 15.59375 Z M 7.707031 14.8125 L 7.707031 6.488281 C 8.214844 6.605469 8.75 6.460938 9.125 6.101562 C 9.496094 5.742188 9.65625 5.222656 9.546875 4.71875 L 14.191406 4.71875 C 14.167969 4.824219 14.15625 4.925781 14.15625 5.03125 C 14.15625 5.859375 14.839844 6.53125 15.683594 6.53125 C 15.757812 6.53125 15.828125 6.523438 15.902344 6.511719 L 15.902344 15.59375 L 7.707031 15.59375 Z M 7.707031 14.8125 "/>
</g>
</svg>
