<?xml version="1.0" encoding="UTF-8"?>
<svg xmlns="http://www.w3.org/2000/svg" xmlns:xlink="http://www.w3.org/1999/xlink" width="24pt" height="36pt" viewBox="0 0 24 36" version="1.1">
<g id="surface1">
<path style=" stroke:none;fill-rule:nonzero;fill:rgb(27.058824%,35.294118%,39.215686%);fill-opacity:1;" d="M 4.664062 12.851562 L 5.933594 12.851562 L 5.933594 2.535156 C 5.933594 1.972656 6.398438 1.519531 6.96875 1.519531 L 12.945312 1.519531 L 12.945312 12.851562 L 16.9375 12.851562 L 16.9375 1.519531 L 17.328125 1.519531 C 17.894531 1.523438 18.355469 1.976562 18.359375 2.535156 L 18.359375 12.851562 L 19.632812 12.851562 C 19.917969 12.851562 20.148438 12.625 20.148438 12.34375 L 20.148438 2.808594 C 20.148438 1.257812 18.863281 0.00390625 17.28125 0 L 7.011719 0 C 5.429688 0.00390625 4.148438 1.257812 4.144531 2.808594 L 4.144531 12.335938 C 4.144531 12.617188 4.375 12.847656 4.664062 12.851562 Z M 4.664062 12.851562 "/>
<path style=" stroke:none;fill-rule:nonzero;fill:rgb(27.058824%,35.294118%,39.215686%);fill-opacity:1;" d="M 21.691406 9.683594 L 21.691406 12.964844 C 21.691406 13.714844 21.066406 14.328125 20.296875 14.328125 L 4.007812 14.328125 C 3.238281 14.328125 2.617188 13.714844 2.617188 12.964844 L 2.617188 9.691406 C 1.105469 9.941406 0 11.222656 0 12.726562 L 0 32.929688 C 0 34.625 1.402344 36 3.132812 36 L 21.167969 36 C 22.898438 36 24.300781 34.625 24.300781 32.929688 L 24.300781 12.71875 C 24.304688 11.21875 23.203125 9.933594 21.691406 9.683594 Z M 6.679688 32.953125 C 5.886719 32.953125 5.25 32.328125 5.25 31.554688 C 5.25 30.78125 5.886719 30.152344 6.679688 30.152344 C 7.46875 30.152344 8.109375 30.78125 8.109375 31.554688 C 8.109375 31.925781 7.957031 32.28125 7.691406 32.542969 C 7.421875 32.808594 7.058594 32.953125 6.679688 32.953125 Z M 6.679688 28.722656 C 5.890625 28.722656 5.25 28.09375 5.25 27.320312 C 5.246094 26.550781 5.886719 25.921875 6.675781 25.921875 C 7.464844 25.917969 8.105469 26.546875 8.109375 27.316406 C 8.109375 27.691406 7.960938 28.046875 7.691406 28.3125 C 7.421875 28.574219 7.058594 28.722656 6.679688 28.722656 Z M 6.679688 24.496094 C 5.886719 24.496094 5.25 23.871094 5.25 23.097656 C 5.25 22.324219 5.886719 21.695312 6.679688 21.695312 C 7.46875 21.695312 8.109375 22.324219 8.109375 23.097656 C 8.109375 23.46875 7.957031 23.824219 7.691406 24.089844 C 7.421875 24.351562 7.058594 24.5 6.679688 24.496094 Z M 12.152344 32.953125 C 11.363281 32.953125 10.722656 32.328125 10.722656 31.554688 C 10.722656 30.78125 11.363281 30.152344 12.152344 30.152344 C 12.941406 30.152344 13.582031 30.78125 13.582031 31.554688 C 13.582031 31.925781 13.433594 32.28125 13.164062 32.542969 C 12.898438 32.808594 12.53125 32.953125 12.152344 32.953125 Z M 12.152344 28.722656 C 11.363281 28.722656 10.722656 28.09375 10.722656 27.320312 C 10.722656 26.546875 11.363281 25.921875 12.152344 25.921875 C 12.941406 25.917969 13.582031 26.546875 13.582031 27.316406 C 13.585938 27.691406 13.433594 28.046875 13.167969 28.3125 C 12.898438 28.574219 12.535156 28.722656 12.152344 28.722656 Z M 12.152344 24.496094 C 11.363281 24.496094 10.722656 23.871094 10.722656 23.097656 C 10.722656 22.324219 11.363281 21.695312 12.152344 21.695312 C 12.941406 21.695312 13.582031 22.324219 13.582031 23.097656 C 13.582031 23.46875 13.433594 23.824219 13.164062 24.085938 C 12.898438 24.351562 12.53125 24.496094 12.152344 24.496094 Z M 17.628906 32.953125 C 16.839844 32.953125 16.199219 32.328125 16.199219 31.554688 C 16.199219 30.78125 16.839844 30.152344 17.628906 30.152344 C 18.417969 30.152344 19.058594 30.78125 19.058594 31.554688 C 19.058594 31.925781 18.910156 32.28125 18.640625 32.542969 C 18.371094 32.808594 18.007812 32.953125 17.628906 32.953125 Z M 17.628906 28.722656 C 16.839844 28.71875 16.199219 28.09375 16.199219 27.320312 C 16.199219 26.546875 16.839844 25.921875 17.628906 25.921875 C 18.417969 25.921875 19.058594 26.546875 19.058594 27.316406 C 19.0625 27.691406 18.910156 28.046875 18.644531 28.3125 C 18.375 28.574219 18.007812 28.722656 17.628906 28.722656 Z M 17.628906 24.496094 C 16.839844 24.496094 16.199219 23.871094 16.199219 23.097656 C 16.199219 22.324219 16.839844 21.695312 17.628906 21.695312 C 18.417969 21.695312 19.058594 22.324219 19.058594 23.097656 C 19.058594 23.46875 18.910156 23.824219 18.640625 24.085938 C 18.371094 24.351562 18.007812 24.496094 17.628906 24.496094 Z M 19.21875 19.527344 C 19.21875 19.734375 19.132812 19.929688 18.984375 20.074219 C 18.835938 20.222656 18.636719 20.300781 18.425781 20.300781 L 5.886719 20.300781 C 5.675781 20.300781 5.476562 20.222656 5.328125 20.074219 C 5.179688 19.929688 5.097656 19.734375 5.097656 19.527344 L 5.097656 17.417969 C 5.097656 17.214844 5.179688 17.015625 5.328125 16.871094 C 5.476562 16.726562 5.675781 16.644531 5.886719 16.644531 L 18.429688 16.644531 C 18.640625 16.644531 18.839844 16.726562 18.988281 16.871094 C 19.136719 17.015625 19.21875 17.214844 19.21875 17.417969 Z M 19.21875 19.527344 "/>
</g>
</svg>
