<?xml version="1.0" encoding="UTF-8"?>
<svg xmlns="http://www.w3.org/2000/svg" xmlns:xlink="http://www.w3.org/1999/xlink" width="24pt" height="24pt" viewBox="0 0 24 24" version="1.1">
<g id="surface1">
<path style=" stroke:none;fill-rule:nonzero;fill:rgb(27.058824%,35.294118%,39.215686%);fill-opacity:1;" d="M 0 0.394531 L 0 23.328125 C 0 23.433594 0.0429688 23.535156 0.117188 23.609375 C 0.191406 23.683594 0.289062 23.722656 0.394531 23.722656 L 23.328125 23.722656 C 23.433594 23.722656 23.535156 23.683594 23.609375 23.609375 C 23.683594 23.535156 23.722656 23.433594 23.722656 23.328125 L 23.722656 0.394531 C 23.722656 0.289062 23.683594 0.191406 23.609375 0.117188 C 23.535156 0.0429688 23.433594 0 23.328125 0 L 0.394531 0 C 0.289062 0 0.191406 0.0429688 0.117188 0.117188 C 0.0429688 0.191406 0 0.289062 0 0.394531 Z M 20.957031 18.976562 C 20.953125 20.429688 19.832031 21.632812 18.386719 21.734375 C 16.941406 21.839844 15.660156 20.808594 15.453125 19.375 L 3.164062 19.375 C 3.019531 19.378906 2.882812 19.304688 2.808594 19.179688 C 2.734375 19.054688 2.734375 18.902344 2.808594 18.777344 C 2.882812 18.652344 3.019531 18.578125 3.164062 18.582031 L 15.453125 18.582031 C 15.660156 17.148438 16.941406 16.117188 18.386719 16.222656 C 19.832031 16.328125 20.953125 17.53125 20.957031 18.980469 Z M 14.203125 11.464844 L 20.558594 11.464844 C 20.707031 11.460938 20.84375 11.535156 20.917969 11.660156 C 20.992188 11.785156 20.992188 11.941406 20.917969 12.0625 C 20.84375 12.1875 20.707031 12.261719 20.558594 12.257812 L 14.203125 12.257812 C 14.007812 13.617188 12.839844 14.628906 11.464844 14.628906 C 10.09375 14.628906 8.925781 13.617188 8.730469 12.257812 L 3.164062 12.257812 C 3.019531 12.261719 2.882812 12.1875 2.808594 12.0625 C 2.734375 11.941406 2.734375 11.785156 2.808594 11.660156 C 2.882812 11.535156 3.019531 11.460938 3.164062 11.464844 L 8.730469 11.464844 C 8.925781 10.105469 10.09375 9.09375 11.464844 9.09375 C 12.839844 9.09375 14.007812 10.105469 14.203125 11.464844 Z M 8.273438 4.347656 L 20.558594 4.347656 C 20.707031 4.34375 20.84375 4.417969 20.917969 4.542969 C 20.992188 4.667969 20.992188 4.824219 20.917969 4.949219 C 20.84375 5.070312 20.707031 5.144531 20.558594 5.140625 L 8.273438 5.140625 C 8.0625 6.578125 6.78125 7.609375 5.335938 7.503906 C 3.886719 7.402344 2.765625 6.195312 2.765625 4.746094 C 2.765625 3.292969 3.886719 2.089844 5.335938 1.984375 C 6.78125 1.878906 8.0625 2.914062 8.273438 4.347656 Z M 8.273438 4.347656 "/>
</g>
</svg>
