<?xml version="1.0" encoding="UTF-8"?>
<svg xmlns="http://www.w3.org/2000/svg" xmlns:xlink="http://www.w3.org/1999/xlink" width="24pt" height="21pt" viewBox="0 0 24 21" version="1.1">
<g id="surface1">
<path style=" stroke:none;fill-rule:nonzero;fill:rgb(27.058824%,35.294118%,39.215686%);fill-opacity:1;" d="M 3.625 14.273438 L 2.699219 12.433594 L 2.699219 20.90625 L 12.1875 20.925781 L 12.1875 20.035156 L 3.625 20.019531 Z M 3.625 14.273438 "/>
<path style=" stroke:none;fill-rule:nonzero;fill:rgb(27.058824%,35.294118%,39.215686%);fill-opacity:1;" d="M 16.332031 4.898438 L 16.332031 5.359375 L 17.257812 5.359375 L 17.257812 3.605469 L 13.492188 0 L 2.699219 0 L 2.699219 2.457031 L 3.625 2.457031 L 3.625 0.886719 L 12.519531 0.886719 L 12.519531 4.898438 Z M 13.445312 1.210938 L 16.332031 3.976562 L 16.332031 4.015625 L 13.445312 4.015625 Z M 13.445312 1.210938 "/>
<path style=" stroke:none;fill-rule:nonzero;fill:rgb(27.058824%,35.294118%,39.215686%);fill-opacity:1;" d="M 22.625 6.109375 L 14.488281 6.105469 C 14.464844 6.105469 14.421875 6.101562 14.367188 6.101562 C 13.957031 6.085938 13.558594 6.238281 13.273438 6.527344 C 12.992188 6.8125 12.851562 7.203125 12.890625 7.59375 L 12.890625 20.917969 L 23.988281 20.917969 L 23.988281 7.59375 C 23.964844 6.851562 23.390625 6.226562 22.625 6.109375 Z M 23.246094 20.175781 L 13.632812 20.175781 L 13.632812 7.59375 C 13.597656 7.394531 13.664062 7.195312 13.808594 7.046875 C 13.949219 6.898438 14.15625 6.824219 14.367188 6.84375 C 14.402344 6.84375 14.425781 6.84375 14.429688 6.84375 L 22.523438 6.84375 C 22.660156 6.875 23.246094 7.039062 23.246094 7.589844 Z M 23.246094 20.175781 "/>
<path style=" stroke:none;fill-rule:nonzero;fill:rgb(27.058824%,35.294118%,39.215686%);fill-opacity:1;" d="M 14.496094 11.898438 L 17.992188 11.898438 L 17.992188 12.828125 L 14.496094 12.828125 Z M 14.496094 11.898438 "/>
<path style=" stroke:none;fill-rule:nonzero;fill:rgb(27.058824%,35.294118%,39.215686%);fill-opacity:1;" d="M 18.878906 11.898438 L 22.375 11.898438 L 22.375 12.828125 L 18.878906 12.828125 Z M 18.878906 11.898438 "/>
<path style=" stroke:none;fill-rule:nonzero;fill:rgb(27.058824%,35.294118%,39.215686%);fill-opacity:1;" d="M 14.535156 13.632812 L 15.945312 13.632812 L 15.945312 15.066406 L 14.535156 15.066406 Z M 14.535156 13.632812 "/>
<path style=" stroke:none;fill-rule:nonzero;fill:rgb(27.058824%,35.294118%,39.215686%);fill-opacity:1;" d="M 16.617188 13.632812 L 18.023438 13.632812 L 18.023438 15.066406 L 16.617188 15.066406 Z M 16.617188 13.632812 "/>
<path style=" stroke:none;fill-rule:nonzero;fill:rgb(27.058824%,35.294118%,39.215686%);fill-opacity:1;" d="M 18.773438 13.632812 L 20.179688 13.632812 L 20.179688 15.066406 L 18.773438 15.066406 Z M 18.773438 13.632812 "/>
<path style=" stroke:none;fill-rule:nonzero;fill:rgb(27.058824%,35.294118%,39.215686%);fill-opacity:1;" d="M 20.980469 13.632812 L 22.386719 13.632812 L 22.386719 15.066406 L 20.980469 15.066406 Z M 20.980469 13.632812 "/>
<path style=" stroke:none;fill-rule:nonzero;fill:rgb(27.058824%,35.294118%,39.215686%);fill-opacity:1;" d="M 14.535156 15.644531 L 15.945312 15.644531 L 15.945312 17.074219 L 14.535156 17.074219 Z M 14.535156 15.644531 "/>
<path style=" stroke:none;fill-rule:nonzero;fill:rgb(27.058824%,35.294118%,39.215686%);fill-opacity:1;" d="M 16.617188 15.644531 L 18.027344 15.644531 L 18.027344 17.074219 L 16.617188 17.074219 Z M 16.617188 15.644531 "/>
<path style=" stroke:none;fill-rule:nonzero;fill:rgb(27.058824%,35.294118%,39.215686%);fill-opacity:1;" d="M 18.730469 15.644531 L 20.136719 15.644531 L 20.136719 17.074219 L 18.730469 17.074219 Z M 18.730469 15.644531 "/>
<path style=" stroke:none;fill-rule:nonzero;fill:rgb(27.058824%,35.294118%,39.215686%);fill-opacity:1;" d="M 20.9375 15.644531 L 22.347656 15.644531 L 22.347656 17.074219 L 20.9375 17.074219 Z M 20.9375 15.644531 "/>
<path style=" stroke:none;fill-rule:nonzero;fill:rgb(27.058824%,35.294118%,39.215686%);fill-opacity:1;" d="M 14.488281 17.65625 L 15.898438 17.65625 L 15.898438 19.082031 L 14.488281 19.082031 Z M 14.488281 17.65625 "/>
<path style=" stroke:none;fill-rule:nonzero;fill:rgb(27.058824%,35.294118%,39.215686%);fill-opacity:1;" d="M 16.570312 17.65625 L 17.980469 17.65625 L 17.980469 19.082031 L 16.570312 19.082031 Z M 16.570312 17.65625 "/>
<path style=" stroke:none;fill-rule:nonzero;fill:rgb(27.058824%,35.294118%,39.215686%);fill-opacity:1;" d="M 18.773438 17.65625 L 20.179688 17.65625 L 20.179688 19.082031 L 18.773438 19.082031 Z M 18.773438 17.65625 "/>
<path style=" stroke:none;fill-rule:nonzero;fill:rgb(27.058824%,35.294118%,39.215686%);fill-opacity:1;" d="M 20.9375 17.65625 L 22.34375 17.65625 L 22.34375 19.082031 L 20.9375 19.082031 Z M 20.9375 17.65625 "/>
<path style=" stroke:none;fill-rule:nonzero;fill:rgb(27.058824%,35.294118%,39.215686%);fill-opacity:1;" d="M 22.375 8.09375 L 14.488281 8.09375 L 14.488281 10.839844 L 22.375 10.839844 Z M 18.78125 10.1875 L 18.382812 10.1875 L 18.382812 9.402344 L 18.066406 9.402344 L 18.066406 9.121094 C 18.113281 9.121094 18.164062 9.117188 18.210938 9.109375 C 18.253906 9.097656 18.296875 9.082031 18.335938 9.058594 C 18.371094 9.035156 18.402344 9.003906 18.425781 8.964844 C 18.449219 8.921875 18.464844 8.875 18.464844 8.824219 L 18.78125 8.824219 Z M 20.359375 10.1875 L 19.199219 10.1875 C 19.195312 10.125 19.203125 10.0625 19.21875 10.003906 C 19.234375 9.949219 19.261719 9.894531 19.296875 9.847656 C 19.324219 9.808594 19.355469 9.773438 19.390625 9.738281 C 19.429688 9.707031 19.46875 9.675781 19.511719 9.644531 C 19.550781 9.617188 19.59375 9.589844 19.640625 9.5625 C 19.6875 9.535156 19.730469 9.511719 19.769531 9.484375 C 19.785156 9.472656 19.804688 9.460938 19.828125 9.445312 C 19.847656 9.433594 19.867188 9.421875 19.886719 9.402344 C 19.90625 9.390625 19.921875 9.371094 19.933594 9.351562 C 19.945312 9.332031 19.953125 9.308594 19.953125 9.285156 C 19.957031 9.238281 19.941406 9.191406 19.90625 9.15625 C 19.871094 9.132812 19.832031 9.121094 19.789062 9.121094 C 19.726562 9.113281 19.664062 9.144531 19.632812 9.195312 C 19.597656 9.257812 19.582031 9.328125 19.589844 9.398438 L 19.226562 9.398438 C 19.21875 9.316406 19.230469 9.230469 19.253906 9.148438 C 19.296875 9.011719 19.40625 8.898438 19.550781 8.851562 C 19.628906 8.824219 19.710938 8.808594 19.792969 8.808594 C 19.867188 8.808594 19.941406 8.820312 20.015625 8.835938 C 20.078125 8.851562 20.136719 8.878906 20.1875 8.917969 C 20.234375 8.953125 20.273438 8.996094 20.296875 9.050781 C 20.328125 9.109375 20.339844 9.175781 20.339844 9.238281 C 20.339844 9.316406 20.320312 9.394531 20.28125 9.460938 C 20.246094 9.519531 20.199219 9.574219 20.140625 9.617188 C 20.082031 9.664062 20.015625 9.703125 19.949219 9.738281 C 19.878906 9.777344 19.8125 9.8125 19.75 9.851562 L 20.359375 9.851562 Z M 21.613281 9.910156 C 21.59375 9.964844 21.5625 10.011719 21.523438 10.050781 C 21.472656 10.097656 21.414062 10.132812 21.351562 10.160156 C 21.261719 10.191406 21.171875 10.207031 21.078125 10.203125 C 20.992188 10.203125 20.90625 10.195312 20.824219 10.171875 C 20.761719 10.152344 20.703125 10.125 20.652344 10.089844 C 20.609375 10.058594 20.578125 10.019531 20.550781 9.976562 C 20.527344 9.9375 20.507812 9.898438 20.496094 9.855469 C 20.488281 9.820312 20.480469 9.78125 20.480469 9.746094 C 20.480469 9.714844 20.480469 9.6875 20.480469 9.671875 L 20.847656 9.671875 C 20.839844 9.730469 20.859375 9.789062 20.902344 9.832031 C 20.917969 9.855469 20.941406 9.871094 20.96875 9.878906 C 21 9.890625 21.03125 9.894531 21.0625 9.894531 C 21.109375 9.894531 21.152344 9.882812 21.191406 9.859375 C 21.226562 9.832031 21.246094 9.785156 21.238281 9.742188 C 21.242188 9.714844 21.234375 9.691406 21.222656 9.667969 C 21.214844 9.652344 21.199219 9.636719 21.183594 9.625 C 21.167969 9.617188 21.148438 9.609375 21.125 9.605469 C 21.105469 9.601562 21.082031 9.601562 21.0625 9.601562 C 21.039062 9.601562 21.015625 9.601562 20.996094 9.605469 C 20.980469 9.605469 20.964844 9.609375 20.949219 9.609375 L 20.949219 9.34375 C 20.960938 9.34375 20.976562 9.347656 20.996094 9.351562 C 21.015625 9.351562 21.039062 9.355469 21.058594 9.355469 C 21.082031 9.355469 21.101562 9.351562 21.121094 9.351562 C 21.144531 9.347656 21.164062 9.34375 21.179688 9.332031 C 21.199219 9.324219 21.214844 9.3125 21.226562 9.296875 C 21.238281 9.277344 21.242188 9.253906 21.242188 9.230469 C 21.242188 9.210938 21.238281 9.191406 21.226562 9.175781 C 21.214844 9.160156 21.203125 9.148438 21.183594 9.140625 C 21.167969 9.128906 21.148438 9.125 21.128906 9.117188 C 21.109375 9.113281 21.089844 9.113281 21.066406 9.113281 C 21.042969 9.113281 21.019531 9.117188 20.992188 9.125 C 20.972656 9.128906 20.953125 9.140625 20.933594 9.15625 C 20.917969 9.167969 20.902344 9.1875 20.894531 9.207031 C 20.882812 9.230469 20.878906 9.253906 20.882812 9.28125 L 20.519531 9.28125 C 20.519531 9.207031 20.535156 9.136719 20.566406 9.070312 C 20.59375 9.015625 20.636719 8.964844 20.6875 8.925781 C 20.738281 8.886719 20.800781 8.859375 20.863281 8.839844 C 20.933594 8.820312 21.003906 8.8125 21.078125 8.8125 C 21.160156 8.808594 21.242188 8.820312 21.320312 8.847656 C 21.378906 8.871094 21.433594 8.902344 21.480469 8.941406 C 21.519531 8.972656 21.546875 9.011719 21.570312 9.058594 C 21.585938 9.089844 21.59375 9.125 21.59375 9.160156 C 21.597656 9.214844 21.589844 9.273438 21.566406 9.324219 C 21.554688 9.359375 21.53125 9.386719 21.507812 9.410156 C 21.488281 9.425781 21.46875 9.4375 21.445312 9.441406 C 21.433594 9.445312 21.425781 9.449219 21.417969 9.453125 C 21.417969 9.453125 21.421875 9.457031 21.433594 9.460938 C 21.445312 9.464844 21.460938 9.46875 21.472656 9.472656 C 21.492188 9.484375 21.507812 9.492188 21.527344 9.503906 C 21.546875 9.519531 21.566406 9.535156 21.578125 9.554688 C 21.597656 9.582031 21.613281 9.609375 21.621094 9.640625 C 21.632812 9.683594 21.636719 9.726562 21.636719 9.769531 C 21.640625 9.816406 21.632812 9.867188 21.613281 9.910156 Z M 21.613281 9.910156 "/>
<path style=" stroke:none;fill-rule:nonzero;fill:rgb(27.058824%,35.294118%,39.215686%);fill-opacity:1;" d="M 8.621094 18.386719 L 8.578125 14.070312 L 4.503906 5.90625 L 4.507812 5.90625 L 3.199219 3.292969 L 0 4.773438 L 1.308594 7.382812 L 1.316406 7.382812 L 5.375 15.476562 Z M 6.71875 15.441406 L 6.8125 14.519531 L 7.6875 14.992188 L 8.117188 13.839844 L 8.25 14.105469 L 8.273438 16.570312 L 7.480469 16.9375 L 5.65625 15.316406 L 5.472656 14.945312 Z M 1.367188 6.035156 L 0.882812 5.070312 L 2.890625 4.140625 L 3.375 5.109375 Z M 1.367188 6.035156 "/>
</g>
</svg>
