<svg xmlns="http://www.w3.org/2000/svg" width="61.078" height="34.234" viewBox="0 0 61.078 34.234">
  <g id="delivery-truck" transform="translate(0 -115.333)">
    <path id="Path_212" data-name="Path 212" d="M4.761,139.136h35.8v4.952H14.515A5.556,5.556,0,0,0,4.1,143.995a2.371,2.371,0,0,1-1.713-2.277v-.21A2.37,2.37,0,0,1,4.761,139.136Zm8.482,6.3A4.136,4.136,0,1,1,9.107,141.3,4.14,4.14,0,0,1,13.243,145.432Zm-1.265,0A2.871,2.871,0,1,0,9.107,148.3,2.875,2.875,0,0,0,11.978,145.432Zm43.068,0A4.136,4.136,0,1,1,50.91,141.3,4.14,4.14,0,0,1,55.046,145.432Zm-1.265,0a2.871,2.871,0,1,0-2.87,2.871A2.875,2.875,0,0,0,53.781,145.432Zm7.3-11.88V142.9a.79.79,0,0,1-.79.79H56.156a5.555,5.555,0,0,0-10.124,0H43.245a.791.791,0,0,1-.791-.79V124.122a.79.79,0,0,1,.791-.79h10.4a1.942,1.942,0,0,1,1.581.79ZM57.391,131.5l-3.556-5.9c-.275-.508-.613-.79-1.819-.79H45.563a.79.79,0,0,0-.791.79v5.9a.79.79,0,0,0,.791.79H56.6A.791.791,0,0,0,57.391,131.5Zm3.08,8.981a.737.737,0,0,0-1.475,0v1.4a.737.737,0,0,0,1.475,0ZM0,137.721H40.558V115.333H0Z" transform="translate(0 0)" fill="#455a64"/>
  </g>
</svg>
