<svg xmlns="http://www.w3.org/2000/svg" width="40.937" height="35.674" viewBox="0 0 40.937 35.674">
  <g id="Group_205" data-name="Group 205" transform="translate(-1021 -462.669)">
    <g id="commission" transform="translate(1021 462.458)">
      <path id="Path_98" data-name="Path 98" d="M2.045,177.02h6l8.726,3.886a4.594,4.594,0,0,0,4.5-.341l18.2-11.725a3.128,3.128,0,0,0,.954-4.363,3.213,3.213,0,0,0-4.158-1.091L21,171.226a.725.725,0,0,1-.818-.136l-1.568-1.568,1.023-1.023a3.5,3.5,0,0,0,0-4.84L16.769,160.8a5.472,5.472,0,0,0-7.7,0l-1.09,1.227H2.045A2.009,2.009,0,0,0,0,164.068v10.907a2.008,2.008,0,0,0,2.045,2.045Zm8.044-15.133a4.156,4.156,0,0,1,5.794,0l2.863,2.863a1.976,1.976,0,0,1,0,2.863l-1.023,1.022-4.294-4.294-.955.954,6.817,6.817a2.054,2.054,0,0,0,2.386.341l15.27-7.908a1.808,1.808,0,0,1,2.454.75,1.923,1.923,0,0,1-.613,2.386l-18.2,11.725a3.359,3.359,0,0,1-3.2.273l-9.134-4.09V163.728Zm-8.725,2.181a.644.644,0,0,1,.682-.682H6.817v12.27H2.045a.644.644,0,0,1-.682-.682Zm0,0" transform="translate(0 -145.452)" fill="#455a64"/>
      <path id="Path_99" data-name="Path 99" d="M97.363,1.574h28.631V15.89h1.363V.211H96V13.163h1.363Zm0,0" transform="translate(-87.82)" fill="#455a64"/>
      <path id="Path_100" data-name="Path 100" d="M153.9,45.163V33.574H152.54V32.211H129.363v1.363H128v8.18h1.363V34.938a1.367,1.367,0,0,0,1.363-1.363h20.45a1.367,1.367,0,0,0,1.363,1.363V45.163Zm0,0" transform="translate(-117.093 -29.273)" fill="#455a64"/>
      <path id="Path_101" data-name="Path 101" d="M256,104.211h1.363v1.363H256Zm0,0" transform="translate(-234.186 -95.138)" fill="#455a64"/>
      <path id="Path_102" data-name="Path 102" d="M272,184.211h1.363v1.363H272Zm0,0" transform="translate(-248.823 -168.321)" fill="#455a64"/>
      <path id="Path_103" data-name="Path 103" d="M233.84,106.656l6.129-7.492,1.055.863L234.9,107.52Zm0,0" transform="translate(-213.914 -90.521)" fill="#455a64"/>
      <path id="Path_104" data-name="Path 104" d="M207.729,71.709a7.482,7.482,0,0,0-14.929-.75l1.363.136a6.166,6.166,0,1,1,6.135,6.749v1.363a7.462,7.462,0,0,0,7.43-7.5Zm0,0" transform="translate(-176.372 -58.547)" fill="#455a64"/>
    </g>
    <rect id="Rectangle_101" data-name="Rectangle 101" width="6" height="13" transform="translate(1022 480)" fill="#455a64"/>
  </g>
</svg>
