<svg xmlns="http://www.w3.org/2000/svg" width="42.541" height="44.386" viewBox="0 0 42.541 44.386">
  <g id="Group_207" data-name="Group 207" transform="translate(-790.627 -245.385)">
    <g id="inventory" transform="translate(760.267 235.4)">
      <path id="Path_121" data-name="Path 121" d="M41.687,441.291a.635.635,0,0,1-.322-.086l-10.634-6.037a.653.653,0,0,1-.331-.566V421.032a.656.656,0,0,1,.371-.589l10.711-5.118a.638.638,0,0,1,.58.009l9.91,5.118a.653.653,0,0,1,.353.58V434.6a.646.646,0,0,1-.317.557L42.026,441.2A.653.653,0,0,1,41.687,441.291ZM31.7,434.217l9.973,5.661,9.339-5.652V421.431l-9.267-4.787-10.046,4.8Z" transform="translate(-0.038 -386.92)" fill="#455a64"/>
      <path id="Path_122" data-name="Path 122" d="M265.852,549.221a.649.649,0,0,1-.652-.652V534.882a.652.652,0,0,1,.322-.562l9.982-5.92a.653.653,0,0,1,.666,1.123l-9.665,5.729v13.316A.649.649,0,0,1,265.852,549.221Z" transform="translate(-224.204 -494.85)" fill="#455a64"/>
      <path id="Path_123" data-name="Path 123" d="M41.648,535.528a.661.661,0,0,1-.317-.082L30.7,529.527a.653.653,0,0,1,.634-1.141l10.634,5.92a.651.651,0,0,1,.254.888A.642.642,0,0,1,41.648,535.528Z" transform="translate(0 -494.844)" fill="#455a64"/>
      <path id="Path_124" data-name="Path 124" d="M148.452,482.068a.649.649,0,0,1-.652-.652v-3.868a.651.651,0,0,1,.344-.575l10.308-5.539a.652.652,0,1,1,.616,1.15l-9.964,5.353v3.478A.655.655,0,0,1,148.452,482.068Z" transform="translate(-112.121 -440.473)" fill="#455a64"/>
      <path id="Path_125" data-name="Path 125" d="M496.887,441.291a.635.635,0,0,1-.322-.086l-10.634-6.037a.653.653,0,0,1-.331-.566V421.032a.656.656,0,0,1,.371-.589l10.711-5.118a.638.638,0,0,1,.58.009l9.905,5.118a.652.652,0,0,1,.353.58V434.6a.646.646,0,0,1-.317.557l-9.978,6.042A.653.653,0,0,1,496.887,441.291Zm-9.982-7.074,9.973,5.661,9.339-5.652V421.431l-9.267-4.787-10.046,4.8Z" transform="translate(-434.622 -386.92)" fill="#455a64"/>
      <path id="Path_126" data-name="Path 126" d="M721.052,549.221a.649.649,0,0,1-.652-.652V534.882a.652.652,0,0,1,.322-.562l9.982-5.92a.653.653,0,0,1,.666,1.123l-9.665,5.729v13.316A.649.649,0,0,1,721.052,549.221Z" transform="translate(-658.787 -494.85)" fill="#455a64"/>
      <path id="Path_127" data-name="Path 127" d="M496.848,535.528a.661.661,0,0,1-.317-.082l-10.634-5.92a.653.653,0,0,1,.634-1.141l10.634,5.92a.651.651,0,0,1,.254.888A.642.642,0,0,1,496.848,535.528Z" transform="translate(-434.583 -494.844)" fill="#455a64"/>
      <path id="Path_128" data-name="Path 128" d="M603.652,482.068a.649.649,0,0,1-.652-.652v-3.868a.651.651,0,0,1,.344-.575l10.308-5.539a.652.652,0,1,1,.616,1.15l-9.964,5.353v3.478A.652.652,0,0,1,603.652,482.068Z" transform="translate(-546.705 -440.473)" fill="#455a64"/>
      <path id="Path_129" data-name="Path 129" d="M277.471,34.765a.633.633,0,0,1-.3-.072l-9.919-5.118a.652.652,0,0,1-.353-.58V15.43a.66.66,0,0,1,.367-.589l9.919-4.792a.672.672,0,0,1,.553-.009l10.7,4.792a.652.652,0,0,1,.385.6V29a.656.656,0,0,1-.371.589l-10.7,5.118A.761.761,0,0,1,277.471,34.765ZM268.2,28.6l9.28,4.787,10.036-4.8V15.851L277.48,11.358,268.2,15.837Z" transform="translate(-225.827)" fill="#455a64"/>
      <path id="Path_130" data-name="Path 130" d="M486.552,135.658a.649.649,0,0,1-.652-.652V121.319a.654.654,0,0,1,.376-.593l10.7-5a.654.654,0,0,1,.553,1.187L487.2,121.736v13.27A.652.652,0,0,1,486.552,135.658Z" transform="translate(-434.908 -100.894)" fill="#455a64"/>
      <path id="Path_131" data-name="Path 131" d="M277.425,121.958a.682.682,0,0,1-.294-.068l-9.919-5a.653.653,0,0,1,.584-1.169l9.919,5a.653.653,0,0,1-.29,1.236Z" transform="translate(-225.781 -100.881)" fill="#455a64"/>
      <path id="Path_132" data-name="Path 132" d="M377.052,69.1a.649.649,0,0,1-.652-.652V65.041a.655.655,0,0,1,.358-.584L386.7,59.4a.653.653,0,1,1,.593,1.164L377.7,65.439v3.007A.655.655,0,0,1,377.052,69.1Z" transform="translate(-330.368 -47.111)" fill="#455a64"/>
    </g>
    <path id="Path_157" data-name="Path 157" d="M0,0,10-3.287V9.137L.465,13.663Z" transform="translate(812 255)" fill="#455a64"/>
    <path id="Path_159" data-name="Path 159" d="M0,0,9.36-4.556,10,9.137.465,13.663Z" transform="translate(802 275)" fill="#455a64"/>
    <path id="Path_158" data-name="Path 158" d="M0,0,8.96-4.56l.2,12.446L0,13.306Z" transform="translate(823 275)" fill="#455a64"/>
  </g>
</svg>
