<?xml version="1.0" encoding="UTF-8"?>
<svg xmlns="http://www.w3.org/2000/svg" xmlns:xlink="http://www.w3.org/1999/xlink" width="24pt" height="24pt" viewBox="0 0 24 24" version="1.1">
<g id="surface1">
<path style=" stroke:none;fill-rule:nonzero;fill:rgb(27.058824%,35.294118%,39.215686%);fill-opacity:1;" d="M 24.273438 12.136719 C 24.285156 17.074219 21.296875 21.523438 16.71875 23.382812 C 12.144531 25.242188 6.902344 24.132812 3.46875 20.585938 L 3.46875 22.539062 C 3.453125 23.101562 2.992188 23.554688 2.425781 23.554688 C 1.863281 23.554688 1.402344 23.101562 1.386719 22.539062 L 1.386719 17.683594 C 1.386719 17.109375 1.851562 16.644531 2.425781 16.644531 L 7.28125 16.644531 C 7.660156 16.636719 8.011719 16.832031 8.203125 17.15625 C 8.394531 17.480469 8.394531 17.886719 8.203125 18.210938 C 8.011719 18.535156 7.660156 18.734375 7.28125 18.722656 L 4.582031 18.722656 C 7.324219 21.894531 11.753906 23.023438 15.679688 21.554688 C 19.605469 20.085938 22.207031 16.328125 22.195312 12.136719 C 22.195312 12.019531 22.179688 11.90625 22.175781 11.789062 L 22.261719 11.789062 C 22.402344 11.375 22.792969 11.097656 23.230469 11.097656 C 23.667969 11.097656 24.058594 11.375 24.203125 11.789062 L 24.253906 11.789062 C 24.253906 11.90625 24.269531 12.019531 24.269531 12.136719 Z M 21.84375 7.628906 L 16.992188 7.628906 C 16.613281 7.636719 16.261719 7.441406 16.070312 7.117188 C 15.878906 6.789062 15.878906 6.386719 16.070312 6.0625 C 16.261719 5.734375 16.613281 5.539062 16.992188 5.546875 L 19.699219 5.546875 C 17 2.421875 12.65625 1.273438 8.765625 2.65625 C 4.875 4.035156 2.226562 7.660156 2.101562 11.789062 L 2.011719 11.789062 C 1.871094 12.203125 1.480469 12.480469 1.042969 12.480469 C 0.605469 12.480469 0.214844 12.203125 0.0703125 11.789062 L 0.0195312 11.789062 C 0.0195312 11.726562 0.03125 11.664062 0.0351562 11.601562 C 0.0195312 11.550781 0.0078125 11.496094 0 11.441406 C 0.00390625 11.320312 0.0273438 11.199219 0.0703125 11.082031 C 0.472656 6.359375 3.589844 2.304688 8.054688 0.707031 C 12.515625 -0.890625 17.5 0.265625 20.804688 3.664062 L 20.804688 1.734375 C 20.796875 1.355469 20.992188 1.003906 21.316406 0.8125 C 21.644531 0.621094 22.046875 0.621094 22.371094 0.8125 C 22.699219 1.003906 22.894531 1.355469 22.886719 1.734375 L 22.886719 6.589844 C 22.886719 7.164062 22.417969 7.628906 21.84375 7.628906 Z M 21.84375 7.628906 "/>
</g>
</svg>
