<?xml version="1.0" encoding="UTF-8"?>
<svg xmlns="http://www.w3.org/2000/svg" xmlns:xlink="http://www.w3.org/1999/xlink" width="24pt" height="34pt" viewBox="0 0 24 34" version="1.1">
<g id="surface1">
<path style=" stroke:none;fill-rule:nonzero;fill:rgb(27.058824%,35.294118%,39.215686%);fill-opacity:1;" d="M 0.425781 0.0429688 C 0.3125 0.105469 0.214844 0.1875 0.140625 0.289062 L 0 0.464844 L 0 16.863281 C 0 31.621094 0.0117188 33.285156 0.105469 33.414062 C 0.523438 34.007812 1.5625 33.769531 2.601562 32.839844 C 3.394531 32.128906 3.714844 32.136719 4.550781 32.914062 C 5.101562 33.539062 5.941406 33.835938 6.765625 33.691406 C 7.300781 33.589844 7.789062 33.320312 8.15625 32.921875 C 9 32.136719 9.332031 32.125 10.148438 32.867188 C 10.53125 33.289062 11.042969 33.578125 11.605469 33.691406 C 12.417969 33.835938 13.246094 33.546875 13.792969 32.933594 C 14.648438 32.136719 14.972656 32.121094 15.769531 32.847656 C 16.253906 33.390625 16.945312 33.707031 17.675781 33.714844 C 18.007812 33.742188 18.34375 33.671875 18.636719 33.511719 C 18.976562 33.328125 19.292969 33.105469 19.578125 32.84375 C 20.359375 32.132812 20.667969 32.132812 21.453125 32.863281 C 21.84375 33.28125 22.355469 33.570312 22.914062 33.695312 C 23.253906 33.804688 23.628906 33.707031 23.875 33.445312 C 24.007812 33.273438 24.007812 33.222656 24.007812 16.875 C 24.007812 2.117188 23.992188 0.453125 23.898438 0.324219 C 23.484375 -0.269531 22.425781 -0.03125 21.40625 0.890625 C 20.609375 1.617188 20.277344 1.605469 19.429688 0.804688 C 18.871094 0.179688 18.023438 -0.109375 17.195312 0.046875 C 16.675781 0.148438 16.207031 0.414062 15.855469 0.804688 C 15.019531 1.589844 14.660156 1.613281 13.90625 0.914062 C 13.542969 0.503906 13.0625 0.210938 12.53125 0.0742188 C 11.679688 -0.132812 10.785156 0.152344 10.207031 0.804688 C 9.332031 1.601562 9.03125 1.617188 8.238281 0.890625 C 7.753906 0.347656 7.0625 0.03125 6.332031 0.0234375 C 5.617188 0.0273438 4.9375 0.335938 4.464844 0.867188 C 3.667969 1.601562 3.347656 1.589844 2.488281 0.828125 C 2.226562 0.589844 1.933594 0.382812 1.625 0.207031 C 1.25 0.0390625 0.832031 -0.015625 0.425781 0.0429688 Z M 6.71875 1.449219 C 6.925781 1.589844 7.117188 1.75 7.300781 1.921875 C 7.546875 2.148438 7.8125 2.347656 8.09375 2.523438 C 8.425781 2.707031 8.5 2.722656 9.148438 2.722656 C 9.503906 2.773438 9.867188 2.710938 10.183594 2.542969 C 10.476562 2.367188 10.75 2.160156 11 1.929688 C 11.871094 1.136719 12.164062 1.15625 13.175781 2.09375 C 13.621094 2.574219 14.269531 2.816406 14.921875 2.742188 C 15.589844 2.734375 16.226562 2.4375 16.652344 1.921875 C 17.476562 1.179688 17.800781 1.171875 18.609375 1.902344 C 18.871094 2.144531 19.152344 2.359375 19.457031 2.542969 C 19.765625 2.707031 20.113281 2.769531 20.457031 2.722656 C 20.8125 2.761719 21.167969 2.703125 21.488281 2.550781 C 21.757812 2.410156 22.007812 2.238281 22.234375 2.035156 L 22.613281 1.683594 L 22.613281 32.054688 L 22.242188 31.710938 C 22.019531 31.519531 21.78125 31.34375 21.527344 31.199219 C 21.207031 31.03125 20.847656 30.96875 20.492188 31.019531 C 20.132812 30.96875 19.765625 31.035156 19.449219 31.207031 C 19.164062 31.375 18.894531 31.578125 18.652344 31.804688 C 18.121094 32.300781 17.992188 32.375 17.671875 32.375 C 17.351562 32.375 17.226562 32.300781 16.703125 31.820312 C 16.457031 31.59375 16.191406 31.394531 15.910156 31.21875 C 15.578125 31.035156 15.503906 31.019531 14.855469 31.019531 C 14.492188 30.964844 14.121094 31.03125 13.800781 31.207031 C 13.511719 31.382812 13.238281 31.589844 12.992188 31.820312 C 12.15625 32.597656 11.84375 32.585938 10.902344 31.714844 C 10.464844 31.230469 9.835938 30.964844 9.183594 30.988281 C 8.496094 30.96875 7.835938 31.261719 7.386719 31.78125 C 6.515625 32.578125 6.214844 32.578125 5.378906 31.820312 C 4.929688 31.261719 4.230469 30.960938 3.515625 31.023438 C 3.160156 30.972656 2.796875 31.035156 2.480469 31.203125 C 2.222656 31.351562 1.984375 31.523438 1.761719 31.71875 L 1.390625 32.0625 L 1.390625 1.691406 L 1.761719 2.03125 C 1.984375 2.226562 2.222656 2.398438 2.480469 2.546875 C 2.796875 2.714844 3.160156 2.777344 3.515625 2.726562 C 3.867188 2.777344 4.226562 2.714844 4.542969 2.546875 C 4.828125 2.378906 5.09375 2.179688 5.335938 1.953125 C 5.523438 1.773438 5.722656 1.605469 5.933594 1.453125 C 6.183594 1.351562 6.464844 1.351562 6.71875 1.449219 Z M 6.71875 1.449219 "/>
<path style=" stroke:none;fill-rule:nonzero;fill:rgb(27.058824%,35.294118%,39.215686%);fill-opacity:1;" d="M 7.289062 5.847656 C 7.109375 6.035156 7.09375 6.074219 7.09375 6.566406 L 7.09375 7.089844 L 6.730469 7.167969 C 5.773438 7.394531 4.953125 8.003906 4.46875 8.855469 C 4.304688 9.160156 4.238281 9.503906 4.277344 9.847656 C 4.230469 10.40625 4.4375 10.960938 4.839844 11.355469 C 5.574219 12.035156 6.5 12.464844 7.492188 12.585938 C 8.222656 12.660156 8.921875 12.917969 9.523438 13.332031 C 9.707031 13.460938 9.832031 13.660156 9.859375 13.886719 C 9.929688 14.210938 9.820312 14.550781 9.570312 14.769531 C 8.609375 15.636719 7.167969 15.71875 6.113281 14.960938 C 5.859375 14.746094 5.679688 14.453125 5.605469 14.128906 C 5.484375 13.722656 5.332031 13.574219 4.980469 13.53125 C 4.738281 13.496094 4.691406 13.515625 4.472656 13.734375 C 4.242188 13.964844 4.226562 13.992188 4.265625 14.335938 C 4.386719 15.492188 5.414062 16.4375 6.917969 16.769531 C 7.097656 16.808594 7.097656 16.816406 7.097656 17.34375 C 7.097656 17.8125 7.117188 17.890625 7.257812 18.03125 C 7.386719 18.171875 7.570312 18.253906 7.761719 18.253906 C 7.953125 18.253906 8.136719 18.171875 8.265625 18.03125 C 8.40625 17.890625 8.425781 17.8125 8.425781 17.34375 C 8.425781 16.816406 8.425781 16.808594 8.609375 16.777344 C 9.644531 16.59375 10.539062 15.949219 11.039062 15.027344 C 11.203125 14.726562 11.273438 14.382812 11.242188 14.039062 C 11.273438 13.714844 11.210938 13.386719 11.066406 13.097656 C 10.648438 12.199219 9.730469 11.671875 7.960938 11.289062 C 6.136719 10.898438 5.582031 10.523438 5.652344 9.734375 C 5.699219 9.296875 5.964844 8.980469 6.535156 8.691406 C 6.90625 8.476562 7.339844 8.394531 7.761719 8.460938 C 8.1875 8.394531 8.625 8.476562 9 8.691406 C 9.46875 8.925781 9.886719 9.371094 9.886719 9.621094 C 9.878906 9.847656 9.976562 10.0625 10.152344 10.203125 C 10.328125 10.34375 10.5625 10.394531 10.78125 10.339844 C 11.132812 10.226562 11.246094 10.050781 11.246094 9.621094 C 11.152344 8.789062 10.671875 8.050781 9.945312 7.628906 C 9.65625 7.46875 9.355469 7.339844 9.039062 7.238281 L 8.460938 7.0625 L 8.429688 6.519531 C 8.394531 6.023438 8.375 5.960938 8.210938 5.8125 C 7.941406 5.578125 7.535156 5.59375 7.289062 5.847656 Z M 7.289062 5.847656 "/>
<path style=" stroke:none;fill-rule:nonzero;fill:rgb(27.058824%,35.294118%,39.215686%);fill-opacity:1;" d="M 12.964844 10.039062 C 12.875 10.132812 12.804688 10.242188 12.757812 10.367188 C 12.703125 10.613281 12.78125 10.867188 12.964844 11.039062 L 13.125 11.199219 L 19.371094 11.199219 L 19.53125 11.039062 C 19.671875 10.910156 19.753906 10.730469 19.753906 10.539062 C 19.753906 10.347656 19.671875 10.164062 19.53125 10.039062 L 19.371094 9.878906 L 13.121094 9.878906 Z M 12.964844 10.039062 "/>
<path style=" stroke:none;fill-rule:nonzero;fill:rgb(27.058824%,35.294118%,39.215686%);fill-opacity:1;" d="M 12.953125 15.714844 C 12.738281 15.929688 12.71875 15.980469 12.753906 16.21875 C 12.765625 16.507812 12.972656 16.75 13.257812 16.8125 C 13.410156 16.851562 14.523438 16.871094 16.433594 16.859375 L 19.378906 16.839844 L 19.570312 16.621094 C 19.703125 16.503906 19.777344 16.335938 19.769531 16.15625 C 19.761719 15.980469 19.675781 15.816406 19.535156 15.710938 L 19.3125 15.488281 L 13.183594 15.488281 Z M 12.953125 15.714844 "/>
<path style=" stroke:none;fill-rule:nonzero;fill:rgb(27.058824%,35.294118%,39.215686%);fill-opacity:1;" d="M 4.667969 21.15625 C 4.433594 21.277344 4.273438 21.503906 4.246094 21.765625 C 4.242188 22.023438 4.382812 22.265625 4.609375 22.398438 C 4.742188 22.457031 6.550781 22.476562 12.042969 22.476562 L 19.308594 22.476562 L 19.535156 22.25 C 19.707031 22.113281 19.792969 21.890625 19.757812 21.671875 C 19.722656 21.453125 19.570312 21.269531 19.363281 21.191406 C 19.199219 21.105469 18.238281 21.089844 11.988281 21.097656 C 8.039062 21.097656 4.742188 21.125 4.667969 21.15625 Z M 4.667969 21.15625 "/>
<path style=" stroke:none;fill-rule:nonzero;fill:rgb(27.058824%,35.294118%,39.215686%);fill-opacity:1;" d="M 4.476562 26.925781 C 4.332031 27.050781 4.253906 27.234375 4.253906 27.425781 C 4.253906 27.617188 4.332031 27.800781 4.476562 27.925781 L 4.636719 28.085938 L 19.371094 28.085938 L 19.53125 27.925781 C 19.621094 27.832031 19.691406 27.71875 19.738281 27.597656 C 19.792969 27.351562 19.714844 27.097656 19.53125 26.925781 L 19.371094 26.765625 L 4.636719 26.765625 Z M 4.476562 26.925781 "/>
<path style=" stroke:none;fill-rule:nonzero;fill:rgb(27.058824%,35.294118%,39.215686%);fill-opacity:1;" d="M 0 30.464844 L 24 30.464844 L 24 34.082031 L 0 34.082031 Z M 0 30.464844 "/>
</g>
</svg>
