<svg xmlns="http://www.w3.org/2000/svg" width="42.998" height="43.002" viewBox="0 0 42.998 43.002">
  <path id="repair" d="M83.845,87.112l2.349,2.177c.88-.811,1.774-1.617,2.644-2.448a.849.849,0,0,0,.138-.452,12.81,12.81,0,0,1,.295-1.848,4.434,4.434,0,0,1,4.458-3.013.661.661,0,0,0,.447-.211q4.667-4.8,9.319-9.609c.737-.762,1.47-1.529,2.2-2.29-.039-.059-.054-.1-.079-.128-1.553-1.607-3.116-3.214-4.664-4.827-.585-.609-1.15-1.239-1.725-1.863h-.167c-.034.044-.064.088-.1.133q-5.67,5.839-11.324,11.7a.925.925,0,0,0-.251.6A4.5,4.5,0,0,1,83.378,79.8a2.358,2.358,0,0,0-1.907.978,3.384,3.384,0,0,1-.295.3l-1.494,1.553c.8.831,1.568,1.632,2.359,2.453q-5.8,5.987-11.56,11.939l-.437-.383a11,11,0,0,0-3.278,3.485c-.821,1.538-1.8,2.988-2.708,4.458.339.349.654.678.983,1.017.064-.034.128-.064.187-.1,1.509-.988,3.023-1.971,4.527-2.959a6.347,6.347,0,0,0,1.234-.86c.639-.7,1.189-1.479,1.779-2.231l-.4-.477C76.217,94.981,80.065,91.009,83.845,87.112Zm-9.388-4.866a.55.55,0,0,1,.452.128c.511.5.983,1.037,1.5,1.529.919.875,1.863,1.725,2.723,2.517.413-.359.958-.836,1.647-1.44-.895-.791-1.73-1.533-2.561-2.271.118-.138.147-.192.182-.231,1.15-1.185,2.3-2.374,3.45-3.549a.717.717,0,0,1,.437-.143c.442-.02.89,0,1.332,0-.89-1.062-1.794-1.991-2.684-2.934a.61.61,0,0,1-.138-.462,9.414,9.414,0,0,0-1.332-7.579,8.878,8.878,0,0,0-8.828-4.094c-.388.039-.767.152-1.224.246.7.727,1.337,1.381,1.966,2.035,1.017,1.057,2.045,2.109,3.052,3.18a.6.6,0,0,1,.118.462q-.575,2.337-1.2,4.66a.626.626,0,0,1-.364.369c-1.489.428-2.984.821-4.473,1.244a.433.433,0,0,1-.506-.138c-1.337-1.391-2.684-2.777-4.026-4.163-.31-.319-.629-.634-.983-.988-.113.526-.206.958-.3,1.391v2.266a1.009,1.009,0,0,1,.079.187A9.2,9.2,0,0,0,74.457,82.246ZM96.678,92.13c-1.592-1.651-3.18-3.308-4.787-4.945-.595-.6-1.234-1.165-1.863-1.755a1.036,1.036,0,0,0-.039.344,2.323,2.323,0,0,1-1.013,2.364c-.968.845-1.892,1.74-2.782,2.561-.693-.644-1.514-1.4-2.251-2.084l-1.588,1.43c1.126,1.17,2.192,2.281,3.264,3.387q4.306,4.446,8.616,8.891a30.314,30.314,0,0,0,2.281,2.286,4.205,4.205,0,0,0,5.77-.4,4.554,4.554,0,0,0,.128-6.114c-1.887-2.025-3.824-3.986-5.736-5.967Zm3.971,10.509c-.02.074-.157.143-.251.172-.55.157-1.1.315-1.656.442a.537.537,0,0,1-.423-.1c-.482-.462-.954-.944-1.406-1.44a.557.557,0,0,1-.113-.437c.123-.57.27-1.14.442-1.7a.538.538,0,0,1,.3-.324c.555-.177,1.126-.329,1.691-.457a.5.5,0,0,1,.383.113c.482.467.944.949,1.411,1.435a1.307,1.307,0,0,1,.157.261C101,101.316,100.837,101.98,100.65,102.639Z" transform="translate(-62.7 -62.6)" fill="#455a64"/>
</svg>
