<?xml version="1.0" encoding="UTF-8"?>
<svg xmlns="http://www.w3.org/2000/svg" xmlns:xlink="http://www.w3.org/1999/xlink" width="24pt" height="25pt" viewBox="0 0 24 25" version="1.1">
<g id="surface1">
<path style=" stroke:none;fill-rule:nonzero;fill:rgb(27.058824%,35.294118%,39.215686%);fill-opacity:1;" d="M 4.378906 12.3125 L 13.160156 12.3125 C 13.429688 12.3125 13.648438 12.527344 13.648438 12.792969 C 13.648438 13.058594 13.429688 13.273438 13.160156 13.273438 L 4.378906 13.273438 C 4.109375 13.273438 3.890625 13.058594 3.890625 12.792969 C 3.890625 12.527344 4.109375 12.3125 4.378906 12.3125 Z M 4.378906 12.3125 "/>
<path style=" stroke:none;fill-rule:nonzero;fill:rgb(27.058824%,35.294118%,39.215686%);fill-opacity:1;" d="M 0.488281 9.105469 L 11.214844 9.105469 C 11.484375 9.105469 11.699219 9.320312 11.699219 9.585938 C 11.699219 9.851562 11.484375 10.066406 11.214844 10.066406 L 0.488281 10.066406 C 0.21875 10.066406 0 9.851562 0 9.585938 C 0 9.320312 0.21875 9.105469 0.488281 9.105469 Z M 0.488281 9.105469 "/>
<path style=" stroke:none;fill-rule:nonzero;fill:rgb(27.058824%,35.294118%,39.215686%);fill-opacity:1;" d="M 3.082031 5.902344 L 11.214844 5.902344 C 11.484375 5.902344 11.699219 6.117188 11.699219 6.382812 C 11.699219 6.648438 11.484375 6.863281 11.214844 6.863281 L 3.082031 6.863281 C 2.8125 6.863281 2.59375 6.648438 2.59375 6.382812 C 2.59375 6.117188 2.8125 5.902344 3.082031 5.902344 Z M 3.082031 5.902344 "/>
<path style=" stroke:none;fill-rule:nonzero;fill:rgb(27.058824%,35.294118%,39.215686%);fill-opacity:1;" d="M 6.410156 15.523438 L 16.820312 15.523438 C 17.085938 15.523438 17.304688 15.742188 17.304688 16.003906 C 17.304688 16.269531 17.085938 16.488281 16.820312 16.488281 L 6.410156 16.488281 C 6.140625 16.488281 5.925781 16.269531 5.925781 16.003906 C 5.925781 15.742188 6.140625 15.523438 6.410156 15.523438 Z M 6.410156 15.523438 "/>
<path style=" stroke:none;fill-rule:nonzero;fill:rgb(27.058824%,35.294118%,39.215686%);fill-opacity:1;" d="M 23.867188 14.003906 C 23.679688 13.441406 23.378906 12.921875 22.988281 12.476562 C 22.597656 12.042969 22.128906 11.683594 21.609375 11.417969 C 21.023438 11.109375 20.421875 10.832031 19.804688 10.585938 L 18.234375 9.96875 C 17.972656 9.863281 17.710938 9.75 17.449219 9.632812 C 17.195312 9.523438 16.957031 9.378906 16.742188 9.203125 C 16.535156 9.035156 16.363281 8.824219 16.246094 8.585938 C 16.117188 8.304688 16.054688 8 16.0625 7.6875 C 16.046875 7.3125 16.128906 6.9375 16.300781 6.597656 C 16.441406 6.339844 16.652344 6.121094 16.90625 5.96875 C 17.160156 5.820312 17.4375 5.722656 17.730469 5.675781 C 18.027344 5.621094 18.328125 5.59375 18.632812 5.59375 C 19.070312 5.589844 19.507812 5.613281 19.941406 5.664062 C 20.289062 5.703125 20.632812 5.761719 20.976562 5.835938 C 21.269531 5.90625 21.558594 5.996094 21.839844 6.105469 C 22.109375 6.210938 22.375 6.320312 22.636719 6.425781 C 23.082031 5.460938 23.367188 4.429688 23.476562 3.371094 C 22.675781 3.082031 21.859375 2.851562 21.027344 2.675781 C 20.578125 2.582031 20.125 2.519531 19.664062 2.480469 L 19.664062 0 L 16.121094 0 L 16.121094 2.730469 C 16.039062 2.753906 15.957031 2.777344 15.878906 2.800781 C 15.140625 3.019531 14.453125 3.386719 13.863281 3.875 C 13.296875 4.351562 12.855469 4.953125 12.566406 5.628906 C 12.023438 7.019531 11.960938 8.542969 12.382812 9.972656 C 12.546875 10.476562 12.8125 10.945312 13.15625 11.351562 C 13.496094 11.746094 13.90625 12.082031 14.359375 12.34375 C 14.871094 12.640625 15.40625 12.894531 15.957031 13.109375 L 17.550781 13.726562 C 17.867188 13.855469 18.171875 13.980469 18.46875 14.109375 C 18.757812 14.238281 19.027344 14.40625 19.269531 14.605469 C 19.507812 14.808594 19.703125 15.054688 19.847656 15.328125 C 20.003906 15.664062 20.078125 16.03125 20.066406 16.402344 C 20.117188 17.160156 19.757812 17.890625 19.125 18.320312 C 18.339844 18.777344 17.4375 18.996094 16.527344 18.949219 C 15.832031 18.953125 15.140625 18.875 14.460938 18.71875 C 13.753906 18.546875 13.0625 18.320312 12.394531 18.035156 C 12.199219 18.609375 12.035156 19.171875 11.898438 19.738281 C 11.761719 20.269531 11.664062 20.8125 11.609375 21.359375 C 12.046875 21.539062 12.464844 21.691406 12.867188 21.816406 C 13.265625 21.945312 13.675781 22.046875 14.085938 22.125 C 14.515625 22.210938 14.949219 22.265625 15.382812 22.300781 C 15.613281 22.316406 15.863281 22.332031 16.125 22.339844 L 16.125 24.695312 L 19.664062 24.695312 L 19.664062 22.011719 C 19.789062 21.980469 19.910156 21.941406 20.027344 21.902344 C 20.859375 21.636719 21.632812 21.207031 22.292969 20.644531 C 22.902344 20.113281 23.378906 19.453125 23.695312 18.714844 C 24.027344 17.921875 24.191406 17.074219 24.179688 16.222656 C 24.195312 15.46875 24.089844 14.722656 23.863281 14.003906 Z M 23.867188 14.003906 "/>
</g>
</svg>
