<svg xmlns="http://www.w3.org/2000/svg" width="43.138" height="41.07" viewBox="0 0 43.138 41.07">
  <g id="Group_206" data-name="Group 206" transform="translate(-557.72 -246.571)">
    <g id="Group_175" data-name="Group 175" transform="translate(145.164 -198.219)">
      <g id="bill" transform="translate(412.556 444.79)">
        <path id="Path_87" data-name="Path 87" d="M33.216.39a10.028,10.028,0,0,0-9.343,6.562H6.526a.731.731,0,0,0-.7.73L5.662,32.2H.717A.687.687,0,0,0,0,32.866v3.111a5.49,5.49,0,0,0,5.242,5.468v.015H26.82v-.02c.175.006.247.02.357.02h.015a5.49,5.49,0,0,0,5.481-5.489V20.24c.175.01.36.015.541.015a9.932,9.932,0,0,0,0-19.865ZM5.507,40.063h0A4.111,4.111,0,0,1,1.4,35.97V33.6H21.666V35.96a5.483,5.483,0,0,0,1.618,3.885c.073.073.164.13.241.217ZM31.275,35.97a4.092,4.092,0,0,1-4.084,4.092h-.013a4.122,4.122,0,0,1-4.115-4.1V32.866A.645.645,0,0,0,22.4,32.2H7.059L7.22,8.35H23.484a10.5,10.5,0,0,0-.191,1.941,9.855,9.855,0,0,0,.844,4h-6.6a.7.7,0,1,0,0,1.4h7.36a9.863,9.863,0,0,0,6.381,4.377Zm1.94-17.113a8.525,8.525,0,1,1,8.525-8.525A8.525,8.525,0,0,1,33.216,18.858Zm0,0" transform="translate(0 -0.39)" fill="#455a64"/>
        <path id="Path_88" data-name="Path 88" d="M126,212.746a2.167,2.167,0,1,0,2.237,2.166A2.2,2.2,0,0,0,126,212.746Zm0,2.934a.771.771,0,1,1,.839-.768A.807.807,0,0,1,126,215.68Zm0,0" transform="translate(-112.949 -194.194)" fill="#455a64"/>
        <path id="Path_89" data-name="Path 89" d="M192.719,230.2a.7.7,0,0,0,.7.7h9.318a.7.7,0,1,0,0-1.4h-9.318A.7.7,0,0,0,192.719,230.2Zm0,0" transform="translate(-175.883 -209.488)" fill="#455a64"/>
        <path id="Path_90" data-name="Path 90" d="M126,143.2a2.167,2.167,0,1,0,2.237,2.166A2.2,2.2,0,0,0,126,143.2Zm0,2.934a.771.771,0,1,1,.839-.768.807.807,0,0,1-.839.768Zm0,0" transform="translate(-112.949 -130.727)" fill="#455a64"/>
        <path id="Path_91" data-name="Path 91" d="M126,282.281a2.167,2.167,0,1,0,2.237,2.166A2.2,2.2,0,0,0,126,282.281Zm0,2.934a.771.771,0,1,1,.839-.768A.806.806,0,0,1,126,285.215Zm0,0" transform="translate(-112.949 -257.654)" fill="#455a64"/>
        <path id="Path_92" data-name="Path 92" d="M202.736,299.5h-9.318a.7.7,0,1,0,0,1.4h9.318a.7.7,0,1,0,0-1.4Zm0,0" transform="translate(-175.883 -273.373)" fill="#455a64"/>
      </g>
    </g>
    <g id="Group_184" data-name="Group 184" transform="translate(137.261 -3.82)">
      <path id="Path_118" data-name="Path 118" d="M293.024,229.179c-2.028,1.113-4.149,2.13-6.2,3.223-2.1-1.277-4.152-2.6-6.228-3.9,1.969-1.051,4.05-2.149,6.013-3.1C288.774,226.637,290.855,227.953,293.024,229.179Z" transform="translate(166.861 27.171)" fill="#455a64"/>
      <path id="Path_119" data-name="Path 119" d="M252.1,373.5q3.22,1.894,6.38,3.841v7.434c-.138.034-.266-.09-.373-.155-1.946-1.178-4.076-2.423-6.01-3.655Q252.1,377.232,252.1,373.5Z" transform="translate(194.556 -116.746)" fill="#455a64"/>
      <path id="Path_120" data-name="Path 120" d="M531.528,401.865c-2,1.127-4.208,2.214-6.228,3.223v-7.5c2.067-1.059,4.143-2.113,6.2-3.192C531.567,396.826,531.505,399.385,531.528,401.865Z" transform="translate(-70.928 -137.056)" fill="#455a64"/>
    </g>
    <path id="Path_156" data-name="Path 156" d="M-.985.379,21,0l1.325,7.466H1.234Z" transform="translate(559 279)" fill="#455a64"/>
  </g>
</svg>
