<?xml version="1.0" encoding="UTF-8"?>
<svg xmlns="http://www.w3.org/2000/svg" xmlns:xlink="http://www.w3.org/1999/xlink" width="24pt" height="24pt" viewBox="0 0 24 24" version="1.1">
<g id="surface1">
<path style=" stroke:none;fill-rule:nonzero;fill:rgb(27.058824%,35.294118%,39.215686%);fill-opacity:1;" d="M 11.207031 0.0234375 C 13.714844 -0.136719 16.207031 0.480469 18.347656 1.796875 C 20.15625 2.925781 21.628906 4.519531 22.613281 6.410156 C 23.773438 8.683594 24.203125 11.261719 23.847656 13.789062 C 23.597656 15.511719 22.957031 17.152344 21.96875 18.589844 C 21.679688 19.023438 21.375 19.648438 20.867188 19.6875 C 20.644531 19.714844 20.417969 19.648438 20.242188 19.507812 C 20.066406 19.367188 19.953125 19.164062 19.929688 18.9375 C 19.917969 18.617188 20.046875 18.304688 20.277344 18.078125 C 20.820312 17.335938 21.261719 16.523438 21.59375 15.664062 C 22.121094 14.320312 22.351562 12.871094 22.265625 11.429688 C 22.15625 8.835938 21.050781 6.382812 19.175781 4.585938 C 18.3125 3.742188 17.304688 3.0625 16.199219 2.570312 C 14.925781 2 13.546875 1.6875 12.148438 1.660156 C 10.71875 1.625 9.300781 1.902344 7.988281 2.464844 C 5.75 3.394531 3.921875 5.097656 2.835938 7.265625 C 2.210938 8.464844 1.835938 9.777344 1.738281 11.125 C 1.28125 16.523438 5.097656 21.347656 10.453125 22.152344 C 12.890625 22.554688 15.390625 22.03125 17.457031 20.679688 C 17.6875 20.46875 17.980469 20.347656 18.289062 20.328125 C 18.511719 20.328125 18.730469 20.417969 18.882812 20.582031 C 19.035156 20.746094 19.113281 20.964844 19.09375 21.1875 C 19.085938 21.683594 18.652344 21.953125 18.289062 22.179688 C 17.117188 22.90625 15.828125 23.425781 14.480469 23.707031 C 12.398438 24.101562 10.253906 23.980469 8.226562 23.359375 C 4.855469 22.292969 2.140625 19.757812 0.851562 16.464844 C 0.0976562 14.519531 -0.160156 12.417969 0.101562 10.347656 C 0.339844 8.496094 1.023438 6.730469 2.089844 5.195312 C 3.542969 3.019531 5.691406 1.394531 8.183594 0.585938 C 9.164062 0.28125 10.179688 0.09375 11.207031 0.0234375 Z M 11.207031 0.0234375 "/>
<path style=" stroke:none;fill-rule:nonzero;fill:rgb(27.058824%,35.294118%,39.215686%);fill-opacity:1;" d="M 17.378906 8.527344 C 15.625 9.492188 13.785156 10.371094 12.011719 11.320312 C 10.195312 10.214844 8.417969 9.066406 6.617188 7.9375 C 8.324219 7.027344 10.125 6.078125 11.828125 5.253906 C 13.699219 6.324219 15.5 7.464844 17.378906 8.527344 Z M 17.378906 8.527344 "/>
<path style=" stroke:none;fill-rule:nonzero;fill:rgb(27.058824%,35.294118%,39.215686%);fill-opacity:1;" d="M 17.378906 8.527344 C 15.625 9.492188 13.785156 10.371094 12.011719 11.320312 C 10.195312 10.214844 8.417969 9.066406 6.617188 7.9375 C 8.324219 7.027344 10.125 6.078125 11.828125 5.253906 C 13.699219 6.324219 15.5 7.464844 17.378906 8.527344 Z M 17.378906 8.527344 "/>
<path style=" stroke:none;fill-rule:nonzero;fill:rgb(27.058824%,35.294118%,39.215686%);fill-opacity:1;" d="M 5.921875 8.875 C 7.78125 9.96875 9.621094 11.078125 11.449219 12.203125 L 11.449219 18.640625 C 11.328125 18.671875 11.21875 18.5625 11.125 18.507812 C 9.4375 17.488281 7.59375 16.40625 5.917969 15.339844 C 5.921875 13.1875 5.925781 11.035156 5.921875 8.875 Z M 5.921875 8.875 "/>
<path style=" stroke:none;fill-rule:nonzero;fill:rgb(27.058824%,35.294118%,39.215686%);fill-opacity:1;" d="M 5.921875 8.875 C 7.78125 9.96875 9.621094 11.078125 11.449219 12.203125 L 11.449219 18.640625 C 11.328125 18.671875 11.21875 18.5625 11.125 18.507812 C 9.4375 17.488281 7.59375 16.40625 5.917969 15.339844 C 5.921875 13.1875 5.925781 11.035156 5.921875 8.875 Z M 5.921875 8.875 "/>
<path style=" stroke:none;fill-rule:nonzero;fill:rgb(27.058824%,35.294118%,39.215686%);fill-opacity:1;" d="M 18 15.855469 C 16.265625 16.828125 14.355469 17.769531 12.605469 18.644531 L 12.605469 12.152344 C 14.394531 11.234375 16.191406 10.324219 17.972656 9.386719 C 18.03125 11.488281 17.980469 13.707031 18 15.855469 Z M 18 15.855469 "/>
<path style=" stroke:none;fill-rule:nonzero;fill:rgb(27.058824%,35.294118%,39.215686%);fill-opacity:1;" d="M 18 15.855469 C 16.265625 16.828125 14.355469 17.769531 12.605469 18.644531 L 12.605469 12.152344 C 14.394531 11.234375 16.191406 10.324219 17.972656 9.386719 C 18.03125 11.488281 17.980469 13.707031 18 15.855469 Z M 18 15.855469 "/>
</g>
</svg>
