<?xml version="1.0" encoding="UTF-8"?>
<svg xmlns="http://www.w3.org/2000/svg" xmlns:xlink="http://www.w3.org/1999/xlink" width="24pt" height="24pt" viewBox="0 0 24 24" version="1.1">
<g id="surface1">
<path style=" stroke:none;fill-rule:nonzero;fill:rgb(27.058824%,35.294118%,39.215686%);fill-opacity:1;" d="M 10.585938 0 L 13.414062 0 L 13.414062 1.980469 L 10.585938 1.980469 Z M 10.585938 0 "/>
<path style=" stroke:none;fill-rule:nonzero;fill:rgb(27.058824%,35.294118%,39.215686%);fill-opacity:1;" d="M 17.621094 10.160156 L 6.378906 10.160156 C 6.511719 10.820312 7.089844 11.292969 7.765625 11.296875 L 16.234375 11.296875 C 16.90625 11.296875 17.484375 10.820312 17.621094 10.160156 Z M 17.621094 10.160156 "/>
<path style=" stroke:none;fill-rule:nonzero;fill:rgb(27.058824%,35.294118%,39.215686%);fill-opacity:1;" d="M 16.9375 12.703125 L 19.765625 12.703125 L 19.765625 14.683594 L 16.9375 14.683594 Z M 16.9375 12.703125 "/>
<path style=" stroke:none;fill-rule:nonzero;fill:rgb(27.058824%,35.294118%,39.215686%);fill-opacity:1;" d="M 4.234375 12.703125 L 7.0625 12.703125 L 7.0625 14.683594 L 4.234375 14.683594 Z M 4.234375 12.703125 "/>
<path style=" stroke:none;fill-rule:nonzero;fill:rgb(27.058824%,35.294118%,39.215686%);fill-opacity:1;" d="M 17.648438 1.414062 C 17.648438 0.632812 17.015625 0 16.234375 0 L 14.820312 0 L 14.820312 2.683594 C 14.820312 3.074219 14.503906 3.386719 14.117188 3.386719 L 9.882812 3.386719 C 9.496094 3.386719 9.179688 3.074219 9.179688 2.683594 L 9.179688 0 L 7.765625 0 C 6.984375 0 6.351562 0.632812 6.351562 1.414062 L 6.351562 8.757812 L 17.648438 8.757812 Z M 17.648438 1.414062 "/>
<path style=" stroke:none;fill-rule:nonzero;fill:rgb(27.058824%,35.294118%,39.215686%);fill-opacity:1;" d="M 1.414062 24 L 9.882812 24 C 10.554688 24 11.132812 23.523438 11.265625 22.863281 L 0.0273438 22.863281 C 0.160156 23.523438 0.738281 23.996094 1.414062 24 Z M 1.414062 24 "/>
<path style=" stroke:none;fill-rule:nonzero;fill:rgb(27.058824%,35.294118%,39.215686%);fill-opacity:1;" d="M 22.585938 12.703125 L 21.171875 12.703125 L 21.171875 15.386719 C 21.171875 15.773438 20.855469 16.089844 20.46875 16.089844 L 16.234375 16.089844 C 15.847656 16.089844 15.53125 15.777344 15.53125 15.386719 L 15.53125 12.703125 L 14.117188 12.703125 C 13.335938 12.703125 12.703125 13.335938 12.703125 14.117188 L 12.703125 21.460938 L 24 21.460938 L 24 14.117188 C 24 13.335938 23.367188 12.703125 22.585938 12.703125 Z M 22.585938 12.703125 "/>
<path style=" stroke:none;fill-rule:nonzero;fill:rgb(27.058824%,35.294118%,39.215686%);fill-opacity:1;" d="M 14.117188 24 L 22.585938 24 C 23.257812 24 23.835938 23.523438 23.96875 22.863281 L 12.730469 22.863281 C 12.867188 23.523438 13.445312 24 14.117188 24 Z M 14.117188 24 "/>
<path style=" stroke:none;fill-rule:nonzero;fill:rgb(27.058824%,35.294118%,39.215686%);fill-opacity:1;" d="M 9.882812 12.703125 L 8.46875 12.703125 L 8.46875 15.386719 C 8.46875 15.773438 8.152344 16.089844 7.765625 16.089844 L 3.53125 16.089844 C 3.144531 16.089844 2.828125 15.773438 2.828125 15.386719 L 2.828125 12.703125 L 1.414062 12.703125 C 0.632812 12.703125 0 13.335938 0 14.117188 L 0 21.460938 L 11.296875 21.460938 L 11.296875 14.117188 C 11.296875 13.335938 10.664062 12.703125 9.882812 12.703125 Z M 9.882812 12.703125 "/>
</g>
</svg>
