<svg xmlns="http://www.w3.org/2000/svg" width="38.855" height="53.825" viewBox="0 0 38.855 53.825">
  <g id="transactions-ico" transform="translate(-90.28 -10)">
    <g id="Group_174" data-name="Group 174" transform="translate(90.28 10)">
      <path id="Path_81" data-name="Path 81" d="M206.644-500.234l-.752.766,1.24,1.253,1.253,1.253H175.45v2.228h32.935l-1.253,1.253-1.253,1.253.808.794.794.808,2.6-2.618,2.618-2.6-2.577-2.576c-1.42-1.42-2.6-2.576-2.646-2.576A6.887,6.887,0,0,0,206.644-500.234Z" transform="translate(-173.848 501)" fill="#455a64"/>
      <path id="Path_82" data-name="Path 82" d="M248.106-307.569a15.919,15.919,0,0,0-12.45,11.586,11.547,11.547,0,0,0-.376,3.941,11.652,11.652,0,0,0,.362,3.941,16.311,16.311,0,0,0,5.445,8.383,18.653,18.653,0,0,0,5.877,2.952,11.84,11.84,0,0,0,3.969.376,11.652,11.652,0,0,0,3.941-.362,16.419,16.419,0,0,0,7.2-4.15,16.418,16.418,0,0,0,4.15-7.2,11.635,11.635,0,0,0,.362-3.941,11.824,11.824,0,0,0-.376-3.969,18.67,18.67,0,0,0-2.952-5.877,16.113,16.113,0,0,0-8.383-5.431A20.1,20.1,0,0,0,248.106-307.569Zm3.691,4.47c.042.627.042.64.78.877a3.985,3.985,0,0,1,2.2,1.8,6.479,6.479,0,0,1,.822,2.52,15.806,15.806,0,0,1-2.4.418c-.209.014-.32-.07-.32-.223a3.042,3.042,0,0,0-.85-1.588c-.251-.125-.265-.055-.265,2.34v2.479l1.017.46a4.838,4.838,0,0,1,3.189,4.136,7.182,7.182,0,0,1-1.49,5.612,5.663,5.663,0,0,1-2.465,1.42c-.223,0-.25.125-.25,1.253v1.253h-1.532v-2.312l-.752-.237a4.985,4.985,0,0,1-3.008-2.813,12.161,12.161,0,0,1-.655-2.66,11.244,11.244,0,0,1,1.393-.237l1.337-.195.1.432a4.759,4.759,0,0,0,1.351,2.3c.223.181.237.042.237-2.521v-2.7l-.863-.4a5.87,5.87,0,0,1-3.12-6.085,4.808,4.808,0,0,1,3.259-4.512l.724-.209v-1.24h1.518Z" transform="translate(-230.392 318.361)" fill="#455a64"/>
      <path id="Path_83" data-name="Path 83" d="M484.061-158.231a2.573,2.573,0,0,0,.32,3.83l.306.195v-2.242a16.025,16.025,0,0,0-.083-2.242A2.619,2.619,0,0,0,484.061-158.231Z" transform="translate(-464.842 177.491)" fill="#455a64"/>
      <path id="Path_84" data-name="Path 84" d="M535.5,6.017a20.627,20.627,0,0,0,.07,2.437,2.391,2.391,0,0,0,.488-.209,2.919,2.919,0,0,0,.849-3.51c-.278-.557-.933-1.156-1.253-1.156C535.542,3.58,535.5,4.346,535.5,6.017Z" transform="translate(-514.123 24.133)" fill="#455a64"/>
      <path id="Path_85" data-name="Path 85" d="M148.856,292.676l-2.576,2.576,2.618,2.6,2.6,2.618.794-.808.808-.794-1.253-1.253-1.253-1.254h32.935v-2.228H150.6l1.253-1.253,1.24-1.253-.752-.766a6.86,6.86,0,0,0-.835-.766C151.461,290.1,150.277,291.256,148.856,292.676Z" transform="translate(-146.28 -246.651)" fill="#455a64"/>
    </g>
  </g>
</svg>
