<svg xmlns="http://www.w3.org/2000/svg" width="38.519" height="43.511" viewBox="0 0 38.519 43.511">
  <g id="bill-machine" transform="translate(0.001 1279.7)">
    <path id="Path_181" data-name="Path 181" d="M13.633-1279.673a1.432,1.432,0,0,0-.884.711c-.146.306-.167.551-.153,2.115.01,1.38.014,1.445.085,1.635a1.449,1.449,0,0,0,.826.829,11.287,11.287,0,0,0,2.288.071l2.132.01v4.651l-3.288.01-3.291.01-.228.088a1.951,1.951,0,0,0-.772.524,1.819,1.819,0,0,0-.462.9c-.027.139-.112.983-.187,1.87s-.228,2.669-.34,3.961-.286,3.332-.391,4.538-.272,3.172-.377,4.369-.279,3.23-.388,4.522-.2,2.349-.2,2.353,8.547.01,18.991.01H45.981l-.02-.2c-.014-.105-.092-1.006-.177-2-.146-1.747-.262-3.073-.694-8.057-.527-6.133-.622-7.238-.782-9.111-.1-1.1-.194-2.121-.221-2.261a1.819,1.819,0,0,0-.462-.9,1.951,1.951,0,0,0-.772-.524l-.228-.088-10.359-.01-10.362-.007v-4.658h2.05c1.227,0,2.1-.014,2.193-.034a1.429,1.429,0,0,0,.932-.741l.112-.228v-3.4l-.112-.228a1.511,1.511,0,0,0-.711-.68l-.2-.078-6.2-.007C16.431-1279.7,13.708-1279.69,13.633-1279.673Zm27.123,12.722a1.957,1.957,0,0,1,1.516,1.537c.02.173.031.915.024,2.057a7.228,7.228,0,0,1-.085,1.979,1.939,1.939,0,0,1-.976,1.047c-.561.275-.1.255-6.055.255h-5.3l-.269-.078a2.059,2.059,0,0,1-1.421-1.156c-.078-.194-.078-.2-.088-2.131-.014-2.108-.007-2.166.173-2.512a1.946,1.946,0,0,1,1.023-.88c.462-.194.269-.19,5.987-.183A53.079,53.079,0,0,1,40.756-1266.951Zm-15.594,2.019.007,1.71H12.4l.007-1.707c.007-.942.01-1.713.01-1.72s2.866,0,6.368,0l6.364.01Zm-10.26,9.659a.5.5,0,0,1,.272.425c0,.075-.041.435-.088.8-.1.765-.153.911-.384,1.074l-.146.1-.87.01c-.935.01-.986,0-1.146-.163-.139-.143-.139-.3-.017-1.071.116-.728.156-.864.3-1.016.194-.207.282-.224,1.163-.224C14.677-1255.334,14.8-1255.328,14.9-1255.273Zm2.822,0a.686.686,0,0,1,.2.173c.1.139.1.306.01,1.142-.075.7-.122.84-.35.99l-.139.1-.877.01c-.942.01-.989,0-1.152-.17-.136-.146-.139-.258-.034-1.068a6.153,6.153,0,0,1,.15-.853.879.879,0,0,1,.146-.187c.19-.18.265-.194,1.132-.2C17.519-1255.334,17.618-1255.328,17.723-1255.27Zm2.839.014a.526.526,0,0,1,.214.231l.078.16-.054.758c-.065.87-.1.993-.333,1.146l-.136.092-.867.01c-.816.01-.87.007-1.01-.061a.48.48,0,0,1-.224-.218l-.078-.15.078-.772c.041-.425.088-.806.105-.847a.771.771,0,0,1,.357-.364c.119-.054.231-.065.935-.065C20.392-1255.334,20.433-1255.331,20.562-1255.256Zm5.106-.007a.526.526,0,0,1,.235.221l.088.15-.014.789c-.01.9-.031.983-.275,1.142l-.139.092h-.908c-.87,0-.915,0-1.006-.071a.927.927,0,0,1-.177-.187l-.078-.116.02-.765a7.816,7.816,0,0,1,.061-.891.722.722,0,0,1,.35-.388,3.874,3.874,0,0,1,.9-.048C25.464-1255.334,25.532-1255.331,25.668-1255.263Zm2.89.037c.245.16.265.241.275,1.132.01.768.01.785-.068.932a.542.542,0,0,1-.231.231c-.143.075-.177.078-.979.078-.945,0-1.034-.02-1.2-.262-.085-.126-.085-.126-.085-.942v-.819l.092-.156a.556.556,0,0,1,.238-.231c.139-.071.187-.071.983-.065l.836.01Zm2.757-.037a.7.7,0,0,1,.238.208c.078.119.092.183.112.547.017.228.031.609.037.843.007.408,0,.439-.075.554-.163.238-.252.258-1.19.258-.772,0-.84,0-.976-.071a.522.522,0,0,1-.238-.225c-.088-.153-.088-.163-.105-.942s-.014-.785.068-.935a.524.524,0,0,1,.231-.231c.139-.075.177-.078.945-.078C31.111-1255.334,31.176-1255.331,31.315-1255.263Zm5.066-.017a.732.732,0,0,1,.381.367c.034.109.17,1.336.17,1.55a.52.52,0,0,1-.258.432c-.126.075-.167.078-.976.078-.945,0-.986-.007-1.183-.228-.15-.163-.15-.173-.218-1.1l-.051-.694.075-.156a.535.535,0,0,1,.214-.228c.129-.075.173-.078.928-.078A3.038,3.038,0,0,1,36.381-1255.28Zm2.846.01a.768.768,0,0,1,.388.435c.017.071.075.445.122.833l.092.707-.071.146a.492.492,0,0,1-.207.225c-.129.071-.156.075-1.013.065l-.881-.01-.136-.1c-.235-.163-.275-.275-.35-1.013-.088-.857-.088-.979.01-1.119.15-.224.218-.238,1.112-.238C38.992-1255.334,39.107-1255.324,39.226-1255.27Zm2.8-.014a.886.886,0,0,1,.415.4c.048.153.238,1.39.238,1.554a.438.438,0,0,1-.238.4c-.119.068-.18.071-.938.071a7.427,7.427,0,0,1-.942-.037.729.729,0,0,1-.428-.428,12.928,12.928,0,0,1-.194-1.618.465.465,0,0,1,.265-.34A6.947,6.947,0,0,1,42.024-1255.283Zm-27.463,2.777c.279.194.286.248.153,1.261-.105.779-.153.894-.456,1.051l-.18.1h-.84c-.942,0-1.057-.024-1.193-.245-.088-.146-.085-.221.037-.989s.143-.843.279-1c.2-.231.275-.248,1.234-.248C14.425-1252.581,14.453-1252.577,14.561-1252.506Zm2.89-.01a.49.49,0,0,1,.272.449,10.7,10.7,0,0,1-.194,1.588.8.8,0,0,1-.418.347,10.09,10.09,0,0,1-1.846-.014.648.648,0,0,1-.32-.354,9.794,9.794,0,0,1,.228-1.693.752.752,0,0,1,.374-.35,7.935,7.935,0,0,1,.935-.034C17.247-1252.581,17.346-1252.574,17.451-1252.516Zm2.866-.017a.571.571,0,0,1,.313.374,9.836,9.836,0,0,1-.136,1.683.754.754,0,0,1-.364.323,3.2,3.2,0,0,1-.952.054c-.731,0-.843-.01-.966-.065a.519.519,0,0,1-.306-.36,12.892,12.892,0,0,1,.16-1.646.731.731,0,0,1,.354-.347c.119-.054.231-.065.962-.065A3.671,3.671,0,0,1,20.317-1252.533Zm5.27,0a.686.686,0,0,1,.35.408c.01.068.007.463-.007.881l-.031.762-.1.126c-.187.245-.275.262-1.271.252-.874-.01-.881-.01-1-.1a.679.679,0,0,1-.2-.231c-.071-.146-.071-.163-.037-.928.041-.812.054-.891.218-1.04.184-.173.224-.18,1.125-.18A3.822,3.822,0,0,1,25.587-1252.533Zm2.948.027a.527.527,0,0,1,.306.388,10.077,10.077,0,0,1,0,1.635.588.588,0,0,1-.32.319c-.119.054-.231.065-.969.065-.9,0-1.006-.02-1.18-.207-.129-.143-.146-.248-.146-.959,0-.935.048-1.095.347-1.244.136-.068.2-.071.979-.071C28.347-1252.581,28.391-1252.577,28.534-1252.506Zm2.846-.037a.758.758,0,0,1,.34.316,3.6,3.6,0,0,1,.088.891l.034.789-.088.153a.556.556,0,0,1-.241.228c-.143.068-.19.071-1.034.061l-.884-.01-.146-.1c-.252-.177-.262-.228-.275-1.159l-.01-.823.105-.129c.19-.245.231-.252,1.176-.252A6.023,6.023,0,0,1,31.38-1252.543Zm5.27,0a.9.9,0,0,1,.367.34,5.866,5.866,0,0,1,.126.874c.085.894.082.932-.163,1.119l-.126.1-.853.01a6.432,6.432,0,0,1-.983-.027.783.783,0,0,1-.418-.36,11.139,11.139,0,0,1-.133-1.669.588.588,0,0,1,.306-.37A10.147,10.147,0,0,1,36.649-1252.543Zm5.817.014a.824.824,0,0,1,.415.425c.051.194.238,1.384.238,1.523a.459.459,0,0,1-.282.415,9.884,9.884,0,0,1-2.441.068c-1.628,0-2.332-.01-2.414-.037a1.136,1.136,0,0,1-.228-.122c-.194-.146-.231-.272-.313-1.047s-.078-.915.031-1.064c.153-.218.061-.211,2.58-.211A15.325,15.325,0,0,1,42.466-1252.53Zm-28.289,2.747a.551.551,0,0,1,.262.347,6.822,6.822,0,0,1-.082.867c-.116.877-.15.962-.459,1.118-.167.089-.17.089-1.071.089-.847,0-.908,0-1.02-.071a.553.553,0,0,1-.272-.384,14.285,14.285,0,0,1,.282-1.622.912.912,0,0,1,.33-.323c.153-.078.343-.1,1.139-.085C13.949-1249.844,14.085-1249.834,14.177-1249.783Zm2.795-.044a.529.529,0,0,1,.428.3c.061.122.058.153-.014.891a6.958,6.958,0,0,1-.119.867.9.9,0,0,1-.18.231c-.2.18-.371.2-1.312.19-.755-.01-.8-.014-.928-.089a.45.45,0,0,1-.252-.439,12.49,12.49,0,0,1,.207-1.55.938.938,0,0,1,.337-.337,1.261,1.261,0,0,1,.221-.061A11.563,11.563,0,0,1,16.972-1249.827Zm3.2.068c.289.167.306.262.228,1.312-.051.639-.078.748-.231.884-.211.194-.245.2-1.217.2-.847,0-.908,0-1.037-.071a.536.536,0,0,1-.218-.218l-.082-.146.075-.768c.085-.86.122-.989.34-1.139.19-.133.35-.153,1.21-.146C20-1249.844,20.021-1249.841,20.168-1249.759Zm5.215-.071a.585.585,0,0,1,.425.279c.078.112.078.126.068.952l-.01.84-.105.133c-.2.255-.255.265-1.271.265-.894,0-.9,0-1.047-.085a.532.532,0,0,1-.289-.558,8.622,8.622,0,0,1,.1-1.448.614.614,0,0,1,.507-.377A14.319,14.319,0,0,1,25.383-1249.83Zm3.162.051a.639.639,0,0,1,.33.388,7.326,7.326,0,0,1,.034.85c0,.806-.017.891-.211,1.037s-.391.167-1.258.153c-.741-.01-.8-.014-.935-.085a.808.808,0,0,1-.221-.187c-.075-.109-.078-.143-.088-.792-.007-.374,0-.758.01-.857a.6.6,0,0,1,.306-.476c.133-.075.167-.078,1.03-.078A4.176,4.176,0,0,1,28.544-1249.779Zm2.992.007c.32.163.35.252.391,1.146.044.925.02,1.03-.275,1.187-.133.075-.19.078-.932.089-.945.014-1.108-.01-1.3-.19a.665.665,0,0,1-.17-.262,8.161,8.161,0,0,1,.01-1.71.65.65,0,0,1,.292-.275,8.485,8.485,0,0,1,.979-.034A3.006,3.006,0,0,1,31.536-1249.772Zm5.467.024a.655.655,0,0,1,.241.231c.088.139.1.207.167.932.075.761.075.785.014.911a.612.612,0,0,1-.2.221l-.139.092H36.17c-1,0-1.027,0-1.237-.2-.16-.143-.18-.231-.235-1.047l-.058-.782.078-.143a.565.565,0,0,1,.2-.218c.119-.071.167-.075,1.03-.075C36.829-1249.827,36.857-1249.823,37-1249.749Zm5.943-.014a.814.814,0,0,1,.371.418c.044.139.245,1.38.245,1.516a.541.541,0,0,1-.272.394c-.116.071-.17.071-2.444.082-1.628.007-2.383,0-2.512-.031a.743.743,0,0,1-.5-.388,7.175,7.175,0,0,1-.119-.87l-.078-.768.082-.146c.16-.289,0-.272,2.71-.272A10.6,10.6,0,0,1,42.946-1249.762Z" transform="translate(-7.729)" fill="#455a64"/>
    <path id="Path_182" data-name="Path 182" d="M0-232.692c0,3.61-.007,3.505.2,3.879a1.675,1.675,0,0,0,1.085.785c.347.075,35.608.075,35.955,0a1.675,1.675,0,0,0,1.085-.785c.2-.374.2-.269.2-3.879V-236H0Zm19.647.245a1.7,1.7,0,0,1,1.017,2.6,1.693,1.693,0,0,1-2.812,0,1.792,1.792,0,0,1-.224-1.414A1.706,1.706,0,0,1,19.646-232.447Z" transform="translate(0 -1008.217)" fill="#455a64"/>
  </g>
</svg>
