<svg xmlns="http://www.w3.org/2000/svg" width="44.294" height="44.294" viewBox="0 0 44.294 44.294">
  <g id="purchase" transform="translate(-10 -10)">
    <path id="Path_141" data-name="Path 141" d="M23.288,45.435a4.429,4.429,0,1,0,4.429,4.429A4.352,4.352,0,0,0,23.288,45.435ZM10,10v4.429h4.429L22.4,31.261l-3.1,5.315a5.954,5.954,0,0,0-.443,2.215,4.352,4.352,0,0,0,4.429,4.429H49.865V38.791H24.174a.472.472,0,0,1-.443-.443v-.294l1.921-3.693H42.041a4.23,4.23,0,0,0,3.837-2.215l7.973-14.468a1.1,1.1,0,0,0,.443-1.035,2.092,2.092,0,0,0-2.215-2.215H19.3L17.381,10ZM45.435,45.435a4.429,4.429,0,1,0,4.429,4.429A4.352,4.352,0,0,0,45.435,45.435Z" fill="#455a64"/>
  </g>
</svg>
