<?xml version="1.0" encoding="UTF-8"?>
<svg xmlns="http://www.w3.org/2000/svg" xmlns:xlink="http://www.w3.org/1999/xlink" width="24pt" height="24pt" viewBox="0 0 24 24" version="1.1">
<g id="surface1">
<path style=" stroke:none;fill-rule:nonzero;fill:rgb(27.058824%,35.294118%,39.215686%);fill-opacity:1;" d="M 6.300781 24.210938 C 6.238281 24.210938 6.175781 24.195312 6.121094 24.164062 L 0.1875 20.871094 C 0.0703125 20.808594 0 20.691406 0 20.5625 L 0 13.160156 C 0 13.023438 0.0820312 12.898438 0.207031 12.839844 L 6.1875 10.046875 C 6.289062 10 6.410156 10 6.511719 10.050781 L 12.042969 12.84375 C 12.164062 12.90625 12.238281 13.027344 12.238281 13.160156 L 12.238281 20.5625 C 12.238281 20.6875 12.171875 20.800781 12.0625 20.863281 L 6.488281 24.160156 C 6.433594 24.195312 6.367188 24.210938 6.300781 24.210938 Z M 0.726562 20.351562 L 6.292969 23.441406 L 11.503906 20.355469 L 11.503906 13.378906 L 6.332031 10.765625 L 0.726562 13.386719 Z M 0.726562 20.351562 "/>
<path style=" stroke:none;fill-rule:nonzero;fill:rgb(27.058824%,35.294118%,39.215686%);fill-opacity:1;" d="M 6.300781 24.210938 C 6.203125 24.210938 6.109375 24.171875 6.042969 24.105469 C 5.972656 24.039062 5.9375 23.949219 5.9375 23.855469 L 5.9375 16.390625 C 5.9375 16.261719 6.003906 16.148438 6.117188 16.082031 L 11.6875 12.855469 C 11.859375 12.757812 12.078125 12.816406 12.179688 12.984375 C 12.28125 13.148438 12.226562 13.363281 12.058594 13.464844 L 6.664062 16.589844 L 6.664062 23.855469 C 6.664062 23.949219 6.628906 24.039062 6.558594 24.105469 C 6.488281 24.171875 6.398438 24.210938 6.300781 24.210938 Z M 6.300781 24.210938 "/>
<path style=" stroke:none;fill-rule:nonzero;fill:rgb(27.058824%,35.294118%,39.215686%);fill-opacity:1;" d="M 6.300781 16.746094 C 6.238281 16.746094 6.175781 16.730469 6.125 16.699219 L 0.191406 13.472656 C 0.0195312 13.371094 -0.0351562 13.160156 0.0585938 12.992188 C 0.152344 12.824219 0.367188 12.761719 0.542969 12.847656 L 6.480469 16.078125 C 6.5625 16.125 6.625 16.199219 6.652344 16.292969 C 6.679688 16.382812 6.667969 16.480469 6.621094 16.5625 C 6.558594 16.675781 6.433594 16.746094 6.300781 16.746094 Z M 6.300781 16.746094 "/>
<path style=" stroke:none;fill-rule:nonzero;fill:rgb(27.058824%,35.294118%,39.215686%);fill-opacity:1;" d="M 3.332031 17.242188 C 3.234375 17.242188 3.144531 17.203125 3.074219 17.136719 C 3.007812 17.070312 2.96875 16.980469 2.96875 16.886719 L 2.96875 14.777344 C 2.96875 14.644531 3.042969 14.523438 3.160156 14.460938 L 8.914062 11.441406 C 9.089844 11.347656 9.3125 11.414062 9.40625 11.585938 C 9.5 11.761719 9.433594 11.976562 9.257812 12.070312 L 3.695312 14.988281 L 3.695312 16.886719 C 3.695312 17.082031 3.535156 17.242188 3.332031 17.242188 Z M 3.332031 17.242188 "/>
<path style=" stroke:none;fill-rule:nonzero;fill:rgb(27.058824%,35.294118%,39.215686%);fill-opacity:1;" d="M 17.808594 24.210938 C 17.746094 24.210938 17.683594 24.195312 17.628906 24.164062 L 11.691406 20.871094 C 11.578125 20.808594 11.507812 20.691406 11.507812 20.5625 L 11.507812 13.160156 C 11.507812 13.023438 11.589844 12.898438 11.714844 12.839844 L 17.691406 10.046875 C 17.796875 10 17.914062 10 18.015625 10.050781 L 23.546875 12.84375 C 23.667969 12.90625 23.742188 13.027344 23.742188 13.160156 L 23.742188 20.5625 C 23.742188 20.6875 23.675781 20.800781 23.566406 20.863281 L 17.996094 24.160156 C 17.9375 24.195312 17.875 24.210938 17.808594 24.210938 Z M 12.234375 20.351562 L 17.800781 23.441406 L 23.015625 20.355469 L 23.015625 13.378906 L 17.84375 10.765625 L 12.234375 13.386719 Z M 12.234375 20.351562 "/>
<path style=" stroke:none;fill-rule:nonzero;fill:rgb(27.058824%,35.294118%,39.215686%);fill-opacity:1;" d="M 17.808594 24.210938 C 17.710938 24.210938 17.617188 24.171875 17.550781 24.105469 C 17.480469 24.039062 17.441406 23.949219 17.445312 23.855469 L 17.445312 16.390625 C 17.445312 16.261719 17.511719 16.148438 17.625 16.082031 L 23.195312 12.855469 C 23.367188 12.757812 23.585938 12.816406 23.6875 12.984375 C 23.789062 13.148438 23.734375 13.363281 23.566406 13.464844 L 18.171875 16.589844 L 18.171875 23.855469 C 18.171875 23.949219 18.132812 24.039062 18.066406 24.105469 C 17.996094 24.171875 17.902344 24.210938 17.808594 24.210938 Z M 17.808594 24.210938 "/>
<path style=" stroke:none;fill-rule:nonzero;fill:rgb(27.058824%,35.294118%,39.215686%);fill-opacity:1;" d="M 17.808594 16.746094 C 17.746094 16.746094 17.683594 16.730469 17.628906 16.699219 L 11.695312 13.472656 C 11.527344 13.371094 11.46875 13.160156 11.5625 12.992188 C 11.660156 12.824219 11.875 12.761719 12.050781 12.847656 L 17.984375 16.078125 C 18.070312 16.125 18.132812 16.199219 18.160156 16.292969 C 18.183594 16.382812 18.171875 16.480469 18.125 16.5625 C 18.0625 16.675781 17.941406 16.746094 17.808594 16.746094 Z M 17.808594 16.746094 "/>
<path style=" stroke:none;fill-rule:nonzero;fill:rgb(27.058824%,35.294118%,39.215686%);fill-opacity:1;" d="M 14.839844 17.242188 C 14.742188 17.242188 14.648438 17.203125 14.582031 17.136719 C 14.511719 17.070312 14.476562 16.980469 14.476562 16.886719 L 14.476562 14.777344 C 14.476562 14.644531 14.550781 14.523438 14.667969 14.460938 L 20.421875 11.441406 C 20.597656 11.347656 20.820312 11.414062 20.914062 11.585938 C 21.007812 11.761719 20.941406 11.976562 20.765625 12.070312 L 15.203125 14.988281 L 15.203125 16.886719 C 15.203125 16.980469 15.164062 17.070312 15.097656 17.136719 C 15.027344 17.203125 14.9375 17.242188 14.839844 17.242188 Z M 14.839844 17.242188 "/>
<path style=" stroke:none;fill-rule:nonzero;fill:rgb(27.058824%,35.294118%,39.215686%);fill-opacity:1;" d="M 11.878906 13.515625 C 11.820312 13.515625 11.761719 13.503906 11.710938 13.476562 L 6.175781 10.683594 C 6.054688 10.625 5.980469 10.503906 5.980469 10.367188 L 5.980469 2.96875 C 5.980469 2.832031 6.058594 2.710938 6.183594 2.648438 L 11.71875 0.0351562 C 11.816406 -0.0117188 11.929688 -0.0117188 12.027344 0.03125 L 18 2.644531 C 18.132812 2.703125 18.214844 2.828125 18.214844 2.972656 L 18.214844 10.371094 C 18.214844 10.507812 18.132812 10.632812 18.007812 10.691406 L 12.035156 13.484375 C 11.988281 13.503906 11.933594 13.515625 11.878906 13.515625 Z M 6.703125 10.152344 L 11.882812 12.765625 L 17.484375 10.148438 L 17.484375 3.199219 L 11.882812 0.75 L 6.703125 3.191406 Z M 6.703125 10.152344 "/>
<path style=" stroke:none;fill-rule:nonzero;fill:rgb(27.058824%,35.294118%,39.215686%);fill-opacity:1;" d="M 11.878906 13.515625 C 11.78125 13.515625 11.691406 13.480469 11.621094 13.414062 C 11.554688 13.34375 11.515625 13.253906 11.515625 13.160156 L 11.515625 5.695312 C 11.515625 5.554688 11.597656 5.429688 11.726562 5.371094 L 17.699219 2.644531 C 17.878906 2.558594 18.097656 2.636719 18.183594 2.816406 C 18.269531 2.996094 18.1875 3.207031 18.007812 3.292969 L 12.242188 5.921875 L 12.242188 13.160156 C 12.242188 13.355469 12.078125 13.515625 11.878906 13.515625 Z M 11.878906 13.515625 "/>
<path style=" stroke:none;fill-rule:nonzero;fill:rgb(27.058824%,35.294118%,39.215686%);fill-opacity:1;" d="M 11.878906 6.050781 C 11.824219 6.050781 11.765625 6.039062 11.714844 6.011719 L 6.179688 3.285156 C 6 3.199219 5.925781 2.984375 6.015625 2.808594 C 6.105469 2.632812 6.324219 2.558594 6.503906 2.648438 L 12.042969 5.375 C 12.191406 5.449219 12.269531 5.613281 12.230469 5.773438 C 12.195312 5.933594 12.046875 6.046875 11.878906 6.050781 Z M 11.878906 6.050781 "/>
<path style=" stroke:none;fill-rule:nonzero;fill:rgb(27.058824%,35.294118%,39.215686%);fill-opacity:1;" d="M 9.109375 6.546875 C 9.015625 6.546875 8.921875 6.511719 8.851562 6.445312 C 8.785156 6.378906 8.746094 6.285156 8.746094 6.191406 L 8.746094 4.332031 C 8.746094 4.199219 8.824219 4.074219 8.945312 4.015625 L 14.496094 1.257812 C 14.675781 1.167969 14.894531 1.238281 14.984375 1.414062 C 15.078125 1.585938 15.007812 1.800781 14.828125 1.890625 L 9.472656 4.550781 L 9.472656 6.191406 C 9.472656 6.386719 9.3125 6.546875 9.109375 6.546875 Z M 9.109375 6.546875 "/>
<path style=" stroke:none;fill-rule:nonzero;fill:rgb(27.058824%,35.294118%,39.215686%);fill-opacity:1;" d="M 11.929688 5.246094 L 17.511719 3.453125 L 17.511719 10.226562 L 12.1875 12.695312 Z M 11.929688 5.246094 "/>
<path style=" stroke:none;fill-rule:nonzero;fill:rgb(27.058824%,35.294118%,39.215686%);fill-opacity:1;" d="M 6.347656 16.152344 L 11.570312 13.667969 L 11.929688 21.136719 L 6.605469 23.605469 Z M 6.347656 16.152344 "/>
<path style=" stroke:none;fill-rule:nonzero;fill:rgb(27.058824%,35.294118%,39.215686%);fill-opacity:1;" d="M 18.070312 16.152344 L 23.070312 13.667969 L 23.179688 20.457031 L 18.070312 23.410156 Z M 18.070312 16.152344 "/>
</g>
</svg>
