<svg xmlns="http://www.w3.org/2000/svg" width="33.009" height="47.112" viewBox="0 0 33.009 47.112">
  <g id="Group_204" data-name="Group 204" transform="translate(-562 -449.888)">
    <g id="bill-payment" transform="translate(408.79 439.89)">
      <g id="Group_177" data-name="Group 177" transform="translate(153.21 9.998)">
        <path id="Path_105" data-name="Path 105" d="M153.793-501.941a1.3,1.3,0,0,0-.392.337l-.191.246v22.669c0,20.4.018,22.7.146,22.878.574.82,2,.493,3.429-.793,1.094-.985,1.532-.976,2.681.1a3.286,3.286,0,0,0,3.045,1.076,3.492,3.492,0,0,0,1.915-1.067c1.158-1.085,1.614-1.1,2.736-.073a3.681,3.681,0,0,0,2.006,1.14,3.261,3.261,0,0,0,3.009-1.049c1.176-1.1,1.623-1.122,2.718-.118a3.543,3.543,0,0,0,2.617,1.2,2.343,2.343,0,0,0,1.322-.283,6.294,6.294,0,0,0,1.295-.921c1.076-.985,1.5-.985,2.58.027a3.927,3.927,0,0,0,2.006,1.149,1.268,1.268,0,0,0,1.322-.346c.182-.237.182-.31.182-22.906,0-20.4-.018-22.7-.146-22.878-.574-.82-2.025-.493-3.429.784-1.094,1-1.55.985-2.718-.118a3.277,3.277,0,0,0-3.073-1.048,3.316,3.316,0,0,0-1.842,1.048c-1.149,1.085-1.641,1.113-2.681.146a3.8,3.8,0,0,0-1.887-1.158,3.241,3.241,0,0,0-3.2,1.012c-1.2,1.1-1.614,1.122-2.708.118a3.543,3.543,0,0,0-2.617-1.2,3.454,3.454,0,0,0-2.571,1.167c-1.094,1.012-1.532,1-2.717-.055a6.285,6.285,0,0,0-1.186-.857A2.975,2.975,0,0,0,153.793-501.941ZM162.447-500a6.533,6.533,0,0,1,.8.656,7.265,7.265,0,0,0,1.094.83c.456.255.556.274,1.45.274a2.335,2.335,0,0,0,1.423-.246,7.1,7.1,0,0,0,1.122-.848c1.195-1.094,1.6-1.067,2.991.228a2.822,2.822,0,0,0,2.4.894,3.127,3.127,0,0,0,2.38-1.131c1.131-1.03,1.578-1.039,2.69-.027a7.512,7.512,0,0,0,1.167.884,2.254,2.254,0,0,0,1.377.246,2.558,2.558,0,0,0,1.413-.237,5.117,5.117,0,0,0,1.03-.711l.52-.484v41.982l-.511-.474a6.126,6.126,0,0,0-.985-.711,2.335,2.335,0,0,0-1.423-.246,2.3,2.3,0,0,0-1.432.256,6.172,6.172,0,0,0-1.094.83c-.73.684-.912.784-1.35.784s-.611-.1-1.331-.766a7.225,7.225,0,0,0-1.094-.83c-.456-.256-.556-.274-1.45-.274a2.316,2.316,0,0,0-1.45.256,7.377,7.377,0,0,0-1.112.848c-1.149,1.076-1.578,1.058-2.872-.146a3.006,3.006,0,0,0-2.362-1,3.123,3.123,0,0,0-2.471,1.094c-1.2,1.1-1.614,1.1-2.763.055a2.933,2.933,0,0,0-2.562-1.1,2.336,2.336,0,0,0-1.423.246,6.149,6.149,0,0,0-.985.711l-.511.474v-41.983l.511.474a6.146,6.146,0,0,0,.985.711,2.335,2.335,0,0,0,1.423.246,2.3,2.3,0,0,0,1.413-.246,6.3,6.3,0,0,0,1.094-.82,8.125,8.125,0,0,1,.82-.693A1.46,1.46,0,0,1,162.447-500Z" transform="translate(-153.21 502.002)" fill="#455a64"/>
        <path id="Path_106" data-name="Path 106" d="M280.079-337.581c-.246.256-.265.31-.265.994v.721l-.5.109a4.86,4.86,0,0,0-3.11,2.334,2.342,2.342,0,0,0-.265,1.368,2.633,2.633,0,0,0,.775,2.088,6.521,6.521,0,0,0,3.647,1.7,5.939,5.939,0,0,1,2.79,1.03,1.1,1.1,0,0,1,.465.766,1.273,1.273,0,0,1-.4,1.222,3.78,3.78,0,0,1-4.751.265,2.121,2.121,0,0,1-.7-1.149c-.164-.565-.374-.766-.857-.83-.337-.046-.4-.018-.7.283-.319.319-.337.356-.283.83.164,1.6,1.578,2.909,3.647,3.365.246.055.246.064.246.793,0,.647.027.757.219.949a.934.934,0,0,0,1.386,0c.191-.191.219-.3.219-.949,0-.73,0-.739.255-.784a4.733,4.733,0,0,0,3.338-2.416,2.432,2.432,0,0,0,.283-1.368,2.391,2.391,0,0,0-.246-1.3c-.574-1.24-1.833-1.969-4.268-2.5-2.508-.538-3.273-1.058-3.173-2.152.064-.6.428-1.039,1.213-1.441a2.556,2.556,0,0,1,1.687-.319,2.6,2.6,0,0,1,1.7.319c.647.328,1.222.939,1.222,1.286a.986.986,0,0,0,1.231.994c.483-.155.638-.4.638-.994a3.676,3.676,0,0,0-1.787-2.754,6.867,6.867,0,0,0-1.249-.538l-.793-.246-.046-.748c-.046-.684-.073-.775-.3-.976A.917.917,0,0,0,280.079-337.581Z" transform="translate(-270.058 345.666)" fill="#455a64"/>
        <path id="Path_107" data-name="Path 107" d="M521.583-214.841a1.3,1.3,0,0,0-.283.456.984.984,0,0,0,.283.93l.219.219h8.589l.219-.219a.934.934,0,0,0,0-1.386l-.219-.219H521.8Z" transform="translate(-503.756 228.716)" fill="#455a64"/>
        <path id="Path_108" data-name="Path 108" d="M521.572-51.871c-.292.292-.319.365-.274.693a.876.876,0,0,0,.693.82c.21.055,1.741.082,4.368.064l4.049-.027.264-.3a.815.815,0,0,0-.046-1.258l-.31-.31H521.89Z" transform="translate(-503.763 73.597)" fill="#455a64"/>
        <path id="Path_109" data-name="Path 109" d="M276.413,110.9a1.077,1.077,0,0,0-.583.839,1,1,0,0,0,.5.875c.182.082,2.672.109,10.222.109h9.994l.31-.31a.859.859,0,0,0-.237-1.468c-.228-.118-1.55-.137-10.14-.128C281.046,110.819,276.514,110.856,276.413,110.9Z" transform="translate(-269.994 -81.653)" fill="#455a64"/>
        <path id="Path_110" data-name="Path 110" d="M276.373,275.659a.934.934,0,0,0,0,1.386l.219.219h20.262l.219-.219a1.3,1.3,0,0,0,.283-.456.987.987,0,0,0-.283-.93l-.219-.219H276.592Z" transform="translate(-270.218 -238.44)" fill="#455a64"/>
      </g>
    </g>
    <rect id="Rectangle_102" data-name="Rectangle 102" width="33" height="5" transform="translate(562 492)" fill="#455a64"/>
  </g>
</svg>
