<?xml version="1.0" encoding="UTF-8"?>
<svg xmlns="http://www.w3.org/2000/svg" xmlns:xlink="http://www.w3.org/1999/xlink" width="24pt" height="24pt" viewBox="0 0 24 24" version="1.1">
<g id="surface1">
<path  d="M 9.8125 9.960938 C 9.8125 10.515625 9.363281 10.964844 8.8125 10.964844 C 8.257812 10.964844 7.808594 10.515625 7.808594 9.960938 C 7.808594 9.40625 8.257812 8.957031 8.8125 8.957031 C 9.363281 8.957031 9.8125 9.40625 9.8125 9.960938 Z M 9.8125 9.960938 "/>
<path  d="M 16.1875 14.035156 C 16.1875 14.585938 15.738281 15.035156 15.183594 15.035156 C 14.628906 15.035156 14.179688 14.585938 14.179688 14.035156 C 14.179688 13.480469 14.628906 13.03125 15.183594 13.03125 C 15.738281 13.03125 16.1875 13.480469 16.1875 14.035156 Z M 16.1875 14.035156 "/>
<path  d="M 23.457031 13.324219 L 23.09375 12.828125 C 22.699219 12.289062 22.6875 11.554688 23.078125 11.003906 L 23.429688 10.503906 C 23.972656 9.734375 23.722656 8.667969 22.890625 8.21875 L 22.347656 7.929688 C 21.757812 7.617188 21.433594 6.957031 21.546875 6.292969 L 21.652344 5.6875 C 21.808594 4.761719 21.113281 3.90625 20.175781 3.867188 L 19.5625 3.84375 C 18.890625 3.8125 18.3125 3.363281 18.125 2.71875 L 17.953125 2.128906 C 17.691406 1.222656 16.699219 0.753906 15.832031 1.128906 L 15.269531 1.371094 C 14.652344 1.636719 13.933594 1.476562 13.488281 0.976562 L 13.078125 0.519531 C 12.453125 -0.179688 11.359375 -0.175781 10.738281 0.539062 L 10.335938 1 C 9.894531 1.507812 9.179688 1.675781 8.558594 1.417969 L 7.988281 1.183594 C 7.117188 0.824219 6.136719 1.3125 5.882812 2.214844 L 5.722656 2.8125 C 5.546875 3.460938 4.976562 3.921875 4.304688 3.957031 L 3.691406 3.992188 C 2.753906 4.046875 2.074219 4.910156 2.246094 5.835938 L 2.359375 6.441406 C 2.480469 7.097656 2.167969 7.761719 1.582031 8.089844 L 1.046875 8.386719 C 0.222656 8.84375 -0.0117188 9.917969 0.542969 10.675781 L 0.90625 11.171875 C 1.300781 11.710938 1.3125 12.445312 0.921875 12.996094 L 0.570312 13.496094 C 0.0273438 14.265625 0.277344 15.332031 1.109375 15.777344 L 1.652344 16.070312 C 2.242188 16.382812 2.566406 17.042969 2.453125 17.707031 L 2.347656 18.3125 C 2.191406 19.238281 2.886719 20.09375 3.824219 20.132812 L 4.4375 20.15625 C 5.109375 20.1875 5.6875 20.636719 5.875 21.28125 L 6.046875 21.871094 C 6.308594 22.777344 7.300781 23.246094 8.167969 22.871094 L 8.730469 22.628906 C 9.347656 22.363281 10.066406 22.523438 10.511719 23.023438 L 10.921875 23.480469 C 11.550781 24.179688 12.648438 24.175781 13.261719 23.460938 L 13.664062 23 C 14.105469 22.492188 14.820312 22.324219 15.441406 22.582031 L 16.011719 22.816406 C 16.878906 23.175781 17.863281 22.6875 18.113281 21.785156 L 18.277344 21.1875 C 18.453125 20.539062 19.023438 20.078125 19.695312 20.042969 L 20.308594 20.007812 C 21.246094 19.953125 21.925781 19.089844 21.753906 18.164062 L 21.640625 17.558594 C 21.519531 16.902344 21.832031 16.238281 22.417969 15.910156 L 22.953125 15.613281 C 23.777344 15.160156 24.011719 14.085938 23.457031 13.324219 Z M 6.386719 9.960938 C 6.386719 8.625 7.46875 7.542969 8.804688 7.542969 C 10.144531 7.542969 11.226562 8.625 11.226562 9.960938 C 11.226562 11.300781 10.144531 12.382812 8.804688 12.382812 C 7.46875 12.382812 6.386719 11.292969 6.386719 9.960938 Z M 9.273438 16.203125 C 9.066406 16.453125 8.691406 16.488281 8.441406 16.28125 C 8.191406 16.074219 8.15625 15.699219 8.363281 15.449219 L 14.710938 7.800781 C 14.917969 7.550781 15.292969 7.515625 15.542969 7.722656 C 15.792969 7.929688 15.828125 8.304688 15.621094 8.554688 Z M 15.183594 16.453125 C 13.847656 16.453125 12.765625 15.371094 12.765625 14.035156 C 12.765625 12.695312 13.847656 11.613281 15.183594 11.613281 C 16.523438 11.613281 17.605469 12.695312 17.605469 14.035156 C 17.605469 15.371094 16.523438 16.453125 15.183594 16.453125 Z M 15.183594 16.453125 "/>
</g>
</svg>
