<svg xmlns="http://www.w3.org/2000/svg" width="16" height="16" viewBox="0 0 10.314 10.314">
  <g id="icon-edit" transform="translate(-9.972 -9.954)">
    <path id="Path_227" data-name="Path 227" d="M20.225,11.136A10.131,10.131,0,0,0,19,9.965c-.421-.087-.623.367-.912.58.488.567,1.058,1.068,1.583,1.6C19.909,11.867,20.473,11.576,20.225,11.136Zm-.261,2.143c-.334.335-.679.661-1,1.008-.008,1.342,0,2.684,0,4.027a1,1,0,0,1-.935.95q-3.053.013-6.108,0a1.017,1.017,0,0,1-.946-1.081q0-2.914,0-5.825a1.018,1.018,0,0,1,.943-1.075c1.348-.018,2.7,0,4.045-.009.349-.316.673-.662,1.007-.995-1.8,0-3.589-.009-5.384.005a1.675,1.675,0,0,0-1.6,1.589c0,2.265-.008,4.529,0,6.794a1.675,1.675,0,0,0,1.5,1.6h7.053a1.706,1.706,0,0,0,1.423-1.588C19.978,16.881,19.96,15.079,19.964,13.279Zm-.538-.881q-.792-.8-1.6-1.586c-1.17,1.162-2.343,2.321-3.507,3.489q.791.8,1.592,1.582Q17.673,14.143,19.426,12.4Zm-5.967,4.34c.717-.195,1.1-.318,1.815-.51.192-.061.319-.1.418-.137-.507-.483-1.09-1.079-1.6-1.566C13.881,15.263,13.671,16,13.458,16.738Z" transform="translate(0)" fill="#fff"/>
  </g>
</svg>
