<svg width="30" height="30" viewBox="0 0 30 30" fill="none" xmlns="http://www.w3.org/2000/svg">
<g clip-path="url(#clip0)">
<path d="M20.7468 17.3555C19.3546 17.3555 18.2231 18.4392 18.2231 19.7728C18.2231 21.1064 19.3546 22.1902 20.7468 22.1902C22.139 22.1902 23.2705 21.1064 23.2705 19.7728C23.2705 18.4392 22.139 17.3555 20.7468 17.3555Z" fill="#535353"/>
<path d="M20.7466 13.7295C16.5405 13.7295 12.9485 16.2355 11.4932 19.7729C12.9485 23.3102 16.5405 25.8162 20.7466 25.8162C24.9569 25.8162 28.5448 23.3102 30.0001 19.7729C28.5448 16.2355 24.9569 13.7295 20.7466 13.7295ZM20.7466 23.8018C18.4249 23.8018 16.5405 21.9968 16.5405 19.7728C16.5405 17.5489 18.4249 15.7439 20.7466 15.7439C23.0684 15.7439 24.9528 17.5489 24.9528 19.7729C24.9528 21.9968 23.0684 23.8018 20.7466 23.8018Z" fill="#535353"/>
</g>
<path fill-rule="evenodd" clip-rule="evenodd" d="M14.2499 0H19.22C19.7268 0 20.1376 0.393514 20.1376 0.878903V7.3024H0V0.878903C0 0.393514 0.410822 0 0.917559 0H5.88767C6.24882 0 6.57639 0.202909 6.72454 0.518377C7.316 1.77808 8.62872 2.59206 10.0688 2.59206C11.5089 2.59206 12.8216 1.77814 13.4131 0.518436C13.5611 0.202909 13.8887 0 14.2499 0ZM0 29.1211V9.0603H20.1375V12.4451C14.3802 13.1806 10.0695 16.182 10.0695 19.7727C10.0695 23.3634 14.3802 26.3647 20.1375 27.1002V29.1211C20.1375 29.6065 19.7267 30 19.22 30H14.2498C13.8887 30 13.5611 29.7971 13.413 29.4816C12.8215 28.2219 11.5088 27.4079 10.0687 27.4079C8.62866 27.4079 7.31594 28.2219 6.72448 29.4816C6.57633 29.7971 6.24882 30 5.88767 30H0.917559C0.410822 30 0 29.6065 0 29.1211Z" fill="#535353"/>
<defs>
<clipPath id="clip0">
<rect width="18.5069" height="17.7272" fill="white" transform="translate(11.4932 10.9092)"/>
</clipPath>
</defs>
</svg>
