<svg width="25" height="30" viewBox="0 0 25 30" fill="none" xmlns="http://www.w3.org/2000/svg">
<path d="M20.7031 3.75H16.4063V2.8125C16.4063 1.25918 15.3569 0 14.0625 0H10.9375C9.64307 0 8.59375 1.25918 8.59375 2.8125V3.75H4.29688C3.21821 3.75 2.34375 4.79936 2.34375 6.09375V7.96875C2.34375 8.48654 2.69351 8.90625 3.125 8.90625H21.875C22.3065 8.90625 22.6563 8.48654 22.6563 7.96875V6.09375C22.6563 4.79936 21.7818 3.75 20.7031 3.75ZM10.1563 2.8125C10.1563 2.2957 10.5068 1.875 10.9375 1.875H14.0625C14.4932 1.875 14.8438 2.2957 14.8438 2.8125V3.75H10.1563V2.8125Z" fill="white"/>
<path d="M3.82616 10.7812C3.68676 10.7812 3.57567 10.9211 3.58231 11.0882L4.22685 27.3211C4.28642 28.8234 5.31474 30 6.56767 30H18.4319C19.6849 30 20.7132 28.8234 20.7727 27.3211L21.4173 11.0882C21.4239 10.9211 21.3128 10.7812 21.1734 10.7812H3.82616ZM15.6248 13.125C15.6248 12.607 15.9744 12.1875 16.406 12.1875C16.8377 12.1875 17.1873 12.607 17.1873 13.125V25.3125C17.1873 25.8305 16.8377 26.25 16.406 26.25C15.9744 26.25 15.6248 25.8305 15.6248 25.3125V13.125ZM11.7185 13.125C11.7185 12.607 12.0682 12.1875 12.4998 12.1875C12.9314 12.1875 13.281 12.607 13.281 13.125V25.3125C13.281 25.8305 12.9314 26.25 12.4998 26.25C12.0682 26.25 11.7185 25.8305 11.7185 25.3125V13.125ZM7.8123 13.125C7.8123 12.607 8.16191 12.1875 8.59355 12.1875C9.02519 12.1875 9.3748 12.607 9.3748 13.125V25.3125C9.3748 25.8305 9.02519 26.25 8.59355 26.25C8.16191 26.25 7.8123 25.8305 7.8123 25.3125V13.125Z" fill="white"/>
</svg>
