<svg xmlns="http://www.w3.org/2000/svg" width="51.487" height="41.189" viewBox="0 0 51.487 41.189">
  <g id="icon-barcode" transform="translate(0 -48)">
    <g id="Group_278" data-name="Group 278" transform="translate(0 48)">
      <g id="Group_277" data-name="Group 277">
        <path id="Path_311" data-name="Path 311" d="M8.581,48H1.716A1.717,1.717,0,0,0,0,49.716v6.865a1.716,1.716,0,1,0,3.432,0V51.432H8.581a1.716,1.716,0,1,0,0-3.432Z" transform="translate(0 -48)" fill="#455a64"/>
      </g>
    </g>
    <g id="Group_280" data-name="Group 280" transform="translate(41.19 78.892)">
      <g id="Group_279" data-name="Group 279">
        <path id="Path_312" data-name="Path 312" d="M392.581,336a1.717,1.717,0,0,0-1.716,1.716v5.149h-5.149a1.716,1.716,0,0,0,0,3.432h6.865a1.717,1.717,0,0,0,1.716-1.716v-6.865A1.717,1.717,0,0,0,392.581,336Z" transform="translate(-384 -336)" fill="#455a64"/>
      </g>
    </g>
    <g id="Group_282" data-name="Group 282" transform="translate(41.19 48)">
      <g id="Group_281" data-name="Group 281">
        <path id="Path_313" data-name="Path 313" d="M392.581,48h-6.865a1.716,1.716,0,0,0,0,3.432h5.149v5.149a1.716,1.716,0,0,0,3.433,0V49.716A1.717,1.717,0,0,0,392.581,48Z" transform="translate(-384 -48)" fill="#455a64"/>
      </g>
    </g>
    <g id="Group_284" data-name="Group 284" transform="translate(0 78.892)">
      <g id="Group_283" data-name="Group 283">
        <path id="Path_314" data-name="Path 314" d="M8.581,342.865H3.432v-5.149a1.716,1.716,0,1,0-3.432,0v6.865A1.717,1.717,0,0,0,1.716,346.3H8.581a1.716,1.716,0,1,0,0-3.432Z" transform="translate(0 -336)" fill="#455a64"/>
      </g>
    </g>
    <g id="Group_286" data-name="Group 286" transform="translate(5.217 54.577)">
      <g id="Group_285" data-name="Group 285" transform="translate(0 0)">
        <rect id="Rectangle_209" data-name="Rectangle 209" width="4.005" height="28.035" fill="#455a64"/>
      </g>
    </g>
    <g id="Group_288" data-name="Group 288" transform="translate(13.228 54.577)">
      <g id="Group_287" data-name="Group 287" transform="translate(0 0)">
        <rect id="Rectangle_210" data-name="Rectangle 210" width="4.005" height="20.025" fill="#455a64"/>
      </g>
    </g>
    <g id="Group_290" data-name="Group 290" transform="translate(21.238 54.577)">
      <g id="Group_289" data-name="Group 289" transform="translate(0 0)">
        <rect id="Rectangle_211" data-name="Rectangle 211" width="4.005" height="20.025" fill="#455a64"/>
      </g>
    </g>
    <g id="Group_292" data-name="Group 292" transform="translate(29.248 54.577)">
      <g id="Group_291" data-name="Group 291" transform="translate(0 0)">
        <rect id="Rectangle_212" data-name="Rectangle 212" width="4.005" height="28.035" fill="#455a64"/>
      </g>
    </g>
    <g id="Group_294" data-name="Group 294" transform="translate(37.258 54.577)">
      <g id="Group_293" data-name="Group 293" transform="translate(0 0)">
        <rect id="Rectangle_213" data-name="Rectangle 213" height="20.025" fill="#455a64"/>
      </g>
    </g>
    <g id="Group_296" data-name="Group 296" transform="translate(41.263 54.577)">
      <g id="Group_295" data-name="Group 295" transform="translate(0 0)">
        <rect id="Rectangle_214" data-name="Rectangle 214" width="4.005" height="28.035" fill="#455a64"/>
      </g>
    </g>
    <g id="Group_298" data-name="Group 298" transform="translate(13.228 78.608)">
      <g id="Group_297" data-name="Group 297" transform="translate(0 0)">
        <rect id="Rectangle_215" data-name="Rectangle 215" width="4.005" height="4.005" transform="translate(0 0)" fill="#455a64"/>
      </g>
    </g>
    <g id="Group_300" data-name="Group 300" transform="translate(21.238 78.608)">
      <g id="Group_299" data-name="Group 299" transform="translate(0 0)">
        <rect id="Rectangle_216" data-name="Rectangle 216" width="4.005" height="4.005" transform="translate(0 0)" fill="#455a64"/>
      </g>
    </g>
    <g id="Group_302" data-name="Group 302" transform="translate(37.258 78.608)">
      <g id="Group_301" data-name="Group 301" transform="translate(0 0)">
        <rect id="Rectangle_217" data-name="Rectangle 217" height="4.005" transform="translate(0 0)" fill="#455a64"/>
      </g>
    </g>
  </g>
</svg>
