<?xml version="1.0" encoding="UTF-8"?>
<svg xmlns="http://www.w3.org/2000/svg" xmlns:xlink="http://www.w3.org/1999/xlink" width="24pt" height="24pt" viewBox="0 0 24 24" version="1.1">
<g id="surface1">
<path style=" stroke:none;fill-rule:nonzero;fill:rgb(0%,0%,0%);fill-opacity:1;" d="M 4.914062 19.40625 C 4.722656 18.988281 4.378906 18.667969 3.945312 18.511719 C 3.050781 18.183594 2.058594 18.640625 1.730469 19.535156 C 1.570312 19.96875 1.589844 20.4375 1.785156 20.855469 C 1.976562 21.273438 2.324219 21.589844 2.753906 21.75 C 2.949219 21.820312 3.152344 21.855469 3.347656 21.855469 C 4.050781 21.855469 4.714844 21.421875 4.96875 20.722656 C 5.128906 20.292969 5.109375 19.824219 4.914062 19.40625 Z M 4.332031 20.492188 C 4.132812 21.035156 3.53125 21.3125 2.988281 21.113281 C 2.726562 21.015625 2.515625 20.824219 2.398438 20.570312 C 2.28125 20.316406 2.269531 20.03125 2.367188 19.769531 C 2.460938 19.503906 2.65625 19.296875 2.910156 19.179688 C 3.050781 19.113281 3.199219 19.082031 3.347656 19.082031 C 3.472656 19.082031 3.59375 19.101562 3.710938 19.144531 C 3.972656 19.242188 4.183594 19.433594 4.300781 19.691406 C 4.417969 19.945312 4.429688 20.226562 4.332031 20.492188 Z M 4.332031 20.492188 "/>
<path style=" stroke:none;fill-rule:nonzero;fill:rgb(0%,0%,0%);fill-opacity:1;" d="M 23.660156 11.65625 C 23.847656 11.65625 24 11.503906 24 11.320312 L 24 3.914062 C 24 3.425781 23.601562 3.027344 23.113281 3.027344 L 13.148438 3.027344 C 13.214844 2.585938 13.152344 2.136719 12.957031 1.722656 C 12.695312 1.167969 12.230469 0.75 11.648438 0.542969 C 11.472656 0.484375 11.285156 0.570312 11.21875 0.746094 L 10.367188 3.027344 L 5.414062 3.027344 L 4.566406 0.746094 C 4.5 0.570312 4.308594 0.484375 4.136719 0.542969 C 3.554688 0.75 3.089844 1.167969 2.828125 1.722656 C 2.632812 2.136719 2.566406 2.585938 2.632812 3.027344 L 1.933594 3.027344 C 1.445312 3.027344 1.046875 3.425781 1.046875 3.914062 L 1.046875 14.5 C 1.046875 14.988281 1.445312 15.386719 1.933594 15.386719 L 5.765625 15.386719 L 5.070312 17.257812 C 4.855469 17.128906 4.625 17.023438 4.386719 16.945312 C 2.714844 16.402344 0.894531 17.253906 0.242188 18.882812 C -0.0976562 19.730469 -0.078125 20.65625 0.289062 21.488281 C 0.660156 22.320312 1.335938 22.953125 2.1875 23.269531 C 2.558594 23.40625 2.945312 23.476562 3.332031 23.476562 C 3.808594 23.476562 4.285156 23.371094 4.730469 23.164062 C 5.5625 22.78125 6.195312 22.097656 6.507812 21.238281 L 7.890625 17.476562 L 9.273438 21.238281 C 9.589844 22.097656 10.222656 22.78125 11.050781 23.164062 C 11.5 23.371094 11.976562 23.476562 12.453125 23.476562 C 12.835938 23.476562 13.222656 23.40625 13.59375 23.269531 C 14.449219 22.953125 15.125 22.320312 15.492188 21.488281 C 15.863281 20.65625 15.878906 19.730469 15.542969 18.882812 C 14.890625 17.253906 13.070312 16.402344 11.398438 16.945312 C 11.15625 17.023438 10.929688 17.128906 10.714844 17.257812 L 10.015625 15.386719 L 23.113281 15.386719 C 23.601562 15.386719 24 14.988281 24 14.5 L 24 13.476562 C 24 13.289062 23.847656 13.136719 23.660156 13.136719 C 23.472656 13.136719 23.324219 13.289062 23.324219 13.476562 L 23.324219 14.5 C 23.324219 14.617188 23.230469 14.710938 23.113281 14.710938 L 8.90625 14.710938 L 12.953125 3.707031 L 23.113281 3.707031 C 23.230469 3.707031 23.324219 3.800781 23.324219 3.914062 L 23.324219 11.320312 C 23.324219 11.503906 23.472656 11.65625 23.660156 11.65625 Z M 3.441406 2.011719 C 3.578125 1.722656 3.789062 1.488281 4.058594 1.324219 L 4.691406 3.027344 L 3.320312 3.027344 C 3.25 2.6875 3.289062 2.332031 3.441406 2.011719 Z M 1.933594 14.710938 C 1.820312 14.710938 1.726562 14.617188 1.726562 14.5 L 1.726562 3.914062 C 1.726562 3.800781 1.820312 3.707031 1.933594 3.707031 L 7.375 3.707031 L 7.375 4.609375 C 7.375 4.792969 7.527344 4.945312 7.710938 4.945312 C 7.898438 4.945312 8.050781 4.792969 8.050781 4.609375 L 8.050781 3.707031 L 10.117188 3.707031 L 8.050781 9.253906 L 8.050781 6.738281 C 8.050781 6.550781 7.898438 6.398438 7.710938 6.398438 C 7.527344 6.398438 7.375 6.550781 7.375 6.738281 L 7.375 11.070312 L 6.019531 14.710938 Z M 9.292969 15.386719 L 10.230469 17.902344 C 10.269531 18.003906 10.351562 18.082031 10.457031 18.109375 C 10.5625 18.140625 10.675781 18.117188 10.761719 18.046875 C 11.015625 17.84375 11.300781 17.691406 11.609375 17.589844 C 12.941406 17.15625 14.390625 17.835938 14.914062 19.136719 C 15.183594 19.8125 15.167969 20.550781 14.875 21.214844 C 14.578125 21.878906 14.042969 22.382812 13.359375 22.632812 C 12.703125 22.878906 11.980469 22.847656 11.335938 22.550781 C 10.667969 22.242188 10.164062 21.695312 9.910156 21.003906 L 8.253906 16.492188 L 8.660156 15.386719 Z M 12.398438 3.25 L 5.875 21.003906 C 5.621094 21.695312 5.113281 22.242188 4.449219 22.550781 C 3.800781 22.847656 3.082031 22.878906 2.421875 22.632812 C 1.742188 22.382812 1.203125 21.878906 0.910156 21.214844 C 0.613281 20.550781 0.601562 19.8125 0.871094 19.136719 C 1.285156 18.101562 2.289062 17.460938 3.355469 17.460938 C 3.625 17.460938 3.902344 17.5 4.175781 17.589844 C 4.484375 17.691406 4.769531 17.84375 5.023438 18.046875 C 5.109375 18.117188 5.21875 18.140625 5.324219 18.109375 C 5.429688 18.082031 5.515625 18.003906 5.554688 17.902344 L 6.570312 15.167969 L 11.726562 1.324219 C 11.992188 1.488281 12.207031 1.722656 12.34375 2.011719 C 12.527344 2.402344 12.546875 2.84375 12.398438 3.25 Z M 12.398438 3.25 "/>
<path style=" stroke:none;fill-rule:nonzero;fill:rgb(0%,0%,0%);fill-opacity:1;" d="M 14.054688 19.535156 C 13.726562 18.640625 12.730469 18.183594 11.839844 18.511719 C 10.945312 18.839844 10.488281 19.832031 10.8125 20.722656 C 11.070312 21.421875 11.730469 21.855469 12.4375 21.855469 C 12.632812 21.855469 12.832031 21.820312 13.027344 21.75 C 13.460938 21.589844 13.804688 21.273438 14 20.855469 C 14.191406 20.4375 14.210938 19.96875 14.054688 19.535156 Z M 13.386719 20.570312 C 13.265625 20.824219 13.058594 21.015625 12.796875 21.113281 C 12.253906 21.3125 11.648438 21.035156 11.449219 20.492188 C 11.25 19.949219 11.53125 19.34375 12.074219 19.144531 C 12.191406 19.101562 12.3125 19.082031 12.433594 19.082031 C 12.859375 19.082031 13.261719 19.34375 13.417969 19.769531 C 13.515625 20.03125 13.503906 20.316406 13.386719 20.570312 Z M 13.386719 20.570312 "/>
<path style=" stroke:none;fill-rule:nonzero;fill:rgb(0%,0%,0%);fill-opacity:1;" d="M 4.933594 8.875 L 4.933594 7.3125 C 5.472656 7.351562 5.671875 7.597656 5.855469 7.597656 C 6.085938 7.597656 6.195312 7.304688 6.195312 7.160156 C 6.195312 6.78125 5.457031 6.621094 4.933594 6.605469 L 4.933594 6.398438 C 4.933594 6.304688 4.820312 6.21875 4.703125 6.21875 C 4.574219 6.21875 4.480469 6.304688 4.480469 6.398438 L 4.480469 6.621094 C 3.75 6.699219 3.019531 7.082031 3.019531 8.050781 C 3.019531 9.035156 3.789062 9.3125 4.480469 9.558594 L 4.480469 11.367188 C 3.695312 11.304688 3.488281 10.765625 3.234375 10.765625 C 3.042969 10.765625 2.878906 11.019531 2.878906 11.203125 C 2.878906 11.582031 3.527344 12.097656 4.480469 12.113281 L 4.480469 12.351562 C 4.480469 12.441406 4.574219 12.527344 4.703125 12.527344 C 4.820312 12.527344 4.933594 12.441406 4.933594 12.351562 L 4.933594 12.089844 C 5.765625 11.972656 6.332031 11.449219 6.332031 10.503906 C 6.332031 9.457031 5.601562 9.121094 4.933594 8.875 Z M 4.527344 8.726562 C 4.117188 8.574219 3.789062 8.414062 3.789062 7.972656 C 3.789062 7.574219 4.097656 7.382812 4.527344 7.328125 Z M 4.886719 11.351562 L 4.886719 9.726562 C 5.265625 9.890625 5.566406 10.105469 5.566406 10.589844 C 5.566406 11.027344 5.304688 11.273438 4.886719 11.351562 Z M 4.886719 11.351562 "/>
<path style=" stroke:none;fill-rule:nonzero;fill:rgb(0%,0%,0%);fill-opacity:1;" d="M 14.21875 7.652344 L 12.222656 7.652344 C 12.078125 7.652344 12 7.796875 12 7.9375 C 12 8.105469 12.09375 8.226562 12.222656 8.226562 L 12.914062 8.226562 L 12.914062 11.054688 C 12.914062 11.183594 13.039062 11.277344 13.222656 11.277344 C 13.375 11.277344 13.53125 11.199219 13.53125 11.054688 L 13.53125 8.226562 L 14.21875 8.226562 C 14.347656 8.226562 14.441406 8.105469 14.441406 7.933594 C 14.441406 7.796875 14.371094 7.652344 14.21875 7.652344 Z M 14.21875 7.652344 "/>
<path style=" stroke:none;fill-rule:nonzero;fill:rgb(0%,0%,0%);fill-opacity:1;" d="M 18.078125 10.953125 L 17.125 7.835938 C 17.082031 7.707031 16.9375 7.625 16.75 7.625 C 16.5625 7.625 16.417969 7.707031 16.375 7.835938 L 15.417969 10.949219 C 15.410156 10.972656 15.410156 10.992188 15.410156 11.011719 C 15.410156 11.167969 15.605469 11.277344 15.78125 11.277344 C 15.933594 11.277344 15.992188 11.199219 16.011719 11.132812 L 16.199219 10.488281 L 17.304688 10.488281 L 17.492188 11.132812 C 17.519531 11.226562 17.597656 11.277344 17.714844 11.277344 C 17.894531 11.277344 18.089844 11.164062 18.089844 11.011719 C 18.089844 10.988281 18.085938 10.96875 18.078125 10.953125 Z M 16.339844 9.972656 L 16.75 8.566406 L 17.15625 9.972656 Z M 16.339844 9.972656 "/>
<path style=" stroke:none;fill-rule:nonzero;fill:rgb(0%,0%,0%);fill-opacity:1;" d="M 22.046875 10.859375 L 21.230469 9.460938 L 22.023438 8.074219 C 22.050781 8.019531 22.066406 7.96875 22.066406 7.921875 C 22.066406 7.753906 21.871094 7.640625 21.695312 7.640625 C 21.59375 7.640625 21.507812 7.699219 21.457031 7.8125 L 20.832031 8.957031 L 20.214844 7.8125 C 20.140625 7.667969 20.042969 7.640625 19.976562 7.640625 C 19.796875 7.640625 19.597656 7.753906 19.597656 7.921875 C 19.597656 7.96875 19.613281 8.019531 19.644531 8.074219 L 20.4375 9.460938 L 19.621094 10.863281 C 19.597656 10.910156 19.585938 10.949219 19.585938 10.988281 C 19.585938 11.15625 19.792969 11.289062 19.964844 11.289062 C 20.046875 11.289062 20.121094 11.238281 20.175781 11.148438 L 20.832031 9.953125 L 21.496094 11.144531 C 21.53125 11.214844 21.601562 11.289062 21.703125 11.289062 C 21.878906 11.289062 22.085938 11.15625 22.085938 10.988281 C 22.085938 10.949219 22.070312 10.910156 22.046875 10.859375 Z M 22.046875 10.859375 "/>
</g>
</svg>
