<svg width="30" height="30" viewBox="0 0 30 30" fill="none" xmlns="http://www.w3.org/2000/svg">
<g clip-path="url(#clip0)">
<path d="M5.35474 9.06055V29.1214C5.35474 29.6068 5.74825 30.0003 6.23364 30.0003H10.9944C11.3403 30.0003 11.654 29.7974 11.7959 29.4819C12.3625 28.2222 13.6199 27.4082 14.9993 27.4082C16.3787 27.4082 17.6362 28.2222 18.2027 29.4819C18.3446 29.7974 18.6583 30.0003 19.0043 30.0003H23.7651C24.2505 30.0003 24.644 29.6068 24.644 29.1214V9.06055H5.35474Z" fill="white"/>
<path d="M23.7651 0H19.0043C18.6584 0 18.3446 0.20291 18.2028 0.518438C17.6362 1.77814 16.3788 2.59207 14.9994 2.59207C13.62 2.59207 12.3625 1.77809 11.796 0.518379C11.6541 0.20291 11.3403 0 10.9944 0H6.23364C5.74825 0 5.35474 0.393516 5.35474 0.878906V7.30242H24.644V0.878906C24.644 0.393516 24.2505 0 23.7651 0Z" fill="white"/>
</g>
<defs>
<clipPath id="clip0">
<rect width="30" height="30" fill="white"/>
</clipPath>
</defs>
</svg>
