<svg xmlns="http://www.w3.org/2000/svg" width="36.318" height="47.001" viewBox="0 0 36.318 47.001">
  <g id="calculator" transform="translate(-5.342)">
    <g id="Layer_1_66_">
      <g id="Group_322" data-name="Group 322">
        <path id="Path_327" data-name="Path 327" d="M39.524,0H7.478A2.136,2.136,0,0,0,5.342,2.137V44.864A2.137,2.137,0,0,0,7.478,47H39.524a2.136,2.136,0,0,0,2.136-2.137V2.137A2.136,2.136,0,0,0,39.524,0ZM37.387,4.272v6.409H9.614V4.272ZM9.614,42.729V14.954H37.387V42.726H9.614Z" fill="#656565"/>
        <path id="Path_328" data-name="Path 328" d="M17.253,16.844H12.818a1.068,1.068,0,0,0-1.068,1.068V22.35a1.068,1.068,0,0,0,1.068,1.068h4.435a1.068,1.068,0,0,0,1.068-1.068V17.912A1.065,1.065,0,0,0,17.253,16.844Z" fill="#656565"/>
        <path id="Path_329" data-name="Path 329" d="M25.717,16.844H21.283a1.068,1.068,0,0,0-1.068,1.068V22.35a1.068,1.068,0,0,0,1.068,1.068h4.434a1.068,1.068,0,0,0,1.068-1.068V17.912A1.067,1.067,0,0,0,25.717,16.844Z" fill="#656565"/>
        <path id="Path_330" data-name="Path 330" d="M34.182,16.844H29.747a1.068,1.068,0,0,0-1.067,1.068V22.35a1.068,1.068,0,0,0,1.067,1.068h4.435A1.068,1.068,0,0,0,35.25,22.35V17.912A1.067,1.067,0,0,0,34.182,16.844Z" fill="#656565"/>
        <path id="Path_331" data-name="Path 331" d="M17.253,25.555H12.818a1.068,1.068,0,0,0-1.068,1.067V31.06a1.068,1.068,0,0,0,1.068,1.067h4.435a1.068,1.068,0,0,0,1.068-1.067V26.622A1.064,1.064,0,0,0,17.253,25.555Z" fill="#656565"/>
        <path id="Path_332" data-name="Path 332" d="M25.717,25.555H21.283a1.068,1.068,0,0,0-1.068,1.067V31.06a1.067,1.067,0,0,0,1.068,1.067h4.434a1.068,1.068,0,0,0,1.068-1.067V26.622A1.066,1.066,0,0,0,25.717,25.555Z" fill="#656565"/>
        <path id="Path_333" data-name="Path 333" d="M17.253,34.266H12.818a1.067,1.067,0,0,0-1.068,1.066V39.77a1.067,1.067,0,0,0,1.068,1.068h4.435a1.068,1.068,0,0,0,1.068-1.068V35.332A1.064,1.064,0,0,0,17.253,34.266Z" fill="#656565"/>
        <path id="Path_334" data-name="Path 334" d="M25.717,34.266H21.283a1.067,1.067,0,0,0-1.068,1.066V39.77a1.067,1.067,0,0,0,1.068,1.068h4.434a1.068,1.068,0,0,0,1.068-1.068V35.332A1.065,1.065,0,0,0,25.717,34.266Z" fill="#656565"/>
        <path id="Path_335" data-name="Path 335" d="M34.182,25.555H29.747a1.067,1.067,0,0,0-1.067,1.067V39.77a1.066,1.066,0,0,0,1.067,1.068h4.435A1.068,1.068,0,0,0,35.25,39.77V26.622A1.066,1.066,0,0,0,34.182,25.555Z" fill="#656565"/>
      </g>
    </g>
  </g>
</svg>
