<svg width="24" height="24" viewBox="0 0 24 24" fill="none" xmlns="http://www.w3.org/2000/svg">
<path d="M17.75 8.9995H12V5.7495C12 5.0895 11.205 4.7505 10.73 5.2085L4.23 11.4585C4.083 11.6005 4 11.7955 4 11.9995C4 12.2035 4.083 12.3985 4.23 12.5405L10.73 18.7905C11.204 19.2465 12 18.9135 12 18.2495V14.9995H17.75C18.439 14.9995 19 14.4385 19 13.7495V10.2495C19 9.5605 18.439 8.9995 17.75 8.9995Z" fill="#828282"/>
<path d="M12 24C5.383 24 0 18.617 0 12C0 5.383 5.383 0 12 0C18.617 0 24 5.383 24 12C24 18.617 18.617 24 12 24ZM12 2C6.486 2 2 6.486 2 12C2 17.514 6.486 22 12 22C17.514 22 22 17.514 22 12C22 6.486 17.514 2 12 2Z" fill="#828282"/>
</svg>
