<svg width="16" height="17" viewBox="0 0 16 17" fill="none" xmlns="http://www.w3.org/2000/svg">
<path d="M15.124 7.46875H9.24962V1.4966C9.25054 1.25912 9.1593 1.03088 8.99577 0.861598C8.83224 0.692312 8.60966 0.59569 8.37651 0.592773L7.62463 0.592773C7.39152 0.595686 7.16894 0.69209 7.00517 0.861075C6.8414 1.03006 6.74964 1.25799 6.74981 1.49544V7.46875H0.874817C0.643052 7.46859 0.42071 7.56218 0.256667 7.72893C0.0926231 7.89569 0.00030311 8.12196 0 8.35802L0 9.1279C0.000224961 9.24466 0.0230354 9.36022 0.067128 9.46799C0.11122 9.57576 0.175731 9.67363 0.256973 9.75599C0.338214 9.83836 0.434595 9.90362 0.540608 9.94803C0.64662 9.99245 0.760186 10.0152 0.874817 10.0148H6.74981V16.0091C6.75019 16.1255 6.77314 16.2407 6.81737 16.3481C6.86159 16.4554 6.9262 16.5528 7.0075 16.6346C7.08879 16.7164 7.18516 16.7811 7.29107 16.8249C7.39698 16.8686 7.51034 16.8906 7.62463 16.8897H8.37651C8.4907 16.8906 8.60394 16.8685 8.70972 16.8247C8.8155 16.7809 8.91173 16.7162 8.99287 16.6343C9.07401 16.5525 9.13847 16.4551 9.18253 16.3478C9.2266 16.2405 9.24939 16.1254 9.24962 16.0091V10.0148H15.124C15.3557 10.0155 15.578 9.92238 15.7423 9.75607C15.9065 9.58975 15.9992 9.3638 16 9.1279V8.35802C15.9995 8.12181 15.907 7.89544 15.7428 7.72869C15.5785 7.56194 15.356 7.46844 15.124 7.46875Z" fill="white"/>
</svg>
