<svg width="30" height="30" viewBox="0 0 30 30" fill="none" xmlns="http://www.w3.org/2000/svg">
<path d="M19.3337 23.4277H10.667C10.1148 23.4277 9.66699 23.8754 9.66699 24.4278C9.66699 24.9801 10.1147 25.4278 10.667 25.4278H19.3337C19.8859 25.4278 20.3337 24.9801 20.3337 24.4278C20.3337 23.8754 19.886 23.4277 19.3337 23.4277Z" fill="#535353"/>
<path d="M19.3337 20.2744H10.667C10.1148 20.2744 9.66699 20.7221 9.66699 21.2744C9.66699 21.8267 10.1147 22.2745 10.667 22.2745H19.3337C19.8859 22.2745 20.3337 21.8267 20.3337 21.2744C20.3337 20.7221 19.886 20.2744 19.3337 20.2744Z" fill="#535353"/>
<path d="M27.6667 7.84621H24.4849V2.05861C24.4849 1.50637 24.0371 1.05859 23.4848 1.05859H6.51516C5.96291 1.05859 5.51514 1.50631 5.51514 2.05861V7.84621H2.33332C1.04672 7.84621 0 8.89299 0 10.1796V20.2403C0 21.5269 1.04672 22.5736 2.33332 22.5736H5.51531V27.9416C5.51531 28.4938 5.96303 28.9416 6.51533 28.9416H23.4847C24.0369 28.9416 24.4847 28.4939 24.4847 27.9416V22.5736H27.6667C28.9533 22.5736 30 21.5269 30 20.2403V10.1796C30 8.89305 28.9533 7.84621 27.6667 7.84621ZM7.51512 3.05863H22.4848V7.84621H7.51512V3.05863ZM22.4846 26.9416H7.51535C7.51535 26.7462 7.51535 19.0019 7.51535 18.7602H22.4847C22.4846 19.008 22.4846 26.7537 22.4846 26.9416ZM23.4848 13.7182H20.9394C20.3871 13.7182 19.9393 13.2705 19.9393 12.7182C19.9393 12.1659 20.3871 11.7181 20.9394 11.7181H23.4848C24.0371 11.7181 24.4849 12.1659 24.4849 12.7182C24.4849 13.2705 24.0371 13.7182 23.4848 13.7182Z" fill="#535353"/>
</svg>
