<svg width="20" height="20" viewBox="0 0 20 20" fill="none" xmlns="http://www.w3.org/2000/svg">
<g clip-path="url(#clip0)">
<path d="M10.2086 1.66667H9.29195C9.01695 0.708333 8.13362 0 7.08362 0C6.03362 0 5.15028 0.708333 4.87528 1.66667H3.95862C3.61695 1.66667 3.33362 1.95 3.33362 2.29167V3.54167C3.33362 4.34167 3.99195 5 4.79195 5H9.37528C10.1753 5 10.8336 4.34167 10.8336 3.54167V2.29167C10.8336 1.95 10.5503 1.66667 10.2086 1.66667Z" fill="white"/>
<path d="M11.875 2.5H11.6667V3.54167C11.6667 4.80833 10.6417 5.83333 9.375 5.83333H4.79167C3.525 5.83333 2.5 4.80833 2.5 3.54167V2.5H2.29167C1.025 2.5 0 3.525 0 4.79167V15.2083C0 16.475 1.025 17.5 2.29167 17.5H8.44167L8.625 16.475C8.70833 16.0083 8.925 15.5917 9.25833 15.25L9.925 14.5833H3.125C2.78333 14.5833 2.5 14.3 2.5 13.9583C2.5 13.6167 2.78333 13.3333 3.125 13.3333H11.0417C11.0833 13.3333 11.1167 13.3333 11.1583 13.35H11.1667L14.1667 10.35V4.79167C14.1667 3.525 13.1417 2.5 11.875 2.5ZM11.0417 11.875H3.125C2.78333 11.875 2.5 11.5917 2.5 11.25C2.5 10.9083 2.78333 10.625 3.125 10.625H11.0417C11.3833 10.625 11.6667 10.9083 11.6667 11.25C11.6667 11.5917 11.3833 11.875 11.0417 11.875ZM11.0417 9.16667H3.125C2.78333 9.16667 2.5 8.88333 2.5 8.54167C2.5 8.2 2.78333 7.91667 3.125 7.91667H11.0417C11.3833 7.91667 11.6667 8.2 11.6667 8.54167C11.6667 8.88333 11.3833 9.16667 11.0417 9.16667Z" fill="white"/>
<path d="M10.4392 20.0001C10.275 20.0001 10.115 19.9351 9.99749 19.8168C9.85333 19.6726 9.78833 19.4676 9.82416 19.2659L10.2658 16.7618C10.2875 16.6359 10.3492 16.5193 10.4392 16.4284L16.6267 10.2418C17.3867 9.48011 18.1333 9.68594 18.5417 10.0943L19.5725 11.1251C20.1417 11.6934 20.1417 12.6184 19.5725 13.1876L13.385 19.3751C13.295 19.4659 13.1783 19.5268 13.0517 19.5484L10.5475 19.9901C10.5117 19.9968 10.475 20.0001 10.4392 20.0001V20.0001ZM12.9433 18.9334H12.9517H12.9433Z" fill="white"/>
</g>
<defs>
<clipPath id="clip0">
<rect width="20" height="20" fill="white"/>
</clipPath>
</defs>
</svg>
