<?xml version="1.0" encoding="UTF-8"?>
<svg xmlns="http://www.w3.org/2000/svg" xmlns:xlink="http://www.w3.org/1999/xlink" width="24pt" height="24pt" viewBox="0 0 24 24" version="1.1">
<g id="surface1">
<path style=" stroke:none;fill-rule:nonzero;fill:rgb(100%,100%,100%);fill-opacity:1;" d="M 24.605469 2.835938 C 23.707031 1.820312 22.722656 0.878906 21.667969 0.0273438 C 20.65625 -0.183594 20.171875 0.90625 19.476562 1.417969 C 20.648438 2.777344 22.019531 3.980469 23.277344 5.257812 C 23.847656 4.589844 25.203125 3.894531 24.605469 2.835938 Z M 23.980469 7.980469 C 23.179688 8.785156 22.351562 9.566406 21.582031 10.398438 C 21.5625 13.621094 21.582031 16.839844 21.582031 20.0625 C 21.523438 21.285156 20.554688 22.265625 19.335938 22.34375 C 14.453125 22.363281 9.566406 22.363281 4.675781 22.34375 C 3.335938 22.253906 2.320312 21.09375 2.40625 19.75 C 2.40625 15.085938 2.40625 10.425781 2.40625 5.769531 C 2.328125 4.433594 3.335938 3.285156 4.671875 3.191406 C 7.90625 3.144531 11.152344 3.191406 14.378906 3.167969 C 15.214844 2.410156 15.992188 1.578125 16.796875 0.78125 C 12.476562 0.78125 8.179688 0.757812 3.875 0.792969 C 1.800781 0.882812 0.136719 2.535156 0.0351562 4.605469 C 0.0351562 10.042969 0.015625 15.476562 0.0351562 20.910156 C 0.113281 22.90625 1.644531 24.542969 3.632812 24.75 L 20.5625 24.75 C 22.449219 24.4375 23.871094 22.851562 23.976562 20.941406 C 24.015625 16.625 23.972656 12.300781 23.980469 7.980469 Z M 22.691406 5.867188 C 21.421875 4.585938 20.140625 3.316406 18.847656 2.058594 C 16.042969 4.847656 13.226562 7.628906 10.433594 10.433594 C 11.699219 11.710938 12.972656 12.976562 14.253906 14.230469 C 17.074219 11.445312 19.886719 8.660156 22.691406 5.871094 Z M 8.367188 16.28125 C 10.089844 15.8125 11.007812 15.519531 12.726562 15.058594 C 13.1875 14.910156 13.492188 14.816406 13.726562 14.730469 C 12.511719 13.570312 11.113281 12.140625 9.886719 10.96875 C 9.382812 12.742188 8.878906 14.511719 8.367188 16.28125 Z M 8.367188 16.28125 "/>
</g>
</svg>
