<svg xmlns="http://www.w3.org/2000/svg" width="11.329" height="14.01" viewBox="0 0 11.329 14.01">
  <g id="delete-button" transform="translate(0)">
    <g id="Group_242" data-name="Group 242">
      <path id="Path_294" data-name="Path 294" d="M55.884,1.679H53.7a1.9,1.9,0,0,0-3.767,0H47.755a1.6,1.6,0,0,0-1.6,1.6v.082a1.6,1.6,0,0,0,1.011,1.487v7.561a1.6,1.6,0,0,0,1.6,1.6h6.105a1.6,1.6,0,0,0,1.6-1.6V4.848a1.6,1.6,0,0,0,1.011-1.487V3.279A1.6,1.6,0,0,0,55.884,1.679ZM51.82.759a1.139,1.139,0,0,1,1.116.919H50.7A1.139,1.139,0,0,1,51.82.759Zm3.894,11.65a.843.843,0,0,1-.841.842H48.767a.843.843,0,0,1-.841-.842V4.962h7.788Zm1.011-9.048a.843.843,0,0,1-.841.842H47.755a.843.843,0,0,1-.841-.842V3.279a.843.843,0,0,1,.841-.842h8.128a.843.843,0,0,1,.841.842v.082Z" transform="translate(-46.155)" fill="#535353"/>
      <path id="Path_295" data-name="Path 295" d="M158.455,254.6a.38.38,0,0,0,.38-.38v-4.273a.38.38,0,1,0-.759,0v4.273A.38.38,0,0,0,158.455,254.6Z" transform="translate(-154.825 -242.323)" fill="#535353"/>
      <path id="Path_296" data-name="Path 296" d="M228.525,254.6a.38.38,0,0,0,.38-.38v-4.273a.38.38,0,1,0-.759,0v4.273A.38.38,0,0,0,228.525,254.6Z" transform="translate(-222.86 -242.323)" fill="#535353"/>
      <path id="Path_297" data-name="Path 297" d="M298.594,254.6a.38.38,0,0,0,.38-.38v-4.273a.38.38,0,1,0-.759,0v4.273A.38.38,0,0,0,298.594,254.6Z" transform="translate(-290.894 -242.323)" fill="#535353"/>
    </g>
  </g>
</svg>
