<svg width="46" height="46" viewBox="0 0 46 46" fill="none" xmlns="http://www.w3.org/2000/svg">
<path d="M30.8117 0H15.2715C12.6296 0 10.3848 2.1542 10.3848 4.79543V41.21C10.3848 43.8513 12.5821 46 15.224 46L30.7897 45.9832C33.4313 45.9832 35.5925 43.8341 35.5925 41.1925L35.6151 4.79288C35.6148 2.14214 33.4642 0 30.8117 0ZM20.7966 2.87507H25.3052C25.7013 2.87507 26.0239 3.19659 26.0239 3.59374C26.0239 3.9909 25.7013 4.31242 25.3052 4.31242H20.7966C20.3995 4.31242 20.0779 3.9909 20.0779 3.59374C20.0779 3.19659 20.3995 2.87507 20.7966 2.87507ZM18.0874 3.10379C18.3538 2.8378 18.8386 2.83415 19.1046 3.10379C19.238 3.23678 19.3169 3.42348 19.3169 3.6142C19.3169 3.80127 19.238 3.98761 19.1046 4.12097C18.972 4.25433 18.7845 4.33288 18.5978 4.33288C18.4075 4.33288 18.2244 4.25433 18.0874 4.12097C17.9548 3.98797 17.8792 3.80127 17.8792 3.6142C17.8788 3.42348 17.9548 3.23678 18.0874 3.10379ZM22.9059 44.5754C21.7199 44.5754 20.7553 43.6101 20.7553 42.4245C20.7553 41.2385 21.7199 40.2736 22.9059 40.2736C24.0918 40.2736 25.0564 41.2385 25.0564 42.4245C25.0564 43.6101 24.0915 44.5754 22.9059 44.5754ZM33.3842 38.8118H12.9003V6.82833H33.3842V38.8118Z" fill="#333333"/>
</svg>
