<?xml version="1.0" encoding="UTF-8"?>
<svg xmlns="http://www.w3.org/2000/svg" xmlns:xlink="http://www.w3.org/1999/xlink" width="24pt" height="24pt" viewBox="0 0 24 30" version="1.1">
<g id="surface1">
<path style=" stroke:none;fill-rule:nonzero;fill:rgb(27.058824%,35.294118%,39.215686%);fill-opacity:1;" d="M 11.84375 14.675781 C 15.304688 14.675781 18.113281 11.390625 18.113281 7.339844 C 18.113281 3.285156 17.191406 0 11.84375 0 C 6.496094 0 5.574219 3.285156 5.574219 7.339844 C 5.574219 11.390625 8.378906 14.675781 11.84375 14.675781 Z M 11.84375 14.675781 "/>
<path style=" stroke:none;fill-rule:nonzero;fill:rgb(27.058824%,35.294118%,39.215686%);fill-opacity:1;" d="M 23.667969 25.585938 C 23.554688 18.527344 22.597656 16.515625 15.277344 15.242188 C 14.378906 16.125 13.125 16.585938 11.84375 16.507812 C 10.5625 16.585938 9.308594 16.125 8.410156 15.242188 C 1.167969 16.5 0.152344 18.480469 0.0195312 25.355469 C 0.0078125 25.917969 0.00390625 25.945312 0 25.882812 C 0 26.003906 0 26.226562 0 26.621094 C 0 26.621094 1.746094 30.007812 11.839844 30.007812 C 21.9375 30.007812 23.683594 26.621094 23.683594 26.621094 C 23.683594 26.367188 23.683594 26.195312 23.683594 26.074219 C 23.667969 25.914062 23.664062 25.746094 23.667969 25.585938 Z M 23.667969 25.585938 "/>
</g>
</svg>
