<svg xmlns="http://www.w3.org/2000/svg" width="48" height="45.784" viewBox="0 0 48 45.784">
  <path id="Tax-595b40b85ba036ed117de5be" d="M36.886,3.031A5.475,5.475,0,0,0,33,4.634L30.818,6.815A5.247,5.247,0,0,0,29.352,10.8L26.966,13.19l-2.318-2.284a5.322,5.322,0,0,0-1.466-3.989L21,4.736a5.475,5.475,0,0,0-3.886-1.6,5.4,5.4,0,0,0-3.852,1.6,5.5,5.5,0,0,0,0,7.773l2.182,2.182a5.219,5.219,0,0,0,3.92,1.432l4.364,4.329H3V48.815H51V20.452H34.227L32.216,18.44l2.42-2.421a5.248,5.248,0,0,0,3.921-1.466l2.182-2.182a5.454,5.454,0,0,0,0-7.739A5.4,5.4,0,0,0,36.886,3.031Zm0,2.114A3.274,3.274,0,0,1,39.2,6.168a3.21,3.21,0,0,1,0,4.67L37.023,13.02a3.251,3.251,0,0,1-2.761.886,1.091,1.091,0,0,0-.955.307l-2.659,2.659L28.5,14.724l2.659-2.659a1.091,1.091,0,0,0,.307-.955,3.251,3.251,0,0,1,.886-2.761l2.182-2.182A3.349,3.349,0,0,1,36.886,5.145Zm-19.773.136a3.308,3.308,0,0,1,2.352.989l2.182,2.182a3.252,3.252,0,0,1,.886,2.761,1.091,1.091,0,0,0,.307.955l8.284,8.284L33,22.327l5.455,5.455.034.034a4.911,4.911,0,0,1,1.6,3.75v2.045l-4.67-4.636V28.94l-.136-.1-2.148-2.114L20.693,14.349a1.091,1.091,0,0,0-.955-.307,3.276,3.276,0,0,1-2.761-.92L14.8,10.94a3.21,3.21,0,0,1,0-4.671A3.232,3.232,0,0,1,17.114,5.281Zm.682,2.25a1.631,1.631,0,0,0-1.159.477,1.574,1.574,0,0,0,0,2.284l1.091,1.091a1.8,1.8,0,0,0,2.284,0,1.574,1.574,0,0,0,0-2.284L18.921,8.009A1.555,1.555,0,0,0,17.8,7.531Zm18.409,0a1.555,1.555,0,0,0-1.125.477L33.989,9.1a1.8,1.8,0,0,0,0,2.284,1.574,1.574,0,0,0,2.284,0l1.091-1.091a1.574,1.574,0,0,0,0-2.284A1.631,1.631,0,0,0,36.2,7.531ZM27,17.179a1.193,1.193,0,1,0,1.193,1.193A1.188,1.188,0,0,0,27,17.179ZM5.182,22.634h3.75c-.675.887-.911,2.07-1.364,2.523a19.557,19.557,0,0,1-2.386,1.091Zm39.784,0h3.852v3.648c-.888-.493-2.069-.736-2.523-1.125C45.842,24.7,45.62,23.521,44.966,22.634ZM25.909,26.009v3.17h2.182V26.043a7.619,7.619,0,0,1,1.773.58l1.4,1.364,2.42,2.386a9.629,9.629,0,0,1,.955,4.261c0,4.49-2.9,8.026-6.545,8.625V40.088H25.909v3.171c-3.643-.6-6.545-4.135-6.545-8.625S22.266,26.607,25.909,26.009Zm0,5.352v6.545h2.182V31.361ZM5.182,42.884A17.942,17.942,0,0,1,7.7,44.111c.453.453.675,1.635,1.33,2.523H5.182Zm43.636.068v3.682H44.932c.677-.887.91-2.069,1.364-2.523A17.653,17.653,0,0,1,48.818,42.952Z" transform="translate(-3 -3.031)" fill="#455a64"/>
</svg>
