<svg width="20" height="20" viewBox="0 0 20 20" fill="none" xmlns="http://www.w3.org/2000/svg">
<path d="M9.99973 0C4.4771 0 0 4.4774 0 9.9998C0 15.5222 4.4771 20 9.99973 20C15.5224 20 20 15.5225 20 9.9998C20 4.47713 15.5224 0 9.99973 0ZM14.7535 7.19633L13.8037 8.14613L11.8703 6.21287L11.1368 6.94633L13.0702 8.87973L8.32806 13.6215L6.39478 11.6884L5.6613 12.4219L7.59458 14.3551L7.12205 14.8277L7.11305 14.8187C7.06065 14.9049 6.97545 14.9679 6.87425 14.9903L5.07137 15.3923C5.04437 15.3984 5.0169 15.4013 4.98977 15.4013C4.89137 15.4013 4.79577 15.3626 4.7249 15.2915C4.63396 15.2009 4.5961 15.0701 4.6241 14.9447L5.0259 13.1423C5.04857 13.0412 5.11163 12.9558 5.19777 12.9035L5.18863 12.8944L12.82 5.26273C12.9319 5.15107 13.1136 5.15107 13.2255 5.26307L14.7536 6.79087C14.8655 6.90273 14.8655 7.08447 14.7535 7.19633Z" fill="white"/>
</svg>
