<svg xmlns="http://www.w3.org/2000/svg" width="29.451" height="29.458" viewBox="0 0 29.451 29.458">
  <g id="icon-thumbtack" transform="translate(0.004 5.536) rotate(-13)">
    <path id="Path_353" data-name="Path 353" d="M24.475,10.921a12.275,12.275,0,1,0-13,13.589c.267.017.532.041.8.041s.537-.023.8-.041A12.23,12.23,0,0,0,24.475,10.921Zm-12.2,11.742A10.356,10.356,0,0,1,4.9,19.577l6.164-4.721,2.227,2.227a4.825,4.825,0,0,0,1.452-4.575l.014-.012,4.654-3.549a.626.626,0,0,0,.05-.994L16.463,4.964a.577.577,0,0,0-.931.048L11.86,9.684a4.826,4.826,0,0,0-4.513,1.459l2.23,2.226L4.859,19.532a10.378,10.378,0,1,1,7.418,3.131Z" transform="translate(0)" fill="#fff"/>
  </g>
</svg>
