<svg xmlns="http://www.w3.org/2000/svg" width="182.716" height="402" viewBox="0 0 182.716 402">
  <g id="icon-info" transform="translate(-109.641)">
    <g id="Group_67" data-name="Group 67">
      <path id="Path_104" data-name="Path 104" d="M164.454,91.363h73.1A18.519,18.519,0,0,0,255.82,73.092V18.274a17.575,17.575,0,0,0-5.428-12.85A17.579,17.579,0,0,0,237.544,0H164.453a17.582,17.582,0,0,0-12.847,5.424,17.572,17.572,0,0,0-5.424,12.85V73.092a18.525,18.525,0,0,0,18.272,18.271Z" fill="#fff"/>
      <path id="Path_105" data-name="Path 105" d="M286.936,334.331a17.551,17.551,0,0,0-12.847-5.427H255.815V164.452a18.523,18.523,0,0,0-18.268-18.271H127.912a18.528,18.528,0,0,0-18.271,18.271V201a18.532,18.532,0,0,0,18.271,18.273h18.274V328.9H127.912a18.53,18.53,0,0,0-18.271,18.274v36.546A18.519,18.519,0,0,0,127.912,402H274.089a18.514,18.514,0,0,0,18.268-18.275V347.179A17.522,17.522,0,0,0,286.936,334.331Z" fill="#fff"/>
    </g>
  </g>
</svg>
