<svg width="14" height="14" viewBox="0 0 14 14" fill="none" xmlns="http://www.w3.org/2000/svg">
<path d="M14 6.12497V0L11.9425 2.05623C10.6773 0.787498 8.93058 0 6.99561 0C3.1257 0 0 3.13248 0 7C0 10.8675 3.1257 14 6.99561 14C10.257 14 12.9887 11.7688 13.7636 8.75001H11.9425C11.2202 10.7888 9.28518 12.25 6.99565 12.25C4.09321 12.25 1.74237 9.90062 1.74237 7C1.74237 4.09938 4.09321 1.75001 6.99565 1.75001C8.44469 1.75001 9.74488 2.35376 10.6948 3.30315L7.87118 6.12502H14V6.12497Z" fill="#03A9F4"/>
</svg>
