<svg width="16" height="17" viewBox="0 0 16 17" fill="none" xmlns="http://www.w3.org/2000/svg">
<path d="M15.696 15.4308L11.7659 11.2376C12.7423 10.0461 13.2931 8.54844 13.3274 6.9922C13.3617 5.43595 12.8774 3.91428 11.9545 2.67869C11.0317 1.4431 9.72554 0.567566 8.25196 0.196795C6.77838 -0.173976 5.2256 -0.0177857 3.85027 0.63955C2.47494 1.29688 1.35939 2.41601 0.688006 3.81196C0.0166222 5.20791 -0.170404 6.79711 0.15784 8.31689C0.486084 9.83667 1.30995 11.196 2.49326 12.1703C3.67657 13.1446 5.14849 13.6755 6.66574 13.6752C8.0342 13.6792 9.36999 13.2464 10.488 12.4368L14.4474 16.6601C14.5225 16.7578 14.6168 16.8384 14.724 16.8966C14.8313 16.9548 14.9493 16.9893 15.0703 16.9979C15.1914 17.0065 15.3129 16.989 15.4269 16.9465C15.541 16.9041 15.6451 16.8376 15.7327 16.7514C15.8202 16.6652 15.8892 16.5611 15.9352 16.4459C15.9811 16.3307 16.0031 16.2069 15.9996 16.0824C15.9962 15.958 15.9674 15.8357 15.9151 15.7233C15.8628 15.611 15.7882 15.5111 15.696 15.4301V15.4308ZM6.66638 1.78501C7.64119 1.78488 8.59414 2.08138 9.40468 2.63699C10.2152 3.19261 10.8469 3.98237 11.2199 4.90639C11.5929 5.83042 11.6904 6.84717 11.5001 7.82805C11.3098 8.80893 10.8401 9.70986 10.1507 10.4169C9.46119 11.1239 8.58283 11.6052 7.62668 11.8C6.67053 11.9947 5.67956 11.8942 4.77912 11.511C3.87868 11.1279 3.10923 10.4794 2.5681 9.64748C2.02697 8.8156 1.73847 7.83775 1.7391 6.83762C1.73995 5.49751 2.25933 4.21257 3.18313 3.26515C4.10692 2.31773 5.35955 1.78536 6.66574 1.78501H6.66638Z" fill="#ABABAB"/>
</svg>
