<svg width="24" height="24" viewBox="0 0 24 24" fill="none" xmlns="http://www.w3.org/2000/svg">
<path d="M6.25 8.9995H12V5.7495C12 5.0895 12.795 4.7505 13.27 5.2085L19.77 11.4585C19.917 11.6005 20 11.7955 20 11.9995C20 12.2035 19.917 12.3985 19.77 12.5405L13.27 18.7905C12.796 19.2465 12 18.9135 12 18.2495V14.9995H6.25C5.561 14.9995 5 14.4385 5 13.7495V10.2495C5 9.5605 5.561 8.9995 6.25 8.9995Z" fill="#828282"/>
<path d="M12 24C18.617 24 24 18.617 24 12C24 5.383 18.617 0 12 0C5.383 0 0 5.383 0 12C0 18.617 5.383 24 12 24ZM12 2C17.514 2 22 6.486 22 12C22 17.514 17.514 22 12 22C6.486 22 2 17.514 2 12C2 6.486 6.486 2 12 2Z" fill="#828282"/>
</svg>
