<svg xmlns="http://www.w3.org/2000/svg" width="30.775" height="30.741" viewBox="0 0 30.775 30.741">
  <g id="XMLID_944_" transform="translate(0 -0.284)">
    <path id="XMLID_965_" d="M30.31,466.923H.465a.465.465,0,0,0-.465.465v1.762a.465.465,0,0,0,.465.465H30.31a.465.465,0,0,0,.465-.465v-1.762A.465.465,0,0,0,30.31,466.923Z" transform="translate(0 -438.591)" fill="#fff"/>
    <path id="XMLID_964_" d="M28.691,408.018v.807a.468.468,0,0,0,.468.468h26.39a.468.468,0,0,0,.468-.468v-.807a.468.468,0,0,0-.468-.468H29.159a.468.468,0,0,0-.468.468Z" transform="translate(-26.966 -382.787)" fill="#fff"/>
    <path id="XMLID_963_" d="M8.609,135.211h29a.4.4,0,0,0,.4-.4V133.61a.4.4,0,0,0-.4-.4h-29a.4.4,0,0,0-.4.4v1.205a.4.4,0,0,0,.4.4Z" transform="translate(-7.72 -124.941)" fill="#fff"/>
    <path id="XMLID_949_" d="M60.687,6.448H83.765a.213.213,0,0,0,.095-.4L72.321.306a.213.213,0,0,0-.19,0L60.592,6.044A.213.213,0,0,0,60.687,6.448Z" transform="translate(-56.838 0)" fill="#fff"/>
    <path id="XMLID_947_" d="M47.187,206.112a.3.3,0,0,0-.3.3v.915a.3.3,0,0,0,.3.3h5.056a.3.3,0,0,0,.3-.3v-.915a.3.3,0,0,0-.3-.3H51.222V198.43h1.021a.3.3,0,0,0,.3-.3v-1.041a.3.3,0,0,0-.3-.3H47.187a.3.3,0,0,0-.3.3v1.041a.3.3,0,0,0,.3.3h1.021v7.682Z" transform="translate(-44.068 -184.691)" fill="#fff"/>
    <path id="XMLID_946_" d="M209.234,206.112a.3.3,0,0,0-.3.3v.915a.3.3,0,0,0,.3.3h5.056a.3.3,0,0,0,.3-.3v-.915a.3.3,0,0,0-.3-.3h-1.021V198.43h1.021a.3.3,0,0,0,.3-.3v-1.041a.3.3,0,0,0-.3-.3h-5.056a.3.3,0,0,0-.3.3v1.041a.3.3,0,0,0,.3.3h1.021v7.682Z" transform="translate(-196.374 -184.691)" fill="#fff"/>
    <path id="XMLID_945_" d="M371.28,206.112a.3.3,0,0,0-.3.3v.915a.3.3,0,0,0,.3.3h5.357v-1.216a.3.3,0,0,0-.3-.3h-1.021V198.43h1.021a.3.3,0,0,0,.3-.3v-1.041a.3.3,0,0,0-.3-.3H371.28a.3.3,0,0,0-.3.3v1.041a.3.3,0,0,0,.3.3H372.3v7.682Z" transform="translate(-348.68 -184.691)" fill="#fff"/>
  </g>
</svg>
