<svg width="25" height="30" viewBox="0 0 25 30" fill="none" xmlns="http://www.w3.org/2000/svg">
<path d="M21.5625 0H3.4375C1.54125 0 0 1.54125 0 3.4375V26.5625C0 28.4587 1.54125 30 3.4375 30H21.5625C23.4588 30 25 28.4587 25 26.5625V3.4375C25 1.54125 23.4588 0 21.5625 0ZM9.725 23.4C10.0913 23.7662 10.0913 24.36 9.725 24.7262C9.5425 24.9088 9.3025 25 9.0625 25C8.8225 25 8.5825 24.9088 8.4 24.725L7.5 23.8263L6.6 24.7262C6.4175 24.9088 6.1775 25 5.9375 25C5.6975 25 5.4575 24.9088 5.275 24.725C4.90875 24.3588 4.90875 23.765 5.275 23.3988L6.17375 22.5L5.27375 21.6C4.9075 21.2338 4.9075 20.64 5.27375 20.2738C5.64 19.9075 6.23375 19.9075 6.6 20.2738L7.5 21.1737L8.4 20.2738C8.76625 19.9075 9.36 19.9075 9.72625 20.2738C10.0925 20.64 10.0925 21.2338 9.72625 21.6L8.82625 22.5L9.725 23.4ZM9.0625 15.9375H8.4375V16.5625C8.4375 17.08 8.0175 17.5 7.5 17.5C6.9825 17.5 6.5625 17.08 6.5625 16.5625V15.9375H5.9375C5.42 15.9375 5 15.5175 5 15C5 14.4825 5.42 14.0625 5.9375 14.0625H6.5625V13.4375C6.5625 12.92 6.9825 12.5 7.5 12.5C8.0175 12.5 8.4375 12.92 8.4375 13.4375V14.0625H9.0625C9.58 14.0625 10 14.4825 10 15C10 15.5175 9.58 15.9375 9.0625 15.9375ZM19.0625 25H15.9375C15.42 25 15 24.58 15 24.0625C15 23.545 15.42 23.125 15.9375 23.125H19.0625C19.58 23.125 20 23.545 20 24.0625C20 24.58 19.58 25 19.0625 25ZM19.0625 21.875H15.9375C15.42 21.875 15 21.455 15 20.9375C15 20.42 15.42 20 15.9375 20H19.0625C19.58 20 20 20.42 20 20.9375C20 21.455 19.58 21.875 19.0625 21.875ZM19.0625 16.25H15.9375C15.42 16.25 15 15.83 15 15.3125C15 14.795 15.42 14.375 15.9375 14.375H19.0625C19.58 14.375 20 14.795 20 15.3125C20 15.83 19.58 16.25 19.0625 16.25ZM21.25 7.8125C21.25 9.01875 20.2688 10 19.0625 10H5.9375C4.73125 10 3.75 9.01875 3.75 7.8125V5.9375C3.75 4.73125 4.73125 3.75 5.9375 3.75H19.0625C20.2688 3.75 21.25 4.73125 21.25 5.9375V7.8125Z" fill="white"/>
</svg>
