<svg xmlns="http://www.w3.org/2000/svg" width="21.363" height="21.847" viewBox="0 0 21.363 21.847">
  <g id="calendar" transform="translate(-5.411)">
    <g id="Group_437" data-name="Group 437" transform="translate(5.411)">
      <path id="Path_372" data-name="Path 372" d="M119.757,258.737a.5.5,0,0,0-.5-.5h-1.73a.5.5,0,0,0-.5.5v1.73a.5.5,0,0,0,.5.5h1.73a.5.5,0,0,0,.5-.5v-1.73Z" transform="translate(-112.039 -246.685)" fill="#a8a8a8"/>
      <path id="Path_373" data-name="Path 373" d="M216.392,258.737a.5.5,0,0,0-.5-.5h-1.731a.5.5,0,0,0-.5.5v1.73a.5.5,0,0,0,.5.5H215.9a.5.5,0,0,0,.5-.5Z" transform="translate(-204.349 -246.685)" fill="#a8a8a8"/>
      <path id="Path_374" data-name="Path 374" d="M313.02,258.737a.5.5,0,0,0-.5-.5h-1.73a.5.5,0,0,0-.5.5v1.73a.5.5,0,0,0,.5.5h1.73a.5.5,0,0,0,.5-.5Z" transform="translate(-296.653 -246.685)" fill="#a8a8a8"/>
      <path id="Path_375" data-name="Path 375" d="M119.757,355.371a.5.5,0,0,0-.5-.5h-1.73a.5.5,0,0,0-.5.5v1.73a.5.5,0,0,0,.5.5h1.73a.5.5,0,0,0,.5-.5v-1.73Z" transform="translate(-112.039 -338.993)" fill="#a8a8a8"/>
      <path id="Path_376" data-name="Path 376" d="M216.392,355.371a.5.5,0,0,0-.5-.5h-1.731a.5.5,0,0,0-.5.5v1.73a.5.5,0,0,0,.5.5H215.9a.5.5,0,0,0,.5-.5Z" transform="translate(-204.349 -338.993)" fill="#a8a8a8"/>
      <path id="Path_377" data-name="Path 377" d="M313.02,355.371a.5.5,0,0,0-.5-.5h-1.731a.5.5,0,0,0-.5.5v1.73a.5.5,0,0,0,.5.5h1.731a.5.5,0,0,0,.5-.5v-1.73Z" transform="translate(-296.653 -338.993)" fill="#a8a8a8"/>
      <path id="Path_378" data-name="Path 378" d="M24.872,54.151v2.643a2.158,2.158,0,0,1-2.163,2.157H21.344a2.17,2.17,0,0,1-2.176-2.157V54.142H13.017v2.652a2.169,2.169,0,0,1-2.176,2.157H9.476a2.158,2.158,0,0,1-2.163-2.157V54.151a1.967,1.967,0,0,0-1.9,1.957V71.6a1.968,1.968,0,0,0,1.958,1.97H24.815a1.97,1.97,0,0,0,1.958-1.97V56.108A1.967,1.967,0,0,0,24.872,54.151Zm-.634,16.48a.847.847,0,0,1-.847.847H8.756a.847.847,0,0,1-.847-.847v-8a.847.847,0,0,1,.847-.847H23.392a.847.847,0,0,1,.847.847v8Z" transform="translate(-5.411 -51.719)" fill="#a8a8a8"/>
      <path id="Path_379" data-name="Path 379" d="M80.292,5.816h1.35a.742.742,0,0,0,.742-.741V.742A.742.742,0,0,0,81.642,0h-1.35a.742.742,0,0,0-.742.742V5.074A.742.742,0,0,0,80.292,5.816Z" transform="translate(-76.232)" fill="#a8a8a8"/>
      <path id="Path_380" data-name="Path 380" d="M345.2,5.816h1.35a.742.742,0,0,0,.742-.741V.742A.742.742,0,0,0,346.55,0H345.2a.742.742,0,0,0-.742.742V5.074A.742.742,0,0,0,345.2,5.816Z" transform="translate(-329.284)" fill="#a8a8a8"/>
    </g>
  </g>
</svg>
