<svg xmlns="http://www.w3.org/2000/svg" width="12.595" height="12.581" viewBox="0 0 12.595 12.581">
  <g id="Group_196" data-name="Group 196" transform="translate(0 0)">
    <path id="Path_188" data-name="Path 188" d="M571.573,55.434a6.31,6.31,0,0,0-1.85,11.673,6.425,6.425,0,0,0,5.12.476,6.306,6.306,0,0,0-.446-12.073A7.144,7.144,0,0,0,571.573,55.434Zm2.134.9a5.389,5.389,0,0,1,4.4,4.361,6.494,6.494,0,0,1,.041,1.16,4.592,4.592,0,0,1-.528,2.134,5.357,5.357,0,0,1-9.962-.928,7.516,7.516,0,0,1-.116-2.366A5.37,5.37,0,0,1,573.708,56.333Z" transform="translate(-566.523 -55.327)" fill="#fff"/>
    <path id="Path_189" data-name="Path 189" d="M668.257,152.988l-.151.151v2.615h-1.212c-1.247,0-1.525.041-1.629.232a.573.573,0,0,0,.052.586c.11.139.122.139,1.45.156l1.34.017v2.61l.145.139a.423.423,0,0,0,.638,0l.145-.139v-2.61l1.34-.017c1.328-.017,1.34-.017,1.45-.156a.573.573,0,0,0,.052-.586c-.1-.191-.383-.232-1.629-.232h-1.212v-1.3c0-1.461-.012-1.513-.418-1.577A.325.325,0,0,0,668.257,152.988Z" transform="translate(-662.273 -149.965)" fill="#fff"/>
  </g>
</svg>
