<svg width="30" height="30" viewBox="0 0 30 30" fill="none" xmlns="http://www.w3.org/2000/svg">
<g clip-path="url(#clip0)">
<path fill-rule="evenodd" clip-rule="evenodd" d="M5.47613 6.17773L9.97952 6.83486L11.4772 12.1125L6.16613 11.9852L4.39003 7.61293L3.26222 6.79625C2.82687 7.02945 2.31212 7.12004 1.79187 7.01779C0.593742 6.78225 -0.193933 5.61248 0.0416722 4.41395C0.277219 3.21582 1.44704 2.42809 2.64552 2.66375C3.84364 2.89936 4.63138 4.06912 4.39566 5.2676C4.38839 5.30469 4.38019 5.34131 4.37111 5.37758L5.47613 6.17773ZM22.9168 24.1207C24.0614 24.1207 24.9892 25.0486 24.9892 26.1931C24.9892 27.3376 24.0614 28.2654 22.9168 28.2654C21.7723 28.2654 20.8445 27.3376 20.8445 26.1931C20.8445 25.0486 21.7723 24.1207 22.9168 24.1207ZM12.2281 24.1207C13.3726 24.1207 14.3005 25.0486 14.3005 26.1931C14.3005 27.3376 13.3726 28.2654 12.2281 28.2654C11.0836 28.2654 10.1558 27.3376 10.1558 26.1931C10.1558 25.0486 11.0836 24.1207 12.2281 24.1207ZM23.6514 14.4282C20.146 14.4282 17.304 11.5862 17.304 8.0808C17.304 4.57543 20.146 1.7334 23.6514 1.7334C25.3931 1.7334 27.0062 2.44654 28.1411 3.59416L23.4404 8.29484L22.2755 7.12988C21.9236 6.77803 21.3532 6.77803 21.0014 7.12988C20.6495 7.48174 20.6495 8.05215 21.0014 8.404L22.8034 10.206C23.1552 10.5579 23.7256 10.5579 24.0775 10.206L29.231 5.05244C30.5773 7.52744 30.1201 10.5886 28.1396 12.5691C26.9909 13.7177 25.4041 14.4282 23.6514 14.4282ZM10.7668 20.025L13.617 19.6521L11.9905 13.9208L6.90288 13.7988L9.04003 19.0598C8.88464 19.2376 8.75234 19.4399 8.64634 19.6643C7.83915 21.373 9.10536 23.3115 10.9839 23.3115H25.1033C25.6009 23.3115 26.0043 22.9081 26.0043 22.4105C26.0043 21.9129 25.6009 21.5096 25.1033 21.5096H10.9838C10.6958 21.5096 10.4651 21.3864 10.3136 21.1449C10.0317 20.6957 10.2947 20.1354 10.7668 20.025ZM11.9297 7.11945L15.5139 7.64246C15.4256 9.26908 15.833 10.8614 16.6453 12.2363L13.3595 12.1575L11.9297 7.11945ZM25.2986 16.0604C24.2511 17.3118 22.8083 18.2326 21.129 18.6281L20.6373 15.6478C22.1132 16.2376 23.727 16.3879 25.2986 16.0604ZM19.3526 18.9016L18.6255 14.494C18.4518 14.3584 18.2842 14.2162 18.1231 14.0677L13.8727 13.9658L15.4195 19.4162L19.3526 18.9016Z" fill="white"/>
</g>
<defs>
<clipPath id="clip0">
<rect width="30" height="30" fill="white"/>
</clipPath>
</defs>
</svg>
