<svg width="26" height="26" viewBox="0 0 26 26" fill="none" xmlns="http://www.w3.org/2000/svg">
<g clip-path="url(#clip0)">
<path d="M25.9917 11.5417V11.5415C25.9492 11.1364 25.7394 10.7631 25.416 10.5157L23.9362 9.36364L24.4924 7.52836C24.6111 7.13679 24.5619 6.70892 24.3574 6.35424C24.1526 5.99976 23.8067 5.74327 23.4082 5.65004L21.5465 5.21542L21.3089 3.31866C21.2579 2.9124 21.0389 2.54146 20.708 2.30144C20.3768 2.06043 19.956 1.9666 19.5544 2.04396L17.6768 2.40399L16.688 0.76768C16.2944 0.116447 15.468 -0.129526 14.7662 0.195C14.7168 0.217812 14.6692 0.245186 14.6278 0.274544L12.9982 1.40959L11.4293 0.316796C11.0935 0.0831218 10.6716 -0.00197686 10.2713 0.0829234C9.87099 0.167824 9.51988 0.417764 9.30823 0.768077L8.31978 2.40419L6.44206 2.04396C6.03997 1.967 5.61964 2.06082 5.28896 2.30124C4.9577 2.54186 4.7387 2.9128 4.68792 3.31866L4.45028 5.21562L2.48131 5.67523L2.38887 5.70539L2.35476 5.72026C1.63945 6.03309 1.2816 6.79362 1.50417 7.52836L2.06018 9.36364L0.516907 10.5641L0.427444 10.6419L0.402252 10.6695C-0.115678 11.2352 -0.135911 12.091 0.354049 12.663L1.56229 14.1079L0.582962 15.8851L0.543884 15.974L0.532577 16.0071C0.28839 16.7369 0.621048 17.5299 1.3062 17.8515L3.03673 18.6636L2.87467 20.5683C2.83996 20.9763 2.97722 21.3848 3.25097 21.6887C3.52471 21.9928 3.91648 22.1719 4.3259 22.1802L6.23715 22.2183L6.86398 24.024C6.99807 24.4108 7.28947 24.7282 7.66319 24.8944C8.03691 25.0609 8.46756 25.0652 8.84525 24.9063L10.6069 24.1639L11.9897 25.6395L12.0621 25.704L12.0901 25.7248C12.3632 25.9265 12.6824 26.0253 12.9986 26.0253C13.3987 26.0253 13.7938 25.867 14.0829 25.5586L15.3901 24.1639L17.152 24.9065C17.5289 25.0652 17.9593 25.0609 18.333 24.8946C18.7071 24.7282 18.9985 24.4108 19.1326 24.0242L19.7597 22.2183L21.7814 22.178L21.8774 22.1675L21.9119 22.1606C22.6657 22.0068 23.186 21.3223 23.1219 20.5685L22.9601 18.6636L24.6908 17.8515C25.0612 17.6777 25.3462 17.3548 25.4728 16.9654C25.5991 16.5762 25.5585 16.1473 25.3609 15.7889L24.4345 14.1079L25.643 12.663C25.907 12.3546 26.0341 11.9464 25.9917 11.5417ZM13.0791 19.514C9.50917 19.514 6.60472 16.6095 6.60472 13.0395C6.60472 9.46937 9.50917 6.5651 13.0791 6.5651C16.6493 6.5651 19.5538 9.46937 19.5538 13.0395C19.5538 16.6095 16.6491 19.514 13.0791 19.514Z" fill="white"/>
<path d="M13.0787 8.08984C10.3494 8.08984 8.12866 10.3103 8.12866 13.0398C8.12866 15.7691 10.3494 17.9896 13.0787 17.9896C15.8082 17.9896 18.0287 15.7691 18.0287 13.0398C18.0287 10.3103 15.8082 8.08984 13.0787 8.08984ZM16.0177 12.1075L12.4713 15.6537C12.3225 15.8027 12.1275 15.877 11.9323 15.877C11.7373 15.877 11.5421 15.8027 11.3934 15.6537L10.0383 14.2987C9.74058 14.0009 9.74058 13.5183 10.0383 13.2205C10.3359 12.923 10.8185 12.923 11.1162 13.2205L11.9325 14.0368L14.9397 11.0296C15.2373 10.7319 15.7201 10.7319 16.0177 11.0296C16.3154 11.3272 16.3154 11.8098 16.0177 12.1075Z" fill="white"/>
</g>
<defs>
<clipPath id="clip0">
<rect width="26" height="26" fill="white"/>
</clipPath>
</defs>
</svg>
