<svg xmlns="http://www.w3.org/2000/svg" width="23.746" height="26.496" viewBox="0 0 23.746 26.496">
  <g id="icon-notes" transform="translate(-26.57)">
    <g id="Group_365" data-name="Group 365" transform="translate(26.57)">
      <g id="Group_364" data-name="Group 364">
        <path id="Path_359" data-name="Path 359" d="M119.19,201.035A1.035,1.035,0,0,0,118.155,200H107.494a1.035,1.035,0,0,0,0,2.07h10.661A1.035,1.035,0,0,0,119.19,201.035Z" transform="translate(-102.325 -189.65)" fill="#9f9f9f"/>
        <path id="Path_360" data-name="Path 360" d="M107.494,280a1.035,1.035,0,0,0,0,2.07h6.475a1.035,1.035,0,1,0,0-2.07Z" transform="translate(-102.325 -265.51)" fill="#9f9f9f"/>
        <path id="Path_361" data-name="Path 361" d="M34.172,24.426H30.71a2.072,2.072,0,0,1-2.07-2.07V4.14a2.072,2.072,0,0,1,2.07-2.07H43.435a2.072,2.072,0,0,1,2.07,2.07v6.365a1.035,1.035,0,0,0,2.07,0V4.14A4.145,4.145,0,0,0,43.435,0H30.71a4.145,4.145,0,0,0-4.14,4.14V22.356a4.145,4.145,0,0,0,4.14,4.14h3.462a1.035,1.035,0,0,0,0-2.07Z" transform="translate(-26.57)" fill="#9f9f9f"/>
        <path id="Path_362" data-name="Path 362" d="M255.071,272.932a3.108,3.108,0,0,0-4.39,0L245,278.6a1.035,1.035,0,0,0-.259.432l-1.238,4.074a1.035,1.035,0,0,0,1.267,1.3l4.178-1.157a1.035,1.035,0,0,0,.455-.265l5.67-5.66A3.109,3.109,0,0,0,255.071,272.932Zm-6.94,8.394-2.1.582.615-2.025,3.834-3.826,1.464,1.464Zm5.477-5.467-.2.2-1.464-1.464.2-.2a1.035,1.035,0,0,1,1.464,1.463Z" transform="translate(-232.233 -257.947)" fill="#9f9f9f"/>
        <path id="Path_363" data-name="Path 363" d="M118.155,120H107.494a1.035,1.035,0,1,0,0,2.07h10.661a1.035,1.035,0,1,0,0-2.07Z" transform="translate(-102.325 -113.79)" fill="#9f9f9f"/>
      </g>
    </g>
  </g>
</svg>
