<svg width="30" height="30" viewBox="0 0 30 30" fill="none" xmlns="http://www.w3.org/2000/svg">
<g clip-path="url(#clip0)">
<path d="M15.0001 10.9092C12.7432 10.9092 10.9092 12.7432 10.9092 15.0001C10.9092 17.2569 12.7432 19.091 15.0001 19.091C17.2569 19.091 19.091 17.2569 19.091 15.0001C19.091 12.7432 17.2569 10.9092 15.0001 10.9092Z" fill="white"/>
<path d="M15 4.77246C8.18182 4.77246 2.35911 9.01333 0 14.9997C2.35911 20.9861 8.18182 25.227 15 25.227C21.825 25.227 27.6409 20.9861 30.0001 14.9997C27.6409 9.01333 21.825 4.77246 15 4.77246ZM15 21.8179C11.2364 21.8179 8.18182 18.7633 8.18182 14.9997C8.18182 11.236 11.2364 8.18153 15 8.18153C18.7637 8.18153 21.8182 11.2361 21.8182 14.9997C21.8182 18.7634 18.7637 21.8179 15 21.8179Z" fill="white"/>
</g>
<defs>
<clipPath id="clip0">
<rect width="30" height="30" fill="white"/>
</clipPath>
</defs>
</svg>
