<svg xmlns="http://www.w3.org/2000/svg" width="25" height="16.774" viewBox="0 0 25 16.774">
  <path id="box" d="M64.912,208.4l-2.374,5.074a.352.352,0,0,0,.354.5l8.92-.9a.347.347,0,0,0,.286-.209l2.871-6.466-9.8,1.8A.354.354,0,0,0,64.912,208.4Zm9.4,1.717-1.48,3.594a.351.351,0,0,1-.294.217l-7.569.666a.356.356,0,0,0-.323.36l.154,5.94a.353.353,0,0,0,.28.337l8.911,1.874a3.216,3.216,0,0,0,.66.069V210.186C74.652,209.694,74.5,209.666,74.312,210.117Zm13.157,3.357L85.095,208.4a.351.351,0,0,0-.257-.2l-9.8-1.8,2.871,6.466a.353.353,0,0,0,.286.209l8.92.9A.352.352,0,0,0,87.469,213.474Zm-2.429,1.12-7.569-.666a.347.347,0,0,1-.294-.217l-1.48-3.594c-.186-.454-.34-.423-.34.066v12.989a3.215,3.215,0,0,0,.66-.069l8.911-1.874a.351.351,0,0,0,.28-.337l.154-5.94A.355.355,0,0,0,85.04,214.594Z" transform="translate(-62.503 -206.4)" fill="#fff"/>
</svg>
