<?xml version="1.0" encoding="UTF-8"?>
<svg xmlns="http://www.w3.org/2000/svg" xmlns:xlink="http://www.w3.org/1999/xlink" width="16pt" height="16pt" viewBox="0 0 16 16" version="1.1">
<g id="surface1">
<path  d="M 14.222656 14.222656 L 1.777344 14.222656 L 1.777344 1.777344 L 8 1.777344 L 8 0 L 1.777344 0 C 1.304688 0 0.855469 0.1875 0.519531 0.519531 C 0.1875 0.855469 0 1.304688 0 1.777344 L 0 14.222656 C 0 14.695312 0.1875 15.144531 0.519531 15.480469 C 0.855469 15.8125 1.304688 16 1.777344 16 L 14.222656 16 C 15.203125 15.996094 15.996094 15.203125 16 14.222656 L 16 8 L 14.222656 8 Z M 9.777344 0 L 9.777344 1.777344 L 12.96875 1.777344 L 4.230469 10.515625 L 5.484375 11.769531 L 14.222656 3.03125 L 14.222656 6.222656 L 16 6.222656 L 16 0 Z M 9.777344 0 "/>
</g>
</svg>
