<svg id="briefcase-24" xmlns="http://www.w3.org/2000/svg" width="19.872" height="19.872" viewBox="0 0 19.872 19.872">
  <g id="Group_42" data-name="Group 42">
    <path id="Path_32" data-name="Path 32" d="M12.592,18v1.656H7.624V18H1v4.14a.828.828,0,0,0,.828.828h16.56a.828.828,0,0,0,.828-.828V18Z" transform="translate(-0.172 -3.096)" fill="#263238"/>
    <path id="Path_33" data-name="Path 33" d="M19.044,3.312H14.076V.828A.828.828,0,0,0,13.248,0H6.624A.828.828,0,0,0,5.8.828V3.312H.828A.828.828,0,0,0,0,4.14v8.28a.828.828,0,0,0,.828.828H7.452V10.764H12.42v2.484h6.624a.828.828,0,0,0,.828-.828V4.14A.828.828,0,0,0,19.044,3.312Zm-6.624,0H7.452V1.656H12.42Z" fill="#263238"/>
  </g>
</svg>
