<svg xmlns="http://www.w3.org/2000/svg" width="23" height="23.002" viewBox="0 0 23 23.002">
  <path id="repair" d="M74.011,75.712l1.257,1.165c.471-.434.949-.865,1.414-1.309a.454.454,0,0,0,.074-.242,6.853,6.853,0,0,1,.158-.989A2.372,2.372,0,0,1,79.3,72.725a.354.354,0,0,0,.239-.113q2.5-2.567,4.985-5.14c.394-.408.786-.818,1.178-1.225-.021-.032-.029-.053-.042-.068-.831-.86-1.667-1.719-2.5-2.582-.313-.326-.615-.663-.923-1h-.089c-.018.024-.034.047-.055.071q-3.033,3.123-6.058,6.257a.5.5,0,0,0-.134.323,2.409,2.409,0,0,1-2.143,2.55,1.261,1.261,0,0,0-1.02.523,1.811,1.811,0,0,1-.158.16l-.8.831c.426.444.839.873,1.262,1.312q-3.1,3.2-6.184,6.386l-.234-.205a5.882,5.882,0,0,0-1.754,1.864c-.439.823-.965,1.6-1.449,2.385.181.187.35.363.526.544.034-.018.068-.034.1-.055.807-.528,1.617-1.054,2.421-1.583a3.4,3.4,0,0,0,.66-.46c.342-.376.636-.791.952-1.194l-.216-.255C69.93,79.921,71.989,77.8,74.011,75.712Zm-5.022-2.6a.294.294,0,0,1,.242.068c.273.266.526.555.8.818.492.468,1,.923,1.457,1.346.221-.192.513-.447.881-.77-.479-.423-.925-.82-1.37-1.215.063-.074.079-.1.1-.124.615-.634,1.228-1.27,1.846-1.9a.384.384,0,0,1,.234-.076c.237-.011.476,0,.712,0-.476-.568-.96-1.065-1.436-1.57a.326.326,0,0,1-.074-.247,5.035,5.035,0,0,0-.713-4.054,4.749,4.749,0,0,0-4.722-2.19c-.208.021-.41.082-.655.131.376.389.715.739,1.052,1.088.544.565,1.094,1.128,1.633,1.7a.32.32,0,0,1,.063.247q-.308,1.25-.642,2.492a.335.335,0,0,1-.195.2c-.8.229-1.6.439-2.393.665a.231.231,0,0,1-.271-.074c-.715-.744-1.436-1.485-2.153-2.227-.166-.171-.337-.339-.526-.528l-.16.744v1.212a.539.539,0,0,1,.042.1A4.919,4.919,0,0,0,68.989,73.109ZM80.875,78.4c-.852-.883-1.7-1.769-2.561-2.645-.318-.323-.66-.623-1-.939A.554.554,0,0,0,77.3,75a1.242,1.242,0,0,1-.542,1.265c-.518.452-1.012.931-1.488,1.37-.371-.344-.81-.749-1.2-1.115l-.849.765c.6.626,1.173,1.22,1.746,1.812q2.3,2.378,4.609,4.756a16.216,16.216,0,0,0,1.22,1.223,2.249,2.249,0,0,0,3.087-.213,2.436,2.436,0,0,0,.068-3.271C82.934,80.5,81.9,79.456,80.875,78.4ZM83,84.017c-.011.039-.084.076-.134.092-.294.084-.586.168-.886.237a.287.287,0,0,1-.226-.055c-.258-.247-.51-.5-.752-.77a.3.3,0,0,1-.06-.234c.066-.3.145-.61.237-.907a.288.288,0,0,1,.163-.174c.3-.095.6-.176.9-.245a.268.268,0,0,1,.205.06c.258.25.5.507.755.768a.7.7,0,0,1,.084.139C83.189,83.31,83.1,83.665,83,84.017Z" transform="translate(-62.7 -62.6)" fill="#fff"/>
</svg>
