<svg xmlns="http://www.w3.org/2000/svg" width="37.221" height="46.064" viewBox="0 0 37.221 46.064">
  <g id="Group_173" data-name="Group 173" transform="translate(-329 -662)">
    <g id="notes" transform="translate(325 661)">
      <g id="Group_172" data-name="Group 172" transform="translate(4 1)">
        <path id="Path_76" data-name="Path 76" d="M31.68,28.861H14.931a.931.931,0,1,1,0-1.861H31.68a.931.931,0,0,1,0,1.861Z" transform="translate(-4.695 3.12)" fill="#455a64"/>
        <path id="Path_77" data-name="Path 77" d="M21.444,35.861H14.931a.931.931,0,1,1,0-1.861h6.514a.931.931,0,1,1,0,1.861Z" transform="translate(-4.695 2.152)" fill="#455a64"/>
        <path id="Path_78" data-name="Path 78" d="M39.36,6H33.777v4.04h2.792a.973.973,0,0,1,.931,1.01V42.361a.973.973,0,0,1-.931,1.01H8.653a.973.973,0,0,1-.931-1.01V11.05a.973.973,0,0,1,.931-1.01h2.792V6H5.861A1.945,1.945,0,0,0,4,8.02V45.391a1.945,1.945,0,0,0,1.861,2.02h33.5a1.945,1.945,0,0,0,1.861-2.02V8.02A1.945,1.945,0,0,0,39.36,6Z" transform="translate(-4 -1.347)" fill="#455a64"/>
        <path id="Path_79" data-name="Path 79" d="M31.68,5.653H27.958a4.653,4.653,0,1,0-9.305,0H14.931A.931.931,0,0,0,14,6.583v4.653a.931.931,0,0,0,.931.931H31.68a.931.931,0,0,0,.931-.931V6.583A.931.931,0,0,0,31.68,5.653ZM23.305,7.514a1.861,1.861,0,1,1,1.861-1.861A1.861,1.861,0,0,1,23.305,7.514Z" transform="translate(-4.695 -1)" fill="#455a64"/>
      </g>
    </g>
    <path id="Path_80" data-name="Path 80" d="M470.019,390.065c-1.253-.472-1.769-.782-1.769-1.268,0-.413.31-.826,1.268-.826a4.875,4.875,0,0,1,2.124.5l.427-1.667a5.319,5.319,0,0,0-2.138-.487v-1.3h-1.445v1.4a2.725,2.725,0,0,0-2.492,2.625c0,1.43,1.077,2.168,2.655,2.7,1.092.369,1.564.722,1.564,1.284,0,.589-.575.912-1.417.912a5.227,5.227,0,0,1-2.448-.648l-.442,1.726a5.948,5.948,0,0,0,2.507.634v1.4h1.445v-1.5a2.825,2.825,0,0,0,2.624-2.728C472.483,391.5,471.775,390.685,470.019,390.065Z" transform="translate(-120.721 291.647)" fill="#455a64"/>
  </g>
</svg>
