<svg xmlns="http://www.w3.org/2000/svg" width="25" height="24.997" viewBox="0 0 25 24.997">
  <path id="chart-growth" d="M87.5,86.4v.64a.462.462,0,0,1-.46.46H62.96a.459.459,0,0,1-.46-.457V62.96a.463.463,0,0,1,.46-.46h.64a.462.462,0,0,1,.46.46V85.474a.462.462,0,0,0,.46.46H87.034A.467.467,0,0,1,87.5,86.4ZM74.126,71.289l5.489,1.369a.663.663,0,0,0,.686-.283l1.734-2.889a.46.46,0,0,1,.631-.157l1.211.729c.217.131.4.031.4-.223l.089-5.309c.006-.254-.171-.36-.394-.237l-4.643,2.574a.243.243,0,0,0-.009.46l1.211.729a.46.46,0,0,1,.157.631l-1.14,1.9a.659.659,0,0,1-.686.283l-5.223-1.309a.894.894,0,0,0-.771.214L66.96,75.686a.46.46,0,0,0,0,.651l.451.451a.46.46,0,0,0,.651,0L73.349,71.5a.925.925,0,0,1,.777-.211ZM72.334,84.374h2.2a.462.462,0,0,0,.46-.46V73.58a.6.6,0,0,0-.423-.566.884.884,0,0,0-.749.22L72.2,74.863a1.276,1.276,0,0,0-.326.789v8.263a.466.466,0,0,0,.463.46Zm-5.146-5.143v4.68a.462.462,0,0,0,.46.46h2.2a.462.462,0,0,0,.46-.46v-6.7c0-.254-.146-.314-.326-.134L68.066,79C67.886,79.177,67.189,78.977,67.189,79.231Zm14.063-4.943v9.626a.462.462,0,0,0,.46.46h2.2a.462.462,0,0,0,.46-.46V72.64a.9.9,0,0,0-.394-.7l-.78-.469a.46.46,0,0,0-.631.157l-1.08,1.8A1.929,1.929,0,0,0,81.251,74.289Zm-1.563,9.626V74.751a.62.62,0,0,0-.449-.571l-2.229-.557a.343.343,0,0,0-.449.349v9.946a.462.462,0,0,0,.46.46h2.2a.466.466,0,0,0,.463-.463Z" transform="translate(-62.5 -62.5)" fill="#fff"/>
</svg>
