<svg id="settings-gear-63" xmlns="http://www.w3.org/2000/svg" width="17.623" height="17.623" viewBox="0 0 17.623 17.623">
  <g id="Group_130" data-name="Group 130">
    <path id="Path_55" data-name="Path 55" d="M17.623,10.464v-3.3H15.2a6.543,6.543,0,0,0-.7-1.7L16.21,3.749,13.874,1.413,12.163,3.123a6.562,6.562,0,0,0-1.7-.7V0h-3.3V2.419a6.543,6.543,0,0,0-1.7.7L3.749,1.413,1.413,3.749,3.123,5.46a6.562,6.562,0,0,0-.7,1.7H0v3.3H2.419a6.543,6.543,0,0,0,.7,1.7L1.413,13.874,3.749,16.21,5.46,14.5a6.551,6.551,0,0,0,1.7.7v2.419h3.3V15.2a6.543,6.543,0,0,0,1.7-.7l1.711,1.711,2.337-2.337L14.5,12.163a6.57,6.57,0,0,0,.7-1.7h2.419Zm-8.812,1.1a2.754,2.754,0,1,1,2.754-2.754A2.754,2.754,0,0,1,8.812,11.565Z" fill="#848484"/>
  </g>
</svg>
