<svg xmlns="http://www.w3.org/2000/svg" width="18.83" height="18.83" viewBox="0 0 18.83 18.83">
  <path id="price-ticket" d="M18.81,7.023l-.774-4.871A1.634,1.634,0,0,0,16.678.794L11.807.02a1.635,1.635,0,0,0-1.412.458L.479,10.394a1.635,1.635,0,0,0,0,2.312l5.645,5.645a1.634,1.634,0,0,0,2.312,0l9.915-9.915A1.635,1.635,0,0,0,18.81,7.023ZM8.012,17.086a.639.639,0,0,1-.9,0L1.744,11.722a.639.639,0,0,1,.9-.9l5.364,5.364A.639.639,0,0,1,8.012,17.086ZM15.228,5.343a1.231,1.231,0,1,1,0-1.741A1.231,1.231,0,0,1,15.228,5.343Z" transform="translate(0 0.001)" fill="#6f6f6f"/>
</svg>
