<svg id="auricular-phone-symbol-in-a-circle" xmlns="http://www.w3.org/2000/svg" width="20.334" height="20.334" viewBox="0 0 20.334 20.334">
  <path id="Path_223" data-name="Path 223" d="M10.167,1.271a8.9,8.9,0,1,1-8.9,8.9,8.907,8.907,0,0,1,8.9-8.9m0-1.271A10.167,10.167,0,1,0,20.334,10.167,10.167,10.167,0,0,0,10.167,0Zm5.668,13.566-.057-.174a1.61,1.61,0,0,0-.983-.928l-1.5-.411a1.473,1.473,0,0,0-1.287.338l-.544.544A5.773,5.773,0,0,1,7.4,8.874l.544-.544a1.474,1.474,0,0,0,.336-1.287l-.41-1.5a1.609,1.609,0,0,0-.93-.983L6.771,4.5A1.36,1.36,0,0,0,5.5,4.8l-.814.814a1.515,1.515,0,0,0-.238.559,9.6,9.6,0,0,0,9.689,9.712,1.5,1.5,0,0,0,.585-.236l.814-.814A1.362,1.362,0,0,0,15.835,13.566Z" fill="#6f6f6f"/>
</svg>
