<svg xmlns="http://www.w3.org/2000/svg" width="14.023" height="18.772" viewBox="0 0 14.023 18.772">
  <g id="notebook" transform="translate(-48.173)">
    <g id="Group_176" data-name="Group 176" transform="translate(48.173)">
      <path id="Path_94" data-name="Path 94" d="M61.58,1.521H59.251V.616a.616.616,0,0,0-1.232,0v.905H55.8V.616a.616.616,0,1,0-1.232,0v.905H52.35V.616a.616.616,0,1,0-1.232,0v.905H48.789a.616.616,0,0,0-.616.616V18.156a.616.616,0,0,0,.616.616H61.58a.616.616,0,0,0,.616-.616V2.138A.616.616,0,0,0,61.58,1.521ZM60.964,17.54H49.405V2.754h1.713v.719a.616.616,0,1,0,1.232,0V2.754h2.218v.719a.616.616,0,1,0,1.232,0V2.754h2.218v.719a.616.616,0,0,0,1.232,0V2.754h1.713V17.54Z" transform="translate(-48.173)" fill="#6f6f6f"/>
      <path id="Path_95" data-name="Path 95" d="M111.828,139.758h-7.3a.616.616,0,0,0,0,1.232h7.3a.616.616,0,1,0,0-1.232Z" transform="translate(-101.168 -132.869)" fill="#6f6f6f"/>
      <path id="Path_96" data-name="Path 96" d="M111.828,209.758h-7.3a.616.616,0,1,0,0,1.232h7.3a.616.616,0,1,0,0-1.232Z" transform="translate(-101.168 -199.418)" fill="#6f6f6f"/>
      <path id="Path_97" data-name="Path 97" d="M111.828,279.758h-7.3a.616.616,0,0,0,0,1.232h7.3a.616.616,0,0,0,0-1.232Z" transform="translate(-101.168 -265.968)" fill="#6f6f6f"/>
    </g>
  </g>
</svg>
