<svg width="176" height="176" viewBox="0 0 176 176" fill="none" xmlns="http://www.w3.org/2000/svg">
<path d="M95.856 88.035L153.296 30.5946C155.513 28.4535 155.575 24.9207 153.434 22.7038C151.292 20.4868 147.76 20.4254 145.543 22.5665C145.496 22.6112 145.451 22.657 145.405 22.7038L87.965 80.1442L30.5248 22.7035C28.3078 20.5624 24.7751 20.6238 22.634 22.8408C20.5452 25.0035 20.5452 28.4319 22.634 30.5946L80.0742 88.035L22.634 145.475C20.4553 147.654 20.4553 151.187 22.634 153.366C24.813 155.545 28.3458 155.545 30.5248 153.366L87.965 95.9258L145.405 153.366C147.622 155.507 151.155 155.446 153.296 153.229C155.384 151.066 155.384 147.638 153.296 145.475L95.856 88.035Z" fill="white"/>
</svg>
