<svg width="16" height="16" viewBox="0 0 16 16" fill="none" xmlns="http://www.w3.org/2000/svg">
<g clip-path="url(#clip0)">
<path fill-rule="evenodd" clip-rule="evenodd" d="M8.88202 7.82102L15.423 1.28002C15.716 0.987018 15.716 0.512018 15.423 0.219018C15.13 -0.0739824 14.655 -0.0739824 14.362 0.219018L7.82102 6.76002L1.28002 0.220018C0.987018 -0.0729824 0.512018 -0.0729824 0.219018 0.220018C-0.0739824 0.513018 -0.0739824 0.988018 0.219018 1.28102L6.76002 7.82202L0.220018 14.362C-0.0729824 14.655 -0.0729824 15.13 0.220018 15.423C0.367018 15.569 0.558018 15.643 0.750018 15.643C0.942018 15.643 1.13402 15.57 1.28002 15.423L7.82102 8.88202L14.362 15.423C14.509 15.569 14.7 15.643 14.892 15.643C15.084 15.643 15.276 15.57 15.422 15.423C15.715 15.13 15.715 14.655 15.422 14.362L8.88202 7.82102Z" fill="#878787"/>
</g>
<defs>
<clipPath id="clip0">
<rect width="15.642" height="15.642" fill="white"/>
</clipPath>
</defs>
</svg>
