<?xml version="1.0" encoding="utf-8"?>
<!-- Svg Vector Icons : http://www.onlinewebfonts.com/icon -->
<!DOCTYPE svg PUBLIC "-//W3C//DTD SVG 1.1//EN" "http://www.w3.org/Graphics/SVG/1.1/DTD/svg11.dtd">
<svg version="1.1" xmlns="http://www.w3.org/2000/svg" xmlns:xlink="http://www.w3.org/1999/xlink" x="0px" y="0px" viewBox="0 0 1000 1000" enable-background="new 0 0 1000 1000" xml:space="preserve">
<metadata> Svg Vector Icons : http://www.onlinewebfonts.com/icon </metadata>
<g><g transform="translate(0.000000,511.000000) scale(0.100000,-0.100000)"><path d="M7434.1,4870.5l-136.9-139.5l225.7-228.2l228.2-228.2H4751.5H1754.5v-202.8V3869h2997.1h2999.6l-228.2-228.2l-228.2-228.2l147.1-144.5l144.5-147.1l474.2,476.7l476.7,474.2L8068,4540.9c-258.6,258.6-474.2,469.1-481.8,469.1S7510.2,4946.6,7434.1,4870.5z"/><path d="M4688.1,3044.9C3587.7,2837,2712.9,2023.1,2421.3,935.3c-60.9-225.7-68.5-291.6-68.5-717.6c0-428.5,5.1-489.4,65.9-717.6c164.8-603.5,517.3-1146.1,991.4-1526.4c266.2-213,730.3-446.3,1070-537.5c230.7-60.8,296.7-68.5,722.6-68.5c428.5,0,489.4,5.1,717.6,65.9c497,136.9,950.8,398.1,1310.9,755.6c357.5,360.1,618.7,813.9,755.6,1310.9c60.9,228.2,65.9,289,65.9,717.6c0,426-7.6,491.9-68.5,722.6c-91.3,339.8-324.6,803.8-537.5,1070c-380.3,476.7-930.6,831.7-1526.4,988.9C5606,3080.4,5005.1,3103.2,4688.1,3044.9z M5360.1,2231c7.6-114.1,7.6-116.6,142-159.7c172.4-58.3,301.7-164.8,400.6-327.1c73.5-121.7,175-433.6,149.6-458.9c-15.2-12.7-362.6-76.1-436.1-76.1c-38-2.5-58.3,12.7-58.3,40.6c0,68.5-101.4,261.2-154.7,289.1c-45.7,22.8-48.2,10.1-48.2-426V661.5l185.1-83.7c360.1-162.3,519.8-370.2,580.7-753.1c55.8-367.7-53.3-781-271.3-1021.8c-93.8-104-360.1-258.6-448.8-258.6c-40.6,0-45.6-22.8-45.6-228.2v-228.2h-139.5h-139.5v210.4v210.5l-136.9,43.1c-238.3,76.1-438.7,261.2-547.7,512.2c-45.6,109-134.4,469.1-119.2,484.3c5.1,5.1,119.2,25.4,253.6,43.1l243.4,35.5l17.8-78.6c30.4-142,147.1-342.3,245.9-418.4c40.6-33,43.1-7.6,43.1,459V80.8l-157.2,73.5c-395.5,187.6-613.6,613.6-568,1108c38,418.4,258.6,725.2,593.3,821.5l131.9,38v114.1v111.6H5213h139.5L5360.1,2231z"/><path d="M4962,1503.3c-192.7-192.7-164.8-552.8,58.3-697.3l55.8-35.5v408.2c0,223.1-7.6,408.2-15.2,408.2C5053.2,1587,5007.6,1548.9,4962,1503.3z"/><path d="M5355-479.5c0-243.4,5.1-443.7,12.7-443.7c10.2,0,48.2,17.8,88.8,38c177.5,91.3,261.2,433.6,154.6,639c-50.7,101.4-169.9,210.4-228.2,210.4C5362.6-35.8,5355-175.3,5355-479.5z"/><path d="M1931.9-3370.1l-469.1-469.1l476.7-474.2l474.2-476.7l144.5,147.1l147.1,144.5l-228.2,228.2L2248.9-4042h2999.6h2997.1v202.8v202.9H5248.5H2248.9l228.2,228.2l225.7,228.2l-136.9,139.5c-76.1,76.1-144.5,139.4-152.1,139.4S2190.6-3111.4,1931.9-3370.1z"/></g></g>
</svg>