<svg xmlns="http://www.w3.org/2000/svg" width="310.142" height="100.786" viewBox="0 0 310.142 100.786">
  <g id="Group_134" data-name="Group 134" transform="translate(-222 -455.17)">
    <g id="Group_14" data-name="Group 14" transform="translate(-415 172)">
      <g id="Group_3" data-name="Group 3" transform="translate(687.58 315.984)">
        <g id="Group_2" data-name="Group 2">
          <path id="Path_1" data-name="Path 1" d="M204.189,275.408c.375-1.266.891-2.392,2.392-2.392,1.548,0,2.11,1.172,2.438,2.392l9.05,31.747c.328,1.125-.938,2.345-2.251,2.345a2.8,2.8,0,0,1-2.532-2.345l-1.735-5.627h-9.989l-1.782,5.627a2.8,2.8,0,0,1-2.532,2.345c-1.313,0-2.579-1.22-2.251-2.345Zm2.438,8.722h-.094l-3.658,12.708h7.362Z" transform="translate(-194.944 -273.015)" fill="#fff"/>
          <path id="Path_2" data-name="Path 2" d="M263.092,307.154a2.345,2.345,0,0,1-4.689,0V273.016h15.568a6.9,6.9,0,0,1,5.393,1.923c2.016,1.876,2.2,3.611,2.2,6.143v6.378c0,2.392-.188,4.08-1.923,6-1.829,2.063-3.752,2.251-6.284,2.251H263.092Zm0-16.131H273.5c2.767,0,3.376-.7,3.376-3.376v-6.565c0-2.673-.61-3.376-3.376-3.376h-10.41Z" transform="translate(-224.586 -273.015)" fill="#fff"/>
          <path id="Path_3" data-name="Path 3" d="M342.583,304.809a2.345,2.345,0,0,1,0,4.689H321.762V275.36a2.344,2.344,0,1,1,4.689,0v29.449h16.132Z" transform="translate(-254.182 -273.014)" fill="#fff"/>
          <path id="Path_4" data-name="Path 4" d="M407.066,286.193a10.637,10.637,0,0,1,1.219,5.206,11.464,11.464,0,0,1-1.546,5.58l-4.314,8.628a6.15,6.15,0,0,1-11.442,0l-4.314-8.628a11.458,11.458,0,0,1-1.548-5.58,10.639,10.639,0,0,1,1.219-5.206l4.689-9.331a6.109,6.109,0,0,1,11.348,0Zm-8.769-7.081c-.376-.75-.61-1.407-1.594-1.407s-1.219.657-1.594,1.407l-4.22,8.488a7.277,7.277,0,0,0-1.079,3.8,6.333,6.333,0,0,0,.8,3.095l4.5,8.91c.328.656.656,1.406,1.594,1.406s1.266-.75,1.594-1.406l4.5-8.91a6.328,6.328,0,0,0,.8-3.095,7.272,7.272,0,0,0-1.078-3.8Z" transform="translate(-283.777 -273.015)" fill="#fff"/>
          <path id="Path_5" data-name="Path 5" d="M470,300.307a6.08,6.08,0,0,1,1.641,3.892c0,3.518-2.673,5.3-5.909,5.3H455.418a6.916,6.916,0,0,1-4.736-1.5,5.927,5.927,0,0,1-2.2-4.361,2.529,2.529,0,0,1,2.485-2.813,2.245,2.245,0,0,1,2.2,2.391c0,1.407.75,1.594,2.064,1.594h10.176c.375,0,1.546.141,1.546-.562,0-.376-.655-1.079-.844-1.36l-16.084-20.68a5.633,5.633,0,0,1-1.548-3.845,5.225,5.225,0,0,1,2.485-4.5,6.275,6.275,0,0,1,3.892-.844H464.8a6.64,6.64,0,0,1,4.642,1.548,6.385,6.385,0,0,1,2.2,4.455c0,1.5-.75,2.72-2.439,2.72a2.081,2.081,0,0,1-2.251-2.2c0-1.594-.8-1.829-2.25-1.829h-9.941c-.515,0-1.594-.141-1.594.657,0,.422.516.985.7,1.266Z" transform="translate(-313.372 -273.014)" fill="#fff"/>
          <path id="Path_6" data-name="Path 6" d="M511.838,273.016h13.13c6.893,0,10.035,4.221,10.035,10.832a9.076,9.076,0,0,1-3.1,7.409c2.673,2.532,3.1,5.017,3.1,8.487,0,6.143-4.08,9.755-10.035,9.755h-13.13Zm4.689,15.9h8.441c3.376,0,5.345-1.5,5.345-5.065,0-3.939-1.078-6.143-5.345-6.143h-8.441Zm0,15.9h8.441c3.376,0,5.345-1.5,5.345-5.065,0-3.939-1.078-6.143-5.345-6.143h-8.441Z" transform="translate(-342.968 -273.015)" fill="#fff"/>
          <path id="Path_7" data-name="Path 7" d="M589.124,304.809h6.893a2.345,2.345,0,0,1,0,4.689H577.541a2.345,2.345,0,1,1,0-4.689h6.893v-27.1h-6.893a2.345,2.345,0,1,1,0-4.689h18.476a2.345,2.345,0,0,1,0,4.689h-6.893Z" transform="translate(-372.563 -273.015)" fill="#fff"/>
          <path id="Path_8" data-name="Path 8" d="M661.719,276.064l-16.834,28.745h14.49a2.345,2.345,0,0,1,0,4.689H638.554v-2.955L655.342,277.7H640.9a2.345,2.345,0,1,1,0-4.689h20.82v3.049Z" transform="translate(-402.158 -273.014)" fill="#fff"/>
        </g>
      </g>
      <path id="Path_9" data-name="Path 9" d="M135.275,248.741c-7.157,6.8-9.543,15-9.543,19.811,0,15.826,14.513,27.907,30.475,27.907,5.443,0,13.773-1.88,19.455-6.368H164.618c-4.416,0-8.665.014-12.569.014-9.978-1.59-14.631-6.976-17.208-10.719-2.747-3.316-4.916-8.81-4.483-17.2.278-5.36,1.88-8.965,4.916-13.448Zm-35.246,13.846c0,28.116,21.84,49.635,51.152,49.635,17.539,0,33.222-11.279,40.057-22.024h-8.925c-4.271,6.262-17.973,15.06-30.885,15.1-17.129.058-31.19-8.117-37.264-21.566-1.88-5.64-2.892-7.664-2.892-14.894,0-18.727,12.436-34.7,31.233-34.849a30.619,30.619,0,0,1,8.388,1.156,48.2,48.2,0,0,1,5.928-1.011,35.881,35.881,0,0,1,6.362,0h.144c-6.652-3.9-11.216-6.507-20.967-6.507-15.184,0-26.173,8.676-33.837,22.992,5.219-18.859,21.835-31.956,40.341-32.085,15.443-.108,25.307,5.768,33.4,15.023h9.159c-10.28-13.593-23.357-22.124-42.562-22.124-25.45,0-48.838,21.112-48.838,51.152Z" transform="translate(536.971 71.735)" fill="#fff"/>
    </g>
  </g>
</svg>
